G04 #@! TF.GenerationSoftware,KiCad,Pcbnew,5.1.5-52549c5~84~ubuntu18.04.1*
G04 #@! TF.CreationDate,2020-01-18T20:00:26-07:00*
G04 #@! TF.ProjectId,FeatherWing_KC5,46656174-6865-4725-9769-6e675f4b4335,rev?*
G04 #@! TF.SameCoordinates,Original*
G04 #@! TF.FileFunction,Soldermask,Bot*
G04 #@! TF.FilePolarity,Negative*
%FSLAX46Y46*%
G04 Gerber Fmt 4.6, Leading zero omitted, Abs format (unit mm)*
G04 Created by KiCad (PCBNEW 5.1.5-52549c5~84~ubuntu18.04.1) date 2020-01-18 20:00:26*
%MOMM*%
%LPD*%
G04 APERTURE LIST*
%ADD10C,0.010000*%
%ADD11C,0.100000*%
G04 APERTURE END LIST*
D10*
G36*
X115775029Y-93714146D02*
G01*
X115721913Y-93630808D01*
X115642364Y-93548142D01*
X115543729Y-93471504D01*
X115433355Y-93406250D01*
X115318588Y-93357737D01*
X115206774Y-93331324D01*
X115157047Y-93328066D01*
X115092198Y-93330885D01*
X115046084Y-93344434D01*
X115001859Y-93376356D01*
X114958730Y-93418025D01*
X114907638Y-93477014D01*
X114865318Y-93545712D01*
X114825010Y-93636311D01*
X114798988Y-93706235D01*
X114766429Y-93795748D01*
X114743671Y-93850721D01*
X114727161Y-93876790D01*
X114713345Y-93879587D01*
X114698850Y-93864985D01*
X114639595Y-93767500D01*
X114593396Y-93647356D01*
X114556707Y-93495199D01*
X114554690Y-93484631D01*
X114536758Y-93396166D01*
X114519169Y-93320703D01*
X114504785Y-93270132D01*
X114500439Y-93259275D01*
X114493783Y-93234916D01*
X114513004Y-93224360D01*
X114559684Y-93222233D01*
X114624810Y-93211230D01*
X114715407Y-93180451D01*
X114812613Y-93137566D01*
X114908182Y-93092655D01*
X114974025Y-93065962D01*
X115017648Y-93055562D01*
X115046558Y-93059528D01*
X115065176Y-93072761D01*
X115096460Y-93086732D01*
X115154247Y-93100561D01*
X115194316Y-93106960D01*
X115260105Y-93113556D01*
X115298347Y-93108817D01*
X115323105Y-93089189D01*
X115335770Y-93071224D01*
X115358609Y-93020912D01*
X115385622Y-92937852D01*
X115414582Y-92831141D01*
X115443263Y-92709878D01*
X115469439Y-92583162D01*
X115490883Y-92460091D01*
X115498883Y-92404669D01*
X115510439Y-92313201D01*
X115515199Y-92253702D01*
X115512353Y-92216236D01*
X115501094Y-92190863D01*
X115480613Y-92167648D01*
X115479512Y-92166544D01*
X115447280Y-92127872D01*
X115434534Y-92100400D01*
X115416176Y-92085398D01*
X115372570Y-92079233D01*
X115305688Y-92099246D01*
X115252475Y-92158949D01*
X115213303Y-92257844D01*
X115201690Y-92308061D01*
X115182297Y-92396220D01*
X115159496Y-92485346D01*
X115148301Y-92523733D01*
X115127289Y-92595492D01*
X115110472Y-92660548D01*
X115106809Y-92677191D01*
X115086518Y-92722065D01*
X115060794Y-92735400D01*
X115043501Y-92730211D01*
X115035050Y-92708962D01*
X115034330Y-92663127D01*
X115040233Y-92584180D01*
X115040591Y-92580205D01*
X115054655Y-92425010D01*
X114981432Y-92347372D01*
X114932850Y-92302339D01*
X114890860Y-92274323D01*
X114875467Y-92269733D01*
X114848225Y-92286869D01*
X114810848Y-92331336D01*
X114778994Y-92380858D01*
X114745131Y-92445530D01*
X114725796Y-92502810D01*
X114717078Y-92569558D01*
X114715066Y-92656336D01*
X114714256Y-92739316D01*
X114709611Y-92791016D01*
X114697434Y-92822489D01*
X114674028Y-92844787D01*
X114646075Y-92862632D01*
X114597577Y-92889888D01*
X114564915Y-92904081D01*
X114561409Y-92904654D01*
X114550533Y-92885202D01*
X114546060Y-92832207D01*
X114547670Y-92753920D01*
X114555040Y-92658594D01*
X114567849Y-92554481D01*
X114577384Y-92494804D01*
X114609234Y-92312162D01*
X114531733Y-92239062D01*
X114477818Y-92194604D01*
X114435391Y-92181999D01*
X114392351Y-92202165D01*
X114338748Y-92253716D01*
X114303144Y-92313837D01*
X114271298Y-92411888D01*
X114244242Y-92543556D01*
X114223009Y-92704525D01*
X114217820Y-92759131D01*
X114214899Y-92916069D01*
X114236570Y-93039085D01*
X114282980Y-93128820D01*
X114308646Y-93155662D01*
X114343857Y-93187919D01*
X114348176Y-93199253D01*
X114323199Y-93195881D01*
X114318735Y-93194880D01*
X114261831Y-93203223D01*
X114218193Y-93233982D01*
X114177454Y-93300522D01*
X114165523Y-93397635D01*
X114182393Y-93524882D01*
X114226485Y-93677316D01*
X114296853Y-93859428D01*
X114369508Y-94007994D01*
X114439700Y-94114780D01*
X114439700Y-93222233D01*
X114422278Y-93214489D01*
X114425589Y-93208122D01*
X114450709Y-93205589D01*
X114453812Y-93208122D01*
X114450906Y-93220706D01*
X114439700Y-93222233D01*
X114439700Y-94114780D01*
X114442401Y-94118890D01*
X114450993Y-94129382D01*
X114484998Y-94171440D01*
X114492812Y-94190524D01*
X114475923Y-94195697D01*
X114461906Y-94195900D01*
X114414982Y-94205338D01*
X114353251Y-94228869D01*
X114334812Y-94237751D01*
X114267115Y-94289810D01*
X114234496Y-94354813D01*
X114239700Y-94425045D01*
X114256303Y-94458142D01*
X114305383Y-94500659D01*
X114382317Y-94532447D01*
X114473171Y-94549544D01*
X114564008Y-94547986D01*
X114569403Y-94547173D01*
X114656980Y-94533169D01*
X114591069Y-94608237D01*
X114550821Y-94656705D01*
X114518130Y-94704479D01*
X114489644Y-94759356D01*
X114462014Y-94829135D01*
X114431888Y-94921615D01*
X114395914Y-95044595D01*
X114381246Y-95096557D01*
X114316998Y-95342542D01*
X114271998Y-95554004D01*
X114246329Y-95730285D01*
X114240069Y-95870729D01*
X114253300Y-95974677D01*
X114269006Y-96016233D01*
X114348048Y-96123441D01*
X114457048Y-96204296D01*
X114590738Y-96255926D01*
X114743850Y-96275456D01*
X114744255Y-96275462D01*
X114849460Y-96258214D01*
X114967380Y-96206064D01*
X115093596Y-96122826D01*
X115223693Y-96012310D01*
X115353252Y-95878329D01*
X115477856Y-95724693D01*
X115593089Y-95555214D01*
X115608849Y-95529400D01*
X115659790Y-95446117D01*
X115706896Y-95371518D01*
X115743186Y-95316552D01*
X115755740Y-95299004D01*
X115780916Y-95252107D01*
X115793308Y-95201877D01*
X115791108Y-95162594D01*
X115774786Y-95148400D01*
X115753995Y-95131429D01*
X115723131Y-95088268D01*
X115705759Y-95058762D01*
X115668388Y-95000878D01*
X115629262Y-94970563D01*
X115572459Y-94955495D01*
X115572289Y-94955467D01*
X115513311Y-94948744D01*
X115471529Y-94949063D01*
X115465747Y-94950452D01*
X115446696Y-94972280D01*
X115415343Y-95023028D01*
X115377333Y-95093277D01*
X115362608Y-95122538D01*
X115310492Y-95221912D01*
X115249820Y-95328399D01*
X115193299Y-95419735D01*
X115190769Y-95423566D01*
X115125019Y-95511062D01*
X115036901Y-95612406D01*
X114937236Y-95716468D01*
X114836847Y-95812120D01*
X114746553Y-95888232D01*
X114720071Y-95907685D01*
X114674741Y-95936531D01*
X114651208Y-95940731D01*
X114638337Y-95922238D01*
X114638259Y-95922037D01*
X114631552Y-95872500D01*
X114634177Y-95790326D01*
X114645250Y-95683962D01*
X114663889Y-95561854D01*
X114683117Y-95463591D01*
X114683117Y-94534566D01*
X114672534Y-94523983D01*
X114683117Y-94513400D01*
X114693700Y-94523983D01*
X114683117Y-94534566D01*
X114683117Y-95463591D01*
X114689211Y-95432448D01*
X114689625Y-95430550D01*
X114714191Y-95320692D01*
X114733812Y-95246976D01*
X114752382Y-95204142D01*
X114773791Y-95186929D01*
X114801933Y-95190080D01*
X114840701Y-95208334D01*
X114850296Y-95213454D01*
X114906350Y-95237975D01*
X114949917Y-95247476D01*
X114959334Y-95246176D01*
X114988902Y-95249895D01*
X114995227Y-95259230D01*
X115016117Y-95275272D01*
X115052231Y-95258910D01*
X115097343Y-95214239D01*
X115129024Y-95171237D01*
X115185331Y-95086152D01*
X115103557Y-94925339D01*
X115047467Y-94827264D01*
X114978253Y-94723252D01*
X114910668Y-94635439D01*
X114909151Y-94633671D01*
X114854407Y-94567965D01*
X114825843Y-94527017D01*
X114820337Y-94505034D01*
X114834767Y-94496222D01*
X114835068Y-94496169D01*
X114892180Y-94485185D01*
X114971526Y-94468459D01*
X115063510Y-94448194D01*
X115101602Y-94439535D01*
X115101602Y-94024279D01*
X115080291Y-94020855D01*
X115081233Y-93984896D01*
X115102390Y-93914068D01*
X115129183Y-93839669D01*
X115164364Y-93755805D01*
X115196410Y-93710947D01*
X115230915Y-93702678D01*
X115273474Y-93728578D01*
X115307935Y-93762410D01*
X115333774Y-93794443D01*
X115339791Y-93822241D01*
X115322204Y-93853491D01*
X115277228Y-93895879D01*
X115219119Y-93942868D01*
X115147199Y-93997505D01*
X115101602Y-94024279D01*
X115101602Y-94439535D01*
X115158540Y-94426591D01*
X115247021Y-94405851D01*
X115319360Y-94388175D01*
X115365962Y-94375765D01*
X115377803Y-94371633D01*
X115388352Y-94344727D01*
X115387349Y-94299443D01*
X115385716Y-94265024D01*
X115395613Y-94233852D01*
X115422428Y-94199556D01*
X115471551Y-94155766D01*
X115548369Y-94096110D01*
X115578343Y-94073627D01*
X115681571Y-93985809D01*
X115753282Y-93901353D01*
X115790089Y-93824666D01*
X115794367Y-93792797D01*
X115775029Y-93714146D01*
G37*
X115775029Y-93714146D02*
X115721913Y-93630808D01*
X115642364Y-93548142D01*
X115543729Y-93471504D01*
X115433355Y-93406250D01*
X115318588Y-93357737D01*
X115206774Y-93331324D01*
X115157047Y-93328066D01*
X115092198Y-93330885D01*
X115046084Y-93344434D01*
X115001859Y-93376356D01*
X114958730Y-93418025D01*
X114907638Y-93477014D01*
X114865318Y-93545712D01*
X114825010Y-93636311D01*
X114798988Y-93706235D01*
X114766429Y-93795748D01*
X114743671Y-93850721D01*
X114727161Y-93876790D01*
X114713345Y-93879587D01*
X114698850Y-93864985D01*
X114639595Y-93767500D01*
X114593396Y-93647356D01*
X114556707Y-93495199D01*
X114554690Y-93484631D01*
X114536758Y-93396166D01*
X114519169Y-93320703D01*
X114504785Y-93270132D01*
X114500439Y-93259275D01*
X114493783Y-93234916D01*
X114513004Y-93224360D01*
X114559684Y-93222233D01*
X114624810Y-93211230D01*
X114715407Y-93180451D01*
X114812613Y-93137566D01*
X114908182Y-93092655D01*
X114974025Y-93065962D01*
X115017648Y-93055562D01*
X115046558Y-93059528D01*
X115065176Y-93072761D01*
X115096460Y-93086732D01*
X115154247Y-93100561D01*
X115194316Y-93106960D01*
X115260105Y-93113556D01*
X115298347Y-93108817D01*
X115323105Y-93089189D01*
X115335770Y-93071224D01*
X115358609Y-93020912D01*
X115385622Y-92937852D01*
X115414582Y-92831141D01*
X115443263Y-92709878D01*
X115469439Y-92583162D01*
X115490883Y-92460091D01*
X115498883Y-92404669D01*
X115510439Y-92313201D01*
X115515199Y-92253702D01*
X115512353Y-92216236D01*
X115501094Y-92190863D01*
X115480613Y-92167648D01*
X115479512Y-92166544D01*
X115447280Y-92127872D01*
X115434534Y-92100400D01*
X115416176Y-92085398D01*
X115372570Y-92079233D01*
X115305688Y-92099246D01*
X115252475Y-92158949D01*
X115213303Y-92257844D01*
X115201690Y-92308061D01*
X115182297Y-92396220D01*
X115159496Y-92485346D01*
X115148301Y-92523733D01*
X115127289Y-92595492D01*
X115110472Y-92660548D01*
X115106809Y-92677191D01*
X115086518Y-92722065D01*
X115060794Y-92735400D01*
X115043501Y-92730211D01*
X115035050Y-92708962D01*
X115034330Y-92663127D01*
X115040233Y-92584180D01*
X115040591Y-92580205D01*
X115054655Y-92425010D01*
X114981432Y-92347372D01*
X114932850Y-92302339D01*
X114890860Y-92274323D01*
X114875467Y-92269733D01*
X114848225Y-92286869D01*
X114810848Y-92331336D01*
X114778994Y-92380858D01*
X114745131Y-92445530D01*
X114725796Y-92502810D01*
X114717078Y-92569558D01*
X114715066Y-92656336D01*
X114714256Y-92739316D01*
X114709611Y-92791016D01*
X114697434Y-92822489D01*
X114674028Y-92844787D01*
X114646075Y-92862632D01*
X114597577Y-92889888D01*
X114564915Y-92904081D01*
X114561409Y-92904654D01*
X114550533Y-92885202D01*
X114546060Y-92832207D01*
X114547670Y-92753920D01*
X114555040Y-92658594D01*
X114567849Y-92554481D01*
X114577384Y-92494804D01*
X114609234Y-92312162D01*
X114531733Y-92239062D01*
X114477818Y-92194604D01*
X114435391Y-92181999D01*
X114392351Y-92202165D01*
X114338748Y-92253716D01*
X114303144Y-92313837D01*
X114271298Y-92411888D01*
X114244242Y-92543556D01*
X114223009Y-92704525D01*
X114217820Y-92759131D01*
X114214899Y-92916069D01*
X114236570Y-93039085D01*
X114282980Y-93128820D01*
X114308646Y-93155662D01*
X114343857Y-93187919D01*
X114348176Y-93199253D01*
X114323199Y-93195881D01*
X114318735Y-93194880D01*
X114261831Y-93203223D01*
X114218193Y-93233982D01*
X114177454Y-93300522D01*
X114165523Y-93397635D01*
X114182393Y-93524882D01*
X114226485Y-93677316D01*
X114296853Y-93859428D01*
X114369508Y-94007994D01*
X114439700Y-94114780D01*
X114439700Y-93222233D01*
X114422278Y-93214489D01*
X114425589Y-93208122D01*
X114450709Y-93205589D01*
X114453812Y-93208122D01*
X114450906Y-93220706D01*
X114439700Y-93222233D01*
X114439700Y-94114780D01*
X114442401Y-94118890D01*
X114450993Y-94129382D01*
X114484998Y-94171440D01*
X114492812Y-94190524D01*
X114475923Y-94195697D01*
X114461906Y-94195900D01*
X114414982Y-94205338D01*
X114353251Y-94228869D01*
X114334812Y-94237751D01*
X114267115Y-94289810D01*
X114234496Y-94354813D01*
X114239700Y-94425045D01*
X114256303Y-94458142D01*
X114305383Y-94500659D01*
X114382317Y-94532447D01*
X114473171Y-94549544D01*
X114564008Y-94547986D01*
X114569403Y-94547173D01*
X114656980Y-94533169D01*
X114591069Y-94608237D01*
X114550821Y-94656705D01*
X114518130Y-94704479D01*
X114489644Y-94759356D01*
X114462014Y-94829135D01*
X114431888Y-94921615D01*
X114395914Y-95044595D01*
X114381246Y-95096557D01*
X114316998Y-95342542D01*
X114271998Y-95554004D01*
X114246329Y-95730285D01*
X114240069Y-95870729D01*
X114253300Y-95974677D01*
X114269006Y-96016233D01*
X114348048Y-96123441D01*
X114457048Y-96204296D01*
X114590738Y-96255926D01*
X114743850Y-96275456D01*
X114744255Y-96275462D01*
X114849460Y-96258214D01*
X114967380Y-96206064D01*
X115093596Y-96122826D01*
X115223693Y-96012310D01*
X115353252Y-95878329D01*
X115477856Y-95724693D01*
X115593089Y-95555214D01*
X115608849Y-95529400D01*
X115659790Y-95446117D01*
X115706896Y-95371518D01*
X115743186Y-95316552D01*
X115755740Y-95299004D01*
X115780916Y-95252107D01*
X115793308Y-95201877D01*
X115791108Y-95162594D01*
X115774786Y-95148400D01*
X115753995Y-95131429D01*
X115723131Y-95088268D01*
X115705759Y-95058762D01*
X115668388Y-95000878D01*
X115629262Y-94970563D01*
X115572459Y-94955495D01*
X115572289Y-94955467D01*
X115513311Y-94948744D01*
X115471529Y-94949063D01*
X115465747Y-94950452D01*
X115446696Y-94972280D01*
X115415343Y-95023028D01*
X115377333Y-95093277D01*
X115362608Y-95122538D01*
X115310492Y-95221912D01*
X115249820Y-95328399D01*
X115193299Y-95419735D01*
X115190769Y-95423566D01*
X115125019Y-95511062D01*
X115036901Y-95612406D01*
X114937236Y-95716468D01*
X114836847Y-95812120D01*
X114746553Y-95888232D01*
X114720071Y-95907685D01*
X114674741Y-95936531D01*
X114651208Y-95940731D01*
X114638337Y-95922238D01*
X114638259Y-95922037D01*
X114631552Y-95872500D01*
X114634177Y-95790326D01*
X114645250Y-95683962D01*
X114663889Y-95561854D01*
X114683117Y-95463591D01*
X114683117Y-94534566D01*
X114672534Y-94523983D01*
X114683117Y-94513400D01*
X114693700Y-94523983D01*
X114683117Y-94534566D01*
X114683117Y-95463591D01*
X114689211Y-95432448D01*
X114689625Y-95430550D01*
X114714191Y-95320692D01*
X114733812Y-95246976D01*
X114752382Y-95204142D01*
X114773791Y-95186929D01*
X114801933Y-95190080D01*
X114840701Y-95208334D01*
X114850296Y-95213454D01*
X114906350Y-95237975D01*
X114949917Y-95247476D01*
X114959334Y-95246176D01*
X114988902Y-95249895D01*
X114995227Y-95259230D01*
X115016117Y-95275272D01*
X115052231Y-95258910D01*
X115097343Y-95214239D01*
X115129024Y-95171237D01*
X115185331Y-95086152D01*
X115103557Y-94925339D01*
X115047467Y-94827264D01*
X114978253Y-94723252D01*
X114910668Y-94635439D01*
X114909151Y-94633671D01*
X114854407Y-94567965D01*
X114825843Y-94527017D01*
X114820337Y-94505034D01*
X114834767Y-94496222D01*
X114835068Y-94496169D01*
X114892180Y-94485185D01*
X114971526Y-94468459D01*
X115063510Y-94448194D01*
X115101602Y-94439535D01*
X115101602Y-94024279D01*
X115080291Y-94020855D01*
X115081233Y-93984896D01*
X115102390Y-93914068D01*
X115129183Y-93839669D01*
X115164364Y-93755805D01*
X115196410Y-93710947D01*
X115230915Y-93702678D01*
X115273474Y-93728578D01*
X115307935Y-93762410D01*
X115333774Y-93794443D01*
X115339791Y-93822241D01*
X115322204Y-93853491D01*
X115277228Y-93895879D01*
X115219119Y-93942868D01*
X115147199Y-93997505D01*
X115101602Y-94024279D01*
X115101602Y-94439535D01*
X115158540Y-94426591D01*
X115247021Y-94405851D01*
X115319360Y-94388175D01*
X115365962Y-94375765D01*
X115377803Y-94371633D01*
X115388352Y-94344727D01*
X115387349Y-94299443D01*
X115385716Y-94265024D01*
X115395613Y-94233852D01*
X115422428Y-94199556D01*
X115471551Y-94155766D01*
X115548369Y-94096110D01*
X115578343Y-94073627D01*
X115681571Y-93985809D01*
X115753282Y-93901353D01*
X115790089Y-93824666D01*
X115794367Y-93792797D01*
X115775029Y-93714146D01*
G36*
X115526790Y-91192927D02*
G01*
X115492264Y-91142111D01*
X115468750Y-91114414D01*
X115423513Y-91071281D01*
X115382044Y-91051022D01*
X115337436Y-91055506D01*
X115282780Y-91086601D01*
X115211170Y-91146176D01*
X115153794Y-91199596D01*
X115046272Y-91289948D01*
X114900847Y-91392970D01*
X114719570Y-91507339D01*
X114504492Y-91631733D01*
X114365617Y-91707659D01*
X114260432Y-91769068D01*
X114193587Y-91819673D01*
X114166026Y-91858728D01*
X114165362Y-91866320D01*
X114173601Y-91892049D01*
X114192480Y-91938472D01*
X114194081Y-91942163D01*
X114238461Y-92001378D01*
X114304123Y-92044110D01*
X114364465Y-92058066D01*
X114394309Y-92048833D01*
X114452298Y-92023899D01*
X114529186Y-91987417D01*
X114591010Y-91956353D01*
X114788950Y-91854640D01*
X114858516Y-91901848D01*
X114916905Y-91933331D01*
X114995623Y-91960520D01*
X115101144Y-91985101D01*
X115239941Y-92008761D01*
X115305383Y-92018227D01*
X115387277Y-92028509D01*
X115438806Y-92030554D01*
X115471330Y-92023283D01*
X115496207Y-92005614D01*
X115502527Y-91999481D01*
X115525470Y-91973686D01*
X115531487Y-91949420D01*
X115519924Y-91912802D01*
X115496035Y-91862117D01*
X115463394Y-91803170D01*
X115426904Y-91762571D01*
X115376357Y-91734003D01*
X115301549Y-91711152D01*
X115224771Y-91694248D01*
X115089092Y-91666483D01*
X115195690Y-91591941D01*
X115319049Y-91499247D01*
X115418821Y-91411090D01*
X115491166Y-91331512D01*
X115532246Y-91264555D01*
X115540367Y-91229035D01*
X115526790Y-91192927D01*
G37*
X115526790Y-91192927D02*
X115492264Y-91142111D01*
X115468750Y-91114414D01*
X115423513Y-91071281D01*
X115382044Y-91051022D01*
X115337436Y-91055506D01*
X115282780Y-91086601D01*
X115211170Y-91146176D01*
X115153794Y-91199596D01*
X115046272Y-91289948D01*
X114900847Y-91392970D01*
X114719570Y-91507339D01*
X114504492Y-91631733D01*
X114365617Y-91707659D01*
X114260432Y-91769068D01*
X114193587Y-91819673D01*
X114166026Y-91858728D01*
X114165362Y-91866320D01*
X114173601Y-91892049D01*
X114192480Y-91938472D01*
X114194081Y-91942163D01*
X114238461Y-92001378D01*
X114304123Y-92044110D01*
X114364465Y-92058066D01*
X114394309Y-92048833D01*
X114452298Y-92023899D01*
X114529186Y-91987417D01*
X114591010Y-91956353D01*
X114788950Y-91854640D01*
X114858516Y-91901848D01*
X114916905Y-91933331D01*
X114995623Y-91960520D01*
X115101144Y-91985101D01*
X115239941Y-92008761D01*
X115305383Y-92018227D01*
X115387277Y-92028509D01*
X115438806Y-92030554D01*
X115471330Y-92023283D01*
X115496207Y-92005614D01*
X115502527Y-91999481D01*
X115525470Y-91973686D01*
X115531487Y-91949420D01*
X115519924Y-91912802D01*
X115496035Y-91862117D01*
X115463394Y-91803170D01*
X115426904Y-91762571D01*
X115376357Y-91734003D01*
X115301549Y-91711152D01*
X115224771Y-91694248D01*
X115089092Y-91666483D01*
X115195690Y-91591941D01*
X115319049Y-91499247D01*
X115418821Y-91411090D01*
X115491166Y-91331512D01*
X115532246Y-91264555D01*
X115540367Y-91229035D01*
X115526790Y-91192927D01*
G36*
X115507063Y-87924240D02*
G01*
X115476852Y-87870053D01*
X115437867Y-87816136D01*
X115399409Y-87775477D01*
X115372566Y-87760944D01*
X115324702Y-87755288D01*
X115294094Y-87748529D01*
X115271672Y-87747519D01*
X115249156Y-87761290D01*
X115221763Y-87795750D01*
X115184711Y-87856809D01*
X115138208Y-87941136D01*
X115001767Y-88163940D01*
X114853671Y-88348304D01*
X114697510Y-88492488D01*
X114577284Y-88587035D01*
X114566700Y-88465176D01*
X114563018Y-88397660D01*
X114564439Y-88349045D01*
X114568872Y-88332733D01*
X114578771Y-88307294D01*
X114589938Y-88254061D01*
X114595669Y-88216316D01*
X114610220Y-88131058D01*
X114629717Y-88045237D01*
X114636426Y-88021130D01*
X114663141Y-87931776D01*
X114723174Y-87962921D01*
X114773844Y-87984980D01*
X114810773Y-87994066D01*
X114841702Y-88009630D01*
X114846407Y-88018268D01*
X114866695Y-88031909D01*
X114901453Y-88016581D01*
X114941744Y-87978590D01*
X114978032Y-87925366D01*
X115016601Y-87853747D01*
X114929465Y-87694980D01*
X114882363Y-87614669D01*
X114835203Y-87543366D01*
X114796553Y-87493818D01*
X114789181Y-87486283D01*
X114753218Y-87446353D01*
X114736480Y-87415645D01*
X114736321Y-87413585D01*
X114754643Y-87396046D01*
X114799534Y-87369558D01*
X114799534Y-86997805D01*
X114799534Y-86915584D01*
X114802518Y-86853772D01*
X114809868Y-86807260D01*
X114811573Y-86801989D01*
X114833966Y-86784732D01*
X114883623Y-86786170D01*
X114964733Y-86806718D01*
X115011062Y-86821784D01*
X115021333Y-86838598D01*
X114994685Y-86870161D01*
X114930361Y-86917188D01*
X114868325Y-86956182D01*
X114799534Y-86997805D01*
X114799534Y-87369558D01*
X114803784Y-87367050D01*
X114875402Y-87331208D01*
X114930682Y-87306150D01*
X115072067Y-87241772D01*
X115176703Y-87187440D01*
X115248278Y-87140658D01*
X115290476Y-87098931D01*
X115306983Y-87059762D01*
X115307534Y-87050988D01*
X115326146Y-86992918D01*
X115378007Y-86926261D01*
X115457152Y-86858377D01*
X115472250Y-86847685D01*
X115500339Y-86824941D01*
X115510376Y-86799410D01*
X115504625Y-86756818D01*
X115493544Y-86713413D01*
X115464583Y-86636531D01*
X115421022Y-86587730D01*
X115352693Y-86558804D01*
X115286367Y-86546226D01*
X115215745Y-86534550D01*
X115124369Y-86517249D01*
X115037659Y-86499269D01*
X114955879Y-86479348D01*
X114908336Y-86461392D01*
X114887309Y-86441758D01*
X114884200Y-86426818D01*
X114873448Y-86381230D01*
X114846939Y-86325906D01*
X114813298Y-86274902D01*
X114781148Y-86242272D01*
X114767886Y-86237233D01*
X114738420Y-86252048D01*
X114695741Y-86289487D01*
X114675621Y-86311034D01*
X114631764Y-86356301D01*
X114594441Y-86375339D01*
X114544640Y-86375678D01*
X114519970Y-86372669D01*
X114421649Y-86379683D01*
X114332399Y-86425252D01*
X114258521Y-86505690D01*
X114240080Y-86536470D01*
X114214915Y-86591043D01*
X114211873Y-86632863D01*
X114227230Y-86679794D01*
X114253513Y-86723907D01*
X114279754Y-86737820D01*
X114281987Y-86737181D01*
X114314729Y-86743456D01*
X114345742Y-86767827D01*
X114384630Y-86802326D01*
X114412894Y-86799571D01*
X114440577Y-86757795D01*
X114444122Y-86750525D01*
X114474874Y-86706669D01*
X114504856Y-86691882D01*
X114524305Y-86706802D01*
X114524914Y-86745233D01*
X114519285Y-86795529D01*
X114515404Y-86869090D01*
X114514331Y-86924400D01*
X114516236Y-86997771D01*
X114525060Y-87040628D01*
X114544267Y-87064646D01*
X114558395Y-87073016D01*
X114585178Y-87095354D01*
X114576526Y-87119589D01*
X114530442Y-87147483D01*
X114444931Y-87180800D01*
X114430950Y-87185575D01*
X114358258Y-87214172D01*
X114296929Y-87245314D01*
X114270375Y-87263809D01*
X114236452Y-87317216D01*
X114229833Y-87380809D01*
X114246951Y-87442040D01*
X114284239Y-87488360D01*
X114338130Y-87507222D01*
X114339576Y-87507233D01*
X114377183Y-87518865D01*
X114386819Y-87528457D01*
X114415040Y-87538153D01*
X114438880Y-87528839D01*
X114462252Y-87518106D01*
X114466585Y-87526347D01*
X114451990Y-87561348D01*
X114439718Y-87586990D01*
X114417349Y-87643342D01*
X114388285Y-87730795D01*
X114355433Y-87839220D01*
X114321698Y-87958485D01*
X114289984Y-88078463D01*
X114263198Y-88189023D01*
X114251158Y-88244390D01*
X114228123Y-88415148D01*
X114235508Y-88556847D01*
X114273845Y-88670407D01*
X114343667Y-88756749D01*
X114445505Y-88816795D01*
X114579893Y-88851465D01*
X114603879Y-88854652D01*
X114709430Y-88867153D01*
X114665520Y-88933318D01*
X114632966Y-88975012D01*
X114598222Y-88992297D01*
X114543160Y-88993010D01*
X114529771Y-88991990D01*
X114455571Y-88993363D01*
X114387257Y-89006191D01*
X114374767Y-89010660D01*
X114302949Y-89057964D01*
X114249985Y-89126297D01*
X114221669Y-89203850D01*
X114223798Y-89278815D01*
X114232236Y-89301108D01*
X114263177Y-89337685D01*
X114291488Y-89348733D01*
X114332088Y-89363488D01*
X114365165Y-89390567D01*
X114404599Y-89419720D01*
X114431062Y-89410277D01*
X114439700Y-89369395D01*
X114453332Y-89334721D01*
X114484034Y-89305064D01*
X114516518Y-89292618D01*
X114529699Y-89297621D01*
X114532407Y-89323297D01*
X114525382Y-89373148D01*
X114522404Y-89386835D01*
X114504138Y-89503344D01*
X114507065Y-89598438D01*
X114530626Y-89665606D01*
X114548074Y-89685200D01*
X114592947Y-89721536D01*
X114539455Y-89756585D01*
X114485070Y-89783716D01*
X114413628Y-89809252D01*
X114389692Y-89815875D01*
X114302481Y-89853221D01*
X114248394Y-89910855D01*
X114230933Y-89984687D01*
X114232037Y-90000146D01*
X114255437Y-90052453D01*
X114304109Y-90100556D01*
X114363622Y-90134058D01*
X114419543Y-90142566D01*
X114427392Y-90140855D01*
X114446405Y-90134359D01*
X114476479Y-90122285D01*
X114521547Y-90102863D01*
X114585538Y-90074321D01*
X114672384Y-90034890D01*
X114786015Y-89982799D01*
X114799534Y-89976569D01*
X114799534Y-89605442D01*
X114799534Y-89510087D01*
X114803630Y-89450010D01*
X114813963Y-89409683D01*
X114819615Y-89402321D01*
X114850589Y-89399760D01*
X114906084Y-89407472D01*
X114936851Y-89414374D01*
X114994065Y-89430460D01*
X115016781Y-89444315D01*
X115011947Y-89462332D01*
X115001939Y-89474272D01*
X114963831Y-89506443D01*
X114906661Y-89544696D01*
X114884703Y-89557574D01*
X114799534Y-89605442D01*
X114799534Y-89976569D01*
X114930362Y-89916277D01*
X115099094Y-89838300D01*
X115196451Y-89789846D01*
X115259508Y-89748730D01*
X115294358Y-89709618D01*
X115307092Y-89667175D01*
X115307534Y-89655779D01*
X115326863Y-89605350D01*
X115385016Y-89539262D01*
X115413315Y-89513481D01*
X115519096Y-89420947D01*
X115482106Y-89305465D01*
X115459655Y-89240088D01*
X115437854Y-89203736D01*
X115404633Y-89185059D01*
X115347920Y-89172704D01*
X115339284Y-89171165D01*
X115191367Y-89144401D01*
X115079999Y-89122752D01*
X114999936Y-89104598D01*
X114945932Y-89088317D01*
X114912744Y-89072289D01*
X114895126Y-89054892D01*
X114887834Y-89034506D01*
X114887363Y-89031493D01*
X114869521Y-88975945D01*
X114839738Y-88922410D01*
X114809360Y-88873502D01*
X114805741Y-88838823D01*
X114832670Y-88807402D01*
X114892729Y-88768973D01*
X114948543Y-88728819D01*
X115020111Y-88666930D01*
X115095702Y-88593764D01*
X115130854Y-88556746D01*
X115192339Y-88484554D01*
X115259925Y-88396509D01*
X115328655Y-88300155D01*
X115393573Y-88203034D01*
X115449722Y-88112693D01*
X115492144Y-88036673D01*
X115515884Y-87982520D01*
X115519200Y-87965709D01*
X115507063Y-87924240D01*
G37*
X115507063Y-87924240D02*
X115476852Y-87870053D01*
X115437867Y-87816136D01*
X115399409Y-87775477D01*
X115372566Y-87760944D01*
X115324702Y-87755288D01*
X115294094Y-87748529D01*
X115271672Y-87747519D01*
X115249156Y-87761290D01*
X115221763Y-87795750D01*
X115184711Y-87856809D01*
X115138208Y-87941136D01*
X115001767Y-88163940D01*
X114853671Y-88348304D01*
X114697510Y-88492488D01*
X114577284Y-88587035D01*
X114566700Y-88465176D01*
X114563018Y-88397660D01*
X114564439Y-88349045D01*
X114568872Y-88332733D01*
X114578771Y-88307294D01*
X114589938Y-88254061D01*
X114595669Y-88216316D01*
X114610220Y-88131058D01*
X114629717Y-88045237D01*
X114636426Y-88021130D01*
X114663141Y-87931776D01*
X114723174Y-87962921D01*
X114773844Y-87984980D01*
X114810773Y-87994066D01*
X114841702Y-88009630D01*
X114846407Y-88018268D01*
X114866695Y-88031909D01*
X114901453Y-88016581D01*
X114941744Y-87978590D01*
X114978032Y-87925366D01*
X115016601Y-87853747D01*
X114929465Y-87694980D01*
X114882363Y-87614669D01*
X114835203Y-87543366D01*
X114796553Y-87493818D01*
X114789181Y-87486283D01*
X114753218Y-87446353D01*
X114736480Y-87415645D01*
X114736321Y-87413585D01*
X114754643Y-87396046D01*
X114799534Y-87369558D01*
X114799534Y-86997805D01*
X114799534Y-86915584D01*
X114802518Y-86853772D01*
X114809868Y-86807260D01*
X114811573Y-86801989D01*
X114833966Y-86784732D01*
X114883623Y-86786170D01*
X114964733Y-86806718D01*
X115011062Y-86821784D01*
X115021333Y-86838598D01*
X114994685Y-86870161D01*
X114930361Y-86917188D01*
X114868325Y-86956182D01*
X114799534Y-86997805D01*
X114799534Y-87369558D01*
X114803784Y-87367050D01*
X114875402Y-87331208D01*
X114930682Y-87306150D01*
X115072067Y-87241772D01*
X115176703Y-87187440D01*
X115248278Y-87140658D01*
X115290476Y-87098931D01*
X115306983Y-87059762D01*
X115307534Y-87050988D01*
X115326146Y-86992918D01*
X115378007Y-86926261D01*
X115457152Y-86858377D01*
X115472250Y-86847685D01*
X115500339Y-86824941D01*
X115510376Y-86799410D01*
X115504625Y-86756818D01*
X115493544Y-86713413D01*
X115464583Y-86636531D01*
X115421022Y-86587730D01*
X115352693Y-86558804D01*
X115286367Y-86546226D01*
X115215745Y-86534550D01*
X115124369Y-86517249D01*
X115037659Y-86499269D01*
X114955879Y-86479348D01*
X114908336Y-86461392D01*
X114887309Y-86441758D01*
X114884200Y-86426818D01*
X114873448Y-86381230D01*
X114846939Y-86325906D01*
X114813298Y-86274902D01*
X114781148Y-86242272D01*
X114767886Y-86237233D01*
X114738420Y-86252048D01*
X114695741Y-86289487D01*
X114675621Y-86311034D01*
X114631764Y-86356301D01*
X114594441Y-86375339D01*
X114544640Y-86375678D01*
X114519970Y-86372669D01*
X114421649Y-86379683D01*
X114332399Y-86425252D01*
X114258521Y-86505690D01*
X114240080Y-86536470D01*
X114214915Y-86591043D01*
X114211873Y-86632863D01*
X114227230Y-86679794D01*
X114253513Y-86723907D01*
X114279754Y-86737820D01*
X114281987Y-86737181D01*
X114314729Y-86743456D01*
X114345742Y-86767827D01*
X114384630Y-86802326D01*
X114412894Y-86799571D01*
X114440577Y-86757795D01*
X114444122Y-86750525D01*
X114474874Y-86706669D01*
X114504856Y-86691882D01*
X114524305Y-86706802D01*
X114524914Y-86745233D01*
X114519285Y-86795529D01*
X114515404Y-86869090D01*
X114514331Y-86924400D01*
X114516236Y-86997771D01*
X114525060Y-87040628D01*
X114544267Y-87064646D01*
X114558395Y-87073016D01*
X114585178Y-87095354D01*
X114576526Y-87119589D01*
X114530442Y-87147483D01*
X114444931Y-87180800D01*
X114430950Y-87185575D01*
X114358258Y-87214172D01*
X114296929Y-87245314D01*
X114270375Y-87263809D01*
X114236452Y-87317216D01*
X114229833Y-87380809D01*
X114246951Y-87442040D01*
X114284239Y-87488360D01*
X114338130Y-87507222D01*
X114339576Y-87507233D01*
X114377183Y-87518865D01*
X114386819Y-87528457D01*
X114415040Y-87538153D01*
X114438880Y-87528839D01*
X114462252Y-87518106D01*
X114466585Y-87526347D01*
X114451990Y-87561348D01*
X114439718Y-87586990D01*
X114417349Y-87643342D01*
X114388285Y-87730795D01*
X114355433Y-87839220D01*
X114321698Y-87958485D01*
X114289984Y-88078463D01*
X114263198Y-88189023D01*
X114251158Y-88244390D01*
X114228123Y-88415148D01*
X114235508Y-88556847D01*
X114273845Y-88670407D01*
X114343667Y-88756749D01*
X114445505Y-88816795D01*
X114579893Y-88851465D01*
X114603879Y-88854652D01*
X114709430Y-88867153D01*
X114665520Y-88933318D01*
X114632966Y-88975012D01*
X114598222Y-88992297D01*
X114543160Y-88993010D01*
X114529771Y-88991990D01*
X114455571Y-88993363D01*
X114387257Y-89006191D01*
X114374767Y-89010660D01*
X114302949Y-89057964D01*
X114249985Y-89126297D01*
X114221669Y-89203850D01*
X114223798Y-89278815D01*
X114232236Y-89301108D01*
X114263177Y-89337685D01*
X114291488Y-89348733D01*
X114332088Y-89363488D01*
X114365165Y-89390567D01*
X114404599Y-89419720D01*
X114431062Y-89410277D01*
X114439700Y-89369395D01*
X114453332Y-89334721D01*
X114484034Y-89305064D01*
X114516518Y-89292618D01*
X114529699Y-89297621D01*
X114532407Y-89323297D01*
X114525382Y-89373148D01*
X114522404Y-89386835D01*
X114504138Y-89503344D01*
X114507065Y-89598438D01*
X114530626Y-89665606D01*
X114548074Y-89685200D01*
X114592947Y-89721536D01*
X114539455Y-89756585D01*
X114485070Y-89783716D01*
X114413628Y-89809252D01*
X114389692Y-89815875D01*
X114302481Y-89853221D01*
X114248394Y-89910855D01*
X114230933Y-89984687D01*
X114232037Y-90000146D01*
X114255437Y-90052453D01*
X114304109Y-90100556D01*
X114363622Y-90134058D01*
X114419543Y-90142566D01*
X114427392Y-90140855D01*
X114446405Y-90134359D01*
X114476479Y-90122285D01*
X114521547Y-90102863D01*
X114585538Y-90074321D01*
X114672384Y-90034890D01*
X114786015Y-89982799D01*
X114799534Y-89976569D01*
X114799534Y-89605442D01*
X114799534Y-89510087D01*
X114803630Y-89450010D01*
X114813963Y-89409683D01*
X114819615Y-89402321D01*
X114850589Y-89399760D01*
X114906084Y-89407472D01*
X114936851Y-89414374D01*
X114994065Y-89430460D01*
X115016781Y-89444315D01*
X115011947Y-89462332D01*
X115001939Y-89474272D01*
X114963831Y-89506443D01*
X114906661Y-89544696D01*
X114884703Y-89557574D01*
X114799534Y-89605442D01*
X114799534Y-89976569D01*
X114930362Y-89916277D01*
X115099094Y-89838300D01*
X115196451Y-89789846D01*
X115259508Y-89748730D01*
X115294358Y-89709618D01*
X115307092Y-89667175D01*
X115307534Y-89655779D01*
X115326863Y-89605350D01*
X115385016Y-89539262D01*
X115413315Y-89513481D01*
X115519096Y-89420947D01*
X115482106Y-89305465D01*
X115459655Y-89240088D01*
X115437854Y-89203736D01*
X115404633Y-89185059D01*
X115347920Y-89172704D01*
X115339284Y-89171165D01*
X115191367Y-89144401D01*
X115079999Y-89122752D01*
X114999936Y-89104598D01*
X114945932Y-89088317D01*
X114912744Y-89072289D01*
X114895126Y-89054892D01*
X114887834Y-89034506D01*
X114887363Y-89031493D01*
X114869521Y-88975945D01*
X114839738Y-88922410D01*
X114809360Y-88873502D01*
X114805741Y-88838823D01*
X114832670Y-88807402D01*
X114892729Y-88768973D01*
X114948543Y-88728819D01*
X115020111Y-88666930D01*
X115095702Y-88593764D01*
X115130854Y-88556746D01*
X115192339Y-88484554D01*
X115259925Y-88396509D01*
X115328655Y-88300155D01*
X115393573Y-88203034D01*
X115449722Y-88112693D01*
X115492144Y-88036673D01*
X115515884Y-87982520D01*
X115519200Y-87965709D01*
X115507063Y-87924240D01*
G36*
X115527334Y-90256572D02*
G01*
X115498706Y-90213163D01*
X115488326Y-90200301D01*
X115453898Y-90154992D01*
X115435494Y-90122215D01*
X115434534Y-90117533D01*
X115418068Y-90095146D01*
X115377795Y-90065272D01*
X115371477Y-90061445D01*
X115320874Y-90038338D01*
X115270782Y-90036632D01*
X115223310Y-90047114D01*
X115170634Y-90064956D01*
X115140754Y-90082171D01*
X115138200Y-90086972D01*
X115118761Y-90097203D01*
X115066763Y-90110233D01*
X114991686Y-90123879D01*
X114952992Y-90129626D01*
X114741532Y-90170265D01*
X114567225Y-90228185D01*
X114430651Y-90303127D01*
X114332386Y-90394830D01*
X114316885Y-90415881D01*
X114277568Y-90490034D01*
X114271027Y-90556822D01*
X114298972Y-90624130D01*
X114363114Y-90699842D01*
X114382607Y-90718744D01*
X114444720Y-90773581D01*
X114501261Y-90816789D01*
X114540351Y-90839322D01*
X114541357Y-90839657D01*
X114577570Y-90856602D01*
X114587704Y-90868868D01*
X114569930Y-90889025D01*
X114525262Y-90917919D01*
X114466221Y-90948846D01*
X114405330Y-90975101D01*
X114365617Y-90987781D01*
X114295897Y-91018854D01*
X114246319Y-91067916D01*
X114228034Y-91122568D01*
X114243105Y-91167919D01*
X114265075Y-91195070D01*
X114328170Y-91239002D01*
X114407398Y-91279025D01*
X114485667Y-91307581D01*
X114541394Y-91317233D01*
X114578092Y-91308162D01*
X114646543Y-91282670D01*
X114740671Y-91243335D01*
X114854400Y-91192740D01*
X114981654Y-91133464D01*
X115039810Y-91105566D01*
X115165718Y-91045059D01*
X115279278Y-90991295D01*
X115374838Y-90946885D01*
X115446744Y-90914440D01*
X115489344Y-90896570D01*
X115498190Y-90893900D01*
X115516928Y-90882096D01*
X115511552Y-90844165D01*
X115481465Y-90776325D01*
X115478927Y-90771348D01*
X115411372Y-90670360D01*
X115332125Y-90609760D01*
X115239487Y-90588799D01*
X115131764Y-90606729D01*
X115117034Y-90611710D01*
X115064727Y-90623781D01*
X114992085Y-90632422D01*
X114909681Y-90637449D01*
X114828088Y-90638681D01*
X114757877Y-90635933D01*
X114709621Y-90629023D01*
X114693700Y-90619033D01*
X114712916Y-90585777D01*
X114764821Y-90547155D01*
X114840799Y-90507081D01*
X114932237Y-90469472D01*
X115030520Y-90438245D01*
X115127034Y-90417315D01*
X115142300Y-90415108D01*
X115214326Y-90401598D01*
X115297765Y-90380074D01*
X115382110Y-90354042D01*
X115456857Y-90327009D01*
X115511501Y-90302483D01*
X115535535Y-90283972D01*
X115535594Y-90283803D01*
X115527334Y-90256572D01*
G37*
X115527334Y-90256572D02*
X115498706Y-90213163D01*
X115488326Y-90200301D01*
X115453898Y-90154992D01*
X115435494Y-90122215D01*
X115434534Y-90117533D01*
X115418068Y-90095146D01*
X115377795Y-90065272D01*
X115371477Y-90061445D01*
X115320874Y-90038338D01*
X115270782Y-90036632D01*
X115223310Y-90047114D01*
X115170634Y-90064956D01*
X115140754Y-90082171D01*
X115138200Y-90086972D01*
X115118761Y-90097203D01*
X115066763Y-90110233D01*
X114991686Y-90123879D01*
X114952992Y-90129626D01*
X114741532Y-90170265D01*
X114567225Y-90228185D01*
X114430651Y-90303127D01*
X114332386Y-90394830D01*
X114316885Y-90415881D01*
X114277568Y-90490034D01*
X114271027Y-90556822D01*
X114298972Y-90624130D01*
X114363114Y-90699842D01*
X114382607Y-90718744D01*
X114444720Y-90773581D01*
X114501261Y-90816789D01*
X114540351Y-90839322D01*
X114541357Y-90839657D01*
X114577570Y-90856602D01*
X114587704Y-90868868D01*
X114569930Y-90889025D01*
X114525262Y-90917919D01*
X114466221Y-90948846D01*
X114405330Y-90975101D01*
X114365617Y-90987781D01*
X114295897Y-91018854D01*
X114246319Y-91067916D01*
X114228034Y-91122568D01*
X114243105Y-91167919D01*
X114265075Y-91195070D01*
X114328170Y-91239002D01*
X114407398Y-91279025D01*
X114485667Y-91307581D01*
X114541394Y-91317233D01*
X114578092Y-91308162D01*
X114646543Y-91282670D01*
X114740671Y-91243335D01*
X114854400Y-91192740D01*
X114981654Y-91133464D01*
X115039810Y-91105566D01*
X115165718Y-91045059D01*
X115279278Y-90991295D01*
X115374838Y-90946885D01*
X115446744Y-90914440D01*
X115489344Y-90896570D01*
X115498190Y-90893900D01*
X115516928Y-90882096D01*
X115511552Y-90844165D01*
X115481465Y-90776325D01*
X115478927Y-90771348D01*
X115411372Y-90670360D01*
X115332125Y-90609760D01*
X115239487Y-90588799D01*
X115131764Y-90606729D01*
X115117034Y-90611710D01*
X115064727Y-90623781D01*
X114992085Y-90632422D01*
X114909681Y-90637449D01*
X114828088Y-90638681D01*
X114757877Y-90635933D01*
X114709621Y-90629023D01*
X114693700Y-90619033D01*
X114712916Y-90585777D01*
X114764821Y-90547155D01*
X114840799Y-90507081D01*
X114932237Y-90469472D01*
X115030520Y-90438245D01*
X115127034Y-90417315D01*
X115142300Y-90415108D01*
X115214326Y-90401598D01*
X115297765Y-90380074D01*
X115382110Y-90354042D01*
X115456857Y-90327009D01*
X115511501Y-90302483D01*
X115535535Y-90283972D01*
X115535594Y-90283803D01*
X115527334Y-90256572D01*
D11*
G36*
X122701732Y-100710739D02*
G01*
X122817754Y-100733817D01*
X122981689Y-100801721D01*
X123129227Y-100900303D01*
X123254697Y-101025773D01*
X123353279Y-101173311D01*
X123421183Y-101337246D01*
X123455800Y-101511279D01*
X123455800Y-101688721D01*
X123421183Y-101862754D01*
X123353279Y-102026689D01*
X123254697Y-102174227D01*
X123129227Y-102299697D01*
X122981689Y-102398279D01*
X122817754Y-102466183D01*
X122701732Y-102489261D01*
X122643722Y-102500800D01*
X122466278Y-102500800D01*
X122408268Y-102489261D01*
X122292246Y-102466183D01*
X122128311Y-102398279D01*
X121980773Y-102299697D01*
X121855303Y-102174227D01*
X121756721Y-102026689D01*
X121688817Y-101862754D01*
X121654200Y-101688721D01*
X121654200Y-101511279D01*
X121688817Y-101337246D01*
X121756721Y-101173311D01*
X121855303Y-101025773D01*
X121980773Y-100900303D01*
X122128311Y-100801721D01*
X122292246Y-100733817D01*
X122408268Y-100710739D01*
X122466278Y-100699200D01*
X122643722Y-100699200D01*
X122701732Y-100710739D01*
G37*
G36*
X148101732Y-100710739D02*
G01*
X148217754Y-100733817D01*
X148381689Y-100801721D01*
X148529227Y-100900303D01*
X148654697Y-101025773D01*
X148753279Y-101173311D01*
X148821183Y-101337246D01*
X148855800Y-101511279D01*
X148855800Y-101688721D01*
X148821183Y-101862754D01*
X148753279Y-102026689D01*
X148654697Y-102174227D01*
X148529227Y-102299697D01*
X148381689Y-102398279D01*
X148217754Y-102466183D01*
X148101732Y-102489261D01*
X148043722Y-102500800D01*
X147866278Y-102500800D01*
X147808268Y-102489261D01*
X147692246Y-102466183D01*
X147528311Y-102398279D01*
X147380773Y-102299697D01*
X147255303Y-102174227D01*
X147156721Y-102026689D01*
X147088817Y-101862754D01*
X147054200Y-101688721D01*
X147054200Y-101511279D01*
X147088817Y-101337246D01*
X147156721Y-101173311D01*
X147255303Y-101025773D01*
X147380773Y-100900303D01*
X147528311Y-100801721D01*
X147692246Y-100733817D01*
X147808268Y-100710739D01*
X147866278Y-100699200D01*
X148043722Y-100699200D01*
X148101732Y-100710739D01*
G37*
G36*
X150641732Y-100710739D02*
G01*
X150757754Y-100733817D01*
X150921689Y-100801721D01*
X151069227Y-100900303D01*
X151194697Y-101025773D01*
X151293279Y-101173311D01*
X151361183Y-101337246D01*
X151395800Y-101511279D01*
X151395800Y-101688721D01*
X151361183Y-101862754D01*
X151293279Y-102026689D01*
X151194697Y-102174227D01*
X151069227Y-102299697D01*
X150921689Y-102398279D01*
X150757754Y-102466183D01*
X150641732Y-102489261D01*
X150583722Y-102500800D01*
X150406278Y-102500800D01*
X150348268Y-102489261D01*
X150232246Y-102466183D01*
X150068311Y-102398279D01*
X149920773Y-102299697D01*
X149795303Y-102174227D01*
X149696721Y-102026689D01*
X149628817Y-101862754D01*
X149594200Y-101688721D01*
X149594200Y-101511279D01*
X149628817Y-101337246D01*
X149696721Y-101173311D01*
X149795303Y-101025773D01*
X149920773Y-100900303D01*
X150068311Y-100801721D01*
X150232246Y-100733817D01*
X150348268Y-100710739D01*
X150406278Y-100699200D01*
X150583722Y-100699200D01*
X150641732Y-100710739D01*
G37*
G36*
X145561732Y-100710739D02*
G01*
X145677754Y-100733817D01*
X145841689Y-100801721D01*
X145989227Y-100900303D01*
X146114697Y-101025773D01*
X146213279Y-101173311D01*
X146281183Y-101337246D01*
X146315800Y-101511279D01*
X146315800Y-101688721D01*
X146281183Y-101862754D01*
X146213279Y-102026689D01*
X146114697Y-102174227D01*
X145989227Y-102299697D01*
X145841689Y-102398279D01*
X145677754Y-102466183D01*
X145561732Y-102489261D01*
X145503722Y-102500800D01*
X145326278Y-102500800D01*
X145268268Y-102489261D01*
X145152246Y-102466183D01*
X144988311Y-102398279D01*
X144840773Y-102299697D01*
X144715303Y-102174227D01*
X144616721Y-102026689D01*
X144548817Y-101862754D01*
X144514200Y-101688721D01*
X144514200Y-101511279D01*
X144548817Y-101337246D01*
X144616721Y-101173311D01*
X144715303Y-101025773D01*
X144840773Y-100900303D01*
X144988311Y-100801721D01*
X145152246Y-100733817D01*
X145268268Y-100710739D01*
X145326278Y-100699200D01*
X145503722Y-100699200D01*
X145561732Y-100710739D01*
G37*
G36*
X143021732Y-100710739D02*
G01*
X143137754Y-100733817D01*
X143301689Y-100801721D01*
X143449227Y-100900303D01*
X143574697Y-101025773D01*
X143673279Y-101173311D01*
X143741183Y-101337246D01*
X143775800Y-101511279D01*
X143775800Y-101688721D01*
X143741183Y-101862754D01*
X143673279Y-102026689D01*
X143574697Y-102174227D01*
X143449227Y-102299697D01*
X143301689Y-102398279D01*
X143137754Y-102466183D01*
X143021732Y-102489261D01*
X142963722Y-102500800D01*
X142786278Y-102500800D01*
X142728268Y-102489261D01*
X142612246Y-102466183D01*
X142448311Y-102398279D01*
X142300773Y-102299697D01*
X142175303Y-102174227D01*
X142076721Y-102026689D01*
X142008817Y-101862754D01*
X141974200Y-101688721D01*
X141974200Y-101511279D01*
X142008817Y-101337246D01*
X142076721Y-101173311D01*
X142175303Y-101025773D01*
X142300773Y-100900303D01*
X142448311Y-100801721D01*
X142612246Y-100733817D01*
X142728268Y-100710739D01*
X142786278Y-100699200D01*
X142963722Y-100699200D01*
X143021732Y-100710739D01*
G37*
G36*
X140481732Y-100710739D02*
G01*
X140597754Y-100733817D01*
X140761689Y-100801721D01*
X140909227Y-100900303D01*
X141034697Y-101025773D01*
X141133279Y-101173311D01*
X141201183Y-101337246D01*
X141235800Y-101511279D01*
X141235800Y-101688721D01*
X141201183Y-101862754D01*
X141133279Y-102026689D01*
X141034697Y-102174227D01*
X140909227Y-102299697D01*
X140761689Y-102398279D01*
X140597754Y-102466183D01*
X140481732Y-102489261D01*
X140423722Y-102500800D01*
X140246278Y-102500800D01*
X140188268Y-102489261D01*
X140072246Y-102466183D01*
X139908311Y-102398279D01*
X139760773Y-102299697D01*
X139635303Y-102174227D01*
X139536721Y-102026689D01*
X139468817Y-101862754D01*
X139434200Y-101688721D01*
X139434200Y-101511279D01*
X139468817Y-101337246D01*
X139536721Y-101173311D01*
X139635303Y-101025773D01*
X139760773Y-100900303D01*
X139908311Y-100801721D01*
X140072246Y-100733817D01*
X140188268Y-100710739D01*
X140246278Y-100699200D01*
X140423722Y-100699200D01*
X140481732Y-100710739D01*
G37*
G36*
X137941732Y-100710739D02*
G01*
X138057754Y-100733817D01*
X138221689Y-100801721D01*
X138369227Y-100900303D01*
X138494697Y-101025773D01*
X138593279Y-101173311D01*
X138661183Y-101337246D01*
X138695800Y-101511279D01*
X138695800Y-101688721D01*
X138661183Y-101862754D01*
X138593279Y-102026689D01*
X138494697Y-102174227D01*
X138369227Y-102299697D01*
X138221689Y-102398279D01*
X138057754Y-102466183D01*
X137941732Y-102489261D01*
X137883722Y-102500800D01*
X137706278Y-102500800D01*
X137648268Y-102489261D01*
X137532246Y-102466183D01*
X137368311Y-102398279D01*
X137220773Y-102299697D01*
X137095303Y-102174227D01*
X136996721Y-102026689D01*
X136928817Y-101862754D01*
X136894200Y-101688721D01*
X136894200Y-101511279D01*
X136928817Y-101337246D01*
X136996721Y-101173311D01*
X137095303Y-101025773D01*
X137220773Y-100900303D01*
X137368311Y-100801721D01*
X137532246Y-100733817D01*
X137648268Y-100710739D01*
X137706278Y-100699200D01*
X137883722Y-100699200D01*
X137941732Y-100710739D01*
G37*
G36*
X135401732Y-100710739D02*
G01*
X135517754Y-100733817D01*
X135681689Y-100801721D01*
X135829227Y-100900303D01*
X135954697Y-101025773D01*
X136053279Y-101173311D01*
X136121183Y-101337246D01*
X136155800Y-101511279D01*
X136155800Y-101688721D01*
X136121183Y-101862754D01*
X136053279Y-102026689D01*
X135954697Y-102174227D01*
X135829227Y-102299697D01*
X135681689Y-102398279D01*
X135517754Y-102466183D01*
X135401732Y-102489261D01*
X135343722Y-102500800D01*
X135166278Y-102500800D01*
X135108268Y-102489261D01*
X134992246Y-102466183D01*
X134828311Y-102398279D01*
X134680773Y-102299697D01*
X134555303Y-102174227D01*
X134456721Y-102026689D01*
X134388817Y-101862754D01*
X134354200Y-101688721D01*
X134354200Y-101511279D01*
X134388817Y-101337246D01*
X134456721Y-101173311D01*
X134555303Y-101025773D01*
X134680773Y-100900303D01*
X134828311Y-100801721D01*
X134992246Y-100733817D01*
X135108268Y-100710739D01*
X135166278Y-100699200D01*
X135343722Y-100699200D01*
X135401732Y-100710739D01*
G37*
G36*
X132861732Y-100710739D02*
G01*
X132977754Y-100733817D01*
X133141689Y-100801721D01*
X133289227Y-100900303D01*
X133414697Y-101025773D01*
X133513279Y-101173311D01*
X133581183Y-101337246D01*
X133615800Y-101511279D01*
X133615800Y-101688721D01*
X133581183Y-101862754D01*
X133513279Y-102026689D01*
X133414697Y-102174227D01*
X133289227Y-102299697D01*
X133141689Y-102398279D01*
X132977754Y-102466183D01*
X132861732Y-102489261D01*
X132803722Y-102500800D01*
X132626278Y-102500800D01*
X132568268Y-102489261D01*
X132452246Y-102466183D01*
X132288311Y-102398279D01*
X132140773Y-102299697D01*
X132015303Y-102174227D01*
X131916721Y-102026689D01*
X131848817Y-101862754D01*
X131814200Y-101688721D01*
X131814200Y-101511279D01*
X131848817Y-101337246D01*
X131916721Y-101173311D01*
X132015303Y-101025773D01*
X132140773Y-100900303D01*
X132288311Y-100801721D01*
X132452246Y-100733817D01*
X132568268Y-100710739D01*
X132626278Y-100699200D01*
X132803722Y-100699200D01*
X132861732Y-100710739D01*
G37*
G36*
X130321732Y-100710739D02*
G01*
X130437754Y-100733817D01*
X130601689Y-100801721D01*
X130749227Y-100900303D01*
X130874697Y-101025773D01*
X130973279Y-101173311D01*
X131041183Y-101337246D01*
X131075800Y-101511279D01*
X131075800Y-101688721D01*
X131041183Y-101862754D01*
X130973279Y-102026689D01*
X130874697Y-102174227D01*
X130749227Y-102299697D01*
X130601689Y-102398279D01*
X130437754Y-102466183D01*
X130321732Y-102489261D01*
X130263722Y-102500800D01*
X130086278Y-102500800D01*
X130028268Y-102489261D01*
X129912246Y-102466183D01*
X129748311Y-102398279D01*
X129600773Y-102299697D01*
X129475303Y-102174227D01*
X129376721Y-102026689D01*
X129308817Y-101862754D01*
X129274200Y-101688721D01*
X129274200Y-101511279D01*
X129308817Y-101337246D01*
X129376721Y-101173311D01*
X129475303Y-101025773D01*
X129600773Y-100900303D01*
X129748311Y-100801721D01*
X129912246Y-100733817D01*
X130028268Y-100710739D01*
X130086278Y-100699200D01*
X130263722Y-100699200D01*
X130321732Y-100710739D01*
G37*
G36*
X127781732Y-100710739D02*
G01*
X127897754Y-100733817D01*
X128061689Y-100801721D01*
X128209227Y-100900303D01*
X128334697Y-101025773D01*
X128433279Y-101173311D01*
X128501183Y-101337246D01*
X128535800Y-101511279D01*
X128535800Y-101688721D01*
X128501183Y-101862754D01*
X128433279Y-102026689D01*
X128334697Y-102174227D01*
X128209227Y-102299697D01*
X128061689Y-102398279D01*
X127897754Y-102466183D01*
X127781732Y-102489261D01*
X127723722Y-102500800D01*
X127546278Y-102500800D01*
X127488268Y-102489261D01*
X127372246Y-102466183D01*
X127208311Y-102398279D01*
X127060773Y-102299697D01*
X126935303Y-102174227D01*
X126836721Y-102026689D01*
X126768817Y-101862754D01*
X126734200Y-101688721D01*
X126734200Y-101511279D01*
X126768817Y-101337246D01*
X126836721Y-101173311D01*
X126935303Y-101025773D01*
X127060773Y-100900303D01*
X127208311Y-100801721D01*
X127372246Y-100733817D01*
X127488268Y-100710739D01*
X127546278Y-100699200D01*
X127723722Y-100699200D01*
X127781732Y-100710739D01*
G37*
G36*
X125241732Y-100710739D02*
G01*
X125357754Y-100733817D01*
X125521689Y-100801721D01*
X125669227Y-100900303D01*
X125794697Y-101025773D01*
X125893279Y-101173311D01*
X125961183Y-101337246D01*
X125995800Y-101511279D01*
X125995800Y-101688721D01*
X125961183Y-101862754D01*
X125893279Y-102026689D01*
X125794697Y-102174227D01*
X125669227Y-102299697D01*
X125521689Y-102398279D01*
X125357754Y-102466183D01*
X125241732Y-102489261D01*
X125183722Y-102500800D01*
X125006278Y-102500800D01*
X124948268Y-102489261D01*
X124832246Y-102466183D01*
X124668311Y-102398279D01*
X124520773Y-102299697D01*
X124395303Y-102174227D01*
X124296721Y-102026689D01*
X124228817Y-101862754D01*
X124194200Y-101688721D01*
X124194200Y-101511279D01*
X124228817Y-101337246D01*
X124296721Y-101173311D01*
X124395303Y-101025773D01*
X124520773Y-100900303D01*
X124668311Y-100801721D01*
X124832246Y-100733817D01*
X124948268Y-100710739D01*
X125006278Y-100699200D01*
X125183722Y-100699200D01*
X125241732Y-100710739D01*
G37*
G36*
X129051732Y-98170739D02*
G01*
X129167754Y-98193817D01*
X129331689Y-98261721D01*
X129479227Y-98360303D01*
X129604697Y-98485773D01*
X129703279Y-98633311D01*
X129771183Y-98797246D01*
X129805800Y-98971279D01*
X129805800Y-99148721D01*
X129771183Y-99322754D01*
X129703279Y-99486689D01*
X129604697Y-99634227D01*
X129479227Y-99759697D01*
X129331689Y-99858279D01*
X129167754Y-99926183D01*
X129051732Y-99949261D01*
X128993722Y-99960800D01*
X128816278Y-99960800D01*
X128758268Y-99949261D01*
X128642246Y-99926183D01*
X128478311Y-99858279D01*
X128330773Y-99759697D01*
X128205303Y-99634227D01*
X128106721Y-99486689D01*
X128038817Y-99322754D01*
X128004200Y-99148721D01*
X128004200Y-98971279D01*
X128038817Y-98797246D01*
X128106721Y-98633311D01*
X128205303Y-98485773D01*
X128330773Y-98360303D01*
X128478311Y-98261721D01*
X128642246Y-98193817D01*
X128758268Y-98170739D01*
X128816278Y-98159200D01*
X128993722Y-98159200D01*
X129051732Y-98170739D01*
G37*
G36*
X151911732Y-98170739D02*
G01*
X152027754Y-98193817D01*
X152191689Y-98261721D01*
X152339227Y-98360303D01*
X152464697Y-98485773D01*
X152563279Y-98633311D01*
X152631183Y-98797246D01*
X152665800Y-98971279D01*
X152665800Y-99148721D01*
X152631183Y-99322754D01*
X152563279Y-99486689D01*
X152464697Y-99634227D01*
X152339227Y-99759697D01*
X152191689Y-99858279D01*
X152027754Y-99926183D01*
X151911732Y-99949261D01*
X151853722Y-99960800D01*
X151676278Y-99960800D01*
X151618268Y-99949261D01*
X151502246Y-99926183D01*
X151338311Y-99858279D01*
X151190773Y-99759697D01*
X151065303Y-99634227D01*
X150966721Y-99486689D01*
X150898817Y-99322754D01*
X150864200Y-99148721D01*
X150864200Y-98971279D01*
X150898817Y-98797246D01*
X150966721Y-98633311D01*
X151065303Y-98485773D01*
X151190773Y-98360303D01*
X151338311Y-98261721D01*
X151502246Y-98193817D01*
X151618268Y-98170739D01*
X151676278Y-98159200D01*
X151853722Y-98159200D01*
X151911732Y-98170739D01*
G37*
G36*
X149371732Y-98170739D02*
G01*
X149487754Y-98193817D01*
X149651689Y-98261721D01*
X149799227Y-98360303D01*
X149924697Y-98485773D01*
X150023279Y-98633311D01*
X150091183Y-98797246D01*
X150125800Y-98971279D01*
X150125800Y-99148721D01*
X150091183Y-99322754D01*
X150023279Y-99486689D01*
X149924697Y-99634227D01*
X149799227Y-99759697D01*
X149651689Y-99858279D01*
X149487754Y-99926183D01*
X149371732Y-99949261D01*
X149313722Y-99960800D01*
X149136278Y-99960800D01*
X149078268Y-99949261D01*
X148962246Y-99926183D01*
X148798311Y-99858279D01*
X148650773Y-99759697D01*
X148525303Y-99634227D01*
X148426721Y-99486689D01*
X148358817Y-99322754D01*
X148324200Y-99148721D01*
X148324200Y-98971279D01*
X148358817Y-98797246D01*
X148426721Y-98633311D01*
X148525303Y-98485773D01*
X148650773Y-98360303D01*
X148798311Y-98261721D01*
X148962246Y-98193817D01*
X149078268Y-98170739D01*
X149136278Y-98159200D01*
X149313722Y-98159200D01*
X149371732Y-98170739D01*
G37*
G36*
X146831732Y-98170739D02*
G01*
X146947754Y-98193817D01*
X147111689Y-98261721D01*
X147259227Y-98360303D01*
X147384697Y-98485773D01*
X147483279Y-98633311D01*
X147551183Y-98797246D01*
X147585800Y-98971279D01*
X147585800Y-99148721D01*
X147551183Y-99322754D01*
X147483279Y-99486689D01*
X147384697Y-99634227D01*
X147259227Y-99759697D01*
X147111689Y-99858279D01*
X146947754Y-99926183D01*
X146831732Y-99949261D01*
X146773722Y-99960800D01*
X146596278Y-99960800D01*
X146538268Y-99949261D01*
X146422246Y-99926183D01*
X146258311Y-99858279D01*
X146110773Y-99759697D01*
X145985303Y-99634227D01*
X145886721Y-99486689D01*
X145818817Y-99322754D01*
X145784200Y-99148721D01*
X145784200Y-98971279D01*
X145818817Y-98797246D01*
X145886721Y-98633311D01*
X145985303Y-98485773D01*
X146110773Y-98360303D01*
X146258311Y-98261721D01*
X146422246Y-98193817D01*
X146538268Y-98170739D01*
X146596278Y-98159200D01*
X146773722Y-98159200D01*
X146831732Y-98170739D01*
G37*
G36*
X144291732Y-98170739D02*
G01*
X144407754Y-98193817D01*
X144571689Y-98261721D01*
X144719227Y-98360303D01*
X144844697Y-98485773D01*
X144943279Y-98633311D01*
X145011183Y-98797246D01*
X145045800Y-98971279D01*
X145045800Y-99148721D01*
X145011183Y-99322754D01*
X144943279Y-99486689D01*
X144844697Y-99634227D01*
X144719227Y-99759697D01*
X144571689Y-99858279D01*
X144407754Y-99926183D01*
X144291732Y-99949261D01*
X144233722Y-99960800D01*
X144056278Y-99960800D01*
X143998268Y-99949261D01*
X143882246Y-99926183D01*
X143718311Y-99858279D01*
X143570773Y-99759697D01*
X143445303Y-99634227D01*
X143346721Y-99486689D01*
X143278817Y-99322754D01*
X143244200Y-99148721D01*
X143244200Y-98971279D01*
X143278817Y-98797246D01*
X143346721Y-98633311D01*
X143445303Y-98485773D01*
X143570773Y-98360303D01*
X143718311Y-98261721D01*
X143882246Y-98193817D01*
X143998268Y-98170739D01*
X144056278Y-98159200D01*
X144233722Y-98159200D01*
X144291732Y-98170739D01*
G37*
G36*
X141751732Y-98170739D02*
G01*
X141867754Y-98193817D01*
X142031689Y-98261721D01*
X142179227Y-98360303D01*
X142304697Y-98485773D01*
X142403279Y-98633311D01*
X142471183Y-98797246D01*
X142505800Y-98971279D01*
X142505800Y-99148721D01*
X142471183Y-99322754D01*
X142403279Y-99486689D01*
X142304697Y-99634227D01*
X142179227Y-99759697D01*
X142031689Y-99858279D01*
X141867754Y-99926183D01*
X141751732Y-99949261D01*
X141693722Y-99960800D01*
X141516278Y-99960800D01*
X141458268Y-99949261D01*
X141342246Y-99926183D01*
X141178311Y-99858279D01*
X141030773Y-99759697D01*
X140905303Y-99634227D01*
X140806721Y-99486689D01*
X140738817Y-99322754D01*
X140704200Y-99148721D01*
X140704200Y-98971279D01*
X140738817Y-98797246D01*
X140806721Y-98633311D01*
X140905303Y-98485773D01*
X141030773Y-98360303D01*
X141178311Y-98261721D01*
X141342246Y-98193817D01*
X141458268Y-98170739D01*
X141516278Y-98159200D01*
X141693722Y-98159200D01*
X141751732Y-98170739D01*
G37*
G36*
X139211732Y-98170739D02*
G01*
X139327754Y-98193817D01*
X139491689Y-98261721D01*
X139639227Y-98360303D01*
X139764697Y-98485773D01*
X139863279Y-98633311D01*
X139931183Y-98797246D01*
X139965800Y-98971279D01*
X139965800Y-99148721D01*
X139931183Y-99322754D01*
X139863279Y-99486689D01*
X139764697Y-99634227D01*
X139639227Y-99759697D01*
X139491689Y-99858279D01*
X139327754Y-99926183D01*
X139211732Y-99949261D01*
X139153722Y-99960800D01*
X138976278Y-99960800D01*
X138918268Y-99949261D01*
X138802246Y-99926183D01*
X138638311Y-99858279D01*
X138490773Y-99759697D01*
X138365303Y-99634227D01*
X138266721Y-99486689D01*
X138198817Y-99322754D01*
X138164200Y-99148721D01*
X138164200Y-98971279D01*
X138198817Y-98797246D01*
X138266721Y-98633311D01*
X138365303Y-98485773D01*
X138490773Y-98360303D01*
X138638311Y-98261721D01*
X138802246Y-98193817D01*
X138918268Y-98170739D01*
X138976278Y-98159200D01*
X139153722Y-98159200D01*
X139211732Y-98170739D01*
G37*
G36*
X136671732Y-98170739D02*
G01*
X136787754Y-98193817D01*
X136951689Y-98261721D01*
X137099227Y-98360303D01*
X137224697Y-98485773D01*
X137323279Y-98633311D01*
X137391183Y-98797246D01*
X137425800Y-98971279D01*
X137425800Y-99148721D01*
X137391183Y-99322754D01*
X137323279Y-99486689D01*
X137224697Y-99634227D01*
X137099227Y-99759697D01*
X136951689Y-99858279D01*
X136787754Y-99926183D01*
X136671732Y-99949261D01*
X136613722Y-99960800D01*
X136436278Y-99960800D01*
X136378268Y-99949261D01*
X136262246Y-99926183D01*
X136098311Y-99858279D01*
X135950773Y-99759697D01*
X135825303Y-99634227D01*
X135726721Y-99486689D01*
X135658817Y-99322754D01*
X135624200Y-99148721D01*
X135624200Y-98971279D01*
X135658817Y-98797246D01*
X135726721Y-98633311D01*
X135825303Y-98485773D01*
X135950773Y-98360303D01*
X136098311Y-98261721D01*
X136262246Y-98193817D01*
X136378268Y-98170739D01*
X136436278Y-98159200D01*
X136613722Y-98159200D01*
X136671732Y-98170739D01*
G37*
G36*
X134131732Y-98170739D02*
G01*
X134247754Y-98193817D01*
X134411689Y-98261721D01*
X134559227Y-98360303D01*
X134684697Y-98485773D01*
X134783279Y-98633311D01*
X134851183Y-98797246D01*
X134885800Y-98971279D01*
X134885800Y-99148721D01*
X134851183Y-99322754D01*
X134783279Y-99486689D01*
X134684697Y-99634227D01*
X134559227Y-99759697D01*
X134411689Y-99858279D01*
X134247754Y-99926183D01*
X134131732Y-99949261D01*
X134073722Y-99960800D01*
X133896278Y-99960800D01*
X133838268Y-99949261D01*
X133722246Y-99926183D01*
X133558311Y-99858279D01*
X133410773Y-99759697D01*
X133285303Y-99634227D01*
X133186721Y-99486689D01*
X133118817Y-99322754D01*
X133084200Y-99148721D01*
X133084200Y-98971279D01*
X133118817Y-98797246D01*
X133186721Y-98633311D01*
X133285303Y-98485773D01*
X133410773Y-98360303D01*
X133558311Y-98261721D01*
X133722246Y-98193817D01*
X133838268Y-98170739D01*
X133896278Y-98159200D01*
X134073722Y-98159200D01*
X134131732Y-98170739D01*
G37*
G36*
X131591732Y-98170739D02*
G01*
X131707754Y-98193817D01*
X131871689Y-98261721D01*
X132019227Y-98360303D01*
X132144697Y-98485773D01*
X132243279Y-98633311D01*
X132311183Y-98797246D01*
X132345800Y-98971279D01*
X132345800Y-99148721D01*
X132311183Y-99322754D01*
X132243279Y-99486689D01*
X132144697Y-99634227D01*
X132019227Y-99759697D01*
X131871689Y-99858279D01*
X131707754Y-99926183D01*
X131591732Y-99949261D01*
X131533722Y-99960800D01*
X131356278Y-99960800D01*
X131298268Y-99949261D01*
X131182246Y-99926183D01*
X131018311Y-99858279D01*
X130870773Y-99759697D01*
X130745303Y-99634227D01*
X130646721Y-99486689D01*
X130578817Y-99322754D01*
X130544200Y-99148721D01*
X130544200Y-98971279D01*
X130578817Y-98797246D01*
X130646721Y-98633311D01*
X130745303Y-98485773D01*
X130870773Y-98360303D01*
X131018311Y-98261721D01*
X131182246Y-98193817D01*
X131298268Y-98170739D01*
X131356278Y-98159200D01*
X131533722Y-98159200D01*
X131591732Y-98170739D01*
G37*
G36*
X126511732Y-98170739D02*
G01*
X126627754Y-98193817D01*
X126791689Y-98261721D01*
X126939227Y-98360303D01*
X127064697Y-98485773D01*
X127163279Y-98633311D01*
X127231183Y-98797246D01*
X127265800Y-98971279D01*
X127265800Y-99148721D01*
X127231183Y-99322754D01*
X127163279Y-99486689D01*
X127064697Y-99634227D01*
X126939227Y-99759697D01*
X126791689Y-99858279D01*
X126627754Y-99926183D01*
X126511732Y-99949261D01*
X126453722Y-99960800D01*
X126276278Y-99960800D01*
X126218268Y-99949261D01*
X126102246Y-99926183D01*
X125938311Y-99858279D01*
X125790773Y-99759697D01*
X125665303Y-99634227D01*
X125566721Y-99486689D01*
X125498817Y-99322754D01*
X125464200Y-99148721D01*
X125464200Y-98971279D01*
X125498817Y-98797246D01*
X125566721Y-98633311D01*
X125665303Y-98485773D01*
X125790773Y-98360303D01*
X125938311Y-98261721D01*
X126102246Y-98193817D01*
X126218268Y-98170739D01*
X126276278Y-98159200D01*
X126453722Y-98159200D01*
X126511732Y-98170739D01*
G37*
G36*
X154451732Y-98170739D02*
G01*
X154567754Y-98193817D01*
X154731689Y-98261721D01*
X154879227Y-98360303D01*
X155004697Y-98485773D01*
X155103279Y-98633311D01*
X155171183Y-98797246D01*
X155205800Y-98971279D01*
X155205800Y-99148721D01*
X155171183Y-99322754D01*
X155103279Y-99486689D01*
X155004697Y-99634227D01*
X154879227Y-99759697D01*
X154731689Y-99858279D01*
X154567754Y-99926183D01*
X154451732Y-99949261D01*
X154393722Y-99960800D01*
X154216278Y-99960800D01*
X154158268Y-99949261D01*
X154042246Y-99926183D01*
X153878311Y-99858279D01*
X153730773Y-99759697D01*
X153605303Y-99634227D01*
X153506721Y-99486689D01*
X153438817Y-99322754D01*
X153404200Y-99148721D01*
X153404200Y-98971279D01*
X153438817Y-98797246D01*
X153506721Y-98633311D01*
X153605303Y-98485773D01*
X153730773Y-98360303D01*
X153878311Y-98261721D01*
X154042246Y-98193817D01*
X154158268Y-98170739D01*
X154216278Y-98159200D01*
X154393722Y-98159200D01*
X154451732Y-98170739D01*
G37*
G36*
X156991732Y-98170739D02*
G01*
X157107754Y-98193817D01*
X157271689Y-98261721D01*
X157419227Y-98360303D01*
X157544697Y-98485773D01*
X157643279Y-98633311D01*
X157711183Y-98797246D01*
X157745800Y-98971279D01*
X157745800Y-99148721D01*
X157711183Y-99322754D01*
X157643279Y-99486689D01*
X157544697Y-99634227D01*
X157419227Y-99759697D01*
X157271689Y-99858279D01*
X157107754Y-99926183D01*
X156991732Y-99949261D01*
X156933722Y-99960800D01*
X156756278Y-99960800D01*
X156698268Y-99949261D01*
X156582246Y-99926183D01*
X156418311Y-99858279D01*
X156270773Y-99759697D01*
X156145303Y-99634227D01*
X156046721Y-99486689D01*
X155978817Y-99322754D01*
X155944200Y-99148721D01*
X155944200Y-98971279D01*
X155978817Y-98797246D01*
X156046721Y-98633311D01*
X156145303Y-98485773D01*
X156270773Y-98360303D01*
X156418311Y-98261721D01*
X156582246Y-98193817D01*
X156698268Y-98170739D01*
X156756278Y-98159200D01*
X156933722Y-98159200D01*
X156991732Y-98170739D01*
G37*
G36*
X159531732Y-98170739D02*
G01*
X159647754Y-98193817D01*
X159811689Y-98261721D01*
X159959227Y-98360303D01*
X160084697Y-98485773D01*
X160183279Y-98633311D01*
X160251183Y-98797246D01*
X160285800Y-98971279D01*
X160285800Y-99148721D01*
X160251183Y-99322754D01*
X160183279Y-99486689D01*
X160084697Y-99634227D01*
X159959227Y-99759697D01*
X159811689Y-99858279D01*
X159647754Y-99926183D01*
X159531732Y-99949261D01*
X159473722Y-99960800D01*
X159296278Y-99960800D01*
X159238268Y-99949261D01*
X159122246Y-99926183D01*
X158958311Y-99858279D01*
X158810773Y-99759697D01*
X158685303Y-99634227D01*
X158586721Y-99486689D01*
X158518817Y-99322754D01*
X158484200Y-99148721D01*
X158484200Y-98971279D01*
X158518817Y-98797246D01*
X158586721Y-98633311D01*
X158685303Y-98485773D01*
X158810773Y-98360303D01*
X158958311Y-98261721D01*
X159122246Y-98193817D01*
X159238268Y-98170739D01*
X159296278Y-98159200D01*
X159473722Y-98159200D01*
X159531732Y-98170739D01*
G37*
G36*
X123971732Y-98170739D02*
G01*
X124087754Y-98193817D01*
X124251689Y-98261721D01*
X124399227Y-98360303D01*
X124524697Y-98485773D01*
X124623279Y-98633311D01*
X124691183Y-98797246D01*
X124725800Y-98971279D01*
X124725800Y-99148721D01*
X124691183Y-99322754D01*
X124623279Y-99486689D01*
X124524697Y-99634227D01*
X124399227Y-99759697D01*
X124251689Y-99858279D01*
X124087754Y-99926183D01*
X123971732Y-99949261D01*
X123913722Y-99960800D01*
X123736278Y-99960800D01*
X123678268Y-99949261D01*
X123562246Y-99926183D01*
X123398311Y-99858279D01*
X123250773Y-99759697D01*
X123125303Y-99634227D01*
X123026721Y-99486689D01*
X122958817Y-99322754D01*
X122924200Y-99148721D01*
X122924200Y-98971279D01*
X122958817Y-98797246D01*
X123026721Y-98633311D01*
X123125303Y-98485773D01*
X123250773Y-98360303D01*
X123398311Y-98261721D01*
X123562246Y-98193817D01*
X123678268Y-98170739D01*
X123736278Y-98159200D01*
X123913722Y-98159200D01*
X123971732Y-98170739D01*
G37*
G36*
X126511732Y-82930739D02*
G01*
X126627754Y-82953817D01*
X126791689Y-83021721D01*
X126939227Y-83120303D01*
X127064697Y-83245773D01*
X127163279Y-83393311D01*
X127231183Y-83557246D01*
X127265800Y-83731279D01*
X127265800Y-83908721D01*
X127231183Y-84082754D01*
X127163279Y-84246689D01*
X127064697Y-84394227D01*
X126939227Y-84519697D01*
X126791689Y-84618279D01*
X126627754Y-84686183D01*
X126511732Y-84709261D01*
X126453722Y-84720800D01*
X126276278Y-84720800D01*
X126218268Y-84709261D01*
X126102246Y-84686183D01*
X125938311Y-84618279D01*
X125790773Y-84519697D01*
X125665303Y-84394227D01*
X125566721Y-84246689D01*
X125498817Y-84082754D01*
X125464200Y-83908721D01*
X125464200Y-83731279D01*
X125498817Y-83557246D01*
X125566721Y-83393311D01*
X125665303Y-83245773D01*
X125790773Y-83120303D01*
X125938311Y-83021721D01*
X126102246Y-82953817D01*
X126218268Y-82930739D01*
X126276278Y-82919200D01*
X126453722Y-82919200D01*
X126511732Y-82930739D01*
G37*
G36*
X156991732Y-82930739D02*
G01*
X157107754Y-82953817D01*
X157271689Y-83021721D01*
X157419227Y-83120303D01*
X157544697Y-83245773D01*
X157643279Y-83393311D01*
X157711183Y-83557246D01*
X157745800Y-83731279D01*
X157745800Y-83908721D01*
X157711183Y-84082754D01*
X157643279Y-84246689D01*
X157544697Y-84394227D01*
X157419227Y-84519697D01*
X157271689Y-84618279D01*
X157107754Y-84686183D01*
X156991732Y-84709261D01*
X156933722Y-84720800D01*
X156756278Y-84720800D01*
X156698268Y-84709261D01*
X156582246Y-84686183D01*
X156418311Y-84618279D01*
X156270773Y-84519697D01*
X156145303Y-84394227D01*
X156046721Y-84246689D01*
X155978817Y-84082754D01*
X155944200Y-83908721D01*
X155944200Y-83731279D01*
X155978817Y-83557246D01*
X156046721Y-83393311D01*
X156145303Y-83245773D01*
X156270773Y-83120303D01*
X156418311Y-83021721D01*
X156582246Y-82953817D01*
X156698268Y-82930739D01*
X156756278Y-82919200D01*
X156933722Y-82919200D01*
X156991732Y-82930739D01*
G37*
G36*
X154451732Y-82930739D02*
G01*
X154567754Y-82953817D01*
X154731689Y-83021721D01*
X154879227Y-83120303D01*
X155004697Y-83245773D01*
X155103279Y-83393311D01*
X155171183Y-83557246D01*
X155205800Y-83731279D01*
X155205800Y-83908721D01*
X155171183Y-84082754D01*
X155103279Y-84246689D01*
X155004697Y-84394227D01*
X154879227Y-84519697D01*
X154731689Y-84618279D01*
X154567754Y-84686183D01*
X154451732Y-84709261D01*
X154393722Y-84720800D01*
X154216278Y-84720800D01*
X154158268Y-84709261D01*
X154042246Y-84686183D01*
X153878311Y-84618279D01*
X153730773Y-84519697D01*
X153605303Y-84394227D01*
X153506721Y-84246689D01*
X153438817Y-84082754D01*
X153404200Y-83908721D01*
X153404200Y-83731279D01*
X153438817Y-83557246D01*
X153506721Y-83393311D01*
X153605303Y-83245773D01*
X153730773Y-83120303D01*
X153878311Y-83021721D01*
X154042246Y-82953817D01*
X154158268Y-82930739D01*
X154216278Y-82919200D01*
X154393722Y-82919200D01*
X154451732Y-82930739D01*
G37*
G36*
X151911732Y-82930739D02*
G01*
X152027754Y-82953817D01*
X152191689Y-83021721D01*
X152339227Y-83120303D01*
X152464697Y-83245773D01*
X152563279Y-83393311D01*
X152631183Y-83557246D01*
X152665800Y-83731279D01*
X152665800Y-83908721D01*
X152631183Y-84082754D01*
X152563279Y-84246689D01*
X152464697Y-84394227D01*
X152339227Y-84519697D01*
X152191689Y-84618279D01*
X152027754Y-84686183D01*
X151911732Y-84709261D01*
X151853722Y-84720800D01*
X151676278Y-84720800D01*
X151618268Y-84709261D01*
X151502246Y-84686183D01*
X151338311Y-84618279D01*
X151190773Y-84519697D01*
X151065303Y-84394227D01*
X150966721Y-84246689D01*
X150898817Y-84082754D01*
X150864200Y-83908721D01*
X150864200Y-83731279D01*
X150898817Y-83557246D01*
X150966721Y-83393311D01*
X151065303Y-83245773D01*
X151190773Y-83120303D01*
X151338311Y-83021721D01*
X151502246Y-82953817D01*
X151618268Y-82930739D01*
X151676278Y-82919200D01*
X151853722Y-82919200D01*
X151911732Y-82930739D01*
G37*
G36*
X149371732Y-82930739D02*
G01*
X149487754Y-82953817D01*
X149651689Y-83021721D01*
X149799227Y-83120303D01*
X149924697Y-83245773D01*
X150023279Y-83393311D01*
X150091183Y-83557246D01*
X150125800Y-83731279D01*
X150125800Y-83908721D01*
X150091183Y-84082754D01*
X150023279Y-84246689D01*
X149924697Y-84394227D01*
X149799227Y-84519697D01*
X149651689Y-84618279D01*
X149487754Y-84686183D01*
X149371732Y-84709261D01*
X149313722Y-84720800D01*
X149136278Y-84720800D01*
X149078268Y-84709261D01*
X148962246Y-84686183D01*
X148798311Y-84618279D01*
X148650773Y-84519697D01*
X148525303Y-84394227D01*
X148426721Y-84246689D01*
X148358817Y-84082754D01*
X148324200Y-83908721D01*
X148324200Y-83731279D01*
X148358817Y-83557246D01*
X148426721Y-83393311D01*
X148525303Y-83245773D01*
X148650773Y-83120303D01*
X148798311Y-83021721D01*
X148962246Y-82953817D01*
X149078268Y-82930739D01*
X149136278Y-82919200D01*
X149313722Y-82919200D01*
X149371732Y-82930739D01*
G37*
G36*
X146831732Y-82930739D02*
G01*
X146947754Y-82953817D01*
X147111689Y-83021721D01*
X147259227Y-83120303D01*
X147384697Y-83245773D01*
X147483279Y-83393311D01*
X147551183Y-83557246D01*
X147585800Y-83731279D01*
X147585800Y-83908721D01*
X147551183Y-84082754D01*
X147483279Y-84246689D01*
X147384697Y-84394227D01*
X147259227Y-84519697D01*
X147111689Y-84618279D01*
X146947754Y-84686183D01*
X146831732Y-84709261D01*
X146773722Y-84720800D01*
X146596278Y-84720800D01*
X146538268Y-84709261D01*
X146422246Y-84686183D01*
X146258311Y-84618279D01*
X146110773Y-84519697D01*
X145985303Y-84394227D01*
X145886721Y-84246689D01*
X145818817Y-84082754D01*
X145784200Y-83908721D01*
X145784200Y-83731279D01*
X145818817Y-83557246D01*
X145886721Y-83393311D01*
X145985303Y-83245773D01*
X146110773Y-83120303D01*
X146258311Y-83021721D01*
X146422246Y-82953817D01*
X146538268Y-82930739D01*
X146596278Y-82919200D01*
X146773722Y-82919200D01*
X146831732Y-82930739D01*
G37*
G36*
X144291732Y-82930739D02*
G01*
X144407754Y-82953817D01*
X144571689Y-83021721D01*
X144719227Y-83120303D01*
X144844697Y-83245773D01*
X144943279Y-83393311D01*
X145011183Y-83557246D01*
X145045800Y-83731279D01*
X145045800Y-83908721D01*
X145011183Y-84082754D01*
X144943279Y-84246689D01*
X144844697Y-84394227D01*
X144719227Y-84519697D01*
X144571689Y-84618279D01*
X144407754Y-84686183D01*
X144291732Y-84709261D01*
X144233722Y-84720800D01*
X144056278Y-84720800D01*
X143998268Y-84709261D01*
X143882246Y-84686183D01*
X143718311Y-84618279D01*
X143570773Y-84519697D01*
X143445303Y-84394227D01*
X143346721Y-84246689D01*
X143278817Y-84082754D01*
X143244200Y-83908721D01*
X143244200Y-83731279D01*
X143278817Y-83557246D01*
X143346721Y-83393311D01*
X143445303Y-83245773D01*
X143570773Y-83120303D01*
X143718311Y-83021721D01*
X143882246Y-82953817D01*
X143998268Y-82930739D01*
X144056278Y-82919200D01*
X144233722Y-82919200D01*
X144291732Y-82930739D01*
G37*
G36*
X141751732Y-82930739D02*
G01*
X141867754Y-82953817D01*
X142031689Y-83021721D01*
X142179227Y-83120303D01*
X142304697Y-83245773D01*
X142403279Y-83393311D01*
X142471183Y-83557246D01*
X142505800Y-83731279D01*
X142505800Y-83908721D01*
X142471183Y-84082754D01*
X142403279Y-84246689D01*
X142304697Y-84394227D01*
X142179227Y-84519697D01*
X142031689Y-84618279D01*
X141867754Y-84686183D01*
X141751732Y-84709261D01*
X141693722Y-84720800D01*
X141516278Y-84720800D01*
X141458268Y-84709261D01*
X141342246Y-84686183D01*
X141178311Y-84618279D01*
X141030773Y-84519697D01*
X140905303Y-84394227D01*
X140806721Y-84246689D01*
X140738817Y-84082754D01*
X140704200Y-83908721D01*
X140704200Y-83731279D01*
X140738817Y-83557246D01*
X140806721Y-83393311D01*
X140905303Y-83245773D01*
X141030773Y-83120303D01*
X141178311Y-83021721D01*
X141342246Y-82953817D01*
X141458268Y-82930739D01*
X141516278Y-82919200D01*
X141693722Y-82919200D01*
X141751732Y-82930739D01*
G37*
G36*
X136671732Y-82930739D02*
G01*
X136787754Y-82953817D01*
X136951689Y-83021721D01*
X137099227Y-83120303D01*
X137224697Y-83245773D01*
X137323279Y-83393311D01*
X137391183Y-83557246D01*
X137425800Y-83731279D01*
X137425800Y-83908721D01*
X137391183Y-84082754D01*
X137323279Y-84246689D01*
X137224697Y-84394227D01*
X137099227Y-84519697D01*
X136951689Y-84618279D01*
X136787754Y-84686183D01*
X136671732Y-84709261D01*
X136613722Y-84720800D01*
X136436278Y-84720800D01*
X136378268Y-84709261D01*
X136262246Y-84686183D01*
X136098311Y-84618279D01*
X135950773Y-84519697D01*
X135825303Y-84394227D01*
X135726721Y-84246689D01*
X135658817Y-84082754D01*
X135624200Y-83908721D01*
X135624200Y-83731279D01*
X135658817Y-83557246D01*
X135726721Y-83393311D01*
X135825303Y-83245773D01*
X135950773Y-83120303D01*
X136098311Y-83021721D01*
X136262246Y-82953817D01*
X136378268Y-82930739D01*
X136436278Y-82919200D01*
X136613722Y-82919200D01*
X136671732Y-82930739D01*
G37*
G36*
X134131732Y-82930739D02*
G01*
X134247754Y-82953817D01*
X134411689Y-83021721D01*
X134559227Y-83120303D01*
X134684697Y-83245773D01*
X134783279Y-83393311D01*
X134851183Y-83557246D01*
X134885800Y-83731279D01*
X134885800Y-83908721D01*
X134851183Y-84082754D01*
X134783279Y-84246689D01*
X134684697Y-84394227D01*
X134559227Y-84519697D01*
X134411689Y-84618279D01*
X134247754Y-84686183D01*
X134131732Y-84709261D01*
X134073722Y-84720800D01*
X133896278Y-84720800D01*
X133838268Y-84709261D01*
X133722246Y-84686183D01*
X133558311Y-84618279D01*
X133410773Y-84519697D01*
X133285303Y-84394227D01*
X133186721Y-84246689D01*
X133118817Y-84082754D01*
X133084200Y-83908721D01*
X133084200Y-83731279D01*
X133118817Y-83557246D01*
X133186721Y-83393311D01*
X133285303Y-83245773D01*
X133410773Y-83120303D01*
X133558311Y-83021721D01*
X133722246Y-82953817D01*
X133838268Y-82930739D01*
X133896278Y-82919200D01*
X134073722Y-82919200D01*
X134131732Y-82930739D01*
G37*
G36*
X131591732Y-82930739D02*
G01*
X131707754Y-82953817D01*
X131871689Y-83021721D01*
X132019227Y-83120303D01*
X132144697Y-83245773D01*
X132243279Y-83393311D01*
X132311183Y-83557246D01*
X132345800Y-83731279D01*
X132345800Y-83908721D01*
X132311183Y-84082754D01*
X132243279Y-84246689D01*
X132144697Y-84394227D01*
X132019227Y-84519697D01*
X131871689Y-84618279D01*
X131707754Y-84686183D01*
X131591732Y-84709261D01*
X131533722Y-84720800D01*
X131356278Y-84720800D01*
X131298268Y-84709261D01*
X131182246Y-84686183D01*
X131018311Y-84618279D01*
X130870773Y-84519697D01*
X130745303Y-84394227D01*
X130646721Y-84246689D01*
X130578817Y-84082754D01*
X130544200Y-83908721D01*
X130544200Y-83731279D01*
X130578817Y-83557246D01*
X130646721Y-83393311D01*
X130745303Y-83245773D01*
X130870773Y-83120303D01*
X131018311Y-83021721D01*
X131182246Y-82953817D01*
X131298268Y-82930739D01*
X131356278Y-82919200D01*
X131533722Y-82919200D01*
X131591732Y-82930739D01*
G37*
G36*
X129051732Y-82930739D02*
G01*
X129167754Y-82953817D01*
X129331689Y-83021721D01*
X129479227Y-83120303D01*
X129604697Y-83245773D01*
X129703279Y-83393311D01*
X129771183Y-83557246D01*
X129805800Y-83731279D01*
X129805800Y-83908721D01*
X129771183Y-84082754D01*
X129703279Y-84246689D01*
X129604697Y-84394227D01*
X129479227Y-84519697D01*
X129331689Y-84618279D01*
X129167754Y-84686183D01*
X129051732Y-84709261D01*
X128993722Y-84720800D01*
X128816278Y-84720800D01*
X128758268Y-84709261D01*
X128642246Y-84686183D01*
X128478311Y-84618279D01*
X128330773Y-84519697D01*
X128205303Y-84394227D01*
X128106721Y-84246689D01*
X128038817Y-84082754D01*
X128004200Y-83908721D01*
X128004200Y-83731279D01*
X128038817Y-83557246D01*
X128106721Y-83393311D01*
X128205303Y-83245773D01*
X128330773Y-83120303D01*
X128478311Y-83021721D01*
X128642246Y-82953817D01*
X128758268Y-82930739D01*
X128816278Y-82919200D01*
X128993722Y-82919200D01*
X129051732Y-82930739D01*
G37*
G36*
X123971732Y-82930739D02*
G01*
X124087754Y-82953817D01*
X124251689Y-83021721D01*
X124399227Y-83120303D01*
X124524697Y-83245773D01*
X124623279Y-83393311D01*
X124691183Y-83557246D01*
X124725800Y-83731279D01*
X124725800Y-83908721D01*
X124691183Y-84082754D01*
X124623279Y-84246689D01*
X124524697Y-84394227D01*
X124399227Y-84519697D01*
X124251689Y-84618279D01*
X124087754Y-84686183D01*
X123971732Y-84709261D01*
X123913722Y-84720800D01*
X123736278Y-84720800D01*
X123678268Y-84709261D01*
X123562246Y-84686183D01*
X123398311Y-84618279D01*
X123250773Y-84519697D01*
X123125303Y-84394227D01*
X123026721Y-84246689D01*
X122958817Y-84082754D01*
X122924200Y-83908721D01*
X122924200Y-83731279D01*
X122958817Y-83557246D01*
X123026721Y-83393311D01*
X123125303Y-83245773D01*
X123250773Y-83120303D01*
X123398311Y-83021721D01*
X123562246Y-82953817D01*
X123678268Y-82930739D01*
X123736278Y-82919200D01*
X123913722Y-82919200D01*
X123971732Y-82930739D01*
G37*
G36*
X159531732Y-82930739D02*
G01*
X159647754Y-82953817D01*
X159811689Y-83021721D01*
X159959227Y-83120303D01*
X160084697Y-83245773D01*
X160183279Y-83393311D01*
X160251183Y-83557246D01*
X160285800Y-83731279D01*
X160285800Y-83908721D01*
X160251183Y-84082754D01*
X160183279Y-84246689D01*
X160084697Y-84394227D01*
X159959227Y-84519697D01*
X159811689Y-84618279D01*
X159647754Y-84686183D01*
X159531732Y-84709261D01*
X159473722Y-84720800D01*
X159296278Y-84720800D01*
X159238268Y-84709261D01*
X159122246Y-84686183D01*
X158958311Y-84618279D01*
X158810773Y-84519697D01*
X158685303Y-84394227D01*
X158586721Y-84246689D01*
X158518817Y-84082754D01*
X158484200Y-83908721D01*
X158484200Y-83731279D01*
X158518817Y-83557246D01*
X158586721Y-83393311D01*
X158685303Y-83245773D01*
X158810773Y-83120303D01*
X158958311Y-83021721D01*
X159122246Y-82953817D01*
X159238268Y-82930739D01*
X159296278Y-82919200D01*
X159473722Y-82919200D01*
X159531732Y-82930739D01*
G37*
G36*
X139211732Y-82930739D02*
G01*
X139327754Y-82953817D01*
X139491689Y-83021721D01*
X139639227Y-83120303D01*
X139764697Y-83245773D01*
X139863279Y-83393311D01*
X139931183Y-83557246D01*
X139965800Y-83731279D01*
X139965800Y-83908721D01*
X139931183Y-84082754D01*
X139863279Y-84246689D01*
X139764697Y-84394227D01*
X139639227Y-84519697D01*
X139491689Y-84618279D01*
X139327754Y-84686183D01*
X139211732Y-84709261D01*
X139153722Y-84720800D01*
X138976278Y-84720800D01*
X138918268Y-84709261D01*
X138802246Y-84686183D01*
X138638311Y-84618279D01*
X138490773Y-84519697D01*
X138365303Y-84394227D01*
X138266721Y-84246689D01*
X138198817Y-84082754D01*
X138164200Y-83908721D01*
X138164200Y-83731279D01*
X138198817Y-83557246D01*
X138266721Y-83393311D01*
X138365303Y-83245773D01*
X138490773Y-83120303D01*
X138638311Y-83021721D01*
X138802246Y-82953817D01*
X138918268Y-82930739D01*
X138976278Y-82919200D01*
X139153722Y-82919200D01*
X139211732Y-82930739D01*
G37*
G36*
X122701732Y-80390739D02*
G01*
X122817754Y-80413817D01*
X122981689Y-80481721D01*
X123129227Y-80580303D01*
X123254697Y-80705773D01*
X123353279Y-80853311D01*
X123421183Y-81017246D01*
X123455800Y-81191279D01*
X123455800Y-81368721D01*
X123421183Y-81542754D01*
X123353279Y-81706689D01*
X123254697Y-81854227D01*
X123129227Y-81979697D01*
X122981689Y-82078279D01*
X122817754Y-82146183D01*
X122701732Y-82169261D01*
X122643722Y-82180800D01*
X122466278Y-82180800D01*
X122408268Y-82169261D01*
X122292246Y-82146183D01*
X122128311Y-82078279D01*
X121980773Y-81979697D01*
X121855303Y-81854227D01*
X121756721Y-81706689D01*
X121688817Y-81542754D01*
X121654200Y-81368721D01*
X121654200Y-81191279D01*
X121688817Y-81017246D01*
X121756721Y-80853311D01*
X121855303Y-80705773D01*
X121980773Y-80580303D01*
X122128311Y-80481721D01*
X122292246Y-80413817D01*
X122408268Y-80390739D01*
X122466278Y-80379200D01*
X122643722Y-80379200D01*
X122701732Y-80390739D01*
G37*
G36*
X125241732Y-80390739D02*
G01*
X125357754Y-80413817D01*
X125521689Y-80481721D01*
X125669227Y-80580303D01*
X125794697Y-80705773D01*
X125893279Y-80853311D01*
X125961183Y-81017246D01*
X125995800Y-81191279D01*
X125995800Y-81368721D01*
X125961183Y-81542754D01*
X125893279Y-81706689D01*
X125794697Y-81854227D01*
X125669227Y-81979697D01*
X125521689Y-82078279D01*
X125357754Y-82146183D01*
X125241732Y-82169261D01*
X125183722Y-82180800D01*
X125006278Y-82180800D01*
X124948268Y-82169261D01*
X124832246Y-82146183D01*
X124668311Y-82078279D01*
X124520773Y-81979697D01*
X124395303Y-81854227D01*
X124296721Y-81706689D01*
X124228817Y-81542754D01*
X124194200Y-81368721D01*
X124194200Y-81191279D01*
X124228817Y-81017246D01*
X124296721Y-80853311D01*
X124395303Y-80705773D01*
X124520773Y-80580303D01*
X124668311Y-80481721D01*
X124832246Y-80413817D01*
X124948268Y-80390739D01*
X125006278Y-80379200D01*
X125183722Y-80379200D01*
X125241732Y-80390739D01*
G37*
G36*
X127781732Y-80390739D02*
G01*
X127897754Y-80413817D01*
X128061689Y-80481721D01*
X128209227Y-80580303D01*
X128334697Y-80705773D01*
X128433279Y-80853311D01*
X128501183Y-81017246D01*
X128535800Y-81191279D01*
X128535800Y-81368721D01*
X128501183Y-81542754D01*
X128433279Y-81706689D01*
X128334697Y-81854227D01*
X128209227Y-81979697D01*
X128061689Y-82078279D01*
X127897754Y-82146183D01*
X127781732Y-82169261D01*
X127723722Y-82180800D01*
X127546278Y-82180800D01*
X127488268Y-82169261D01*
X127372246Y-82146183D01*
X127208311Y-82078279D01*
X127060773Y-81979697D01*
X126935303Y-81854227D01*
X126836721Y-81706689D01*
X126768817Y-81542754D01*
X126734200Y-81368721D01*
X126734200Y-81191279D01*
X126768817Y-81017246D01*
X126836721Y-80853311D01*
X126935303Y-80705773D01*
X127060773Y-80580303D01*
X127208311Y-80481721D01*
X127372246Y-80413817D01*
X127488268Y-80390739D01*
X127546278Y-80379200D01*
X127723722Y-80379200D01*
X127781732Y-80390739D01*
G37*
G36*
X132861732Y-80390739D02*
G01*
X132977754Y-80413817D01*
X133141689Y-80481721D01*
X133289227Y-80580303D01*
X133414697Y-80705773D01*
X133513279Y-80853311D01*
X133581183Y-81017246D01*
X133615800Y-81191279D01*
X133615800Y-81368721D01*
X133581183Y-81542754D01*
X133513279Y-81706689D01*
X133414697Y-81854227D01*
X133289227Y-81979697D01*
X133141689Y-82078279D01*
X132977754Y-82146183D01*
X132861732Y-82169261D01*
X132803722Y-82180800D01*
X132626278Y-82180800D01*
X132568268Y-82169261D01*
X132452246Y-82146183D01*
X132288311Y-82078279D01*
X132140773Y-81979697D01*
X132015303Y-81854227D01*
X131916721Y-81706689D01*
X131848817Y-81542754D01*
X131814200Y-81368721D01*
X131814200Y-81191279D01*
X131848817Y-81017246D01*
X131916721Y-80853311D01*
X132015303Y-80705773D01*
X132140773Y-80580303D01*
X132288311Y-80481721D01*
X132452246Y-80413817D01*
X132568268Y-80390739D01*
X132626278Y-80379200D01*
X132803722Y-80379200D01*
X132861732Y-80390739D01*
G37*
G36*
X135401732Y-80390739D02*
G01*
X135517754Y-80413817D01*
X135681689Y-80481721D01*
X135829227Y-80580303D01*
X135954697Y-80705773D01*
X136053279Y-80853311D01*
X136121183Y-81017246D01*
X136155800Y-81191279D01*
X136155800Y-81368721D01*
X136121183Y-81542754D01*
X136053279Y-81706689D01*
X135954697Y-81854227D01*
X135829227Y-81979697D01*
X135681689Y-82078279D01*
X135517754Y-82146183D01*
X135401732Y-82169261D01*
X135343722Y-82180800D01*
X135166278Y-82180800D01*
X135108268Y-82169261D01*
X134992246Y-82146183D01*
X134828311Y-82078279D01*
X134680773Y-81979697D01*
X134555303Y-81854227D01*
X134456721Y-81706689D01*
X134388817Y-81542754D01*
X134354200Y-81368721D01*
X134354200Y-81191279D01*
X134388817Y-81017246D01*
X134456721Y-80853311D01*
X134555303Y-80705773D01*
X134680773Y-80580303D01*
X134828311Y-80481721D01*
X134992246Y-80413817D01*
X135108268Y-80390739D01*
X135166278Y-80379200D01*
X135343722Y-80379200D01*
X135401732Y-80390739D01*
G37*
G36*
X137941732Y-80390739D02*
G01*
X138057754Y-80413817D01*
X138221689Y-80481721D01*
X138369227Y-80580303D01*
X138494697Y-80705773D01*
X138593279Y-80853311D01*
X138661183Y-81017246D01*
X138695800Y-81191279D01*
X138695800Y-81368721D01*
X138661183Y-81542754D01*
X138593279Y-81706689D01*
X138494697Y-81854227D01*
X138369227Y-81979697D01*
X138221689Y-82078279D01*
X138057754Y-82146183D01*
X137941732Y-82169261D01*
X137883722Y-82180800D01*
X137706278Y-82180800D01*
X137648268Y-82169261D01*
X137532246Y-82146183D01*
X137368311Y-82078279D01*
X137220773Y-81979697D01*
X137095303Y-81854227D01*
X136996721Y-81706689D01*
X136928817Y-81542754D01*
X136894200Y-81368721D01*
X136894200Y-81191279D01*
X136928817Y-81017246D01*
X136996721Y-80853311D01*
X137095303Y-80705773D01*
X137220773Y-80580303D01*
X137368311Y-80481721D01*
X137532246Y-80413817D01*
X137648268Y-80390739D01*
X137706278Y-80379200D01*
X137883722Y-80379200D01*
X137941732Y-80390739D01*
G37*
G36*
X130321732Y-80390739D02*
G01*
X130437754Y-80413817D01*
X130601689Y-80481721D01*
X130749227Y-80580303D01*
X130874697Y-80705773D01*
X130973279Y-80853311D01*
X131041183Y-81017246D01*
X131075800Y-81191279D01*
X131075800Y-81368721D01*
X131041183Y-81542754D01*
X130973279Y-81706689D01*
X130874697Y-81854227D01*
X130749227Y-81979697D01*
X130601689Y-82078279D01*
X130437754Y-82146183D01*
X130321732Y-82169261D01*
X130263722Y-82180800D01*
X130086278Y-82180800D01*
X130028268Y-82169261D01*
X129912246Y-82146183D01*
X129748311Y-82078279D01*
X129600773Y-81979697D01*
X129475303Y-81854227D01*
X129376721Y-81706689D01*
X129308817Y-81542754D01*
X129274200Y-81368721D01*
X129274200Y-81191279D01*
X129308817Y-81017246D01*
X129376721Y-80853311D01*
X129475303Y-80705773D01*
X129600773Y-80580303D01*
X129748311Y-80481721D01*
X129912246Y-80413817D01*
X130028268Y-80390739D01*
X130086278Y-80379200D01*
X130263722Y-80379200D01*
X130321732Y-80390739D01*
G37*
G36*
X143021732Y-80390739D02*
G01*
X143137754Y-80413817D01*
X143301689Y-80481721D01*
X143449227Y-80580303D01*
X143574697Y-80705773D01*
X143673279Y-80853311D01*
X143741183Y-81017246D01*
X143775800Y-81191279D01*
X143775800Y-81368721D01*
X143741183Y-81542754D01*
X143673279Y-81706689D01*
X143574697Y-81854227D01*
X143449227Y-81979697D01*
X143301689Y-82078279D01*
X143137754Y-82146183D01*
X143021732Y-82169261D01*
X142963722Y-82180800D01*
X142786278Y-82180800D01*
X142728268Y-82169261D01*
X142612246Y-82146183D01*
X142448311Y-82078279D01*
X142300773Y-81979697D01*
X142175303Y-81854227D01*
X142076721Y-81706689D01*
X142008817Y-81542754D01*
X141974200Y-81368721D01*
X141974200Y-81191279D01*
X142008817Y-81017246D01*
X142076721Y-80853311D01*
X142175303Y-80705773D01*
X142300773Y-80580303D01*
X142448311Y-80481721D01*
X142612246Y-80413817D01*
X142728268Y-80390739D01*
X142786278Y-80379200D01*
X142963722Y-80379200D01*
X143021732Y-80390739D01*
G37*
G36*
X145561732Y-80390739D02*
G01*
X145677754Y-80413817D01*
X145841689Y-80481721D01*
X145989227Y-80580303D01*
X146114697Y-80705773D01*
X146213279Y-80853311D01*
X146281183Y-81017246D01*
X146315800Y-81191279D01*
X146315800Y-81368721D01*
X146281183Y-81542754D01*
X146213279Y-81706689D01*
X146114697Y-81854227D01*
X145989227Y-81979697D01*
X145841689Y-82078279D01*
X145677754Y-82146183D01*
X145561732Y-82169261D01*
X145503722Y-82180800D01*
X145326278Y-82180800D01*
X145268268Y-82169261D01*
X145152246Y-82146183D01*
X144988311Y-82078279D01*
X144840773Y-81979697D01*
X144715303Y-81854227D01*
X144616721Y-81706689D01*
X144548817Y-81542754D01*
X144514200Y-81368721D01*
X144514200Y-81191279D01*
X144548817Y-81017246D01*
X144616721Y-80853311D01*
X144715303Y-80705773D01*
X144840773Y-80580303D01*
X144988311Y-80481721D01*
X145152246Y-80413817D01*
X145268268Y-80390739D01*
X145326278Y-80379200D01*
X145503722Y-80379200D01*
X145561732Y-80390739D01*
G37*
G36*
X148101732Y-80390739D02*
G01*
X148217754Y-80413817D01*
X148381689Y-80481721D01*
X148529227Y-80580303D01*
X148654697Y-80705773D01*
X148753279Y-80853311D01*
X148821183Y-81017246D01*
X148855800Y-81191279D01*
X148855800Y-81368721D01*
X148821183Y-81542754D01*
X148753279Y-81706689D01*
X148654697Y-81854227D01*
X148529227Y-81979697D01*
X148381689Y-82078279D01*
X148217754Y-82146183D01*
X148101732Y-82169261D01*
X148043722Y-82180800D01*
X147866278Y-82180800D01*
X147808268Y-82169261D01*
X147692246Y-82146183D01*
X147528311Y-82078279D01*
X147380773Y-81979697D01*
X147255303Y-81854227D01*
X147156721Y-81706689D01*
X147088817Y-81542754D01*
X147054200Y-81368721D01*
X147054200Y-81191279D01*
X147088817Y-81017246D01*
X147156721Y-80853311D01*
X147255303Y-80705773D01*
X147380773Y-80580303D01*
X147528311Y-80481721D01*
X147692246Y-80413817D01*
X147808268Y-80390739D01*
X147866278Y-80379200D01*
X148043722Y-80379200D01*
X148101732Y-80390739D01*
G37*
G36*
X150641732Y-80390739D02*
G01*
X150757754Y-80413817D01*
X150921689Y-80481721D01*
X151069227Y-80580303D01*
X151194697Y-80705773D01*
X151293279Y-80853311D01*
X151361183Y-81017246D01*
X151395800Y-81191279D01*
X151395800Y-81368721D01*
X151361183Y-81542754D01*
X151293279Y-81706689D01*
X151194697Y-81854227D01*
X151069227Y-81979697D01*
X150921689Y-82078279D01*
X150757754Y-82146183D01*
X150641732Y-82169261D01*
X150583722Y-82180800D01*
X150406278Y-82180800D01*
X150348268Y-82169261D01*
X150232246Y-82146183D01*
X150068311Y-82078279D01*
X149920773Y-81979697D01*
X149795303Y-81854227D01*
X149696721Y-81706689D01*
X149628817Y-81542754D01*
X149594200Y-81368721D01*
X149594200Y-81191279D01*
X149628817Y-81017246D01*
X149696721Y-80853311D01*
X149795303Y-80705773D01*
X149920773Y-80580303D01*
X150068311Y-80481721D01*
X150232246Y-80413817D01*
X150348268Y-80390739D01*
X150406278Y-80379200D01*
X150583722Y-80379200D01*
X150641732Y-80390739D01*
G37*
G36*
X153181732Y-80390739D02*
G01*
X153297754Y-80413817D01*
X153461689Y-80481721D01*
X153609227Y-80580303D01*
X153734697Y-80705773D01*
X153833279Y-80853311D01*
X153901183Y-81017246D01*
X153935800Y-81191279D01*
X153935800Y-81368721D01*
X153901183Y-81542754D01*
X153833279Y-81706689D01*
X153734697Y-81854227D01*
X153609227Y-81979697D01*
X153461689Y-82078279D01*
X153297754Y-82146183D01*
X153181732Y-82169261D01*
X153123722Y-82180800D01*
X152946278Y-82180800D01*
X152888268Y-82169261D01*
X152772246Y-82146183D01*
X152608311Y-82078279D01*
X152460773Y-81979697D01*
X152335303Y-81854227D01*
X152236721Y-81706689D01*
X152168817Y-81542754D01*
X152134200Y-81368721D01*
X152134200Y-81191279D01*
X152168817Y-81017246D01*
X152236721Y-80853311D01*
X152335303Y-80705773D01*
X152460773Y-80580303D01*
X152608311Y-80481721D01*
X152772246Y-80413817D01*
X152888268Y-80390739D01*
X152946278Y-80379200D01*
X153123722Y-80379200D01*
X153181732Y-80390739D01*
G37*
G36*
X155721732Y-80390739D02*
G01*
X155837754Y-80413817D01*
X156001689Y-80481721D01*
X156149227Y-80580303D01*
X156274697Y-80705773D01*
X156373279Y-80853311D01*
X156441183Y-81017246D01*
X156475800Y-81191279D01*
X156475800Y-81368721D01*
X156441183Y-81542754D01*
X156373279Y-81706689D01*
X156274697Y-81854227D01*
X156149227Y-81979697D01*
X156001689Y-82078279D01*
X155837754Y-82146183D01*
X155721732Y-82169261D01*
X155663722Y-82180800D01*
X155486278Y-82180800D01*
X155428268Y-82169261D01*
X155312246Y-82146183D01*
X155148311Y-82078279D01*
X155000773Y-81979697D01*
X154875303Y-81854227D01*
X154776721Y-81706689D01*
X154708817Y-81542754D01*
X154674200Y-81368721D01*
X154674200Y-81191279D01*
X154708817Y-81017246D01*
X154776721Y-80853311D01*
X154875303Y-80705773D01*
X155000773Y-80580303D01*
X155148311Y-80481721D01*
X155312246Y-80413817D01*
X155428268Y-80390739D01*
X155486278Y-80379200D01*
X155663722Y-80379200D01*
X155721732Y-80390739D01*
G37*
G36*
X158261732Y-80390739D02*
G01*
X158377754Y-80413817D01*
X158541689Y-80481721D01*
X158689227Y-80580303D01*
X158814697Y-80705773D01*
X158913279Y-80853311D01*
X158981183Y-81017246D01*
X159015800Y-81191279D01*
X159015800Y-81368721D01*
X158981183Y-81542754D01*
X158913279Y-81706689D01*
X158814697Y-81854227D01*
X158689227Y-81979697D01*
X158541689Y-82078279D01*
X158377754Y-82146183D01*
X158261732Y-82169261D01*
X158203722Y-82180800D01*
X158026278Y-82180800D01*
X157968268Y-82169261D01*
X157852246Y-82146183D01*
X157688311Y-82078279D01*
X157540773Y-81979697D01*
X157415303Y-81854227D01*
X157316721Y-81706689D01*
X157248817Y-81542754D01*
X157214200Y-81368721D01*
X157214200Y-81191279D01*
X157248817Y-81017246D01*
X157316721Y-80853311D01*
X157415303Y-80705773D01*
X157540773Y-80580303D01*
X157688311Y-80481721D01*
X157852246Y-80413817D01*
X157968268Y-80390739D01*
X158026278Y-80379200D01*
X158203722Y-80379200D01*
X158261732Y-80390739D01*
G37*
G36*
X160801732Y-80390739D02*
G01*
X160917754Y-80413817D01*
X161081689Y-80481721D01*
X161229227Y-80580303D01*
X161354697Y-80705773D01*
X161453279Y-80853311D01*
X161521183Y-81017246D01*
X161555800Y-81191279D01*
X161555800Y-81368721D01*
X161521183Y-81542754D01*
X161453279Y-81706689D01*
X161354697Y-81854227D01*
X161229227Y-81979697D01*
X161081689Y-82078279D01*
X160917754Y-82146183D01*
X160801732Y-82169261D01*
X160743722Y-82180800D01*
X160566278Y-82180800D01*
X160508268Y-82169261D01*
X160392246Y-82146183D01*
X160228311Y-82078279D01*
X160080773Y-81979697D01*
X159955303Y-81854227D01*
X159856721Y-81706689D01*
X159788817Y-81542754D01*
X159754200Y-81368721D01*
X159754200Y-81191279D01*
X159788817Y-81017246D01*
X159856721Y-80853311D01*
X159955303Y-80705773D01*
X160080773Y-80580303D01*
X160228311Y-80481721D01*
X160392246Y-80413817D01*
X160508268Y-80390739D01*
X160566278Y-80379200D01*
X160743722Y-80379200D01*
X160801732Y-80390739D01*
G37*
G36*
X140481732Y-80390739D02*
G01*
X140597754Y-80413817D01*
X140761689Y-80481721D01*
X140909227Y-80580303D01*
X141034697Y-80705773D01*
X141133279Y-80853311D01*
X141201183Y-81017246D01*
X141235800Y-81191279D01*
X141235800Y-81368721D01*
X141201183Y-81542754D01*
X141133279Y-81706689D01*
X141034697Y-81854227D01*
X140909227Y-81979697D01*
X140761689Y-82078279D01*
X140597754Y-82146183D01*
X140481732Y-82169261D01*
X140423722Y-82180800D01*
X140246278Y-82180800D01*
X140188268Y-82169261D01*
X140072246Y-82146183D01*
X139908311Y-82078279D01*
X139760773Y-81979697D01*
X139635303Y-81854227D01*
X139536721Y-81706689D01*
X139468817Y-81542754D01*
X139434200Y-81368721D01*
X139434200Y-81191279D01*
X139468817Y-81017246D01*
X139536721Y-80853311D01*
X139635303Y-80705773D01*
X139760773Y-80580303D01*
X139908311Y-80481721D01*
X140072246Y-80413817D01*
X140188268Y-80390739D01*
X140246278Y-80379200D01*
X140423722Y-80379200D01*
X140481732Y-80390739D01*
G37*
M02*
