G04 #@! TF.GenerationSoftware,KiCad,Pcbnew,5.1.5-52549c5~84~ubuntu18.04.1*
G04 #@! TF.CreationDate,2020-01-18T20:00:26-07:00*
G04 #@! TF.ProjectId,FeatherWing_KC5,46656174-6865-4725-9769-6e675f4b4335,rev?*
G04 #@! TF.SameCoordinates,Original*
G04 #@! TF.FileFunction,Soldermask,Top*
G04 #@! TF.FilePolarity,Negative*
%FSLAX46Y46*%
G04 Gerber Fmt 4.6, Leading zero omitted, Abs format (unit mm)*
G04 Created by KiCad (PCBNEW 5.1.5-52549c5~84~ubuntu18.04.1) date 2020-01-18 20:00:26*
%MOMM*%
%LPD*%
G04 APERTURE LIST*
%ADD10C,0.010000*%
%ADD11C,0.100000*%
G04 APERTURE END LIST*
D10*
G36*
X161034171Y-94196746D02*
G01*
X161087287Y-94113408D01*
X161166836Y-94030742D01*
X161265471Y-93954104D01*
X161375845Y-93888850D01*
X161490612Y-93840337D01*
X161602426Y-93813924D01*
X161652153Y-93810666D01*
X161717002Y-93813485D01*
X161763116Y-93827034D01*
X161807341Y-93858956D01*
X161850470Y-93900625D01*
X161901562Y-93959614D01*
X161943882Y-94028312D01*
X161984190Y-94118911D01*
X162010212Y-94188835D01*
X162042771Y-94278348D01*
X162065529Y-94333321D01*
X162082039Y-94359390D01*
X162095855Y-94362187D01*
X162110350Y-94347585D01*
X162169605Y-94250100D01*
X162215804Y-94129956D01*
X162252493Y-93977799D01*
X162254510Y-93967231D01*
X162272442Y-93878766D01*
X162290031Y-93803303D01*
X162304415Y-93752732D01*
X162308761Y-93741875D01*
X162315417Y-93717516D01*
X162296196Y-93706960D01*
X162249516Y-93704833D01*
X162184390Y-93693830D01*
X162093793Y-93663051D01*
X161996587Y-93620166D01*
X161901018Y-93575255D01*
X161835175Y-93548562D01*
X161791552Y-93538162D01*
X161762642Y-93542128D01*
X161744024Y-93555361D01*
X161712740Y-93569332D01*
X161654953Y-93583161D01*
X161614884Y-93589560D01*
X161549095Y-93596156D01*
X161510853Y-93591417D01*
X161486095Y-93571789D01*
X161473430Y-93553824D01*
X161450591Y-93503512D01*
X161423578Y-93420452D01*
X161394618Y-93313741D01*
X161365937Y-93192478D01*
X161339761Y-93065762D01*
X161318317Y-92942691D01*
X161310317Y-92887269D01*
X161298761Y-92795801D01*
X161294001Y-92736302D01*
X161296847Y-92698836D01*
X161308106Y-92673463D01*
X161328587Y-92650248D01*
X161329688Y-92649144D01*
X161361920Y-92610472D01*
X161374666Y-92583000D01*
X161393024Y-92567998D01*
X161436630Y-92561833D01*
X161503512Y-92581846D01*
X161556725Y-92641549D01*
X161595897Y-92740444D01*
X161607510Y-92790661D01*
X161626903Y-92878820D01*
X161649704Y-92967946D01*
X161660899Y-93006333D01*
X161681911Y-93078092D01*
X161698728Y-93143148D01*
X161702391Y-93159791D01*
X161722682Y-93204665D01*
X161748406Y-93218000D01*
X161765699Y-93212811D01*
X161774150Y-93191562D01*
X161774870Y-93145727D01*
X161768967Y-93066780D01*
X161768609Y-93062805D01*
X161754545Y-92907610D01*
X161827768Y-92829972D01*
X161876350Y-92784939D01*
X161918340Y-92756923D01*
X161933733Y-92752333D01*
X161960975Y-92769469D01*
X161998352Y-92813936D01*
X162030206Y-92863458D01*
X162064069Y-92928130D01*
X162083404Y-92985410D01*
X162092122Y-93052158D01*
X162094134Y-93138936D01*
X162094944Y-93221916D01*
X162099589Y-93273616D01*
X162111766Y-93305089D01*
X162135172Y-93327387D01*
X162163125Y-93345232D01*
X162211623Y-93372488D01*
X162244285Y-93386681D01*
X162247791Y-93387254D01*
X162258667Y-93367802D01*
X162263140Y-93314807D01*
X162261530Y-93236520D01*
X162254160Y-93141194D01*
X162241351Y-93037081D01*
X162231816Y-92977404D01*
X162199966Y-92794762D01*
X162277467Y-92721662D01*
X162331382Y-92677204D01*
X162373809Y-92664599D01*
X162416849Y-92684765D01*
X162470452Y-92736316D01*
X162506056Y-92796437D01*
X162537902Y-92894488D01*
X162564958Y-93026156D01*
X162586191Y-93187125D01*
X162591380Y-93241731D01*
X162594301Y-93398669D01*
X162572630Y-93521685D01*
X162526220Y-93611420D01*
X162500554Y-93638262D01*
X162465343Y-93670519D01*
X162461024Y-93681853D01*
X162486001Y-93678481D01*
X162490465Y-93677480D01*
X162547369Y-93685823D01*
X162591007Y-93716582D01*
X162631746Y-93783122D01*
X162643677Y-93880235D01*
X162626807Y-94007482D01*
X162582715Y-94159916D01*
X162512347Y-94342028D01*
X162439692Y-94490594D01*
X162369500Y-94597380D01*
X162369500Y-93704833D01*
X162386922Y-93697089D01*
X162383611Y-93690722D01*
X162358491Y-93688189D01*
X162355388Y-93690722D01*
X162358294Y-93703306D01*
X162369500Y-93704833D01*
X162369500Y-94597380D01*
X162366799Y-94601490D01*
X162358207Y-94611982D01*
X162324202Y-94654040D01*
X162316388Y-94673124D01*
X162333277Y-94678297D01*
X162347294Y-94678500D01*
X162394218Y-94687938D01*
X162455949Y-94711469D01*
X162474388Y-94720351D01*
X162542085Y-94772410D01*
X162574704Y-94837413D01*
X162569500Y-94907645D01*
X162552897Y-94940742D01*
X162503817Y-94983259D01*
X162426883Y-95015047D01*
X162336029Y-95032144D01*
X162245192Y-95030586D01*
X162239797Y-95029773D01*
X162152220Y-95015769D01*
X162218131Y-95090837D01*
X162258379Y-95139305D01*
X162291070Y-95187079D01*
X162319556Y-95241956D01*
X162347186Y-95311735D01*
X162377312Y-95404215D01*
X162413286Y-95527195D01*
X162427954Y-95579157D01*
X162492202Y-95825142D01*
X162537202Y-96036604D01*
X162562871Y-96212885D01*
X162569131Y-96353329D01*
X162555900Y-96457277D01*
X162540194Y-96498833D01*
X162461152Y-96606041D01*
X162352152Y-96686896D01*
X162218462Y-96738526D01*
X162065350Y-96758056D01*
X162064945Y-96758062D01*
X161959740Y-96740814D01*
X161841820Y-96688664D01*
X161715604Y-96605426D01*
X161585507Y-96494910D01*
X161455948Y-96360929D01*
X161331344Y-96207293D01*
X161216111Y-96037814D01*
X161200351Y-96012000D01*
X161149410Y-95928717D01*
X161102304Y-95854118D01*
X161066014Y-95799152D01*
X161053460Y-95781604D01*
X161028284Y-95734707D01*
X161015892Y-95684477D01*
X161018092Y-95645194D01*
X161034414Y-95631000D01*
X161055205Y-95614029D01*
X161086069Y-95570868D01*
X161103441Y-95541362D01*
X161140812Y-95483478D01*
X161179938Y-95453163D01*
X161236741Y-95438095D01*
X161236911Y-95438067D01*
X161295889Y-95431344D01*
X161337671Y-95431663D01*
X161343453Y-95433052D01*
X161362504Y-95454880D01*
X161393857Y-95505628D01*
X161431867Y-95575877D01*
X161446592Y-95605138D01*
X161498708Y-95704512D01*
X161559380Y-95810999D01*
X161615901Y-95902335D01*
X161618431Y-95906166D01*
X161684181Y-95993662D01*
X161772299Y-96095006D01*
X161871964Y-96199068D01*
X161972353Y-96294720D01*
X162062647Y-96370832D01*
X162089129Y-96390285D01*
X162134459Y-96419131D01*
X162157992Y-96423331D01*
X162170863Y-96404838D01*
X162170941Y-96404637D01*
X162177648Y-96355100D01*
X162175023Y-96272926D01*
X162163950Y-96166562D01*
X162145311Y-96044454D01*
X162126083Y-95946191D01*
X162126083Y-95017166D01*
X162136666Y-95006583D01*
X162126083Y-94996000D01*
X162115500Y-95006583D01*
X162126083Y-95017166D01*
X162126083Y-95946191D01*
X162119989Y-95915048D01*
X162119575Y-95913150D01*
X162095009Y-95803292D01*
X162075388Y-95729576D01*
X162056818Y-95686742D01*
X162035409Y-95669529D01*
X162007267Y-95672680D01*
X161968499Y-95690934D01*
X161958904Y-95696054D01*
X161902850Y-95720575D01*
X161859283Y-95730076D01*
X161849866Y-95728776D01*
X161820298Y-95732495D01*
X161813973Y-95741830D01*
X161793083Y-95757872D01*
X161756969Y-95741510D01*
X161711857Y-95696839D01*
X161680176Y-95653837D01*
X161623869Y-95568752D01*
X161705643Y-95407939D01*
X161761733Y-95309864D01*
X161830947Y-95205852D01*
X161898532Y-95118039D01*
X161900049Y-95116271D01*
X161954793Y-95050565D01*
X161983357Y-95009617D01*
X161988863Y-94987634D01*
X161974433Y-94978822D01*
X161974132Y-94978769D01*
X161917020Y-94967785D01*
X161837674Y-94951059D01*
X161745690Y-94930794D01*
X161707598Y-94922135D01*
X161707598Y-94506879D01*
X161728909Y-94503455D01*
X161727967Y-94467496D01*
X161706810Y-94396668D01*
X161680017Y-94322269D01*
X161644836Y-94238405D01*
X161612790Y-94193547D01*
X161578285Y-94185278D01*
X161535726Y-94211178D01*
X161501265Y-94245010D01*
X161475426Y-94277043D01*
X161469409Y-94304841D01*
X161486996Y-94336091D01*
X161531972Y-94378479D01*
X161590081Y-94425468D01*
X161662001Y-94480105D01*
X161707598Y-94506879D01*
X161707598Y-94922135D01*
X161650660Y-94909191D01*
X161562179Y-94888451D01*
X161489840Y-94870775D01*
X161443238Y-94858365D01*
X161431397Y-94854233D01*
X161420848Y-94827327D01*
X161421851Y-94782043D01*
X161423484Y-94747624D01*
X161413587Y-94716452D01*
X161386772Y-94682156D01*
X161337649Y-94638366D01*
X161260831Y-94578710D01*
X161230857Y-94556227D01*
X161127629Y-94468409D01*
X161055918Y-94383953D01*
X161019111Y-94307266D01*
X161014833Y-94275397D01*
X161034171Y-94196746D01*
G37*
X161034171Y-94196746D02*
X161087287Y-94113408D01*
X161166836Y-94030742D01*
X161265471Y-93954104D01*
X161375845Y-93888850D01*
X161490612Y-93840337D01*
X161602426Y-93813924D01*
X161652153Y-93810666D01*
X161717002Y-93813485D01*
X161763116Y-93827034D01*
X161807341Y-93858956D01*
X161850470Y-93900625D01*
X161901562Y-93959614D01*
X161943882Y-94028312D01*
X161984190Y-94118911D01*
X162010212Y-94188835D01*
X162042771Y-94278348D01*
X162065529Y-94333321D01*
X162082039Y-94359390D01*
X162095855Y-94362187D01*
X162110350Y-94347585D01*
X162169605Y-94250100D01*
X162215804Y-94129956D01*
X162252493Y-93977799D01*
X162254510Y-93967231D01*
X162272442Y-93878766D01*
X162290031Y-93803303D01*
X162304415Y-93752732D01*
X162308761Y-93741875D01*
X162315417Y-93717516D01*
X162296196Y-93706960D01*
X162249516Y-93704833D01*
X162184390Y-93693830D01*
X162093793Y-93663051D01*
X161996587Y-93620166D01*
X161901018Y-93575255D01*
X161835175Y-93548562D01*
X161791552Y-93538162D01*
X161762642Y-93542128D01*
X161744024Y-93555361D01*
X161712740Y-93569332D01*
X161654953Y-93583161D01*
X161614884Y-93589560D01*
X161549095Y-93596156D01*
X161510853Y-93591417D01*
X161486095Y-93571789D01*
X161473430Y-93553824D01*
X161450591Y-93503512D01*
X161423578Y-93420452D01*
X161394618Y-93313741D01*
X161365937Y-93192478D01*
X161339761Y-93065762D01*
X161318317Y-92942691D01*
X161310317Y-92887269D01*
X161298761Y-92795801D01*
X161294001Y-92736302D01*
X161296847Y-92698836D01*
X161308106Y-92673463D01*
X161328587Y-92650248D01*
X161329688Y-92649144D01*
X161361920Y-92610472D01*
X161374666Y-92583000D01*
X161393024Y-92567998D01*
X161436630Y-92561833D01*
X161503512Y-92581846D01*
X161556725Y-92641549D01*
X161595897Y-92740444D01*
X161607510Y-92790661D01*
X161626903Y-92878820D01*
X161649704Y-92967946D01*
X161660899Y-93006333D01*
X161681911Y-93078092D01*
X161698728Y-93143148D01*
X161702391Y-93159791D01*
X161722682Y-93204665D01*
X161748406Y-93218000D01*
X161765699Y-93212811D01*
X161774150Y-93191562D01*
X161774870Y-93145727D01*
X161768967Y-93066780D01*
X161768609Y-93062805D01*
X161754545Y-92907610D01*
X161827768Y-92829972D01*
X161876350Y-92784939D01*
X161918340Y-92756923D01*
X161933733Y-92752333D01*
X161960975Y-92769469D01*
X161998352Y-92813936D01*
X162030206Y-92863458D01*
X162064069Y-92928130D01*
X162083404Y-92985410D01*
X162092122Y-93052158D01*
X162094134Y-93138936D01*
X162094944Y-93221916D01*
X162099589Y-93273616D01*
X162111766Y-93305089D01*
X162135172Y-93327387D01*
X162163125Y-93345232D01*
X162211623Y-93372488D01*
X162244285Y-93386681D01*
X162247791Y-93387254D01*
X162258667Y-93367802D01*
X162263140Y-93314807D01*
X162261530Y-93236520D01*
X162254160Y-93141194D01*
X162241351Y-93037081D01*
X162231816Y-92977404D01*
X162199966Y-92794762D01*
X162277467Y-92721662D01*
X162331382Y-92677204D01*
X162373809Y-92664599D01*
X162416849Y-92684765D01*
X162470452Y-92736316D01*
X162506056Y-92796437D01*
X162537902Y-92894488D01*
X162564958Y-93026156D01*
X162586191Y-93187125D01*
X162591380Y-93241731D01*
X162594301Y-93398669D01*
X162572630Y-93521685D01*
X162526220Y-93611420D01*
X162500554Y-93638262D01*
X162465343Y-93670519D01*
X162461024Y-93681853D01*
X162486001Y-93678481D01*
X162490465Y-93677480D01*
X162547369Y-93685823D01*
X162591007Y-93716582D01*
X162631746Y-93783122D01*
X162643677Y-93880235D01*
X162626807Y-94007482D01*
X162582715Y-94159916D01*
X162512347Y-94342028D01*
X162439692Y-94490594D01*
X162369500Y-94597380D01*
X162369500Y-93704833D01*
X162386922Y-93697089D01*
X162383611Y-93690722D01*
X162358491Y-93688189D01*
X162355388Y-93690722D01*
X162358294Y-93703306D01*
X162369500Y-93704833D01*
X162369500Y-94597380D01*
X162366799Y-94601490D01*
X162358207Y-94611982D01*
X162324202Y-94654040D01*
X162316388Y-94673124D01*
X162333277Y-94678297D01*
X162347294Y-94678500D01*
X162394218Y-94687938D01*
X162455949Y-94711469D01*
X162474388Y-94720351D01*
X162542085Y-94772410D01*
X162574704Y-94837413D01*
X162569500Y-94907645D01*
X162552897Y-94940742D01*
X162503817Y-94983259D01*
X162426883Y-95015047D01*
X162336029Y-95032144D01*
X162245192Y-95030586D01*
X162239797Y-95029773D01*
X162152220Y-95015769D01*
X162218131Y-95090837D01*
X162258379Y-95139305D01*
X162291070Y-95187079D01*
X162319556Y-95241956D01*
X162347186Y-95311735D01*
X162377312Y-95404215D01*
X162413286Y-95527195D01*
X162427954Y-95579157D01*
X162492202Y-95825142D01*
X162537202Y-96036604D01*
X162562871Y-96212885D01*
X162569131Y-96353329D01*
X162555900Y-96457277D01*
X162540194Y-96498833D01*
X162461152Y-96606041D01*
X162352152Y-96686896D01*
X162218462Y-96738526D01*
X162065350Y-96758056D01*
X162064945Y-96758062D01*
X161959740Y-96740814D01*
X161841820Y-96688664D01*
X161715604Y-96605426D01*
X161585507Y-96494910D01*
X161455948Y-96360929D01*
X161331344Y-96207293D01*
X161216111Y-96037814D01*
X161200351Y-96012000D01*
X161149410Y-95928717D01*
X161102304Y-95854118D01*
X161066014Y-95799152D01*
X161053460Y-95781604D01*
X161028284Y-95734707D01*
X161015892Y-95684477D01*
X161018092Y-95645194D01*
X161034414Y-95631000D01*
X161055205Y-95614029D01*
X161086069Y-95570868D01*
X161103441Y-95541362D01*
X161140812Y-95483478D01*
X161179938Y-95453163D01*
X161236741Y-95438095D01*
X161236911Y-95438067D01*
X161295889Y-95431344D01*
X161337671Y-95431663D01*
X161343453Y-95433052D01*
X161362504Y-95454880D01*
X161393857Y-95505628D01*
X161431867Y-95575877D01*
X161446592Y-95605138D01*
X161498708Y-95704512D01*
X161559380Y-95810999D01*
X161615901Y-95902335D01*
X161618431Y-95906166D01*
X161684181Y-95993662D01*
X161772299Y-96095006D01*
X161871964Y-96199068D01*
X161972353Y-96294720D01*
X162062647Y-96370832D01*
X162089129Y-96390285D01*
X162134459Y-96419131D01*
X162157992Y-96423331D01*
X162170863Y-96404838D01*
X162170941Y-96404637D01*
X162177648Y-96355100D01*
X162175023Y-96272926D01*
X162163950Y-96166562D01*
X162145311Y-96044454D01*
X162126083Y-95946191D01*
X162126083Y-95017166D01*
X162136666Y-95006583D01*
X162126083Y-94996000D01*
X162115500Y-95006583D01*
X162126083Y-95017166D01*
X162126083Y-95946191D01*
X162119989Y-95915048D01*
X162119575Y-95913150D01*
X162095009Y-95803292D01*
X162075388Y-95729576D01*
X162056818Y-95686742D01*
X162035409Y-95669529D01*
X162007267Y-95672680D01*
X161968499Y-95690934D01*
X161958904Y-95696054D01*
X161902850Y-95720575D01*
X161859283Y-95730076D01*
X161849866Y-95728776D01*
X161820298Y-95732495D01*
X161813973Y-95741830D01*
X161793083Y-95757872D01*
X161756969Y-95741510D01*
X161711857Y-95696839D01*
X161680176Y-95653837D01*
X161623869Y-95568752D01*
X161705643Y-95407939D01*
X161761733Y-95309864D01*
X161830947Y-95205852D01*
X161898532Y-95118039D01*
X161900049Y-95116271D01*
X161954793Y-95050565D01*
X161983357Y-95009617D01*
X161988863Y-94987634D01*
X161974433Y-94978822D01*
X161974132Y-94978769D01*
X161917020Y-94967785D01*
X161837674Y-94951059D01*
X161745690Y-94930794D01*
X161707598Y-94922135D01*
X161707598Y-94506879D01*
X161728909Y-94503455D01*
X161727967Y-94467496D01*
X161706810Y-94396668D01*
X161680017Y-94322269D01*
X161644836Y-94238405D01*
X161612790Y-94193547D01*
X161578285Y-94185278D01*
X161535726Y-94211178D01*
X161501265Y-94245010D01*
X161475426Y-94277043D01*
X161469409Y-94304841D01*
X161486996Y-94336091D01*
X161531972Y-94378479D01*
X161590081Y-94425468D01*
X161662001Y-94480105D01*
X161707598Y-94506879D01*
X161707598Y-94922135D01*
X161650660Y-94909191D01*
X161562179Y-94888451D01*
X161489840Y-94870775D01*
X161443238Y-94858365D01*
X161431397Y-94854233D01*
X161420848Y-94827327D01*
X161421851Y-94782043D01*
X161423484Y-94747624D01*
X161413587Y-94716452D01*
X161386772Y-94682156D01*
X161337649Y-94638366D01*
X161260831Y-94578710D01*
X161230857Y-94556227D01*
X161127629Y-94468409D01*
X161055918Y-94383953D01*
X161019111Y-94307266D01*
X161014833Y-94275397D01*
X161034171Y-94196746D01*
G36*
X161282410Y-91675527D02*
G01*
X161316936Y-91624711D01*
X161340450Y-91597014D01*
X161385687Y-91553881D01*
X161427156Y-91533622D01*
X161471764Y-91538106D01*
X161526420Y-91569201D01*
X161598030Y-91628776D01*
X161655406Y-91682196D01*
X161762928Y-91772548D01*
X161908353Y-91875570D01*
X162089630Y-91989939D01*
X162304708Y-92114333D01*
X162443583Y-92190259D01*
X162548768Y-92251668D01*
X162615613Y-92302273D01*
X162643174Y-92341328D01*
X162643838Y-92348920D01*
X162635599Y-92374649D01*
X162616720Y-92421072D01*
X162615119Y-92424763D01*
X162570739Y-92483978D01*
X162505077Y-92526710D01*
X162444735Y-92540666D01*
X162414891Y-92531433D01*
X162356902Y-92506499D01*
X162280014Y-92470017D01*
X162218190Y-92438953D01*
X162020250Y-92337240D01*
X161950684Y-92384448D01*
X161892295Y-92415931D01*
X161813577Y-92443120D01*
X161708056Y-92467701D01*
X161569259Y-92491361D01*
X161503817Y-92500827D01*
X161421923Y-92511109D01*
X161370394Y-92513154D01*
X161337870Y-92505883D01*
X161312993Y-92488214D01*
X161306673Y-92482081D01*
X161283730Y-92456286D01*
X161277713Y-92432020D01*
X161289276Y-92395402D01*
X161313165Y-92344717D01*
X161345806Y-92285770D01*
X161382296Y-92245171D01*
X161432843Y-92216603D01*
X161507651Y-92193752D01*
X161584429Y-92176848D01*
X161720108Y-92149083D01*
X161613510Y-92074541D01*
X161490151Y-91981847D01*
X161390379Y-91893690D01*
X161318034Y-91814112D01*
X161276954Y-91747155D01*
X161268833Y-91711635D01*
X161282410Y-91675527D01*
G37*
X161282410Y-91675527D02*
X161316936Y-91624711D01*
X161340450Y-91597014D01*
X161385687Y-91553881D01*
X161427156Y-91533622D01*
X161471764Y-91538106D01*
X161526420Y-91569201D01*
X161598030Y-91628776D01*
X161655406Y-91682196D01*
X161762928Y-91772548D01*
X161908353Y-91875570D01*
X162089630Y-91989939D01*
X162304708Y-92114333D01*
X162443583Y-92190259D01*
X162548768Y-92251668D01*
X162615613Y-92302273D01*
X162643174Y-92341328D01*
X162643838Y-92348920D01*
X162635599Y-92374649D01*
X162616720Y-92421072D01*
X162615119Y-92424763D01*
X162570739Y-92483978D01*
X162505077Y-92526710D01*
X162444735Y-92540666D01*
X162414891Y-92531433D01*
X162356902Y-92506499D01*
X162280014Y-92470017D01*
X162218190Y-92438953D01*
X162020250Y-92337240D01*
X161950684Y-92384448D01*
X161892295Y-92415931D01*
X161813577Y-92443120D01*
X161708056Y-92467701D01*
X161569259Y-92491361D01*
X161503817Y-92500827D01*
X161421923Y-92511109D01*
X161370394Y-92513154D01*
X161337870Y-92505883D01*
X161312993Y-92488214D01*
X161306673Y-92482081D01*
X161283730Y-92456286D01*
X161277713Y-92432020D01*
X161289276Y-92395402D01*
X161313165Y-92344717D01*
X161345806Y-92285770D01*
X161382296Y-92245171D01*
X161432843Y-92216603D01*
X161507651Y-92193752D01*
X161584429Y-92176848D01*
X161720108Y-92149083D01*
X161613510Y-92074541D01*
X161490151Y-91981847D01*
X161390379Y-91893690D01*
X161318034Y-91814112D01*
X161276954Y-91747155D01*
X161268833Y-91711635D01*
X161282410Y-91675527D01*
G36*
X161302137Y-88406840D02*
G01*
X161332348Y-88352653D01*
X161371333Y-88298736D01*
X161409791Y-88258077D01*
X161436634Y-88243544D01*
X161484498Y-88237888D01*
X161515106Y-88231129D01*
X161537528Y-88230119D01*
X161560044Y-88243890D01*
X161587437Y-88278350D01*
X161624489Y-88339409D01*
X161670992Y-88423736D01*
X161807433Y-88646540D01*
X161955529Y-88830904D01*
X162111690Y-88975088D01*
X162231916Y-89069635D01*
X162242500Y-88947776D01*
X162246182Y-88880260D01*
X162244761Y-88831645D01*
X162240328Y-88815333D01*
X162230429Y-88789894D01*
X162219262Y-88736661D01*
X162213531Y-88698916D01*
X162198980Y-88613658D01*
X162179483Y-88527837D01*
X162172774Y-88503730D01*
X162146059Y-88414376D01*
X162086026Y-88445521D01*
X162035356Y-88467580D01*
X161998427Y-88476666D01*
X161967498Y-88492230D01*
X161962793Y-88500868D01*
X161942505Y-88514509D01*
X161907747Y-88499181D01*
X161867456Y-88461190D01*
X161831168Y-88407966D01*
X161792599Y-88336347D01*
X161879735Y-88177580D01*
X161926837Y-88097269D01*
X161973997Y-88025966D01*
X162012647Y-87976418D01*
X162020019Y-87968883D01*
X162055982Y-87928953D01*
X162072720Y-87898245D01*
X162072879Y-87896185D01*
X162054557Y-87878646D01*
X162009666Y-87852158D01*
X162009666Y-87480405D01*
X162009666Y-87398184D01*
X162006682Y-87336372D01*
X161999332Y-87289860D01*
X161997627Y-87284589D01*
X161975234Y-87267332D01*
X161925577Y-87268770D01*
X161844467Y-87289318D01*
X161798138Y-87304384D01*
X161787867Y-87321198D01*
X161814515Y-87352761D01*
X161878839Y-87399788D01*
X161940875Y-87438782D01*
X162009666Y-87480405D01*
X162009666Y-87852158D01*
X162005416Y-87849650D01*
X161933798Y-87813808D01*
X161878518Y-87788750D01*
X161737133Y-87724372D01*
X161632497Y-87670040D01*
X161560922Y-87623258D01*
X161518724Y-87581531D01*
X161502217Y-87542362D01*
X161501666Y-87533588D01*
X161483054Y-87475518D01*
X161431193Y-87408861D01*
X161352048Y-87340977D01*
X161336950Y-87330285D01*
X161308861Y-87307541D01*
X161298824Y-87282010D01*
X161304575Y-87239418D01*
X161315656Y-87196013D01*
X161344617Y-87119131D01*
X161388178Y-87070330D01*
X161456507Y-87041404D01*
X161522833Y-87028826D01*
X161593455Y-87017150D01*
X161684831Y-86999849D01*
X161771541Y-86981869D01*
X161853321Y-86961948D01*
X161900864Y-86943992D01*
X161921891Y-86924358D01*
X161925000Y-86909418D01*
X161935752Y-86863830D01*
X161962261Y-86808506D01*
X161995902Y-86757502D01*
X162028052Y-86724872D01*
X162041314Y-86719833D01*
X162070780Y-86734648D01*
X162113459Y-86772087D01*
X162133579Y-86793634D01*
X162177436Y-86838901D01*
X162214759Y-86857939D01*
X162264560Y-86858278D01*
X162289230Y-86855269D01*
X162387551Y-86862283D01*
X162476801Y-86907852D01*
X162550679Y-86988290D01*
X162569120Y-87019070D01*
X162594285Y-87073643D01*
X162597327Y-87115463D01*
X162581970Y-87162394D01*
X162555687Y-87206507D01*
X162529446Y-87220420D01*
X162527213Y-87219781D01*
X162494471Y-87226056D01*
X162463458Y-87250427D01*
X162424570Y-87284926D01*
X162396306Y-87282171D01*
X162368623Y-87240395D01*
X162365078Y-87233125D01*
X162334326Y-87189269D01*
X162304344Y-87174482D01*
X162284895Y-87189402D01*
X162284286Y-87227833D01*
X162289915Y-87278129D01*
X162293796Y-87351690D01*
X162294869Y-87407000D01*
X162292964Y-87480371D01*
X162284140Y-87523228D01*
X162264933Y-87547246D01*
X162250805Y-87555616D01*
X162224022Y-87577954D01*
X162232674Y-87602189D01*
X162278758Y-87630083D01*
X162364269Y-87663400D01*
X162378250Y-87668175D01*
X162450942Y-87696772D01*
X162512271Y-87727914D01*
X162538825Y-87746409D01*
X162572748Y-87799816D01*
X162579367Y-87863409D01*
X162562249Y-87924640D01*
X162524961Y-87970960D01*
X162471070Y-87989822D01*
X162469624Y-87989833D01*
X162432017Y-88001465D01*
X162422381Y-88011057D01*
X162394160Y-88020753D01*
X162370320Y-88011439D01*
X162346948Y-88000706D01*
X162342615Y-88008947D01*
X162357210Y-88043948D01*
X162369482Y-88069590D01*
X162391851Y-88125942D01*
X162420915Y-88213395D01*
X162453767Y-88321820D01*
X162487502Y-88441085D01*
X162519216Y-88561063D01*
X162546002Y-88671623D01*
X162558042Y-88726990D01*
X162581077Y-88897748D01*
X162573692Y-89039447D01*
X162535355Y-89153007D01*
X162465533Y-89239349D01*
X162363695Y-89299395D01*
X162229307Y-89334065D01*
X162205321Y-89337252D01*
X162099770Y-89349753D01*
X162143680Y-89415918D01*
X162176234Y-89457612D01*
X162210978Y-89474897D01*
X162266040Y-89475610D01*
X162279429Y-89474590D01*
X162353629Y-89475963D01*
X162421943Y-89488791D01*
X162434433Y-89493260D01*
X162506251Y-89540564D01*
X162559215Y-89608897D01*
X162587531Y-89686450D01*
X162585402Y-89761415D01*
X162576964Y-89783708D01*
X162546023Y-89820285D01*
X162517712Y-89831333D01*
X162477112Y-89846088D01*
X162444035Y-89873167D01*
X162404601Y-89902320D01*
X162378138Y-89892877D01*
X162369500Y-89851995D01*
X162355868Y-89817321D01*
X162325166Y-89787664D01*
X162292682Y-89775218D01*
X162279501Y-89780221D01*
X162276793Y-89805897D01*
X162283818Y-89855748D01*
X162286796Y-89869435D01*
X162305062Y-89985944D01*
X162302135Y-90081038D01*
X162278574Y-90148206D01*
X162261126Y-90167800D01*
X162216253Y-90204136D01*
X162269745Y-90239185D01*
X162324130Y-90266316D01*
X162395572Y-90291852D01*
X162419508Y-90298475D01*
X162506719Y-90335821D01*
X162560806Y-90393455D01*
X162578267Y-90467287D01*
X162577163Y-90482746D01*
X162553763Y-90535053D01*
X162505091Y-90583156D01*
X162445578Y-90616658D01*
X162389657Y-90625166D01*
X162381808Y-90623455D01*
X162362795Y-90616959D01*
X162332721Y-90604885D01*
X162287653Y-90585463D01*
X162223662Y-90556921D01*
X162136816Y-90517490D01*
X162023185Y-90465399D01*
X162009666Y-90459169D01*
X162009666Y-90088042D01*
X162009666Y-89992687D01*
X162005570Y-89932610D01*
X161995237Y-89892283D01*
X161989585Y-89884921D01*
X161958611Y-89882360D01*
X161903116Y-89890072D01*
X161872349Y-89896974D01*
X161815135Y-89913060D01*
X161792419Y-89926915D01*
X161797253Y-89944932D01*
X161807261Y-89956872D01*
X161845369Y-89989043D01*
X161902539Y-90027296D01*
X161924497Y-90040174D01*
X162009666Y-90088042D01*
X162009666Y-90459169D01*
X161878838Y-90398877D01*
X161710106Y-90320900D01*
X161612749Y-90272446D01*
X161549692Y-90231330D01*
X161514842Y-90192218D01*
X161502108Y-90149775D01*
X161501666Y-90138379D01*
X161482337Y-90087950D01*
X161424184Y-90021862D01*
X161395885Y-89996081D01*
X161290104Y-89903547D01*
X161327094Y-89788065D01*
X161349545Y-89722688D01*
X161371346Y-89686336D01*
X161404567Y-89667659D01*
X161461280Y-89655304D01*
X161469916Y-89653765D01*
X161617833Y-89627001D01*
X161729201Y-89605352D01*
X161809264Y-89587198D01*
X161863268Y-89570917D01*
X161896456Y-89554889D01*
X161914074Y-89537492D01*
X161921366Y-89517106D01*
X161921837Y-89514093D01*
X161939679Y-89458545D01*
X161969462Y-89405010D01*
X161999840Y-89356102D01*
X162003459Y-89321423D01*
X161976530Y-89290002D01*
X161916471Y-89251573D01*
X161860657Y-89211419D01*
X161789089Y-89149530D01*
X161713498Y-89076364D01*
X161678346Y-89039346D01*
X161616861Y-88967154D01*
X161549275Y-88879109D01*
X161480545Y-88782755D01*
X161415627Y-88685634D01*
X161359478Y-88595293D01*
X161317056Y-88519273D01*
X161293316Y-88465120D01*
X161290000Y-88448309D01*
X161302137Y-88406840D01*
G37*
X161302137Y-88406840D02*
X161332348Y-88352653D01*
X161371333Y-88298736D01*
X161409791Y-88258077D01*
X161436634Y-88243544D01*
X161484498Y-88237888D01*
X161515106Y-88231129D01*
X161537528Y-88230119D01*
X161560044Y-88243890D01*
X161587437Y-88278350D01*
X161624489Y-88339409D01*
X161670992Y-88423736D01*
X161807433Y-88646540D01*
X161955529Y-88830904D01*
X162111690Y-88975088D01*
X162231916Y-89069635D01*
X162242500Y-88947776D01*
X162246182Y-88880260D01*
X162244761Y-88831645D01*
X162240328Y-88815333D01*
X162230429Y-88789894D01*
X162219262Y-88736661D01*
X162213531Y-88698916D01*
X162198980Y-88613658D01*
X162179483Y-88527837D01*
X162172774Y-88503730D01*
X162146059Y-88414376D01*
X162086026Y-88445521D01*
X162035356Y-88467580D01*
X161998427Y-88476666D01*
X161967498Y-88492230D01*
X161962793Y-88500868D01*
X161942505Y-88514509D01*
X161907747Y-88499181D01*
X161867456Y-88461190D01*
X161831168Y-88407966D01*
X161792599Y-88336347D01*
X161879735Y-88177580D01*
X161926837Y-88097269D01*
X161973997Y-88025966D01*
X162012647Y-87976418D01*
X162020019Y-87968883D01*
X162055982Y-87928953D01*
X162072720Y-87898245D01*
X162072879Y-87896185D01*
X162054557Y-87878646D01*
X162009666Y-87852158D01*
X162009666Y-87480405D01*
X162009666Y-87398184D01*
X162006682Y-87336372D01*
X161999332Y-87289860D01*
X161997627Y-87284589D01*
X161975234Y-87267332D01*
X161925577Y-87268770D01*
X161844467Y-87289318D01*
X161798138Y-87304384D01*
X161787867Y-87321198D01*
X161814515Y-87352761D01*
X161878839Y-87399788D01*
X161940875Y-87438782D01*
X162009666Y-87480405D01*
X162009666Y-87852158D01*
X162005416Y-87849650D01*
X161933798Y-87813808D01*
X161878518Y-87788750D01*
X161737133Y-87724372D01*
X161632497Y-87670040D01*
X161560922Y-87623258D01*
X161518724Y-87581531D01*
X161502217Y-87542362D01*
X161501666Y-87533588D01*
X161483054Y-87475518D01*
X161431193Y-87408861D01*
X161352048Y-87340977D01*
X161336950Y-87330285D01*
X161308861Y-87307541D01*
X161298824Y-87282010D01*
X161304575Y-87239418D01*
X161315656Y-87196013D01*
X161344617Y-87119131D01*
X161388178Y-87070330D01*
X161456507Y-87041404D01*
X161522833Y-87028826D01*
X161593455Y-87017150D01*
X161684831Y-86999849D01*
X161771541Y-86981869D01*
X161853321Y-86961948D01*
X161900864Y-86943992D01*
X161921891Y-86924358D01*
X161925000Y-86909418D01*
X161935752Y-86863830D01*
X161962261Y-86808506D01*
X161995902Y-86757502D01*
X162028052Y-86724872D01*
X162041314Y-86719833D01*
X162070780Y-86734648D01*
X162113459Y-86772087D01*
X162133579Y-86793634D01*
X162177436Y-86838901D01*
X162214759Y-86857939D01*
X162264560Y-86858278D01*
X162289230Y-86855269D01*
X162387551Y-86862283D01*
X162476801Y-86907852D01*
X162550679Y-86988290D01*
X162569120Y-87019070D01*
X162594285Y-87073643D01*
X162597327Y-87115463D01*
X162581970Y-87162394D01*
X162555687Y-87206507D01*
X162529446Y-87220420D01*
X162527213Y-87219781D01*
X162494471Y-87226056D01*
X162463458Y-87250427D01*
X162424570Y-87284926D01*
X162396306Y-87282171D01*
X162368623Y-87240395D01*
X162365078Y-87233125D01*
X162334326Y-87189269D01*
X162304344Y-87174482D01*
X162284895Y-87189402D01*
X162284286Y-87227833D01*
X162289915Y-87278129D01*
X162293796Y-87351690D01*
X162294869Y-87407000D01*
X162292964Y-87480371D01*
X162284140Y-87523228D01*
X162264933Y-87547246D01*
X162250805Y-87555616D01*
X162224022Y-87577954D01*
X162232674Y-87602189D01*
X162278758Y-87630083D01*
X162364269Y-87663400D01*
X162378250Y-87668175D01*
X162450942Y-87696772D01*
X162512271Y-87727914D01*
X162538825Y-87746409D01*
X162572748Y-87799816D01*
X162579367Y-87863409D01*
X162562249Y-87924640D01*
X162524961Y-87970960D01*
X162471070Y-87989822D01*
X162469624Y-87989833D01*
X162432017Y-88001465D01*
X162422381Y-88011057D01*
X162394160Y-88020753D01*
X162370320Y-88011439D01*
X162346948Y-88000706D01*
X162342615Y-88008947D01*
X162357210Y-88043948D01*
X162369482Y-88069590D01*
X162391851Y-88125942D01*
X162420915Y-88213395D01*
X162453767Y-88321820D01*
X162487502Y-88441085D01*
X162519216Y-88561063D01*
X162546002Y-88671623D01*
X162558042Y-88726990D01*
X162581077Y-88897748D01*
X162573692Y-89039447D01*
X162535355Y-89153007D01*
X162465533Y-89239349D01*
X162363695Y-89299395D01*
X162229307Y-89334065D01*
X162205321Y-89337252D01*
X162099770Y-89349753D01*
X162143680Y-89415918D01*
X162176234Y-89457612D01*
X162210978Y-89474897D01*
X162266040Y-89475610D01*
X162279429Y-89474590D01*
X162353629Y-89475963D01*
X162421943Y-89488791D01*
X162434433Y-89493260D01*
X162506251Y-89540564D01*
X162559215Y-89608897D01*
X162587531Y-89686450D01*
X162585402Y-89761415D01*
X162576964Y-89783708D01*
X162546023Y-89820285D01*
X162517712Y-89831333D01*
X162477112Y-89846088D01*
X162444035Y-89873167D01*
X162404601Y-89902320D01*
X162378138Y-89892877D01*
X162369500Y-89851995D01*
X162355868Y-89817321D01*
X162325166Y-89787664D01*
X162292682Y-89775218D01*
X162279501Y-89780221D01*
X162276793Y-89805897D01*
X162283818Y-89855748D01*
X162286796Y-89869435D01*
X162305062Y-89985944D01*
X162302135Y-90081038D01*
X162278574Y-90148206D01*
X162261126Y-90167800D01*
X162216253Y-90204136D01*
X162269745Y-90239185D01*
X162324130Y-90266316D01*
X162395572Y-90291852D01*
X162419508Y-90298475D01*
X162506719Y-90335821D01*
X162560806Y-90393455D01*
X162578267Y-90467287D01*
X162577163Y-90482746D01*
X162553763Y-90535053D01*
X162505091Y-90583156D01*
X162445578Y-90616658D01*
X162389657Y-90625166D01*
X162381808Y-90623455D01*
X162362795Y-90616959D01*
X162332721Y-90604885D01*
X162287653Y-90585463D01*
X162223662Y-90556921D01*
X162136816Y-90517490D01*
X162023185Y-90465399D01*
X162009666Y-90459169D01*
X162009666Y-90088042D01*
X162009666Y-89992687D01*
X162005570Y-89932610D01*
X161995237Y-89892283D01*
X161989585Y-89884921D01*
X161958611Y-89882360D01*
X161903116Y-89890072D01*
X161872349Y-89896974D01*
X161815135Y-89913060D01*
X161792419Y-89926915D01*
X161797253Y-89944932D01*
X161807261Y-89956872D01*
X161845369Y-89989043D01*
X161902539Y-90027296D01*
X161924497Y-90040174D01*
X162009666Y-90088042D01*
X162009666Y-90459169D01*
X161878838Y-90398877D01*
X161710106Y-90320900D01*
X161612749Y-90272446D01*
X161549692Y-90231330D01*
X161514842Y-90192218D01*
X161502108Y-90149775D01*
X161501666Y-90138379D01*
X161482337Y-90087950D01*
X161424184Y-90021862D01*
X161395885Y-89996081D01*
X161290104Y-89903547D01*
X161327094Y-89788065D01*
X161349545Y-89722688D01*
X161371346Y-89686336D01*
X161404567Y-89667659D01*
X161461280Y-89655304D01*
X161469916Y-89653765D01*
X161617833Y-89627001D01*
X161729201Y-89605352D01*
X161809264Y-89587198D01*
X161863268Y-89570917D01*
X161896456Y-89554889D01*
X161914074Y-89537492D01*
X161921366Y-89517106D01*
X161921837Y-89514093D01*
X161939679Y-89458545D01*
X161969462Y-89405010D01*
X161999840Y-89356102D01*
X162003459Y-89321423D01*
X161976530Y-89290002D01*
X161916471Y-89251573D01*
X161860657Y-89211419D01*
X161789089Y-89149530D01*
X161713498Y-89076364D01*
X161678346Y-89039346D01*
X161616861Y-88967154D01*
X161549275Y-88879109D01*
X161480545Y-88782755D01*
X161415627Y-88685634D01*
X161359478Y-88595293D01*
X161317056Y-88519273D01*
X161293316Y-88465120D01*
X161290000Y-88448309D01*
X161302137Y-88406840D01*
G36*
X161281866Y-90739172D02*
G01*
X161310494Y-90695763D01*
X161320874Y-90682901D01*
X161355302Y-90637592D01*
X161373706Y-90604815D01*
X161374666Y-90600133D01*
X161391132Y-90577746D01*
X161431405Y-90547872D01*
X161437723Y-90544045D01*
X161488326Y-90520938D01*
X161538418Y-90519232D01*
X161585890Y-90529714D01*
X161638566Y-90547556D01*
X161668446Y-90564771D01*
X161671000Y-90569572D01*
X161690439Y-90579803D01*
X161742437Y-90592833D01*
X161817514Y-90606479D01*
X161856208Y-90612226D01*
X162067668Y-90652865D01*
X162241975Y-90710785D01*
X162378549Y-90785727D01*
X162476814Y-90877430D01*
X162492315Y-90898481D01*
X162531632Y-90972634D01*
X162538173Y-91039422D01*
X162510228Y-91106730D01*
X162446086Y-91182442D01*
X162426593Y-91201344D01*
X162364480Y-91256181D01*
X162307939Y-91299389D01*
X162268849Y-91321922D01*
X162267843Y-91322257D01*
X162231630Y-91339202D01*
X162221496Y-91351468D01*
X162239270Y-91371625D01*
X162283938Y-91400519D01*
X162342979Y-91431446D01*
X162403870Y-91457701D01*
X162443583Y-91470381D01*
X162513303Y-91501454D01*
X162562881Y-91550516D01*
X162581166Y-91605168D01*
X162566095Y-91650519D01*
X162544125Y-91677670D01*
X162481030Y-91721602D01*
X162401802Y-91761625D01*
X162323533Y-91790181D01*
X162267806Y-91799833D01*
X162231108Y-91790762D01*
X162162657Y-91765270D01*
X162068529Y-91725935D01*
X161954800Y-91675340D01*
X161827546Y-91616064D01*
X161769390Y-91588166D01*
X161643482Y-91527659D01*
X161529922Y-91473895D01*
X161434362Y-91429485D01*
X161362456Y-91397040D01*
X161319856Y-91379170D01*
X161311010Y-91376500D01*
X161292272Y-91364696D01*
X161297648Y-91326765D01*
X161327735Y-91258925D01*
X161330273Y-91253948D01*
X161397828Y-91152960D01*
X161477075Y-91092360D01*
X161569713Y-91071399D01*
X161677436Y-91089329D01*
X161692166Y-91094310D01*
X161744473Y-91106381D01*
X161817115Y-91115022D01*
X161899519Y-91120049D01*
X161981112Y-91121281D01*
X162051323Y-91118533D01*
X162099579Y-91111623D01*
X162115500Y-91101633D01*
X162096284Y-91068377D01*
X162044379Y-91029755D01*
X161968401Y-90989681D01*
X161876963Y-90952072D01*
X161778680Y-90920845D01*
X161682166Y-90899915D01*
X161666900Y-90897708D01*
X161594874Y-90884198D01*
X161511435Y-90862674D01*
X161427090Y-90836642D01*
X161352343Y-90809609D01*
X161297699Y-90785083D01*
X161273665Y-90766572D01*
X161273606Y-90766403D01*
X161281866Y-90739172D01*
G37*
X161281866Y-90739172D02*
X161310494Y-90695763D01*
X161320874Y-90682901D01*
X161355302Y-90637592D01*
X161373706Y-90604815D01*
X161374666Y-90600133D01*
X161391132Y-90577746D01*
X161431405Y-90547872D01*
X161437723Y-90544045D01*
X161488326Y-90520938D01*
X161538418Y-90519232D01*
X161585890Y-90529714D01*
X161638566Y-90547556D01*
X161668446Y-90564771D01*
X161671000Y-90569572D01*
X161690439Y-90579803D01*
X161742437Y-90592833D01*
X161817514Y-90606479D01*
X161856208Y-90612226D01*
X162067668Y-90652865D01*
X162241975Y-90710785D01*
X162378549Y-90785727D01*
X162476814Y-90877430D01*
X162492315Y-90898481D01*
X162531632Y-90972634D01*
X162538173Y-91039422D01*
X162510228Y-91106730D01*
X162446086Y-91182442D01*
X162426593Y-91201344D01*
X162364480Y-91256181D01*
X162307939Y-91299389D01*
X162268849Y-91321922D01*
X162267843Y-91322257D01*
X162231630Y-91339202D01*
X162221496Y-91351468D01*
X162239270Y-91371625D01*
X162283938Y-91400519D01*
X162342979Y-91431446D01*
X162403870Y-91457701D01*
X162443583Y-91470381D01*
X162513303Y-91501454D01*
X162562881Y-91550516D01*
X162581166Y-91605168D01*
X162566095Y-91650519D01*
X162544125Y-91677670D01*
X162481030Y-91721602D01*
X162401802Y-91761625D01*
X162323533Y-91790181D01*
X162267806Y-91799833D01*
X162231108Y-91790762D01*
X162162657Y-91765270D01*
X162068529Y-91725935D01*
X161954800Y-91675340D01*
X161827546Y-91616064D01*
X161769390Y-91588166D01*
X161643482Y-91527659D01*
X161529922Y-91473895D01*
X161434362Y-91429485D01*
X161362456Y-91397040D01*
X161319856Y-91379170D01*
X161311010Y-91376500D01*
X161292272Y-91364696D01*
X161297648Y-91326765D01*
X161327735Y-91258925D01*
X161330273Y-91253948D01*
X161397828Y-91152960D01*
X161477075Y-91092360D01*
X161569713Y-91071399D01*
X161677436Y-91089329D01*
X161692166Y-91094310D01*
X161744473Y-91106381D01*
X161817115Y-91115022D01*
X161899519Y-91120049D01*
X161981112Y-91121281D01*
X162051323Y-91118533D01*
X162099579Y-91111623D01*
X162115500Y-91101633D01*
X162096284Y-91068377D01*
X162044379Y-91029755D01*
X161968401Y-90989681D01*
X161876963Y-90952072D01*
X161778680Y-90920845D01*
X161682166Y-90899915D01*
X161666900Y-90897708D01*
X161594874Y-90884198D01*
X161511435Y-90862674D01*
X161427090Y-90836642D01*
X161352343Y-90809609D01*
X161297699Y-90785083D01*
X161273665Y-90766572D01*
X161273606Y-90766403D01*
X161281866Y-90739172D01*
D11*
G36*
X122701732Y-100710739D02*
G01*
X122817754Y-100733817D01*
X122981689Y-100801721D01*
X123129227Y-100900303D01*
X123254697Y-101025773D01*
X123353279Y-101173311D01*
X123421183Y-101337246D01*
X123455800Y-101511279D01*
X123455800Y-101688721D01*
X123421183Y-101862754D01*
X123353279Y-102026689D01*
X123254697Y-102174227D01*
X123129227Y-102299697D01*
X122981689Y-102398279D01*
X122817754Y-102466183D01*
X122701732Y-102489261D01*
X122643722Y-102500800D01*
X122466278Y-102500800D01*
X122408268Y-102489261D01*
X122292246Y-102466183D01*
X122128311Y-102398279D01*
X121980773Y-102299697D01*
X121855303Y-102174227D01*
X121756721Y-102026689D01*
X121688817Y-101862754D01*
X121654200Y-101688721D01*
X121654200Y-101511279D01*
X121688817Y-101337246D01*
X121756721Y-101173311D01*
X121855303Y-101025773D01*
X121980773Y-100900303D01*
X122128311Y-100801721D01*
X122292246Y-100733817D01*
X122408268Y-100710739D01*
X122466278Y-100699200D01*
X122643722Y-100699200D01*
X122701732Y-100710739D01*
G37*
G36*
X150641732Y-100710739D02*
G01*
X150757754Y-100733817D01*
X150921689Y-100801721D01*
X151069227Y-100900303D01*
X151194697Y-101025773D01*
X151293279Y-101173311D01*
X151361183Y-101337246D01*
X151395800Y-101511279D01*
X151395800Y-101688721D01*
X151361183Y-101862754D01*
X151293279Y-102026689D01*
X151194697Y-102174227D01*
X151069227Y-102299697D01*
X150921689Y-102398279D01*
X150757754Y-102466183D01*
X150641732Y-102489261D01*
X150583722Y-102500800D01*
X150406278Y-102500800D01*
X150348268Y-102489261D01*
X150232246Y-102466183D01*
X150068311Y-102398279D01*
X149920773Y-102299697D01*
X149795303Y-102174227D01*
X149696721Y-102026689D01*
X149628817Y-101862754D01*
X149594200Y-101688721D01*
X149594200Y-101511279D01*
X149628817Y-101337246D01*
X149696721Y-101173311D01*
X149795303Y-101025773D01*
X149920773Y-100900303D01*
X150068311Y-100801721D01*
X150232246Y-100733817D01*
X150348268Y-100710739D01*
X150406278Y-100699200D01*
X150583722Y-100699200D01*
X150641732Y-100710739D01*
G37*
G36*
X148101732Y-100710739D02*
G01*
X148217754Y-100733817D01*
X148381689Y-100801721D01*
X148529227Y-100900303D01*
X148654697Y-101025773D01*
X148753279Y-101173311D01*
X148821183Y-101337246D01*
X148855800Y-101511279D01*
X148855800Y-101688721D01*
X148821183Y-101862754D01*
X148753279Y-102026689D01*
X148654697Y-102174227D01*
X148529227Y-102299697D01*
X148381689Y-102398279D01*
X148217754Y-102466183D01*
X148101732Y-102489261D01*
X148043722Y-102500800D01*
X147866278Y-102500800D01*
X147808268Y-102489261D01*
X147692246Y-102466183D01*
X147528311Y-102398279D01*
X147380773Y-102299697D01*
X147255303Y-102174227D01*
X147156721Y-102026689D01*
X147088817Y-101862754D01*
X147054200Y-101688721D01*
X147054200Y-101511279D01*
X147088817Y-101337246D01*
X147156721Y-101173311D01*
X147255303Y-101025773D01*
X147380773Y-100900303D01*
X147528311Y-100801721D01*
X147692246Y-100733817D01*
X147808268Y-100710739D01*
X147866278Y-100699200D01*
X148043722Y-100699200D01*
X148101732Y-100710739D01*
G37*
G36*
X145561732Y-100710739D02*
G01*
X145677754Y-100733817D01*
X145841689Y-100801721D01*
X145989227Y-100900303D01*
X146114697Y-101025773D01*
X146213279Y-101173311D01*
X146281183Y-101337246D01*
X146315800Y-101511279D01*
X146315800Y-101688721D01*
X146281183Y-101862754D01*
X146213279Y-102026689D01*
X146114697Y-102174227D01*
X145989227Y-102299697D01*
X145841689Y-102398279D01*
X145677754Y-102466183D01*
X145561732Y-102489261D01*
X145503722Y-102500800D01*
X145326278Y-102500800D01*
X145268268Y-102489261D01*
X145152246Y-102466183D01*
X144988311Y-102398279D01*
X144840773Y-102299697D01*
X144715303Y-102174227D01*
X144616721Y-102026689D01*
X144548817Y-101862754D01*
X144514200Y-101688721D01*
X144514200Y-101511279D01*
X144548817Y-101337246D01*
X144616721Y-101173311D01*
X144715303Y-101025773D01*
X144840773Y-100900303D01*
X144988311Y-100801721D01*
X145152246Y-100733817D01*
X145268268Y-100710739D01*
X145326278Y-100699200D01*
X145503722Y-100699200D01*
X145561732Y-100710739D01*
G37*
G36*
X143021732Y-100710739D02*
G01*
X143137754Y-100733817D01*
X143301689Y-100801721D01*
X143449227Y-100900303D01*
X143574697Y-101025773D01*
X143673279Y-101173311D01*
X143741183Y-101337246D01*
X143775800Y-101511279D01*
X143775800Y-101688721D01*
X143741183Y-101862754D01*
X143673279Y-102026689D01*
X143574697Y-102174227D01*
X143449227Y-102299697D01*
X143301689Y-102398279D01*
X143137754Y-102466183D01*
X143021732Y-102489261D01*
X142963722Y-102500800D01*
X142786278Y-102500800D01*
X142728268Y-102489261D01*
X142612246Y-102466183D01*
X142448311Y-102398279D01*
X142300773Y-102299697D01*
X142175303Y-102174227D01*
X142076721Y-102026689D01*
X142008817Y-101862754D01*
X141974200Y-101688721D01*
X141974200Y-101511279D01*
X142008817Y-101337246D01*
X142076721Y-101173311D01*
X142175303Y-101025773D01*
X142300773Y-100900303D01*
X142448311Y-100801721D01*
X142612246Y-100733817D01*
X142728268Y-100710739D01*
X142786278Y-100699200D01*
X142963722Y-100699200D01*
X143021732Y-100710739D01*
G37*
G36*
X140481732Y-100710739D02*
G01*
X140597754Y-100733817D01*
X140761689Y-100801721D01*
X140909227Y-100900303D01*
X141034697Y-101025773D01*
X141133279Y-101173311D01*
X141201183Y-101337246D01*
X141235800Y-101511279D01*
X141235800Y-101688721D01*
X141201183Y-101862754D01*
X141133279Y-102026689D01*
X141034697Y-102174227D01*
X140909227Y-102299697D01*
X140761689Y-102398279D01*
X140597754Y-102466183D01*
X140481732Y-102489261D01*
X140423722Y-102500800D01*
X140246278Y-102500800D01*
X140188268Y-102489261D01*
X140072246Y-102466183D01*
X139908311Y-102398279D01*
X139760773Y-102299697D01*
X139635303Y-102174227D01*
X139536721Y-102026689D01*
X139468817Y-101862754D01*
X139434200Y-101688721D01*
X139434200Y-101511279D01*
X139468817Y-101337246D01*
X139536721Y-101173311D01*
X139635303Y-101025773D01*
X139760773Y-100900303D01*
X139908311Y-100801721D01*
X140072246Y-100733817D01*
X140188268Y-100710739D01*
X140246278Y-100699200D01*
X140423722Y-100699200D01*
X140481732Y-100710739D01*
G37*
G36*
X137941732Y-100710739D02*
G01*
X138057754Y-100733817D01*
X138221689Y-100801721D01*
X138369227Y-100900303D01*
X138494697Y-101025773D01*
X138593279Y-101173311D01*
X138661183Y-101337246D01*
X138695800Y-101511279D01*
X138695800Y-101688721D01*
X138661183Y-101862754D01*
X138593279Y-102026689D01*
X138494697Y-102174227D01*
X138369227Y-102299697D01*
X138221689Y-102398279D01*
X138057754Y-102466183D01*
X137941732Y-102489261D01*
X137883722Y-102500800D01*
X137706278Y-102500800D01*
X137648268Y-102489261D01*
X137532246Y-102466183D01*
X137368311Y-102398279D01*
X137220773Y-102299697D01*
X137095303Y-102174227D01*
X136996721Y-102026689D01*
X136928817Y-101862754D01*
X136894200Y-101688721D01*
X136894200Y-101511279D01*
X136928817Y-101337246D01*
X136996721Y-101173311D01*
X137095303Y-101025773D01*
X137220773Y-100900303D01*
X137368311Y-100801721D01*
X137532246Y-100733817D01*
X137648268Y-100710739D01*
X137706278Y-100699200D01*
X137883722Y-100699200D01*
X137941732Y-100710739D01*
G37*
G36*
X132861732Y-100710739D02*
G01*
X132977754Y-100733817D01*
X133141689Y-100801721D01*
X133289227Y-100900303D01*
X133414697Y-101025773D01*
X133513279Y-101173311D01*
X133581183Y-101337246D01*
X133615800Y-101511279D01*
X133615800Y-101688721D01*
X133581183Y-101862754D01*
X133513279Y-102026689D01*
X133414697Y-102174227D01*
X133289227Y-102299697D01*
X133141689Y-102398279D01*
X132977754Y-102466183D01*
X132861732Y-102489261D01*
X132803722Y-102500800D01*
X132626278Y-102500800D01*
X132568268Y-102489261D01*
X132452246Y-102466183D01*
X132288311Y-102398279D01*
X132140773Y-102299697D01*
X132015303Y-102174227D01*
X131916721Y-102026689D01*
X131848817Y-101862754D01*
X131814200Y-101688721D01*
X131814200Y-101511279D01*
X131848817Y-101337246D01*
X131916721Y-101173311D01*
X132015303Y-101025773D01*
X132140773Y-100900303D01*
X132288311Y-100801721D01*
X132452246Y-100733817D01*
X132568268Y-100710739D01*
X132626278Y-100699200D01*
X132803722Y-100699200D01*
X132861732Y-100710739D01*
G37*
G36*
X130321732Y-100710739D02*
G01*
X130437754Y-100733817D01*
X130601689Y-100801721D01*
X130749227Y-100900303D01*
X130874697Y-101025773D01*
X130973279Y-101173311D01*
X131041183Y-101337246D01*
X131075800Y-101511279D01*
X131075800Y-101688721D01*
X131041183Y-101862754D01*
X130973279Y-102026689D01*
X130874697Y-102174227D01*
X130749227Y-102299697D01*
X130601689Y-102398279D01*
X130437754Y-102466183D01*
X130321732Y-102489261D01*
X130263722Y-102500800D01*
X130086278Y-102500800D01*
X130028268Y-102489261D01*
X129912246Y-102466183D01*
X129748311Y-102398279D01*
X129600773Y-102299697D01*
X129475303Y-102174227D01*
X129376721Y-102026689D01*
X129308817Y-101862754D01*
X129274200Y-101688721D01*
X129274200Y-101511279D01*
X129308817Y-101337246D01*
X129376721Y-101173311D01*
X129475303Y-101025773D01*
X129600773Y-100900303D01*
X129748311Y-100801721D01*
X129912246Y-100733817D01*
X130028268Y-100710739D01*
X130086278Y-100699200D01*
X130263722Y-100699200D01*
X130321732Y-100710739D01*
G37*
G36*
X127781732Y-100710739D02*
G01*
X127897754Y-100733817D01*
X128061689Y-100801721D01*
X128209227Y-100900303D01*
X128334697Y-101025773D01*
X128433279Y-101173311D01*
X128501183Y-101337246D01*
X128535800Y-101511279D01*
X128535800Y-101688721D01*
X128501183Y-101862754D01*
X128433279Y-102026689D01*
X128334697Y-102174227D01*
X128209227Y-102299697D01*
X128061689Y-102398279D01*
X127897754Y-102466183D01*
X127781732Y-102489261D01*
X127723722Y-102500800D01*
X127546278Y-102500800D01*
X127488268Y-102489261D01*
X127372246Y-102466183D01*
X127208311Y-102398279D01*
X127060773Y-102299697D01*
X126935303Y-102174227D01*
X126836721Y-102026689D01*
X126768817Y-101862754D01*
X126734200Y-101688721D01*
X126734200Y-101511279D01*
X126768817Y-101337246D01*
X126836721Y-101173311D01*
X126935303Y-101025773D01*
X127060773Y-100900303D01*
X127208311Y-100801721D01*
X127372246Y-100733817D01*
X127488268Y-100710739D01*
X127546278Y-100699200D01*
X127723722Y-100699200D01*
X127781732Y-100710739D01*
G37*
G36*
X125241732Y-100710739D02*
G01*
X125357754Y-100733817D01*
X125521689Y-100801721D01*
X125669227Y-100900303D01*
X125794697Y-101025773D01*
X125893279Y-101173311D01*
X125961183Y-101337246D01*
X125995800Y-101511279D01*
X125995800Y-101688721D01*
X125961183Y-101862754D01*
X125893279Y-102026689D01*
X125794697Y-102174227D01*
X125669227Y-102299697D01*
X125521689Y-102398279D01*
X125357754Y-102466183D01*
X125241732Y-102489261D01*
X125183722Y-102500800D01*
X125006278Y-102500800D01*
X124948268Y-102489261D01*
X124832246Y-102466183D01*
X124668311Y-102398279D01*
X124520773Y-102299697D01*
X124395303Y-102174227D01*
X124296721Y-102026689D01*
X124228817Y-101862754D01*
X124194200Y-101688721D01*
X124194200Y-101511279D01*
X124228817Y-101337246D01*
X124296721Y-101173311D01*
X124395303Y-101025773D01*
X124520773Y-100900303D01*
X124668311Y-100801721D01*
X124832246Y-100733817D01*
X124948268Y-100710739D01*
X125006278Y-100699200D01*
X125183722Y-100699200D01*
X125241732Y-100710739D01*
G37*
G36*
X135401732Y-100710739D02*
G01*
X135517754Y-100733817D01*
X135681689Y-100801721D01*
X135829227Y-100900303D01*
X135954697Y-101025773D01*
X136053279Y-101173311D01*
X136121183Y-101337246D01*
X136155800Y-101511279D01*
X136155800Y-101688721D01*
X136121183Y-101862754D01*
X136053279Y-102026689D01*
X135954697Y-102174227D01*
X135829227Y-102299697D01*
X135681689Y-102398279D01*
X135517754Y-102466183D01*
X135401732Y-102489261D01*
X135343722Y-102500800D01*
X135166278Y-102500800D01*
X135108268Y-102489261D01*
X134992246Y-102466183D01*
X134828311Y-102398279D01*
X134680773Y-102299697D01*
X134555303Y-102174227D01*
X134456721Y-102026689D01*
X134388817Y-101862754D01*
X134354200Y-101688721D01*
X134354200Y-101511279D01*
X134388817Y-101337246D01*
X134456721Y-101173311D01*
X134555303Y-101025773D01*
X134680773Y-100900303D01*
X134828311Y-100801721D01*
X134992246Y-100733817D01*
X135108268Y-100710739D01*
X135166278Y-100699200D01*
X135343722Y-100699200D01*
X135401732Y-100710739D01*
G37*
G36*
X144291732Y-98170739D02*
G01*
X144407754Y-98193817D01*
X144571689Y-98261721D01*
X144719227Y-98360303D01*
X144844697Y-98485773D01*
X144943279Y-98633311D01*
X145011183Y-98797246D01*
X145045800Y-98971279D01*
X145045800Y-99148721D01*
X145011183Y-99322754D01*
X144943279Y-99486689D01*
X144844697Y-99634227D01*
X144719227Y-99759697D01*
X144571689Y-99858279D01*
X144407754Y-99926183D01*
X144291732Y-99949261D01*
X144233722Y-99960800D01*
X144056278Y-99960800D01*
X143998268Y-99949261D01*
X143882246Y-99926183D01*
X143718311Y-99858279D01*
X143570773Y-99759697D01*
X143445303Y-99634227D01*
X143346721Y-99486689D01*
X143278817Y-99322754D01*
X143244200Y-99148721D01*
X143244200Y-98971279D01*
X143278817Y-98797246D01*
X143346721Y-98633311D01*
X143445303Y-98485773D01*
X143570773Y-98360303D01*
X143718311Y-98261721D01*
X143882246Y-98193817D01*
X143998268Y-98170739D01*
X144056278Y-98159200D01*
X144233722Y-98159200D01*
X144291732Y-98170739D01*
G37*
G36*
X123971732Y-98170739D02*
G01*
X124087754Y-98193817D01*
X124251689Y-98261721D01*
X124399227Y-98360303D01*
X124524697Y-98485773D01*
X124623279Y-98633311D01*
X124691183Y-98797246D01*
X124725800Y-98971279D01*
X124725800Y-99148721D01*
X124691183Y-99322754D01*
X124623279Y-99486689D01*
X124524697Y-99634227D01*
X124399227Y-99759697D01*
X124251689Y-99858279D01*
X124087754Y-99926183D01*
X123971732Y-99949261D01*
X123913722Y-99960800D01*
X123736278Y-99960800D01*
X123678268Y-99949261D01*
X123562246Y-99926183D01*
X123398311Y-99858279D01*
X123250773Y-99759697D01*
X123125303Y-99634227D01*
X123026721Y-99486689D01*
X122958817Y-99322754D01*
X122924200Y-99148721D01*
X122924200Y-98971279D01*
X122958817Y-98797246D01*
X123026721Y-98633311D01*
X123125303Y-98485773D01*
X123250773Y-98360303D01*
X123398311Y-98261721D01*
X123562246Y-98193817D01*
X123678268Y-98170739D01*
X123736278Y-98159200D01*
X123913722Y-98159200D01*
X123971732Y-98170739D01*
G37*
G36*
X126511732Y-98170739D02*
G01*
X126627754Y-98193817D01*
X126791689Y-98261721D01*
X126939227Y-98360303D01*
X127064697Y-98485773D01*
X127163279Y-98633311D01*
X127231183Y-98797246D01*
X127265800Y-98971279D01*
X127265800Y-99148721D01*
X127231183Y-99322754D01*
X127163279Y-99486689D01*
X127064697Y-99634227D01*
X126939227Y-99759697D01*
X126791689Y-99858279D01*
X126627754Y-99926183D01*
X126511732Y-99949261D01*
X126453722Y-99960800D01*
X126276278Y-99960800D01*
X126218268Y-99949261D01*
X126102246Y-99926183D01*
X125938311Y-99858279D01*
X125790773Y-99759697D01*
X125665303Y-99634227D01*
X125566721Y-99486689D01*
X125498817Y-99322754D01*
X125464200Y-99148721D01*
X125464200Y-98971279D01*
X125498817Y-98797246D01*
X125566721Y-98633311D01*
X125665303Y-98485773D01*
X125790773Y-98360303D01*
X125938311Y-98261721D01*
X126102246Y-98193817D01*
X126218268Y-98170739D01*
X126276278Y-98159200D01*
X126453722Y-98159200D01*
X126511732Y-98170739D01*
G37*
G36*
X131591732Y-98170739D02*
G01*
X131707754Y-98193817D01*
X131871689Y-98261721D01*
X132019227Y-98360303D01*
X132144697Y-98485773D01*
X132243279Y-98633311D01*
X132311183Y-98797246D01*
X132345800Y-98971279D01*
X132345800Y-99148721D01*
X132311183Y-99322754D01*
X132243279Y-99486689D01*
X132144697Y-99634227D01*
X132019227Y-99759697D01*
X131871689Y-99858279D01*
X131707754Y-99926183D01*
X131591732Y-99949261D01*
X131533722Y-99960800D01*
X131356278Y-99960800D01*
X131298268Y-99949261D01*
X131182246Y-99926183D01*
X131018311Y-99858279D01*
X130870773Y-99759697D01*
X130745303Y-99634227D01*
X130646721Y-99486689D01*
X130578817Y-99322754D01*
X130544200Y-99148721D01*
X130544200Y-98971279D01*
X130578817Y-98797246D01*
X130646721Y-98633311D01*
X130745303Y-98485773D01*
X130870773Y-98360303D01*
X131018311Y-98261721D01*
X131182246Y-98193817D01*
X131298268Y-98170739D01*
X131356278Y-98159200D01*
X131533722Y-98159200D01*
X131591732Y-98170739D01*
G37*
G36*
X134131732Y-98170739D02*
G01*
X134247754Y-98193817D01*
X134411689Y-98261721D01*
X134559227Y-98360303D01*
X134684697Y-98485773D01*
X134783279Y-98633311D01*
X134851183Y-98797246D01*
X134885800Y-98971279D01*
X134885800Y-99148721D01*
X134851183Y-99322754D01*
X134783279Y-99486689D01*
X134684697Y-99634227D01*
X134559227Y-99759697D01*
X134411689Y-99858279D01*
X134247754Y-99926183D01*
X134131732Y-99949261D01*
X134073722Y-99960800D01*
X133896278Y-99960800D01*
X133838268Y-99949261D01*
X133722246Y-99926183D01*
X133558311Y-99858279D01*
X133410773Y-99759697D01*
X133285303Y-99634227D01*
X133186721Y-99486689D01*
X133118817Y-99322754D01*
X133084200Y-99148721D01*
X133084200Y-98971279D01*
X133118817Y-98797246D01*
X133186721Y-98633311D01*
X133285303Y-98485773D01*
X133410773Y-98360303D01*
X133558311Y-98261721D01*
X133722246Y-98193817D01*
X133838268Y-98170739D01*
X133896278Y-98159200D01*
X134073722Y-98159200D01*
X134131732Y-98170739D01*
G37*
G36*
X129051732Y-98170739D02*
G01*
X129167754Y-98193817D01*
X129331689Y-98261721D01*
X129479227Y-98360303D01*
X129604697Y-98485773D01*
X129703279Y-98633311D01*
X129771183Y-98797246D01*
X129805800Y-98971279D01*
X129805800Y-99148721D01*
X129771183Y-99322754D01*
X129703279Y-99486689D01*
X129604697Y-99634227D01*
X129479227Y-99759697D01*
X129331689Y-99858279D01*
X129167754Y-99926183D01*
X129051732Y-99949261D01*
X128993722Y-99960800D01*
X128816278Y-99960800D01*
X128758268Y-99949261D01*
X128642246Y-99926183D01*
X128478311Y-99858279D01*
X128330773Y-99759697D01*
X128205303Y-99634227D01*
X128106721Y-99486689D01*
X128038817Y-99322754D01*
X128004200Y-99148721D01*
X128004200Y-98971279D01*
X128038817Y-98797246D01*
X128106721Y-98633311D01*
X128205303Y-98485773D01*
X128330773Y-98360303D01*
X128478311Y-98261721D01*
X128642246Y-98193817D01*
X128758268Y-98170739D01*
X128816278Y-98159200D01*
X128993722Y-98159200D01*
X129051732Y-98170739D01*
G37*
G36*
X139211732Y-98170739D02*
G01*
X139327754Y-98193817D01*
X139491689Y-98261721D01*
X139639227Y-98360303D01*
X139764697Y-98485773D01*
X139863279Y-98633311D01*
X139931183Y-98797246D01*
X139965800Y-98971279D01*
X139965800Y-99148721D01*
X139931183Y-99322754D01*
X139863279Y-99486689D01*
X139764697Y-99634227D01*
X139639227Y-99759697D01*
X139491689Y-99858279D01*
X139327754Y-99926183D01*
X139211732Y-99949261D01*
X139153722Y-99960800D01*
X138976278Y-99960800D01*
X138918268Y-99949261D01*
X138802246Y-99926183D01*
X138638311Y-99858279D01*
X138490773Y-99759697D01*
X138365303Y-99634227D01*
X138266721Y-99486689D01*
X138198817Y-99322754D01*
X138164200Y-99148721D01*
X138164200Y-98971279D01*
X138198817Y-98797246D01*
X138266721Y-98633311D01*
X138365303Y-98485773D01*
X138490773Y-98360303D01*
X138638311Y-98261721D01*
X138802246Y-98193817D01*
X138918268Y-98170739D01*
X138976278Y-98159200D01*
X139153722Y-98159200D01*
X139211732Y-98170739D01*
G37*
G36*
X141751732Y-98170739D02*
G01*
X141867754Y-98193817D01*
X142031689Y-98261721D01*
X142179227Y-98360303D01*
X142304697Y-98485773D01*
X142403279Y-98633311D01*
X142471183Y-98797246D01*
X142505800Y-98971279D01*
X142505800Y-99148721D01*
X142471183Y-99322754D01*
X142403279Y-99486689D01*
X142304697Y-99634227D01*
X142179227Y-99759697D01*
X142031689Y-99858279D01*
X141867754Y-99926183D01*
X141751732Y-99949261D01*
X141693722Y-99960800D01*
X141516278Y-99960800D01*
X141458268Y-99949261D01*
X141342246Y-99926183D01*
X141178311Y-99858279D01*
X141030773Y-99759697D01*
X140905303Y-99634227D01*
X140806721Y-99486689D01*
X140738817Y-99322754D01*
X140704200Y-99148721D01*
X140704200Y-98971279D01*
X140738817Y-98797246D01*
X140806721Y-98633311D01*
X140905303Y-98485773D01*
X141030773Y-98360303D01*
X141178311Y-98261721D01*
X141342246Y-98193817D01*
X141458268Y-98170739D01*
X141516278Y-98159200D01*
X141693722Y-98159200D01*
X141751732Y-98170739D01*
G37*
G36*
X146831732Y-98170739D02*
G01*
X146947754Y-98193817D01*
X147111689Y-98261721D01*
X147259227Y-98360303D01*
X147384697Y-98485773D01*
X147483279Y-98633311D01*
X147551183Y-98797246D01*
X147585800Y-98971279D01*
X147585800Y-99148721D01*
X147551183Y-99322754D01*
X147483279Y-99486689D01*
X147384697Y-99634227D01*
X147259227Y-99759697D01*
X147111689Y-99858279D01*
X146947754Y-99926183D01*
X146831732Y-99949261D01*
X146773722Y-99960800D01*
X146596278Y-99960800D01*
X146538268Y-99949261D01*
X146422246Y-99926183D01*
X146258311Y-99858279D01*
X146110773Y-99759697D01*
X145985303Y-99634227D01*
X145886721Y-99486689D01*
X145818817Y-99322754D01*
X145784200Y-99148721D01*
X145784200Y-98971279D01*
X145818817Y-98797246D01*
X145886721Y-98633311D01*
X145985303Y-98485773D01*
X146110773Y-98360303D01*
X146258311Y-98261721D01*
X146422246Y-98193817D01*
X146538268Y-98170739D01*
X146596278Y-98159200D01*
X146773722Y-98159200D01*
X146831732Y-98170739D01*
G37*
G36*
X149371732Y-98170739D02*
G01*
X149487754Y-98193817D01*
X149651689Y-98261721D01*
X149799227Y-98360303D01*
X149924697Y-98485773D01*
X150023279Y-98633311D01*
X150091183Y-98797246D01*
X150125800Y-98971279D01*
X150125800Y-99148721D01*
X150091183Y-99322754D01*
X150023279Y-99486689D01*
X149924697Y-99634227D01*
X149799227Y-99759697D01*
X149651689Y-99858279D01*
X149487754Y-99926183D01*
X149371732Y-99949261D01*
X149313722Y-99960800D01*
X149136278Y-99960800D01*
X149078268Y-99949261D01*
X148962246Y-99926183D01*
X148798311Y-99858279D01*
X148650773Y-99759697D01*
X148525303Y-99634227D01*
X148426721Y-99486689D01*
X148358817Y-99322754D01*
X148324200Y-99148721D01*
X148324200Y-98971279D01*
X148358817Y-98797246D01*
X148426721Y-98633311D01*
X148525303Y-98485773D01*
X148650773Y-98360303D01*
X148798311Y-98261721D01*
X148962246Y-98193817D01*
X149078268Y-98170739D01*
X149136278Y-98159200D01*
X149313722Y-98159200D01*
X149371732Y-98170739D01*
G37*
G36*
X151911732Y-98170739D02*
G01*
X152027754Y-98193817D01*
X152191689Y-98261721D01*
X152339227Y-98360303D01*
X152464697Y-98485773D01*
X152563279Y-98633311D01*
X152631183Y-98797246D01*
X152665800Y-98971279D01*
X152665800Y-99148721D01*
X152631183Y-99322754D01*
X152563279Y-99486689D01*
X152464697Y-99634227D01*
X152339227Y-99759697D01*
X152191689Y-99858279D01*
X152027754Y-99926183D01*
X151911732Y-99949261D01*
X151853722Y-99960800D01*
X151676278Y-99960800D01*
X151618268Y-99949261D01*
X151502246Y-99926183D01*
X151338311Y-99858279D01*
X151190773Y-99759697D01*
X151065303Y-99634227D01*
X150966721Y-99486689D01*
X150898817Y-99322754D01*
X150864200Y-99148721D01*
X150864200Y-98971279D01*
X150898817Y-98797246D01*
X150966721Y-98633311D01*
X151065303Y-98485773D01*
X151190773Y-98360303D01*
X151338311Y-98261721D01*
X151502246Y-98193817D01*
X151618268Y-98170739D01*
X151676278Y-98159200D01*
X151853722Y-98159200D01*
X151911732Y-98170739D01*
G37*
G36*
X154451732Y-98170739D02*
G01*
X154567754Y-98193817D01*
X154731689Y-98261721D01*
X154879227Y-98360303D01*
X155004697Y-98485773D01*
X155103279Y-98633311D01*
X155171183Y-98797246D01*
X155205800Y-98971279D01*
X155205800Y-99148721D01*
X155171183Y-99322754D01*
X155103279Y-99486689D01*
X155004697Y-99634227D01*
X154879227Y-99759697D01*
X154731689Y-99858279D01*
X154567754Y-99926183D01*
X154451732Y-99949261D01*
X154393722Y-99960800D01*
X154216278Y-99960800D01*
X154158268Y-99949261D01*
X154042246Y-99926183D01*
X153878311Y-99858279D01*
X153730773Y-99759697D01*
X153605303Y-99634227D01*
X153506721Y-99486689D01*
X153438817Y-99322754D01*
X153404200Y-99148721D01*
X153404200Y-98971279D01*
X153438817Y-98797246D01*
X153506721Y-98633311D01*
X153605303Y-98485773D01*
X153730773Y-98360303D01*
X153878311Y-98261721D01*
X154042246Y-98193817D01*
X154158268Y-98170739D01*
X154216278Y-98159200D01*
X154393722Y-98159200D01*
X154451732Y-98170739D01*
G37*
G36*
X156991732Y-98170739D02*
G01*
X157107754Y-98193817D01*
X157271689Y-98261721D01*
X157419227Y-98360303D01*
X157544697Y-98485773D01*
X157643279Y-98633311D01*
X157711183Y-98797246D01*
X157745800Y-98971279D01*
X157745800Y-99148721D01*
X157711183Y-99322754D01*
X157643279Y-99486689D01*
X157544697Y-99634227D01*
X157419227Y-99759697D01*
X157271689Y-99858279D01*
X157107754Y-99926183D01*
X156991732Y-99949261D01*
X156933722Y-99960800D01*
X156756278Y-99960800D01*
X156698268Y-99949261D01*
X156582246Y-99926183D01*
X156418311Y-99858279D01*
X156270773Y-99759697D01*
X156145303Y-99634227D01*
X156046721Y-99486689D01*
X155978817Y-99322754D01*
X155944200Y-99148721D01*
X155944200Y-98971279D01*
X155978817Y-98797246D01*
X156046721Y-98633311D01*
X156145303Y-98485773D01*
X156270773Y-98360303D01*
X156418311Y-98261721D01*
X156582246Y-98193817D01*
X156698268Y-98170739D01*
X156756278Y-98159200D01*
X156933722Y-98159200D01*
X156991732Y-98170739D01*
G37*
G36*
X159531732Y-98170739D02*
G01*
X159647754Y-98193817D01*
X159811689Y-98261721D01*
X159959227Y-98360303D01*
X160084697Y-98485773D01*
X160183279Y-98633311D01*
X160251183Y-98797246D01*
X160285800Y-98971279D01*
X160285800Y-99148721D01*
X160251183Y-99322754D01*
X160183279Y-99486689D01*
X160084697Y-99634227D01*
X159959227Y-99759697D01*
X159811689Y-99858279D01*
X159647754Y-99926183D01*
X159531732Y-99949261D01*
X159473722Y-99960800D01*
X159296278Y-99960800D01*
X159238268Y-99949261D01*
X159122246Y-99926183D01*
X158958311Y-99858279D01*
X158810773Y-99759697D01*
X158685303Y-99634227D01*
X158586721Y-99486689D01*
X158518817Y-99322754D01*
X158484200Y-99148721D01*
X158484200Y-98971279D01*
X158518817Y-98797246D01*
X158586721Y-98633311D01*
X158685303Y-98485773D01*
X158810773Y-98360303D01*
X158958311Y-98261721D01*
X159122246Y-98193817D01*
X159238268Y-98170739D01*
X159296278Y-98159200D01*
X159473722Y-98159200D01*
X159531732Y-98170739D01*
G37*
G36*
X136671732Y-98170739D02*
G01*
X136787754Y-98193817D01*
X136951689Y-98261721D01*
X137099227Y-98360303D01*
X137224697Y-98485773D01*
X137323279Y-98633311D01*
X137391183Y-98797246D01*
X137425800Y-98971279D01*
X137425800Y-99148721D01*
X137391183Y-99322754D01*
X137323279Y-99486689D01*
X137224697Y-99634227D01*
X137099227Y-99759697D01*
X136951689Y-99858279D01*
X136787754Y-99926183D01*
X136671732Y-99949261D01*
X136613722Y-99960800D01*
X136436278Y-99960800D01*
X136378268Y-99949261D01*
X136262246Y-99926183D01*
X136098311Y-99858279D01*
X135950773Y-99759697D01*
X135825303Y-99634227D01*
X135726721Y-99486689D01*
X135658817Y-99322754D01*
X135624200Y-99148721D01*
X135624200Y-98971279D01*
X135658817Y-98797246D01*
X135726721Y-98633311D01*
X135825303Y-98485773D01*
X135950773Y-98360303D01*
X136098311Y-98261721D01*
X136262246Y-98193817D01*
X136378268Y-98170739D01*
X136436278Y-98159200D01*
X136613722Y-98159200D01*
X136671732Y-98170739D01*
G37*
G36*
X150782600Y-94558155D02*
G01*
X150794851Y-94558757D01*
X150813271Y-94558757D01*
X150835509Y-94560947D01*
X150919591Y-94577672D01*
X150940988Y-94584163D01*
X151020189Y-94616968D01*
X151039895Y-94627502D01*
X151111185Y-94675136D01*
X151115954Y-94679050D01*
X151115957Y-94679052D01*
X151123692Y-94685400D01*
X151123696Y-94685404D01*
X151128459Y-94689313D01*
X151189087Y-94749941D01*
X151192996Y-94754704D01*
X151193000Y-94754708D01*
X151199348Y-94762443D01*
X151203264Y-94767215D01*
X151250898Y-94838505D01*
X151261432Y-94858211D01*
X151294237Y-94937412D01*
X151300728Y-94958809D01*
X151317453Y-95042891D01*
X151319643Y-95065129D01*
X151319643Y-95083549D01*
X151320245Y-95095800D01*
X151322051Y-95114138D01*
X151322051Y-95601862D01*
X151320466Y-95617956D01*
X151317560Y-95627536D01*
X151313130Y-95635824D01*
X151312843Y-95636360D01*
X151306495Y-95644095D01*
X151294360Y-95654054D01*
X151283404Y-95661374D01*
X151266077Y-95678701D01*
X151252463Y-95699076D01*
X151243085Y-95721715D01*
X151238305Y-95745748D01*
X151238305Y-95770252D01*
X151243085Y-95794285D01*
X151252463Y-95816924D01*
X151266076Y-95837298D01*
X151283403Y-95854625D01*
X151294359Y-95861946D01*
X151298758Y-95865556D01*
X151298760Y-95865557D01*
X151306495Y-95871905D01*
X151312843Y-95879640D01*
X151312844Y-95879642D01*
X151317560Y-95888464D01*
X151320466Y-95898044D01*
X151322051Y-95914138D01*
X151322051Y-96401862D01*
X151320245Y-96420200D01*
X151319643Y-96432451D01*
X151319643Y-96450871D01*
X151317453Y-96473109D01*
X151300728Y-96557191D01*
X151294237Y-96578588D01*
X151261432Y-96657789D01*
X151250898Y-96677495D01*
X151203264Y-96748785D01*
X151199350Y-96753554D01*
X151199348Y-96753557D01*
X151193000Y-96761292D01*
X151192996Y-96761296D01*
X151189087Y-96766059D01*
X151128459Y-96826687D01*
X151123696Y-96830596D01*
X151123692Y-96830600D01*
X151115957Y-96836948D01*
X151115954Y-96836950D01*
X151111185Y-96840864D01*
X151039895Y-96888498D01*
X151020189Y-96899032D01*
X150940988Y-96931837D01*
X150919591Y-96938328D01*
X150835509Y-96955053D01*
X150813271Y-96957243D01*
X150794851Y-96957243D01*
X150782600Y-96957845D01*
X150764262Y-96959651D01*
X150276538Y-96959651D01*
X150258200Y-96957845D01*
X150245949Y-96957243D01*
X150227529Y-96957243D01*
X150205291Y-96955053D01*
X150121209Y-96938328D01*
X150099812Y-96931837D01*
X150020611Y-96899032D01*
X150000905Y-96888498D01*
X149929615Y-96840864D01*
X149924846Y-96836950D01*
X149924843Y-96836948D01*
X149917108Y-96830600D01*
X149917104Y-96830596D01*
X149912341Y-96826687D01*
X149851713Y-96766059D01*
X149847804Y-96761296D01*
X149847800Y-96761292D01*
X149841452Y-96753557D01*
X149841450Y-96753554D01*
X149837536Y-96748785D01*
X149789902Y-96677495D01*
X149779368Y-96657789D01*
X149746563Y-96578588D01*
X149740072Y-96557191D01*
X149723347Y-96473109D01*
X149721157Y-96450871D01*
X149721157Y-96432451D01*
X149720555Y-96420200D01*
X149718749Y-96401862D01*
X149718749Y-95914138D01*
X149720334Y-95898044D01*
X149723240Y-95888464D01*
X149727956Y-95879642D01*
X149727957Y-95879640D01*
X149734305Y-95871905D01*
X149742040Y-95865557D01*
X149746440Y-95861946D01*
X149757396Y-95854626D01*
X149774723Y-95837299D01*
X149788337Y-95816924D01*
X149797715Y-95794285D01*
X149802495Y-95770252D01*
X149802495Y-95745748D01*
X149797715Y-95721715D01*
X149788337Y-95699076D01*
X149774724Y-95678702D01*
X149757397Y-95661375D01*
X149746441Y-95654054D01*
X149742042Y-95650444D01*
X149742040Y-95650443D01*
X149734305Y-95644095D01*
X149727957Y-95636360D01*
X149727670Y-95635824D01*
X149723240Y-95627536D01*
X149720334Y-95617956D01*
X149718749Y-95601862D01*
X149718749Y-95114138D01*
X149720555Y-95095800D01*
X149721157Y-95083549D01*
X149721157Y-95065129D01*
X149723347Y-95042891D01*
X149740072Y-94958809D01*
X149746563Y-94937412D01*
X149779368Y-94858211D01*
X149789902Y-94838505D01*
X149837536Y-94767215D01*
X149841452Y-94762443D01*
X149847800Y-94754708D01*
X149847804Y-94754704D01*
X149851713Y-94749941D01*
X149912341Y-94689313D01*
X149917104Y-94685404D01*
X149917108Y-94685400D01*
X149924843Y-94679052D01*
X149924846Y-94679050D01*
X149929615Y-94675136D01*
X150000905Y-94627502D01*
X150020611Y-94616968D01*
X150099812Y-94584163D01*
X150121209Y-94577672D01*
X150205291Y-94560947D01*
X150227529Y-94558757D01*
X150245949Y-94558757D01*
X150258200Y-94558155D01*
X150276538Y-94556349D01*
X150764262Y-94556349D01*
X150782600Y-94558155D01*
G37*
G36*
X117695800Y-95590800D02*
G01*
X114194200Y-95590800D01*
X114194200Y-93989200D01*
X117695800Y-93989200D01*
X117695800Y-95590800D01*
G37*
G36*
X123495800Y-92990800D02*
G01*
X119894200Y-92990800D01*
X119894200Y-91889200D01*
X123495800Y-91889200D01*
X123495800Y-92990800D01*
G37*
G36*
X123495800Y-90990800D02*
G01*
X119894200Y-90990800D01*
X119894200Y-89889200D01*
X123495800Y-89889200D01*
X123495800Y-90990800D01*
G37*
G36*
X117695800Y-88890800D02*
G01*
X114194200Y-88890800D01*
X114194200Y-87289200D01*
X117695800Y-87289200D01*
X117695800Y-88890800D01*
G37*
G36*
X134131732Y-82930739D02*
G01*
X134247754Y-82953817D01*
X134411689Y-83021721D01*
X134559227Y-83120303D01*
X134684697Y-83245773D01*
X134783279Y-83393311D01*
X134851183Y-83557246D01*
X134885800Y-83731279D01*
X134885800Y-83908721D01*
X134851183Y-84082754D01*
X134783279Y-84246689D01*
X134684697Y-84394227D01*
X134559227Y-84519697D01*
X134411689Y-84618279D01*
X134247754Y-84686183D01*
X134131732Y-84709261D01*
X134073722Y-84720800D01*
X133896278Y-84720800D01*
X133838268Y-84709261D01*
X133722246Y-84686183D01*
X133558311Y-84618279D01*
X133410773Y-84519697D01*
X133285303Y-84394227D01*
X133186721Y-84246689D01*
X133118817Y-84082754D01*
X133084200Y-83908721D01*
X133084200Y-83731279D01*
X133118817Y-83557246D01*
X133186721Y-83393311D01*
X133285303Y-83245773D01*
X133410773Y-83120303D01*
X133558311Y-83021721D01*
X133722246Y-82953817D01*
X133838268Y-82930739D01*
X133896278Y-82919200D01*
X134073722Y-82919200D01*
X134131732Y-82930739D01*
G37*
G36*
X123971732Y-82930739D02*
G01*
X124087754Y-82953817D01*
X124251689Y-83021721D01*
X124399227Y-83120303D01*
X124524697Y-83245773D01*
X124623279Y-83393311D01*
X124691183Y-83557246D01*
X124725800Y-83731279D01*
X124725800Y-83908721D01*
X124691183Y-84082754D01*
X124623279Y-84246689D01*
X124524697Y-84394227D01*
X124399227Y-84519697D01*
X124251689Y-84618279D01*
X124087754Y-84686183D01*
X123971732Y-84709261D01*
X123913722Y-84720800D01*
X123736278Y-84720800D01*
X123678268Y-84709261D01*
X123562246Y-84686183D01*
X123398311Y-84618279D01*
X123250773Y-84519697D01*
X123125303Y-84394227D01*
X123026721Y-84246689D01*
X122958817Y-84082754D01*
X122924200Y-83908721D01*
X122924200Y-83731279D01*
X122958817Y-83557246D01*
X123026721Y-83393311D01*
X123125303Y-83245773D01*
X123250773Y-83120303D01*
X123398311Y-83021721D01*
X123562246Y-82953817D01*
X123678268Y-82930739D01*
X123736278Y-82919200D01*
X123913722Y-82919200D01*
X123971732Y-82930739D01*
G37*
G36*
X129051732Y-82930739D02*
G01*
X129167754Y-82953817D01*
X129331689Y-83021721D01*
X129479227Y-83120303D01*
X129604697Y-83245773D01*
X129703279Y-83393311D01*
X129771183Y-83557246D01*
X129805800Y-83731279D01*
X129805800Y-83908721D01*
X129771183Y-84082754D01*
X129703279Y-84246689D01*
X129604697Y-84394227D01*
X129479227Y-84519697D01*
X129331689Y-84618279D01*
X129167754Y-84686183D01*
X129051732Y-84709261D01*
X128993722Y-84720800D01*
X128816278Y-84720800D01*
X128758268Y-84709261D01*
X128642246Y-84686183D01*
X128478311Y-84618279D01*
X128330773Y-84519697D01*
X128205303Y-84394227D01*
X128106721Y-84246689D01*
X128038817Y-84082754D01*
X128004200Y-83908721D01*
X128004200Y-83731279D01*
X128038817Y-83557246D01*
X128106721Y-83393311D01*
X128205303Y-83245773D01*
X128330773Y-83120303D01*
X128478311Y-83021721D01*
X128642246Y-82953817D01*
X128758268Y-82930739D01*
X128816278Y-82919200D01*
X128993722Y-82919200D01*
X129051732Y-82930739D01*
G37*
G36*
X126511732Y-82930739D02*
G01*
X126627754Y-82953817D01*
X126791689Y-83021721D01*
X126939227Y-83120303D01*
X127064697Y-83245773D01*
X127163279Y-83393311D01*
X127231183Y-83557246D01*
X127265800Y-83731279D01*
X127265800Y-83908721D01*
X127231183Y-84082754D01*
X127163279Y-84246689D01*
X127064697Y-84394227D01*
X126939227Y-84519697D01*
X126791689Y-84618279D01*
X126627754Y-84686183D01*
X126511732Y-84709261D01*
X126453722Y-84720800D01*
X126276278Y-84720800D01*
X126218268Y-84709261D01*
X126102246Y-84686183D01*
X125938311Y-84618279D01*
X125790773Y-84519697D01*
X125665303Y-84394227D01*
X125566721Y-84246689D01*
X125498817Y-84082754D01*
X125464200Y-83908721D01*
X125464200Y-83731279D01*
X125498817Y-83557246D01*
X125566721Y-83393311D01*
X125665303Y-83245773D01*
X125790773Y-83120303D01*
X125938311Y-83021721D01*
X126102246Y-82953817D01*
X126218268Y-82930739D01*
X126276278Y-82919200D01*
X126453722Y-82919200D01*
X126511732Y-82930739D01*
G37*
G36*
X131591732Y-82930739D02*
G01*
X131707754Y-82953817D01*
X131871689Y-83021721D01*
X132019227Y-83120303D01*
X132144697Y-83245773D01*
X132243279Y-83393311D01*
X132311183Y-83557246D01*
X132345800Y-83731279D01*
X132345800Y-83908721D01*
X132311183Y-84082754D01*
X132243279Y-84246689D01*
X132144697Y-84394227D01*
X132019227Y-84519697D01*
X131871689Y-84618279D01*
X131707754Y-84686183D01*
X131591732Y-84709261D01*
X131533722Y-84720800D01*
X131356278Y-84720800D01*
X131298268Y-84709261D01*
X131182246Y-84686183D01*
X131018311Y-84618279D01*
X130870773Y-84519697D01*
X130745303Y-84394227D01*
X130646721Y-84246689D01*
X130578817Y-84082754D01*
X130544200Y-83908721D01*
X130544200Y-83731279D01*
X130578817Y-83557246D01*
X130646721Y-83393311D01*
X130745303Y-83245773D01*
X130870773Y-83120303D01*
X131018311Y-83021721D01*
X131182246Y-82953817D01*
X131298268Y-82930739D01*
X131356278Y-82919200D01*
X131533722Y-82919200D01*
X131591732Y-82930739D01*
G37*
G36*
X136671732Y-82930739D02*
G01*
X136787754Y-82953817D01*
X136951689Y-83021721D01*
X137099227Y-83120303D01*
X137224697Y-83245773D01*
X137323279Y-83393311D01*
X137391183Y-83557246D01*
X137425800Y-83731279D01*
X137425800Y-83908721D01*
X137391183Y-84082754D01*
X137323279Y-84246689D01*
X137224697Y-84394227D01*
X137099227Y-84519697D01*
X136951689Y-84618279D01*
X136787754Y-84686183D01*
X136671732Y-84709261D01*
X136613722Y-84720800D01*
X136436278Y-84720800D01*
X136378268Y-84709261D01*
X136262246Y-84686183D01*
X136098311Y-84618279D01*
X135950773Y-84519697D01*
X135825303Y-84394227D01*
X135726721Y-84246689D01*
X135658817Y-84082754D01*
X135624200Y-83908721D01*
X135624200Y-83731279D01*
X135658817Y-83557246D01*
X135726721Y-83393311D01*
X135825303Y-83245773D01*
X135950773Y-83120303D01*
X136098311Y-83021721D01*
X136262246Y-82953817D01*
X136378268Y-82930739D01*
X136436278Y-82919200D01*
X136613722Y-82919200D01*
X136671732Y-82930739D01*
G37*
G36*
X139211732Y-82930739D02*
G01*
X139327754Y-82953817D01*
X139491689Y-83021721D01*
X139639227Y-83120303D01*
X139764697Y-83245773D01*
X139863279Y-83393311D01*
X139931183Y-83557246D01*
X139965800Y-83731279D01*
X139965800Y-83908721D01*
X139931183Y-84082754D01*
X139863279Y-84246689D01*
X139764697Y-84394227D01*
X139639227Y-84519697D01*
X139491689Y-84618279D01*
X139327754Y-84686183D01*
X139211732Y-84709261D01*
X139153722Y-84720800D01*
X138976278Y-84720800D01*
X138918268Y-84709261D01*
X138802246Y-84686183D01*
X138638311Y-84618279D01*
X138490773Y-84519697D01*
X138365303Y-84394227D01*
X138266721Y-84246689D01*
X138198817Y-84082754D01*
X138164200Y-83908721D01*
X138164200Y-83731279D01*
X138198817Y-83557246D01*
X138266721Y-83393311D01*
X138365303Y-83245773D01*
X138490773Y-83120303D01*
X138638311Y-83021721D01*
X138802246Y-82953817D01*
X138918268Y-82930739D01*
X138976278Y-82919200D01*
X139153722Y-82919200D01*
X139211732Y-82930739D01*
G37*
G36*
X141751732Y-82930739D02*
G01*
X141867754Y-82953817D01*
X142031689Y-83021721D01*
X142179227Y-83120303D01*
X142304697Y-83245773D01*
X142403279Y-83393311D01*
X142471183Y-83557246D01*
X142505800Y-83731279D01*
X142505800Y-83908721D01*
X142471183Y-84082754D01*
X142403279Y-84246689D01*
X142304697Y-84394227D01*
X142179227Y-84519697D01*
X142031689Y-84618279D01*
X141867754Y-84686183D01*
X141751732Y-84709261D01*
X141693722Y-84720800D01*
X141516278Y-84720800D01*
X141458268Y-84709261D01*
X141342246Y-84686183D01*
X141178311Y-84618279D01*
X141030773Y-84519697D01*
X140905303Y-84394227D01*
X140806721Y-84246689D01*
X140738817Y-84082754D01*
X140704200Y-83908721D01*
X140704200Y-83731279D01*
X140738817Y-83557246D01*
X140806721Y-83393311D01*
X140905303Y-83245773D01*
X141030773Y-83120303D01*
X141178311Y-83021721D01*
X141342246Y-82953817D01*
X141458268Y-82930739D01*
X141516278Y-82919200D01*
X141693722Y-82919200D01*
X141751732Y-82930739D01*
G37*
G36*
X144291732Y-82930739D02*
G01*
X144407754Y-82953817D01*
X144571689Y-83021721D01*
X144719227Y-83120303D01*
X144844697Y-83245773D01*
X144943279Y-83393311D01*
X145011183Y-83557246D01*
X145045800Y-83731279D01*
X145045800Y-83908721D01*
X145011183Y-84082754D01*
X144943279Y-84246689D01*
X144844697Y-84394227D01*
X144719227Y-84519697D01*
X144571689Y-84618279D01*
X144407754Y-84686183D01*
X144291732Y-84709261D01*
X144233722Y-84720800D01*
X144056278Y-84720800D01*
X143998268Y-84709261D01*
X143882246Y-84686183D01*
X143718311Y-84618279D01*
X143570773Y-84519697D01*
X143445303Y-84394227D01*
X143346721Y-84246689D01*
X143278817Y-84082754D01*
X143244200Y-83908721D01*
X143244200Y-83731279D01*
X143278817Y-83557246D01*
X143346721Y-83393311D01*
X143445303Y-83245773D01*
X143570773Y-83120303D01*
X143718311Y-83021721D01*
X143882246Y-82953817D01*
X143998268Y-82930739D01*
X144056278Y-82919200D01*
X144233722Y-82919200D01*
X144291732Y-82930739D01*
G37*
G36*
X146831732Y-82930739D02*
G01*
X146947754Y-82953817D01*
X147111689Y-83021721D01*
X147259227Y-83120303D01*
X147384697Y-83245773D01*
X147483279Y-83393311D01*
X147551183Y-83557246D01*
X147585800Y-83731279D01*
X147585800Y-83908721D01*
X147551183Y-84082754D01*
X147483279Y-84246689D01*
X147384697Y-84394227D01*
X147259227Y-84519697D01*
X147111689Y-84618279D01*
X146947754Y-84686183D01*
X146831732Y-84709261D01*
X146773722Y-84720800D01*
X146596278Y-84720800D01*
X146538268Y-84709261D01*
X146422246Y-84686183D01*
X146258311Y-84618279D01*
X146110773Y-84519697D01*
X145985303Y-84394227D01*
X145886721Y-84246689D01*
X145818817Y-84082754D01*
X145784200Y-83908721D01*
X145784200Y-83731279D01*
X145818817Y-83557246D01*
X145886721Y-83393311D01*
X145985303Y-83245773D01*
X146110773Y-83120303D01*
X146258311Y-83021721D01*
X146422246Y-82953817D01*
X146538268Y-82930739D01*
X146596278Y-82919200D01*
X146773722Y-82919200D01*
X146831732Y-82930739D01*
G37*
G36*
X149371732Y-82930739D02*
G01*
X149487754Y-82953817D01*
X149651689Y-83021721D01*
X149799227Y-83120303D01*
X149924697Y-83245773D01*
X150023279Y-83393311D01*
X150091183Y-83557246D01*
X150125800Y-83731279D01*
X150125800Y-83908721D01*
X150091183Y-84082754D01*
X150023279Y-84246689D01*
X149924697Y-84394227D01*
X149799227Y-84519697D01*
X149651689Y-84618279D01*
X149487754Y-84686183D01*
X149371732Y-84709261D01*
X149313722Y-84720800D01*
X149136278Y-84720800D01*
X149078268Y-84709261D01*
X148962246Y-84686183D01*
X148798311Y-84618279D01*
X148650773Y-84519697D01*
X148525303Y-84394227D01*
X148426721Y-84246689D01*
X148358817Y-84082754D01*
X148324200Y-83908721D01*
X148324200Y-83731279D01*
X148358817Y-83557246D01*
X148426721Y-83393311D01*
X148525303Y-83245773D01*
X148650773Y-83120303D01*
X148798311Y-83021721D01*
X148962246Y-82953817D01*
X149078268Y-82930739D01*
X149136278Y-82919200D01*
X149313722Y-82919200D01*
X149371732Y-82930739D01*
G37*
G36*
X151911732Y-82930739D02*
G01*
X152027754Y-82953817D01*
X152191689Y-83021721D01*
X152339227Y-83120303D01*
X152464697Y-83245773D01*
X152563279Y-83393311D01*
X152631183Y-83557246D01*
X152665800Y-83731279D01*
X152665800Y-83908721D01*
X152631183Y-84082754D01*
X152563279Y-84246689D01*
X152464697Y-84394227D01*
X152339227Y-84519697D01*
X152191689Y-84618279D01*
X152027754Y-84686183D01*
X151911732Y-84709261D01*
X151853722Y-84720800D01*
X151676278Y-84720800D01*
X151618268Y-84709261D01*
X151502246Y-84686183D01*
X151338311Y-84618279D01*
X151190773Y-84519697D01*
X151065303Y-84394227D01*
X150966721Y-84246689D01*
X150898817Y-84082754D01*
X150864200Y-83908721D01*
X150864200Y-83731279D01*
X150898817Y-83557246D01*
X150966721Y-83393311D01*
X151065303Y-83245773D01*
X151190773Y-83120303D01*
X151338311Y-83021721D01*
X151502246Y-82953817D01*
X151618268Y-82930739D01*
X151676278Y-82919200D01*
X151853722Y-82919200D01*
X151911732Y-82930739D01*
G37*
G36*
X154451732Y-82930739D02*
G01*
X154567754Y-82953817D01*
X154731689Y-83021721D01*
X154879227Y-83120303D01*
X155004697Y-83245773D01*
X155103279Y-83393311D01*
X155171183Y-83557246D01*
X155205800Y-83731279D01*
X155205800Y-83908721D01*
X155171183Y-84082754D01*
X155103279Y-84246689D01*
X155004697Y-84394227D01*
X154879227Y-84519697D01*
X154731689Y-84618279D01*
X154567754Y-84686183D01*
X154451732Y-84709261D01*
X154393722Y-84720800D01*
X154216278Y-84720800D01*
X154158268Y-84709261D01*
X154042246Y-84686183D01*
X153878311Y-84618279D01*
X153730773Y-84519697D01*
X153605303Y-84394227D01*
X153506721Y-84246689D01*
X153438817Y-84082754D01*
X153404200Y-83908721D01*
X153404200Y-83731279D01*
X153438817Y-83557246D01*
X153506721Y-83393311D01*
X153605303Y-83245773D01*
X153730773Y-83120303D01*
X153878311Y-83021721D01*
X154042246Y-82953817D01*
X154158268Y-82930739D01*
X154216278Y-82919200D01*
X154393722Y-82919200D01*
X154451732Y-82930739D01*
G37*
G36*
X156991732Y-82930739D02*
G01*
X157107754Y-82953817D01*
X157271689Y-83021721D01*
X157419227Y-83120303D01*
X157544697Y-83245773D01*
X157643279Y-83393311D01*
X157711183Y-83557246D01*
X157745800Y-83731279D01*
X157745800Y-83908721D01*
X157711183Y-84082754D01*
X157643279Y-84246689D01*
X157544697Y-84394227D01*
X157419227Y-84519697D01*
X157271689Y-84618279D01*
X157107754Y-84686183D01*
X156991732Y-84709261D01*
X156933722Y-84720800D01*
X156756278Y-84720800D01*
X156698268Y-84709261D01*
X156582246Y-84686183D01*
X156418311Y-84618279D01*
X156270773Y-84519697D01*
X156145303Y-84394227D01*
X156046721Y-84246689D01*
X155978817Y-84082754D01*
X155944200Y-83908721D01*
X155944200Y-83731279D01*
X155978817Y-83557246D01*
X156046721Y-83393311D01*
X156145303Y-83245773D01*
X156270773Y-83120303D01*
X156418311Y-83021721D01*
X156582246Y-82953817D01*
X156698268Y-82930739D01*
X156756278Y-82919200D01*
X156933722Y-82919200D01*
X156991732Y-82930739D01*
G37*
G36*
X159531732Y-82930739D02*
G01*
X159647754Y-82953817D01*
X159811689Y-83021721D01*
X159959227Y-83120303D01*
X160084697Y-83245773D01*
X160183279Y-83393311D01*
X160251183Y-83557246D01*
X160285800Y-83731279D01*
X160285800Y-83908721D01*
X160251183Y-84082754D01*
X160183279Y-84246689D01*
X160084697Y-84394227D01*
X159959227Y-84519697D01*
X159811689Y-84618279D01*
X159647754Y-84686183D01*
X159531732Y-84709261D01*
X159473722Y-84720800D01*
X159296278Y-84720800D01*
X159238268Y-84709261D01*
X159122246Y-84686183D01*
X158958311Y-84618279D01*
X158810773Y-84519697D01*
X158685303Y-84394227D01*
X158586721Y-84246689D01*
X158518817Y-84082754D01*
X158484200Y-83908721D01*
X158484200Y-83731279D01*
X158518817Y-83557246D01*
X158586721Y-83393311D01*
X158685303Y-83245773D01*
X158810773Y-83120303D01*
X158958311Y-83021721D01*
X159122246Y-82953817D01*
X159238268Y-82930739D01*
X159296278Y-82919200D01*
X159473722Y-82919200D01*
X159531732Y-82930739D01*
G37*
G36*
X160801732Y-80390739D02*
G01*
X160917754Y-80413817D01*
X161081689Y-80481721D01*
X161229227Y-80580303D01*
X161354697Y-80705773D01*
X161453279Y-80853311D01*
X161521183Y-81017246D01*
X161555800Y-81191279D01*
X161555800Y-81368721D01*
X161521183Y-81542754D01*
X161453279Y-81706689D01*
X161354697Y-81854227D01*
X161229227Y-81979697D01*
X161081689Y-82078279D01*
X160917754Y-82146183D01*
X160801732Y-82169261D01*
X160743722Y-82180800D01*
X160566278Y-82180800D01*
X160508268Y-82169261D01*
X160392246Y-82146183D01*
X160228311Y-82078279D01*
X160080773Y-81979697D01*
X159955303Y-81854227D01*
X159856721Y-81706689D01*
X159788817Y-81542754D01*
X159754200Y-81368721D01*
X159754200Y-81191279D01*
X159788817Y-81017246D01*
X159856721Y-80853311D01*
X159955303Y-80705773D01*
X160080773Y-80580303D01*
X160228311Y-80481721D01*
X160392246Y-80413817D01*
X160508268Y-80390739D01*
X160566278Y-80379200D01*
X160743722Y-80379200D01*
X160801732Y-80390739D01*
G37*
G36*
X158261732Y-80390739D02*
G01*
X158377754Y-80413817D01*
X158541689Y-80481721D01*
X158689227Y-80580303D01*
X158814697Y-80705773D01*
X158913279Y-80853311D01*
X158981183Y-81017246D01*
X159015800Y-81191279D01*
X159015800Y-81368721D01*
X158981183Y-81542754D01*
X158913279Y-81706689D01*
X158814697Y-81854227D01*
X158689227Y-81979697D01*
X158541689Y-82078279D01*
X158377754Y-82146183D01*
X158261732Y-82169261D01*
X158203722Y-82180800D01*
X158026278Y-82180800D01*
X157968268Y-82169261D01*
X157852246Y-82146183D01*
X157688311Y-82078279D01*
X157540773Y-81979697D01*
X157415303Y-81854227D01*
X157316721Y-81706689D01*
X157248817Y-81542754D01*
X157214200Y-81368721D01*
X157214200Y-81191279D01*
X157248817Y-81017246D01*
X157316721Y-80853311D01*
X157415303Y-80705773D01*
X157540773Y-80580303D01*
X157688311Y-80481721D01*
X157852246Y-80413817D01*
X157968268Y-80390739D01*
X158026278Y-80379200D01*
X158203722Y-80379200D01*
X158261732Y-80390739D01*
G37*
G36*
X155721732Y-80390739D02*
G01*
X155837754Y-80413817D01*
X156001689Y-80481721D01*
X156149227Y-80580303D01*
X156274697Y-80705773D01*
X156373279Y-80853311D01*
X156441183Y-81017246D01*
X156475800Y-81191279D01*
X156475800Y-81368721D01*
X156441183Y-81542754D01*
X156373279Y-81706689D01*
X156274697Y-81854227D01*
X156149227Y-81979697D01*
X156001689Y-82078279D01*
X155837754Y-82146183D01*
X155721732Y-82169261D01*
X155663722Y-82180800D01*
X155486278Y-82180800D01*
X155428268Y-82169261D01*
X155312246Y-82146183D01*
X155148311Y-82078279D01*
X155000773Y-81979697D01*
X154875303Y-81854227D01*
X154776721Y-81706689D01*
X154708817Y-81542754D01*
X154674200Y-81368721D01*
X154674200Y-81191279D01*
X154708817Y-81017246D01*
X154776721Y-80853311D01*
X154875303Y-80705773D01*
X155000773Y-80580303D01*
X155148311Y-80481721D01*
X155312246Y-80413817D01*
X155428268Y-80390739D01*
X155486278Y-80379200D01*
X155663722Y-80379200D01*
X155721732Y-80390739D01*
G37*
G36*
X153181732Y-80390739D02*
G01*
X153297754Y-80413817D01*
X153461689Y-80481721D01*
X153609227Y-80580303D01*
X153734697Y-80705773D01*
X153833279Y-80853311D01*
X153901183Y-81017246D01*
X153935800Y-81191279D01*
X153935800Y-81368721D01*
X153901183Y-81542754D01*
X153833279Y-81706689D01*
X153734697Y-81854227D01*
X153609227Y-81979697D01*
X153461689Y-82078279D01*
X153297754Y-82146183D01*
X153181732Y-82169261D01*
X153123722Y-82180800D01*
X152946278Y-82180800D01*
X152888268Y-82169261D01*
X152772246Y-82146183D01*
X152608311Y-82078279D01*
X152460773Y-81979697D01*
X152335303Y-81854227D01*
X152236721Y-81706689D01*
X152168817Y-81542754D01*
X152134200Y-81368721D01*
X152134200Y-81191279D01*
X152168817Y-81017246D01*
X152236721Y-80853311D01*
X152335303Y-80705773D01*
X152460773Y-80580303D01*
X152608311Y-80481721D01*
X152772246Y-80413817D01*
X152888268Y-80390739D01*
X152946278Y-80379200D01*
X153123722Y-80379200D01*
X153181732Y-80390739D01*
G37*
G36*
X150641732Y-80390739D02*
G01*
X150757754Y-80413817D01*
X150921689Y-80481721D01*
X151069227Y-80580303D01*
X151194697Y-80705773D01*
X151293279Y-80853311D01*
X151361183Y-81017246D01*
X151395800Y-81191279D01*
X151395800Y-81368721D01*
X151361183Y-81542754D01*
X151293279Y-81706689D01*
X151194697Y-81854227D01*
X151069227Y-81979697D01*
X150921689Y-82078279D01*
X150757754Y-82146183D01*
X150641732Y-82169261D01*
X150583722Y-82180800D01*
X150406278Y-82180800D01*
X150348268Y-82169261D01*
X150232246Y-82146183D01*
X150068311Y-82078279D01*
X149920773Y-81979697D01*
X149795303Y-81854227D01*
X149696721Y-81706689D01*
X149628817Y-81542754D01*
X149594200Y-81368721D01*
X149594200Y-81191279D01*
X149628817Y-81017246D01*
X149696721Y-80853311D01*
X149795303Y-80705773D01*
X149920773Y-80580303D01*
X150068311Y-80481721D01*
X150232246Y-80413817D01*
X150348268Y-80390739D01*
X150406278Y-80379200D01*
X150583722Y-80379200D01*
X150641732Y-80390739D01*
G37*
G36*
X148101732Y-80390739D02*
G01*
X148217754Y-80413817D01*
X148381689Y-80481721D01*
X148529227Y-80580303D01*
X148654697Y-80705773D01*
X148753279Y-80853311D01*
X148821183Y-81017246D01*
X148855800Y-81191279D01*
X148855800Y-81368721D01*
X148821183Y-81542754D01*
X148753279Y-81706689D01*
X148654697Y-81854227D01*
X148529227Y-81979697D01*
X148381689Y-82078279D01*
X148217754Y-82146183D01*
X148101732Y-82169261D01*
X148043722Y-82180800D01*
X147866278Y-82180800D01*
X147808268Y-82169261D01*
X147692246Y-82146183D01*
X147528311Y-82078279D01*
X147380773Y-81979697D01*
X147255303Y-81854227D01*
X147156721Y-81706689D01*
X147088817Y-81542754D01*
X147054200Y-81368721D01*
X147054200Y-81191279D01*
X147088817Y-81017246D01*
X147156721Y-80853311D01*
X147255303Y-80705773D01*
X147380773Y-80580303D01*
X147528311Y-80481721D01*
X147692246Y-80413817D01*
X147808268Y-80390739D01*
X147866278Y-80379200D01*
X148043722Y-80379200D01*
X148101732Y-80390739D01*
G37*
G36*
X122701732Y-80390739D02*
G01*
X122817754Y-80413817D01*
X122981689Y-80481721D01*
X123129227Y-80580303D01*
X123254697Y-80705773D01*
X123353279Y-80853311D01*
X123421183Y-81017246D01*
X123455800Y-81191279D01*
X123455800Y-81368721D01*
X123421183Y-81542754D01*
X123353279Y-81706689D01*
X123254697Y-81854227D01*
X123129227Y-81979697D01*
X122981689Y-82078279D01*
X122817754Y-82146183D01*
X122701732Y-82169261D01*
X122643722Y-82180800D01*
X122466278Y-82180800D01*
X122408268Y-82169261D01*
X122292246Y-82146183D01*
X122128311Y-82078279D01*
X121980773Y-81979697D01*
X121855303Y-81854227D01*
X121756721Y-81706689D01*
X121688817Y-81542754D01*
X121654200Y-81368721D01*
X121654200Y-81191279D01*
X121688817Y-81017246D01*
X121756721Y-80853311D01*
X121855303Y-80705773D01*
X121980773Y-80580303D01*
X122128311Y-80481721D01*
X122292246Y-80413817D01*
X122408268Y-80390739D01*
X122466278Y-80379200D01*
X122643722Y-80379200D01*
X122701732Y-80390739D01*
G37*
G36*
X125241732Y-80390739D02*
G01*
X125357754Y-80413817D01*
X125521689Y-80481721D01*
X125669227Y-80580303D01*
X125794697Y-80705773D01*
X125893279Y-80853311D01*
X125961183Y-81017246D01*
X125995800Y-81191279D01*
X125995800Y-81368721D01*
X125961183Y-81542754D01*
X125893279Y-81706689D01*
X125794697Y-81854227D01*
X125669227Y-81979697D01*
X125521689Y-82078279D01*
X125357754Y-82146183D01*
X125241732Y-82169261D01*
X125183722Y-82180800D01*
X125006278Y-82180800D01*
X124948268Y-82169261D01*
X124832246Y-82146183D01*
X124668311Y-82078279D01*
X124520773Y-81979697D01*
X124395303Y-81854227D01*
X124296721Y-81706689D01*
X124228817Y-81542754D01*
X124194200Y-81368721D01*
X124194200Y-81191279D01*
X124228817Y-81017246D01*
X124296721Y-80853311D01*
X124395303Y-80705773D01*
X124520773Y-80580303D01*
X124668311Y-80481721D01*
X124832246Y-80413817D01*
X124948268Y-80390739D01*
X125006278Y-80379200D01*
X125183722Y-80379200D01*
X125241732Y-80390739D01*
G37*
G36*
X127781732Y-80390739D02*
G01*
X127897754Y-80413817D01*
X128061689Y-80481721D01*
X128209227Y-80580303D01*
X128334697Y-80705773D01*
X128433279Y-80853311D01*
X128501183Y-81017246D01*
X128535800Y-81191279D01*
X128535800Y-81368721D01*
X128501183Y-81542754D01*
X128433279Y-81706689D01*
X128334697Y-81854227D01*
X128209227Y-81979697D01*
X128061689Y-82078279D01*
X127897754Y-82146183D01*
X127781732Y-82169261D01*
X127723722Y-82180800D01*
X127546278Y-82180800D01*
X127488268Y-82169261D01*
X127372246Y-82146183D01*
X127208311Y-82078279D01*
X127060773Y-81979697D01*
X126935303Y-81854227D01*
X126836721Y-81706689D01*
X126768817Y-81542754D01*
X126734200Y-81368721D01*
X126734200Y-81191279D01*
X126768817Y-81017246D01*
X126836721Y-80853311D01*
X126935303Y-80705773D01*
X127060773Y-80580303D01*
X127208311Y-80481721D01*
X127372246Y-80413817D01*
X127488268Y-80390739D01*
X127546278Y-80379200D01*
X127723722Y-80379200D01*
X127781732Y-80390739D01*
G37*
G36*
X130321732Y-80390739D02*
G01*
X130437754Y-80413817D01*
X130601689Y-80481721D01*
X130749227Y-80580303D01*
X130874697Y-80705773D01*
X130973279Y-80853311D01*
X131041183Y-81017246D01*
X131075800Y-81191279D01*
X131075800Y-81368721D01*
X131041183Y-81542754D01*
X130973279Y-81706689D01*
X130874697Y-81854227D01*
X130749227Y-81979697D01*
X130601689Y-82078279D01*
X130437754Y-82146183D01*
X130321732Y-82169261D01*
X130263722Y-82180800D01*
X130086278Y-82180800D01*
X130028268Y-82169261D01*
X129912246Y-82146183D01*
X129748311Y-82078279D01*
X129600773Y-81979697D01*
X129475303Y-81854227D01*
X129376721Y-81706689D01*
X129308817Y-81542754D01*
X129274200Y-81368721D01*
X129274200Y-81191279D01*
X129308817Y-81017246D01*
X129376721Y-80853311D01*
X129475303Y-80705773D01*
X129600773Y-80580303D01*
X129748311Y-80481721D01*
X129912246Y-80413817D01*
X130028268Y-80390739D01*
X130086278Y-80379200D01*
X130263722Y-80379200D01*
X130321732Y-80390739D01*
G37*
G36*
X135401732Y-80390739D02*
G01*
X135517754Y-80413817D01*
X135681689Y-80481721D01*
X135829227Y-80580303D01*
X135954697Y-80705773D01*
X136053279Y-80853311D01*
X136121183Y-81017246D01*
X136155800Y-81191279D01*
X136155800Y-81368721D01*
X136121183Y-81542754D01*
X136053279Y-81706689D01*
X135954697Y-81854227D01*
X135829227Y-81979697D01*
X135681689Y-82078279D01*
X135517754Y-82146183D01*
X135401732Y-82169261D01*
X135343722Y-82180800D01*
X135166278Y-82180800D01*
X135108268Y-82169261D01*
X134992246Y-82146183D01*
X134828311Y-82078279D01*
X134680773Y-81979697D01*
X134555303Y-81854227D01*
X134456721Y-81706689D01*
X134388817Y-81542754D01*
X134354200Y-81368721D01*
X134354200Y-81191279D01*
X134388817Y-81017246D01*
X134456721Y-80853311D01*
X134555303Y-80705773D01*
X134680773Y-80580303D01*
X134828311Y-80481721D01*
X134992246Y-80413817D01*
X135108268Y-80390739D01*
X135166278Y-80379200D01*
X135343722Y-80379200D01*
X135401732Y-80390739D01*
G37*
G36*
X137941732Y-80390739D02*
G01*
X138057754Y-80413817D01*
X138221689Y-80481721D01*
X138369227Y-80580303D01*
X138494697Y-80705773D01*
X138593279Y-80853311D01*
X138661183Y-81017246D01*
X138695800Y-81191279D01*
X138695800Y-81368721D01*
X138661183Y-81542754D01*
X138593279Y-81706689D01*
X138494697Y-81854227D01*
X138369227Y-81979697D01*
X138221689Y-82078279D01*
X138057754Y-82146183D01*
X137941732Y-82169261D01*
X137883722Y-82180800D01*
X137706278Y-82180800D01*
X137648268Y-82169261D01*
X137532246Y-82146183D01*
X137368311Y-82078279D01*
X137220773Y-81979697D01*
X137095303Y-81854227D01*
X136996721Y-81706689D01*
X136928817Y-81542754D01*
X136894200Y-81368721D01*
X136894200Y-81191279D01*
X136928817Y-81017246D01*
X136996721Y-80853311D01*
X137095303Y-80705773D01*
X137220773Y-80580303D01*
X137368311Y-80481721D01*
X137532246Y-80413817D01*
X137648268Y-80390739D01*
X137706278Y-80379200D01*
X137883722Y-80379200D01*
X137941732Y-80390739D01*
G37*
G36*
X140481732Y-80390739D02*
G01*
X140597754Y-80413817D01*
X140761689Y-80481721D01*
X140909227Y-80580303D01*
X141034697Y-80705773D01*
X141133279Y-80853311D01*
X141201183Y-81017246D01*
X141235800Y-81191279D01*
X141235800Y-81368721D01*
X141201183Y-81542754D01*
X141133279Y-81706689D01*
X141034697Y-81854227D01*
X140909227Y-81979697D01*
X140761689Y-82078279D01*
X140597754Y-82146183D01*
X140481732Y-82169261D01*
X140423722Y-82180800D01*
X140246278Y-82180800D01*
X140188268Y-82169261D01*
X140072246Y-82146183D01*
X139908311Y-82078279D01*
X139760773Y-81979697D01*
X139635303Y-81854227D01*
X139536721Y-81706689D01*
X139468817Y-81542754D01*
X139434200Y-81368721D01*
X139434200Y-81191279D01*
X139468817Y-81017246D01*
X139536721Y-80853311D01*
X139635303Y-80705773D01*
X139760773Y-80580303D01*
X139908311Y-80481721D01*
X140072246Y-80413817D01*
X140188268Y-80390739D01*
X140246278Y-80379200D01*
X140423722Y-80379200D01*
X140481732Y-80390739D01*
G37*
G36*
X143021732Y-80390739D02*
G01*
X143137754Y-80413817D01*
X143301689Y-80481721D01*
X143449227Y-80580303D01*
X143574697Y-80705773D01*
X143673279Y-80853311D01*
X143741183Y-81017246D01*
X143775800Y-81191279D01*
X143775800Y-81368721D01*
X143741183Y-81542754D01*
X143673279Y-81706689D01*
X143574697Y-81854227D01*
X143449227Y-81979697D01*
X143301689Y-82078279D01*
X143137754Y-82146183D01*
X143021732Y-82169261D01*
X142963722Y-82180800D01*
X142786278Y-82180800D01*
X142728268Y-82169261D01*
X142612246Y-82146183D01*
X142448311Y-82078279D01*
X142300773Y-81979697D01*
X142175303Y-81854227D01*
X142076721Y-81706689D01*
X142008817Y-81542754D01*
X141974200Y-81368721D01*
X141974200Y-81191279D01*
X142008817Y-81017246D01*
X142076721Y-80853311D01*
X142175303Y-80705773D01*
X142300773Y-80580303D01*
X142448311Y-80481721D01*
X142612246Y-80413817D01*
X142728268Y-80390739D01*
X142786278Y-80379200D01*
X142963722Y-80379200D01*
X143021732Y-80390739D01*
G37*
G36*
X132861732Y-80390739D02*
G01*
X132977754Y-80413817D01*
X133141689Y-80481721D01*
X133289227Y-80580303D01*
X133414697Y-80705773D01*
X133513279Y-80853311D01*
X133581183Y-81017246D01*
X133615800Y-81191279D01*
X133615800Y-81368721D01*
X133581183Y-81542754D01*
X133513279Y-81706689D01*
X133414697Y-81854227D01*
X133289227Y-81979697D01*
X133141689Y-82078279D01*
X132977754Y-82146183D01*
X132861732Y-82169261D01*
X132803722Y-82180800D01*
X132626278Y-82180800D01*
X132568268Y-82169261D01*
X132452246Y-82146183D01*
X132288311Y-82078279D01*
X132140773Y-81979697D01*
X132015303Y-81854227D01*
X131916721Y-81706689D01*
X131848817Y-81542754D01*
X131814200Y-81368721D01*
X131814200Y-81191279D01*
X131848817Y-81017246D01*
X131916721Y-80853311D01*
X132015303Y-80705773D01*
X132140773Y-80580303D01*
X132288311Y-80481721D01*
X132452246Y-80413817D01*
X132568268Y-80390739D01*
X132626278Y-80379200D01*
X132803722Y-80379200D01*
X132861732Y-80390739D01*
G37*
G36*
X145561732Y-80390739D02*
G01*
X145677754Y-80413817D01*
X145841689Y-80481721D01*
X145989227Y-80580303D01*
X146114697Y-80705773D01*
X146213279Y-80853311D01*
X146281183Y-81017246D01*
X146315800Y-81191279D01*
X146315800Y-81368721D01*
X146281183Y-81542754D01*
X146213279Y-81706689D01*
X146114697Y-81854227D01*
X145989227Y-81979697D01*
X145841689Y-82078279D01*
X145677754Y-82146183D01*
X145561732Y-82169261D01*
X145503722Y-82180800D01*
X145326278Y-82180800D01*
X145268268Y-82169261D01*
X145152246Y-82146183D01*
X144988311Y-82078279D01*
X144840773Y-81979697D01*
X144715303Y-81854227D01*
X144616721Y-81706689D01*
X144548817Y-81542754D01*
X144514200Y-81368721D01*
X144514200Y-81191279D01*
X144548817Y-81017246D01*
X144616721Y-80853311D01*
X144715303Y-80705773D01*
X144840773Y-80580303D01*
X144988311Y-80481721D01*
X145152246Y-80413817D01*
X145268268Y-80390739D01*
X145326278Y-80379200D01*
X145503722Y-80379200D01*
X145561732Y-80390739D01*
G37*
M02*
