G04 #@! TF.GenerationSoftware,KiCad,Pcbnew,5.1.5-52549c5~84~ubuntu18.04.1*
G04 #@! TF.CreationDate,2020-01-18T20:00:26-07:00*
G04 #@! TF.ProjectId,FeatherWing_KC5,46656174-6865-4725-9769-6e675f4b4335,rev?*
G04 #@! TF.SameCoordinates,Original*
G04 #@! TF.FileFunction,Paste,Top*
G04 #@! TF.FilePolarity,Positive*
%FSLAX46Y46*%
G04 Gerber Fmt 4.6, Leading zero omitted, Abs format (unit mm)*
G04 Created by KiCad (PCBNEW 5.1.5-52549c5~84~ubuntu18.04.1) date 2020-01-18 20:00:26*
%MOMM*%
%LPD*%
G04 APERTURE LIST*
%ADD10C,0.100000*%
%ADD11R,3.500000X1.000000*%
G04 APERTURE END LIST*
D10*
G36*
X123431470Y-91940072D02*
G01*
X123432926Y-91940288D01*
X123434354Y-91940646D01*
X123435740Y-91941142D01*
X123437071Y-91941771D01*
X123438334Y-91942528D01*
X123439516Y-91943405D01*
X123440607Y-91944393D01*
X123441595Y-91945484D01*
X123442472Y-91946666D01*
X123443229Y-91947929D01*
X123443858Y-91949260D01*
X123444354Y-91950646D01*
X123444712Y-91952074D01*
X123444928Y-91953530D01*
X123445000Y-91955000D01*
X123445000Y-92925000D01*
X123444928Y-92926470D01*
X123444712Y-92927926D01*
X123444354Y-92929354D01*
X123443858Y-92930740D01*
X123443229Y-92932071D01*
X123442472Y-92933334D01*
X123441595Y-92934516D01*
X123440607Y-92935607D01*
X123439516Y-92936595D01*
X123438334Y-92937472D01*
X123437071Y-92938229D01*
X123435740Y-92938858D01*
X123434354Y-92939354D01*
X123432926Y-92939712D01*
X123431470Y-92939928D01*
X123430000Y-92940000D01*
X119960000Y-92940000D01*
X119958530Y-92939928D01*
X119957074Y-92939712D01*
X119955646Y-92939354D01*
X119954260Y-92938858D01*
X119952929Y-92938229D01*
X119951666Y-92937472D01*
X119950484Y-92936595D01*
X119949393Y-92935607D01*
X119948405Y-92934516D01*
X119947528Y-92933334D01*
X119946771Y-92932071D01*
X119946142Y-92930740D01*
X119945646Y-92929354D01*
X119945288Y-92927926D01*
X119945072Y-92926470D01*
X119945000Y-92925000D01*
X119945000Y-91955000D01*
X119945072Y-91953530D01*
X119945288Y-91952074D01*
X119945646Y-91950646D01*
X119946142Y-91949260D01*
X119946771Y-91947929D01*
X119947528Y-91946666D01*
X119948405Y-91945484D01*
X119949393Y-91944393D01*
X119950484Y-91943405D01*
X119951666Y-91942528D01*
X119952929Y-91941771D01*
X119954260Y-91941142D01*
X119955646Y-91940646D01*
X119957074Y-91940288D01*
X119958530Y-91940072D01*
X119960000Y-91940000D01*
X123430000Y-91940000D01*
X123431470Y-91940072D01*
G37*
D11*
X121695000Y-90440000D03*
D10*
G36*
X117624705Y-94040108D02*
G01*
X117626890Y-94040432D01*
X117629031Y-94040969D01*
X117631110Y-94041713D01*
X117633106Y-94042657D01*
X117635000Y-94043792D01*
X117636774Y-94045107D01*
X117638410Y-94046590D01*
X117639893Y-94048226D01*
X117641208Y-94050000D01*
X117642343Y-94051894D01*
X117643287Y-94053890D01*
X117644031Y-94055969D01*
X117644568Y-94058110D01*
X117644892Y-94060295D01*
X117645000Y-94062500D01*
X117645000Y-95517500D01*
X117644892Y-95519705D01*
X117644568Y-95521890D01*
X117644031Y-95524031D01*
X117643287Y-95526110D01*
X117642343Y-95528106D01*
X117641208Y-95530000D01*
X117639893Y-95531774D01*
X117638410Y-95533410D01*
X117636774Y-95534893D01*
X117635000Y-95536208D01*
X117633106Y-95537343D01*
X117631110Y-95538287D01*
X117629031Y-95539031D01*
X117626890Y-95539568D01*
X117624705Y-95539892D01*
X117622500Y-95540000D01*
X114267500Y-95540000D01*
X114265295Y-95539892D01*
X114263110Y-95539568D01*
X114260969Y-95539031D01*
X114258890Y-95538287D01*
X114256894Y-95537343D01*
X114255000Y-95536208D01*
X114253226Y-95534893D01*
X114251590Y-95533410D01*
X114250107Y-95531774D01*
X114248792Y-95530000D01*
X114247657Y-95528106D01*
X114246713Y-95526110D01*
X114245969Y-95524031D01*
X114245432Y-95521890D01*
X114245108Y-95519705D01*
X114245000Y-95517500D01*
X114245000Y-94062500D01*
X114245108Y-94060295D01*
X114245432Y-94058110D01*
X114245969Y-94055969D01*
X114246713Y-94053890D01*
X114247657Y-94051894D01*
X114248792Y-94050000D01*
X114250107Y-94048226D01*
X114251590Y-94046590D01*
X114253226Y-94045107D01*
X114255000Y-94043792D01*
X114256894Y-94042657D01*
X114258890Y-94041713D01*
X114260969Y-94040969D01*
X114263110Y-94040432D01*
X114265295Y-94040108D01*
X114267500Y-94040000D01*
X117622500Y-94040000D01*
X117624705Y-94040108D01*
G37*
G36*
X117624705Y-87340108D02*
G01*
X117626890Y-87340432D01*
X117629031Y-87340969D01*
X117631110Y-87341713D01*
X117633106Y-87342657D01*
X117635000Y-87343792D01*
X117636774Y-87345107D01*
X117638410Y-87346590D01*
X117639893Y-87348226D01*
X117641208Y-87350000D01*
X117642343Y-87351894D01*
X117643287Y-87353890D01*
X117644031Y-87355969D01*
X117644568Y-87358110D01*
X117644892Y-87360295D01*
X117645000Y-87362500D01*
X117645000Y-88817500D01*
X117644892Y-88819705D01*
X117644568Y-88821890D01*
X117644031Y-88824031D01*
X117643287Y-88826110D01*
X117642343Y-88828106D01*
X117641208Y-88830000D01*
X117639893Y-88831774D01*
X117638410Y-88833410D01*
X117636774Y-88834893D01*
X117635000Y-88836208D01*
X117633106Y-88837343D01*
X117631110Y-88838287D01*
X117629031Y-88839031D01*
X117626890Y-88839568D01*
X117624705Y-88839892D01*
X117622500Y-88840000D01*
X114267500Y-88840000D01*
X114265295Y-88839892D01*
X114263110Y-88839568D01*
X114260969Y-88839031D01*
X114258890Y-88838287D01*
X114256894Y-88837343D01*
X114255000Y-88836208D01*
X114253226Y-88834893D01*
X114251590Y-88833410D01*
X114250107Y-88831774D01*
X114248792Y-88830000D01*
X114247657Y-88828106D01*
X114246713Y-88826110D01*
X114245969Y-88824031D01*
X114245432Y-88821890D01*
X114245108Y-88819705D01*
X114245000Y-88817500D01*
X114245000Y-87362500D01*
X114245108Y-87360295D01*
X114245432Y-87358110D01*
X114245969Y-87355969D01*
X114246713Y-87353890D01*
X114247657Y-87351894D01*
X114248792Y-87350000D01*
X114250107Y-87348226D01*
X114251590Y-87346590D01*
X114253226Y-87345107D01*
X114255000Y-87343792D01*
X114256894Y-87342657D01*
X114258890Y-87341713D01*
X114260969Y-87340969D01*
X114263110Y-87340432D01*
X114265295Y-87340108D01*
X114267500Y-87340000D01*
X117622500Y-87340000D01*
X117624705Y-87340108D01*
G37*
M02*
