G04 #@! TF.GenerationSoftware,KiCad,Pcbnew,5.1.5-52549c5~84~ubuntu18.04.1*
G04 #@! TF.CreationDate,2020-01-18T20:00:26-07:00*
G04 #@! TF.ProjectId,FeatherWing_KC5,46656174-6865-4725-9769-6e675f4b4335,rev?*
G04 #@! TF.SameCoordinates,Original*
G04 #@! TF.FileFunction,Copper,L1,Top*
G04 #@! TF.FilePolarity,Positive*
%FSLAX46Y46*%
G04 Gerber Fmt 4.6, Leading zero omitted, Abs format (unit mm)*
G04 Created by KiCad (PCBNEW 5.1.5-52549c5~84~ubuntu18.04.1) date 2020-01-18 20:00:26*
%MOMM*%
%LPD*%
G04 APERTURE LIST*
%ADD10C,0.010000*%
%ADD11C,0.100000*%
%ADD12C,1.700000*%
%ADD13O,1.700000X1.700000*%
%ADD14R,3.500000X1.000000*%
%ADD15C,0.600000*%
%ADD16C,0.685800*%
%ADD17C,0.500000*%
%ADD18C,0.400000*%
%ADD19C,0.254000*%
G04 APERTURE END LIST*
D10*
G36*
X161034171Y-94196746D02*
G01*
X161087287Y-94113408D01*
X161166836Y-94030742D01*
X161265471Y-93954104D01*
X161375845Y-93888850D01*
X161490612Y-93840337D01*
X161602426Y-93813924D01*
X161652153Y-93810666D01*
X161717002Y-93813485D01*
X161763116Y-93827034D01*
X161807341Y-93858956D01*
X161850470Y-93900625D01*
X161901562Y-93959614D01*
X161943882Y-94028312D01*
X161984190Y-94118911D01*
X162010212Y-94188835D01*
X162042771Y-94278348D01*
X162065529Y-94333321D01*
X162082039Y-94359390D01*
X162095855Y-94362187D01*
X162110350Y-94347585D01*
X162169605Y-94250100D01*
X162215804Y-94129956D01*
X162252493Y-93977799D01*
X162254510Y-93967231D01*
X162272442Y-93878766D01*
X162290031Y-93803303D01*
X162304415Y-93752732D01*
X162308761Y-93741875D01*
X162315417Y-93717516D01*
X162296196Y-93706960D01*
X162249516Y-93704833D01*
X162184390Y-93693830D01*
X162093793Y-93663051D01*
X161996587Y-93620166D01*
X161901018Y-93575255D01*
X161835175Y-93548562D01*
X161791552Y-93538162D01*
X161762642Y-93542128D01*
X161744024Y-93555361D01*
X161712740Y-93569332D01*
X161654953Y-93583161D01*
X161614884Y-93589560D01*
X161549095Y-93596156D01*
X161510853Y-93591417D01*
X161486095Y-93571789D01*
X161473430Y-93553824D01*
X161450591Y-93503512D01*
X161423578Y-93420452D01*
X161394618Y-93313741D01*
X161365937Y-93192478D01*
X161339761Y-93065762D01*
X161318317Y-92942691D01*
X161310317Y-92887269D01*
X161298761Y-92795801D01*
X161294001Y-92736302D01*
X161296847Y-92698836D01*
X161308106Y-92673463D01*
X161328587Y-92650248D01*
X161329688Y-92649144D01*
X161361920Y-92610472D01*
X161374666Y-92583000D01*
X161393024Y-92567998D01*
X161436630Y-92561833D01*
X161503512Y-92581846D01*
X161556725Y-92641549D01*
X161595897Y-92740444D01*
X161607510Y-92790661D01*
X161626903Y-92878820D01*
X161649704Y-92967946D01*
X161660899Y-93006333D01*
X161681911Y-93078092D01*
X161698728Y-93143148D01*
X161702391Y-93159791D01*
X161722682Y-93204665D01*
X161748406Y-93218000D01*
X161765699Y-93212811D01*
X161774150Y-93191562D01*
X161774870Y-93145727D01*
X161768967Y-93066780D01*
X161768609Y-93062805D01*
X161754545Y-92907610D01*
X161827768Y-92829972D01*
X161876350Y-92784939D01*
X161918340Y-92756923D01*
X161933733Y-92752333D01*
X161960975Y-92769469D01*
X161998352Y-92813936D01*
X162030206Y-92863458D01*
X162064069Y-92928130D01*
X162083404Y-92985410D01*
X162092122Y-93052158D01*
X162094134Y-93138936D01*
X162094944Y-93221916D01*
X162099589Y-93273616D01*
X162111766Y-93305089D01*
X162135172Y-93327387D01*
X162163125Y-93345232D01*
X162211623Y-93372488D01*
X162244285Y-93386681D01*
X162247791Y-93387254D01*
X162258667Y-93367802D01*
X162263140Y-93314807D01*
X162261530Y-93236520D01*
X162254160Y-93141194D01*
X162241351Y-93037081D01*
X162231816Y-92977404D01*
X162199966Y-92794762D01*
X162277467Y-92721662D01*
X162331382Y-92677204D01*
X162373809Y-92664599D01*
X162416849Y-92684765D01*
X162470452Y-92736316D01*
X162506056Y-92796437D01*
X162537902Y-92894488D01*
X162564958Y-93026156D01*
X162586191Y-93187125D01*
X162591380Y-93241731D01*
X162594301Y-93398669D01*
X162572630Y-93521685D01*
X162526220Y-93611420D01*
X162500554Y-93638262D01*
X162465343Y-93670519D01*
X162461024Y-93681853D01*
X162486001Y-93678481D01*
X162490465Y-93677480D01*
X162547369Y-93685823D01*
X162591007Y-93716582D01*
X162631746Y-93783122D01*
X162643677Y-93880235D01*
X162626807Y-94007482D01*
X162582715Y-94159916D01*
X162512347Y-94342028D01*
X162439692Y-94490594D01*
X162369500Y-94597380D01*
X162369500Y-93704833D01*
X162386922Y-93697089D01*
X162383611Y-93690722D01*
X162358491Y-93688189D01*
X162355388Y-93690722D01*
X162358294Y-93703306D01*
X162369500Y-93704833D01*
X162369500Y-94597380D01*
X162366799Y-94601490D01*
X162358207Y-94611982D01*
X162324202Y-94654040D01*
X162316388Y-94673124D01*
X162333277Y-94678297D01*
X162347294Y-94678500D01*
X162394218Y-94687938D01*
X162455949Y-94711469D01*
X162474388Y-94720351D01*
X162542085Y-94772410D01*
X162574704Y-94837413D01*
X162569500Y-94907645D01*
X162552897Y-94940742D01*
X162503817Y-94983259D01*
X162426883Y-95015047D01*
X162336029Y-95032144D01*
X162245192Y-95030586D01*
X162239797Y-95029773D01*
X162152220Y-95015769D01*
X162218131Y-95090837D01*
X162258379Y-95139305D01*
X162291070Y-95187079D01*
X162319556Y-95241956D01*
X162347186Y-95311735D01*
X162377312Y-95404215D01*
X162413286Y-95527195D01*
X162427954Y-95579157D01*
X162492202Y-95825142D01*
X162537202Y-96036604D01*
X162562871Y-96212885D01*
X162569131Y-96353329D01*
X162555900Y-96457277D01*
X162540194Y-96498833D01*
X162461152Y-96606041D01*
X162352152Y-96686896D01*
X162218462Y-96738526D01*
X162065350Y-96758056D01*
X162064945Y-96758062D01*
X161959740Y-96740814D01*
X161841820Y-96688664D01*
X161715604Y-96605426D01*
X161585507Y-96494910D01*
X161455948Y-96360929D01*
X161331344Y-96207293D01*
X161216111Y-96037814D01*
X161200351Y-96012000D01*
X161149410Y-95928717D01*
X161102304Y-95854118D01*
X161066014Y-95799152D01*
X161053460Y-95781604D01*
X161028284Y-95734707D01*
X161015892Y-95684477D01*
X161018092Y-95645194D01*
X161034414Y-95631000D01*
X161055205Y-95614029D01*
X161086069Y-95570868D01*
X161103441Y-95541362D01*
X161140812Y-95483478D01*
X161179938Y-95453163D01*
X161236741Y-95438095D01*
X161236911Y-95438067D01*
X161295889Y-95431344D01*
X161337671Y-95431663D01*
X161343453Y-95433052D01*
X161362504Y-95454880D01*
X161393857Y-95505628D01*
X161431867Y-95575877D01*
X161446592Y-95605138D01*
X161498708Y-95704512D01*
X161559380Y-95810999D01*
X161615901Y-95902335D01*
X161618431Y-95906166D01*
X161684181Y-95993662D01*
X161772299Y-96095006D01*
X161871964Y-96199068D01*
X161972353Y-96294720D01*
X162062647Y-96370832D01*
X162089129Y-96390285D01*
X162134459Y-96419131D01*
X162157992Y-96423331D01*
X162170863Y-96404838D01*
X162170941Y-96404637D01*
X162177648Y-96355100D01*
X162175023Y-96272926D01*
X162163950Y-96166562D01*
X162145311Y-96044454D01*
X162126083Y-95946191D01*
X162126083Y-95017166D01*
X162136666Y-95006583D01*
X162126083Y-94996000D01*
X162115500Y-95006583D01*
X162126083Y-95017166D01*
X162126083Y-95946191D01*
X162119989Y-95915048D01*
X162119575Y-95913150D01*
X162095009Y-95803292D01*
X162075388Y-95729576D01*
X162056818Y-95686742D01*
X162035409Y-95669529D01*
X162007267Y-95672680D01*
X161968499Y-95690934D01*
X161958904Y-95696054D01*
X161902850Y-95720575D01*
X161859283Y-95730076D01*
X161849866Y-95728776D01*
X161820298Y-95732495D01*
X161813973Y-95741830D01*
X161793083Y-95757872D01*
X161756969Y-95741510D01*
X161711857Y-95696839D01*
X161680176Y-95653837D01*
X161623869Y-95568752D01*
X161705643Y-95407939D01*
X161761733Y-95309864D01*
X161830947Y-95205852D01*
X161898532Y-95118039D01*
X161900049Y-95116271D01*
X161954793Y-95050565D01*
X161983357Y-95009617D01*
X161988863Y-94987634D01*
X161974433Y-94978822D01*
X161974132Y-94978769D01*
X161917020Y-94967785D01*
X161837674Y-94951059D01*
X161745690Y-94930794D01*
X161707598Y-94922135D01*
X161707598Y-94506879D01*
X161728909Y-94503455D01*
X161727967Y-94467496D01*
X161706810Y-94396668D01*
X161680017Y-94322269D01*
X161644836Y-94238405D01*
X161612790Y-94193547D01*
X161578285Y-94185278D01*
X161535726Y-94211178D01*
X161501265Y-94245010D01*
X161475426Y-94277043D01*
X161469409Y-94304841D01*
X161486996Y-94336091D01*
X161531972Y-94378479D01*
X161590081Y-94425468D01*
X161662001Y-94480105D01*
X161707598Y-94506879D01*
X161707598Y-94922135D01*
X161650660Y-94909191D01*
X161562179Y-94888451D01*
X161489840Y-94870775D01*
X161443238Y-94858365D01*
X161431397Y-94854233D01*
X161420848Y-94827327D01*
X161421851Y-94782043D01*
X161423484Y-94747624D01*
X161413587Y-94716452D01*
X161386772Y-94682156D01*
X161337649Y-94638366D01*
X161260831Y-94578710D01*
X161230857Y-94556227D01*
X161127629Y-94468409D01*
X161055918Y-94383953D01*
X161019111Y-94307266D01*
X161014833Y-94275397D01*
X161034171Y-94196746D01*
G37*
X161034171Y-94196746D02*
X161087287Y-94113408D01*
X161166836Y-94030742D01*
X161265471Y-93954104D01*
X161375845Y-93888850D01*
X161490612Y-93840337D01*
X161602426Y-93813924D01*
X161652153Y-93810666D01*
X161717002Y-93813485D01*
X161763116Y-93827034D01*
X161807341Y-93858956D01*
X161850470Y-93900625D01*
X161901562Y-93959614D01*
X161943882Y-94028312D01*
X161984190Y-94118911D01*
X162010212Y-94188835D01*
X162042771Y-94278348D01*
X162065529Y-94333321D01*
X162082039Y-94359390D01*
X162095855Y-94362187D01*
X162110350Y-94347585D01*
X162169605Y-94250100D01*
X162215804Y-94129956D01*
X162252493Y-93977799D01*
X162254510Y-93967231D01*
X162272442Y-93878766D01*
X162290031Y-93803303D01*
X162304415Y-93752732D01*
X162308761Y-93741875D01*
X162315417Y-93717516D01*
X162296196Y-93706960D01*
X162249516Y-93704833D01*
X162184390Y-93693830D01*
X162093793Y-93663051D01*
X161996587Y-93620166D01*
X161901018Y-93575255D01*
X161835175Y-93548562D01*
X161791552Y-93538162D01*
X161762642Y-93542128D01*
X161744024Y-93555361D01*
X161712740Y-93569332D01*
X161654953Y-93583161D01*
X161614884Y-93589560D01*
X161549095Y-93596156D01*
X161510853Y-93591417D01*
X161486095Y-93571789D01*
X161473430Y-93553824D01*
X161450591Y-93503512D01*
X161423578Y-93420452D01*
X161394618Y-93313741D01*
X161365937Y-93192478D01*
X161339761Y-93065762D01*
X161318317Y-92942691D01*
X161310317Y-92887269D01*
X161298761Y-92795801D01*
X161294001Y-92736302D01*
X161296847Y-92698836D01*
X161308106Y-92673463D01*
X161328587Y-92650248D01*
X161329688Y-92649144D01*
X161361920Y-92610472D01*
X161374666Y-92583000D01*
X161393024Y-92567998D01*
X161436630Y-92561833D01*
X161503512Y-92581846D01*
X161556725Y-92641549D01*
X161595897Y-92740444D01*
X161607510Y-92790661D01*
X161626903Y-92878820D01*
X161649704Y-92967946D01*
X161660899Y-93006333D01*
X161681911Y-93078092D01*
X161698728Y-93143148D01*
X161702391Y-93159791D01*
X161722682Y-93204665D01*
X161748406Y-93218000D01*
X161765699Y-93212811D01*
X161774150Y-93191562D01*
X161774870Y-93145727D01*
X161768967Y-93066780D01*
X161768609Y-93062805D01*
X161754545Y-92907610D01*
X161827768Y-92829972D01*
X161876350Y-92784939D01*
X161918340Y-92756923D01*
X161933733Y-92752333D01*
X161960975Y-92769469D01*
X161998352Y-92813936D01*
X162030206Y-92863458D01*
X162064069Y-92928130D01*
X162083404Y-92985410D01*
X162092122Y-93052158D01*
X162094134Y-93138936D01*
X162094944Y-93221916D01*
X162099589Y-93273616D01*
X162111766Y-93305089D01*
X162135172Y-93327387D01*
X162163125Y-93345232D01*
X162211623Y-93372488D01*
X162244285Y-93386681D01*
X162247791Y-93387254D01*
X162258667Y-93367802D01*
X162263140Y-93314807D01*
X162261530Y-93236520D01*
X162254160Y-93141194D01*
X162241351Y-93037081D01*
X162231816Y-92977404D01*
X162199966Y-92794762D01*
X162277467Y-92721662D01*
X162331382Y-92677204D01*
X162373809Y-92664599D01*
X162416849Y-92684765D01*
X162470452Y-92736316D01*
X162506056Y-92796437D01*
X162537902Y-92894488D01*
X162564958Y-93026156D01*
X162586191Y-93187125D01*
X162591380Y-93241731D01*
X162594301Y-93398669D01*
X162572630Y-93521685D01*
X162526220Y-93611420D01*
X162500554Y-93638262D01*
X162465343Y-93670519D01*
X162461024Y-93681853D01*
X162486001Y-93678481D01*
X162490465Y-93677480D01*
X162547369Y-93685823D01*
X162591007Y-93716582D01*
X162631746Y-93783122D01*
X162643677Y-93880235D01*
X162626807Y-94007482D01*
X162582715Y-94159916D01*
X162512347Y-94342028D01*
X162439692Y-94490594D01*
X162369500Y-94597380D01*
X162369500Y-93704833D01*
X162386922Y-93697089D01*
X162383611Y-93690722D01*
X162358491Y-93688189D01*
X162355388Y-93690722D01*
X162358294Y-93703306D01*
X162369500Y-93704833D01*
X162369500Y-94597380D01*
X162366799Y-94601490D01*
X162358207Y-94611982D01*
X162324202Y-94654040D01*
X162316388Y-94673124D01*
X162333277Y-94678297D01*
X162347294Y-94678500D01*
X162394218Y-94687938D01*
X162455949Y-94711469D01*
X162474388Y-94720351D01*
X162542085Y-94772410D01*
X162574704Y-94837413D01*
X162569500Y-94907645D01*
X162552897Y-94940742D01*
X162503817Y-94983259D01*
X162426883Y-95015047D01*
X162336029Y-95032144D01*
X162245192Y-95030586D01*
X162239797Y-95029773D01*
X162152220Y-95015769D01*
X162218131Y-95090837D01*
X162258379Y-95139305D01*
X162291070Y-95187079D01*
X162319556Y-95241956D01*
X162347186Y-95311735D01*
X162377312Y-95404215D01*
X162413286Y-95527195D01*
X162427954Y-95579157D01*
X162492202Y-95825142D01*
X162537202Y-96036604D01*
X162562871Y-96212885D01*
X162569131Y-96353329D01*
X162555900Y-96457277D01*
X162540194Y-96498833D01*
X162461152Y-96606041D01*
X162352152Y-96686896D01*
X162218462Y-96738526D01*
X162065350Y-96758056D01*
X162064945Y-96758062D01*
X161959740Y-96740814D01*
X161841820Y-96688664D01*
X161715604Y-96605426D01*
X161585507Y-96494910D01*
X161455948Y-96360929D01*
X161331344Y-96207293D01*
X161216111Y-96037814D01*
X161200351Y-96012000D01*
X161149410Y-95928717D01*
X161102304Y-95854118D01*
X161066014Y-95799152D01*
X161053460Y-95781604D01*
X161028284Y-95734707D01*
X161015892Y-95684477D01*
X161018092Y-95645194D01*
X161034414Y-95631000D01*
X161055205Y-95614029D01*
X161086069Y-95570868D01*
X161103441Y-95541362D01*
X161140812Y-95483478D01*
X161179938Y-95453163D01*
X161236741Y-95438095D01*
X161236911Y-95438067D01*
X161295889Y-95431344D01*
X161337671Y-95431663D01*
X161343453Y-95433052D01*
X161362504Y-95454880D01*
X161393857Y-95505628D01*
X161431867Y-95575877D01*
X161446592Y-95605138D01*
X161498708Y-95704512D01*
X161559380Y-95810999D01*
X161615901Y-95902335D01*
X161618431Y-95906166D01*
X161684181Y-95993662D01*
X161772299Y-96095006D01*
X161871964Y-96199068D01*
X161972353Y-96294720D01*
X162062647Y-96370832D01*
X162089129Y-96390285D01*
X162134459Y-96419131D01*
X162157992Y-96423331D01*
X162170863Y-96404838D01*
X162170941Y-96404637D01*
X162177648Y-96355100D01*
X162175023Y-96272926D01*
X162163950Y-96166562D01*
X162145311Y-96044454D01*
X162126083Y-95946191D01*
X162126083Y-95017166D01*
X162136666Y-95006583D01*
X162126083Y-94996000D01*
X162115500Y-95006583D01*
X162126083Y-95017166D01*
X162126083Y-95946191D01*
X162119989Y-95915048D01*
X162119575Y-95913150D01*
X162095009Y-95803292D01*
X162075388Y-95729576D01*
X162056818Y-95686742D01*
X162035409Y-95669529D01*
X162007267Y-95672680D01*
X161968499Y-95690934D01*
X161958904Y-95696054D01*
X161902850Y-95720575D01*
X161859283Y-95730076D01*
X161849866Y-95728776D01*
X161820298Y-95732495D01*
X161813973Y-95741830D01*
X161793083Y-95757872D01*
X161756969Y-95741510D01*
X161711857Y-95696839D01*
X161680176Y-95653837D01*
X161623869Y-95568752D01*
X161705643Y-95407939D01*
X161761733Y-95309864D01*
X161830947Y-95205852D01*
X161898532Y-95118039D01*
X161900049Y-95116271D01*
X161954793Y-95050565D01*
X161983357Y-95009617D01*
X161988863Y-94987634D01*
X161974433Y-94978822D01*
X161974132Y-94978769D01*
X161917020Y-94967785D01*
X161837674Y-94951059D01*
X161745690Y-94930794D01*
X161707598Y-94922135D01*
X161707598Y-94506879D01*
X161728909Y-94503455D01*
X161727967Y-94467496D01*
X161706810Y-94396668D01*
X161680017Y-94322269D01*
X161644836Y-94238405D01*
X161612790Y-94193547D01*
X161578285Y-94185278D01*
X161535726Y-94211178D01*
X161501265Y-94245010D01*
X161475426Y-94277043D01*
X161469409Y-94304841D01*
X161486996Y-94336091D01*
X161531972Y-94378479D01*
X161590081Y-94425468D01*
X161662001Y-94480105D01*
X161707598Y-94506879D01*
X161707598Y-94922135D01*
X161650660Y-94909191D01*
X161562179Y-94888451D01*
X161489840Y-94870775D01*
X161443238Y-94858365D01*
X161431397Y-94854233D01*
X161420848Y-94827327D01*
X161421851Y-94782043D01*
X161423484Y-94747624D01*
X161413587Y-94716452D01*
X161386772Y-94682156D01*
X161337649Y-94638366D01*
X161260831Y-94578710D01*
X161230857Y-94556227D01*
X161127629Y-94468409D01*
X161055918Y-94383953D01*
X161019111Y-94307266D01*
X161014833Y-94275397D01*
X161034171Y-94196746D01*
G36*
X161282410Y-91675527D02*
G01*
X161316936Y-91624711D01*
X161340450Y-91597014D01*
X161385687Y-91553881D01*
X161427156Y-91533622D01*
X161471764Y-91538106D01*
X161526420Y-91569201D01*
X161598030Y-91628776D01*
X161655406Y-91682196D01*
X161762928Y-91772548D01*
X161908353Y-91875570D01*
X162089630Y-91989939D01*
X162304708Y-92114333D01*
X162443583Y-92190259D01*
X162548768Y-92251668D01*
X162615613Y-92302273D01*
X162643174Y-92341328D01*
X162643838Y-92348920D01*
X162635599Y-92374649D01*
X162616720Y-92421072D01*
X162615119Y-92424763D01*
X162570739Y-92483978D01*
X162505077Y-92526710D01*
X162444735Y-92540666D01*
X162414891Y-92531433D01*
X162356902Y-92506499D01*
X162280014Y-92470017D01*
X162218190Y-92438953D01*
X162020250Y-92337240D01*
X161950684Y-92384448D01*
X161892295Y-92415931D01*
X161813577Y-92443120D01*
X161708056Y-92467701D01*
X161569259Y-92491361D01*
X161503817Y-92500827D01*
X161421923Y-92511109D01*
X161370394Y-92513154D01*
X161337870Y-92505883D01*
X161312993Y-92488214D01*
X161306673Y-92482081D01*
X161283730Y-92456286D01*
X161277713Y-92432020D01*
X161289276Y-92395402D01*
X161313165Y-92344717D01*
X161345806Y-92285770D01*
X161382296Y-92245171D01*
X161432843Y-92216603D01*
X161507651Y-92193752D01*
X161584429Y-92176848D01*
X161720108Y-92149083D01*
X161613510Y-92074541D01*
X161490151Y-91981847D01*
X161390379Y-91893690D01*
X161318034Y-91814112D01*
X161276954Y-91747155D01*
X161268833Y-91711635D01*
X161282410Y-91675527D01*
G37*
X161282410Y-91675527D02*
X161316936Y-91624711D01*
X161340450Y-91597014D01*
X161385687Y-91553881D01*
X161427156Y-91533622D01*
X161471764Y-91538106D01*
X161526420Y-91569201D01*
X161598030Y-91628776D01*
X161655406Y-91682196D01*
X161762928Y-91772548D01*
X161908353Y-91875570D01*
X162089630Y-91989939D01*
X162304708Y-92114333D01*
X162443583Y-92190259D01*
X162548768Y-92251668D01*
X162615613Y-92302273D01*
X162643174Y-92341328D01*
X162643838Y-92348920D01*
X162635599Y-92374649D01*
X162616720Y-92421072D01*
X162615119Y-92424763D01*
X162570739Y-92483978D01*
X162505077Y-92526710D01*
X162444735Y-92540666D01*
X162414891Y-92531433D01*
X162356902Y-92506499D01*
X162280014Y-92470017D01*
X162218190Y-92438953D01*
X162020250Y-92337240D01*
X161950684Y-92384448D01*
X161892295Y-92415931D01*
X161813577Y-92443120D01*
X161708056Y-92467701D01*
X161569259Y-92491361D01*
X161503817Y-92500827D01*
X161421923Y-92511109D01*
X161370394Y-92513154D01*
X161337870Y-92505883D01*
X161312993Y-92488214D01*
X161306673Y-92482081D01*
X161283730Y-92456286D01*
X161277713Y-92432020D01*
X161289276Y-92395402D01*
X161313165Y-92344717D01*
X161345806Y-92285770D01*
X161382296Y-92245171D01*
X161432843Y-92216603D01*
X161507651Y-92193752D01*
X161584429Y-92176848D01*
X161720108Y-92149083D01*
X161613510Y-92074541D01*
X161490151Y-91981847D01*
X161390379Y-91893690D01*
X161318034Y-91814112D01*
X161276954Y-91747155D01*
X161268833Y-91711635D01*
X161282410Y-91675527D01*
G36*
X161302137Y-88406840D02*
G01*
X161332348Y-88352653D01*
X161371333Y-88298736D01*
X161409791Y-88258077D01*
X161436634Y-88243544D01*
X161484498Y-88237888D01*
X161515106Y-88231129D01*
X161537528Y-88230119D01*
X161560044Y-88243890D01*
X161587437Y-88278350D01*
X161624489Y-88339409D01*
X161670992Y-88423736D01*
X161807433Y-88646540D01*
X161955529Y-88830904D01*
X162111690Y-88975088D01*
X162231916Y-89069635D01*
X162242500Y-88947776D01*
X162246182Y-88880260D01*
X162244761Y-88831645D01*
X162240328Y-88815333D01*
X162230429Y-88789894D01*
X162219262Y-88736661D01*
X162213531Y-88698916D01*
X162198980Y-88613658D01*
X162179483Y-88527837D01*
X162172774Y-88503730D01*
X162146059Y-88414376D01*
X162086026Y-88445521D01*
X162035356Y-88467580D01*
X161998427Y-88476666D01*
X161967498Y-88492230D01*
X161962793Y-88500868D01*
X161942505Y-88514509D01*
X161907747Y-88499181D01*
X161867456Y-88461190D01*
X161831168Y-88407966D01*
X161792599Y-88336347D01*
X161879735Y-88177580D01*
X161926837Y-88097269D01*
X161973997Y-88025966D01*
X162012647Y-87976418D01*
X162020019Y-87968883D01*
X162055982Y-87928953D01*
X162072720Y-87898245D01*
X162072879Y-87896185D01*
X162054557Y-87878646D01*
X162009666Y-87852158D01*
X162009666Y-87480405D01*
X162009666Y-87398184D01*
X162006682Y-87336372D01*
X161999332Y-87289860D01*
X161997627Y-87284589D01*
X161975234Y-87267332D01*
X161925577Y-87268770D01*
X161844467Y-87289318D01*
X161798138Y-87304384D01*
X161787867Y-87321198D01*
X161814515Y-87352761D01*
X161878839Y-87399788D01*
X161940875Y-87438782D01*
X162009666Y-87480405D01*
X162009666Y-87852158D01*
X162005416Y-87849650D01*
X161933798Y-87813808D01*
X161878518Y-87788750D01*
X161737133Y-87724372D01*
X161632497Y-87670040D01*
X161560922Y-87623258D01*
X161518724Y-87581531D01*
X161502217Y-87542362D01*
X161501666Y-87533588D01*
X161483054Y-87475518D01*
X161431193Y-87408861D01*
X161352048Y-87340977D01*
X161336950Y-87330285D01*
X161308861Y-87307541D01*
X161298824Y-87282010D01*
X161304575Y-87239418D01*
X161315656Y-87196013D01*
X161344617Y-87119131D01*
X161388178Y-87070330D01*
X161456507Y-87041404D01*
X161522833Y-87028826D01*
X161593455Y-87017150D01*
X161684831Y-86999849D01*
X161771541Y-86981869D01*
X161853321Y-86961948D01*
X161900864Y-86943992D01*
X161921891Y-86924358D01*
X161925000Y-86909418D01*
X161935752Y-86863830D01*
X161962261Y-86808506D01*
X161995902Y-86757502D01*
X162028052Y-86724872D01*
X162041314Y-86719833D01*
X162070780Y-86734648D01*
X162113459Y-86772087D01*
X162133579Y-86793634D01*
X162177436Y-86838901D01*
X162214759Y-86857939D01*
X162264560Y-86858278D01*
X162289230Y-86855269D01*
X162387551Y-86862283D01*
X162476801Y-86907852D01*
X162550679Y-86988290D01*
X162569120Y-87019070D01*
X162594285Y-87073643D01*
X162597327Y-87115463D01*
X162581970Y-87162394D01*
X162555687Y-87206507D01*
X162529446Y-87220420D01*
X162527213Y-87219781D01*
X162494471Y-87226056D01*
X162463458Y-87250427D01*
X162424570Y-87284926D01*
X162396306Y-87282171D01*
X162368623Y-87240395D01*
X162365078Y-87233125D01*
X162334326Y-87189269D01*
X162304344Y-87174482D01*
X162284895Y-87189402D01*
X162284286Y-87227833D01*
X162289915Y-87278129D01*
X162293796Y-87351690D01*
X162294869Y-87407000D01*
X162292964Y-87480371D01*
X162284140Y-87523228D01*
X162264933Y-87547246D01*
X162250805Y-87555616D01*
X162224022Y-87577954D01*
X162232674Y-87602189D01*
X162278758Y-87630083D01*
X162364269Y-87663400D01*
X162378250Y-87668175D01*
X162450942Y-87696772D01*
X162512271Y-87727914D01*
X162538825Y-87746409D01*
X162572748Y-87799816D01*
X162579367Y-87863409D01*
X162562249Y-87924640D01*
X162524961Y-87970960D01*
X162471070Y-87989822D01*
X162469624Y-87989833D01*
X162432017Y-88001465D01*
X162422381Y-88011057D01*
X162394160Y-88020753D01*
X162370320Y-88011439D01*
X162346948Y-88000706D01*
X162342615Y-88008947D01*
X162357210Y-88043948D01*
X162369482Y-88069590D01*
X162391851Y-88125942D01*
X162420915Y-88213395D01*
X162453767Y-88321820D01*
X162487502Y-88441085D01*
X162519216Y-88561063D01*
X162546002Y-88671623D01*
X162558042Y-88726990D01*
X162581077Y-88897748D01*
X162573692Y-89039447D01*
X162535355Y-89153007D01*
X162465533Y-89239349D01*
X162363695Y-89299395D01*
X162229307Y-89334065D01*
X162205321Y-89337252D01*
X162099770Y-89349753D01*
X162143680Y-89415918D01*
X162176234Y-89457612D01*
X162210978Y-89474897D01*
X162266040Y-89475610D01*
X162279429Y-89474590D01*
X162353629Y-89475963D01*
X162421943Y-89488791D01*
X162434433Y-89493260D01*
X162506251Y-89540564D01*
X162559215Y-89608897D01*
X162587531Y-89686450D01*
X162585402Y-89761415D01*
X162576964Y-89783708D01*
X162546023Y-89820285D01*
X162517712Y-89831333D01*
X162477112Y-89846088D01*
X162444035Y-89873167D01*
X162404601Y-89902320D01*
X162378138Y-89892877D01*
X162369500Y-89851995D01*
X162355868Y-89817321D01*
X162325166Y-89787664D01*
X162292682Y-89775218D01*
X162279501Y-89780221D01*
X162276793Y-89805897D01*
X162283818Y-89855748D01*
X162286796Y-89869435D01*
X162305062Y-89985944D01*
X162302135Y-90081038D01*
X162278574Y-90148206D01*
X162261126Y-90167800D01*
X162216253Y-90204136D01*
X162269745Y-90239185D01*
X162324130Y-90266316D01*
X162395572Y-90291852D01*
X162419508Y-90298475D01*
X162506719Y-90335821D01*
X162560806Y-90393455D01*
X162578267Y-90467287D01*
X162577163Y-90482746D01*
X162553763Y-90535053D01*
X162505091Y-90583156D01*
X162445578Y-90616658D01*
X162389657Y-90625166D01*
X162381808Y-90623455D01*
X162362795Y-90616959D01*
X162332721Y-90604885D01*
X162287653Y-90585463D01*
X162223662Y-90556921D01*
X162136816Y-90517490D01*
X162023185Y-90465399D01*
X162009666Y-90459169D01*
X162009666Y-90088042D01*
X162009666Y-89992687D01*
X162005570Y-89932610D01*
X161995237Y-89892283D01*
X161989585Y-89884921D01*
X161958611Y-89882360D01*
X161903116Y-89890072D01*
X161872349Y-89896974D01*
X161815135Y-89913060D01*
X161792419Y-89926915D01*
X161797253Y-89944932D01*
X161807261Y-89956872D01*
X161845369Y-89989043D01*
X161902539Y-90027296D01*
X161924497Y-90040174D01*
X162009666Y-90088042D01*
X162009666Y-90459169D01*
X161878838Y-90398877D01*
X161710106Y-90320900D01*
X161612749Y-90272446D01*
X161549692Y-90231330D01*
X161514842Y-90192218D01*
X161502108Y-90149775D01*
X161501666Y-90138379D01*
X161482337Y-90087950D01*
X161424184Y-90021862D01*
X161395885Y-89996081D01*
X161290104Y-89903547D01*
X161327094Y-89788065D01*
X161349545Y-89722688D01*
X161371346Y-89686336D01*
X161404567Y-89667659D01*
X161461280Y-89655304D01*
X161469916Y-89653765D01*
X161617833Y-89627001D01*
X161729201Y-89605352D01*
X161809264Y-89587198D01*
X161863268Y-89570917D01*
X161896456Y-89554889D01*
X161914074Y-89537492D01*
X161921366Y-89517106D01*
X161921837Y-89514093D01*
X161939679Y-89458545D01*
X161969462Y-89405010D01*
X161999840Y-89356102D01*
X162003459Y-89321423D01*
X161976530Y-89290002D01*
X161916471Y-89251573D01*
X161860657Y-89211419D01*
X161789089Y-89149530D01*
X161713498Y-89076364D01*
X161678346Y-89039346D01*
X161616861Y-88967154D01*
X161549275Y-88879109D01*
X161480545Y-88782755D01*
X161415627Y-88685634D01*
X161359478Y-88595293D01*
X161317056Y-88519273D01*
X161293316Y-88465120D01*
X161290000Y-88448309D01*
X161302137Y-88406840D01*
G37*
X161302137Y-88406840D02*
X161332348Y-88352653D01*
X161371333Y-88298736D01*
X161409791Y-88258077D01*
X161436634Y-88243544D01*
X161484498Y-88237888D01*
X161515106Y-88231129D01*
X161537528Y-88230119D01*
X161560044Y-88243890D01*
X161587437Y-88278350D01*
X161624489Y-88339409D01*
X161670992Y-88423736D01*
X161807433Y-88646540D01*
X161955529Y-88830904D01*
X162111690Y-88975088D01*
X162231916Y-89069635D01*
X162242500Y-88947776D01*
X162246182Y-88880260D01*
X162244761Y-88831645D01*
X162240328Y-88815333D01*
X162230429Y-88789894D01*
X162219262Y-88736661D01*
X162213531Y-88698916D01*
X162198980Y-88613658D01*
X162179483Y-88527837D01*
X162172774Y-88503730D01*
X162146059Y-88414376D01*
X162086026Y-88445521D01*
X162035356Y-88467580D01*
X161998427Y-88476666D01*
X161967498Y-88492230D01*
X161962793Y-88500868D01*
X161942505Y-88514509D01*
X161907747Y-88499181D01*
X161867456Y-88461190D01*
X161831168Y-88407966D01*
X161792599Y-88336347D01*
X161879735Y-88177580D01*
X161926837Y-88097269D01*
X161973997Y-88025966D01*
X162012647Y-87976418D01*
X162020019Y-87968883D01*
X162055982Y-87928953D01*
X162072720Y-87898245D01*
X162072879Y-87896185D01*
X162054557Y-87878646D01*
X162009666Y-87852158D01*
X162009666Y-87480405D01*
X162009666Y-87398184D01*
X162006682Y-87336372D01*
X161999332Y-87289860D01*
X161997627Y-87284589D01*
X161975234Y-87267332D01*
X161925577Y-87268770D01*
X161844467Y-87289318D01*
X161798138Y-87304384D01*
X161787867Y-87321198D01*
X161814515Y-87352761D01*
X161878839Y-87399788D01*
X161940875Y-87438782D01*
X162009666Y-87480405D01*
X162009666Y-87852158D01*
X162005416Y-87849650D01*
X161933798Y-87813808D01*
X161878518Y-87788750D01*
X161737133Y-87724372D01*
X161632497Y-87670040D01*
X161560922Y-87623258D01*
X161518724Y-87581531D01*
X161502217Y-87542362D01*
X161501666Y-87533588D01*
X161483054Y-87475518D01*
X161431193Y-87408861D01*
X161352048Y-87340977D01*
X161336950Y-87330285D01*
X161308861Y-87307541D01*
X161298824Y-87282010D01*
X161304575Y-87239418D01*
X161315656Y-87196013D01*
X161344617Y-87119131D01*
X161388178Y-87070330D01*
X161456507Y-87041404D01*
X161522833Y-87028826D01*
X161593455Y-87017150D01*
X161684831Y-86999849D01*
X161771541Y-86981869D01*
X161853321Y-86961948D01*
X161900864Y-86943992D01*
X161921891Y-86924358D01*
X161925000Y-86909418D01*
X161935752Y-86863830D01*
X161962261Y-86808506D01*
X161995902Y-86757502D01*
X162028052Y-86724872D01*
X162041314Y-86719833D01*
X162070780Y-86734648D01*
X162113459Y-86772087D01*
X162133579Y-86793634D01*
X162177436Y-86838901D01*
X162214759Y-86857939D01*
X162264560Y-86858278D01*
X162289230Y-86855269D01*
X162387551Y-86862283D01*
X162476801Y-86907852D01*
X162550679Y-86988290D01*
X162569120Y-87019070D01*
X162594285Y-87073643D01*
X162597327Y-87115463D01*
X162581970Y-87162394D01*
X162555687Y-87206507D01*
X162529446Y-87220420D01*
X162527213Y-87219781D01*
X162494471Y-87226056D01*
X162463458Y-87250427D01*
X162424570Y-87284926D01*
X162396306Y-87282171D01*
X162368623Y-87240395D01*
X162365078Y-87233125D01*
X162334326Y-87189269D01*
X162304344Y-87174482D01*
X162284895Y-87189402D01*
X162284286Y-87227833D01*
X162289915Y-87278129D01*
X162293796Y-87351690D01*
X162294869Y-87407000D01*
X162292964Y-87480371D01*
X162284140Y-87523228D01*
X162264933Y-87547246D01*
X162250805Y-87555616D01*
X162224022Y-87577954D01*
X162232674Y-87602189D01*
X162278758Y-87630083D01*
X162364269Y-87663400D01*
X162378250Y-87668175D01*
X162450942Y-87696772D01*
X162512271Y-87727914D01*
X162538825Y-87746409D01*
X162572748Y-87799816D01*
X162579367Y-87863409D01*
X162562249Y-87924640D01*
X162524961Y-87970960D01*
X162471070Y-87989822D01*
X162469624Y-87989833D01*
X162432017Y-88001465D01*
X162422381Y-88011057D01*
X162394160Y-88020753D01*
X162370320Y-88011439D01*
X162346948Y-88000706D01*
X162342615Y-88008947D01*
X162357210Y-88043948D01*
X162369482Y-88069590D01*
X162391851Y-88125942D01*
X162420915Y-88213395D01*
X162453767Y-88321820D01*
X162487502Y-88441085D01*
X162519216Y-88561063D01*
X162546002Y-88671623D01*
X162558042Y-88726990D01*
X162581077Y-88897748D01*
X162573692Y-89039447D01*
X162535355Y-89153007D01*
X162465533Y-89239349D01*
X162363695Y-89299395D01*
X162229307Y-89334065D01*
X162205321Y-89337252D01*
X162099770Y-89349753D01*
X162143680Y-89415918D01*
X162176234Y-89457612D01*
X162210978Y-89474897D01*
X162266040Y-89475610D01*
X162279429Y-89474590D01*
X162353629Y-89475963D01*
X162421943Y-89488791D01*
X162434433Y-89493260D01*
X162506251Y-89540564D01*
X162559215Y-89608897D01*
X162587531Y-89686450D01*
X162585402Y-89761415D01*
X162576964Y-89783708D01*
X162546023Y-89820285D01*
X162517712Y-89831333D01*
X162477112Y-89846088D01*
X162444035Y-89873167D01*
X162404601Y-89902320D01*
X162378138Y-89892877D01*
X162369500Y-89851995D01*
X162355868Y-89817321D01*
X162325166Y-89787664D01*
X162292682Y-89775218D01*
X162279501Y-89780221D01*
X162276793Y-89805897D01*
X162283818Y-89855748D01*
X162286796Y-89869435D01*
X162305062Y-89985944D01*
X162302135Y-90081038D01*
X162278574Y-90148206D01*
X162261126Y-90167800D01*
X162216253Y-90204136D01*
X162269745Y-90239185D01*
X162324130Y-90266316D01*
X162395572Y-90291852D01*
X162419508Y-90298475D01*
X162506719Y-90335821D01*
X162560806Y-90393455D01*
X162578267Y-90467287D01*
X162577163Y-90482746D01*
X162553763Y-90535053D01*
X162505091Y-90583156D01*
X162445578Y-90616658D01*
X162389657Y-90625166D01*
X162381808Y-90623455D01*
X162362795Y-90616959D01*
X162332721Y-90604885D01*
X162287653Y-90585463D01*
X162223662Y-90556921D01*
X162136816Y-90517490D01*
X162023185Y-90465399D01*
X162009666Y-90459169D01*
X162009666Y-90088042D01*
X162009666Y-89992687D01*
X162005570Y-89932610D01*
X161995237Y-89892283D01*
X161989585Y-89884921D01*
X161958611Y-89882360D01*
X161903116Y-89890072D01*
X161872349Y-89896974D01*
X161815135Y-89913060D01*
X161792419Y-89926915D01*
X161797253Y-89944932D01*
X161807261Y-89956872D01*
X161845369Y-89989043D01*
X161902539Y-90027296D01*
X161924497Y-90040174D01*
X162009666Y-90088042D01*
X162009666Y-90459169D01*
X161878838Y-90398877D01*
X161710106Y-90320900D01*
X161612749Y-90272446D01*
X161549692Y-90231330D01*
X161514842Y-90192218D01*
X161502108Y-90149775D01*
X161501666Y-90138379D01*
X161482337Y-90087950D01*
X161424184Y-90021862D01*
X161395885Y-89996081D01*
X161290104Y-89903547D01*
X161327094Y-89788065D01*
X161349545Y-89722688D01*
X161371346Y-89686336D01*
X161404567Y-89667659D01*
X161461280Y-89655304D01*
X161469916Y-89653765D01*
X161617833Y-89627001D01*
X161729201Y-89605352D01*
X161809264Y-89587198D01*
X161863268Y-89570917D01*
X161896456Y-89554889D01*
X161914074Y-89537492D01*
X161921366Y-89517106D01*
X161921837Y-89514093D01*
X161939679Y-89458545D01*
X161969462Y-89405010D01*
X161999840Y-89356102D01*
X162003459Y-89321423D01*
X161976530Y-89290002D01*
X161916471Y-89251573D01*
X161860657Y-89211419D01*
X161789089Y-89149530D01*
X161713498Y-89076364D01*
X161678346Y-89039346D01*
X161616861Y-88967154D01*
X161549275Y-88879109D01*
X161480545Y-88782755D01*
X161415627Y-88685634D01*
X161359478Y-88595293D01*
X161317056Y-88519273D01*
X161293316Y-88465120D01*
X161290000Y-88448309D01*
X161302137Y-88406840D01*
G36*
X161281866Y-90739172D02*
G01*
X161310494Y-90695763D01*
X161320874Y-90682901D01*
X161355302Y-90637592D01*
X161373706Y-90604815D01*
X161374666Y-90600133D01*
X161391132Y-90577746D01*
X161431405Y-90547872D01*
X161437723Y-90544045D01*
X161488326Y-90520938D01*
X161538418Y-90519232D01*
X161585890Y-90529714D01*
X161638566Y-90547556D01*
X161668446Y-90564771D01*
X161671000Y-90569572D01*
X161690439Y-90579803D01*
X161742437Y-90592833D01*
X161817514Y-90606479D01*
X161856208Y-90612226D01*
X162067668Y-90652865D01*
X162241975Y-90710785D01*
X162378549Y-90785727D01*
X162476814Y-90877430D01*
X162492315Y-90898481D01*
X162531632Y-90972634D01*
X162538173Y-91039422D01*
X162510228Y-91106730D01*
X162446086Y-91182442D01*
X162426593Y-91201344D01*
X162364480Y-91256181D01*
X162307939Y-91299389D01*
X162268849Y-91321922D01*
X162267843Y-91322257D01*
X162231630Y-91339202D01*
X162221496Y-91351468D01*
X162239270Y-91371625D01*
X162283938Y-91400519D01*
X162342979Y-91431446D01*
X162403870Y-91457701D01*
X162443583Y-91470381D01*
X162513303Y-91501454D01*
X162562881Y-91550516D01*
X162581166Y-91605168D01*
X162566095Y-91650519D01*
X162544125Y-91677670D01*
X162481030Y-91721602D01*
X162401802Y-91761625D01*
X162323533Y-91790181D01*
X162267806Y-91799833D01*
X162231108Y-91790762D01*
X162162657Y-91765270D01*
X162068529Y-91725935D01*
X161954800Y-91675340D01*
X161827546Y-91616064D01*
X161769390Y-91588166D01*
X161643482Y-91527659D01*
X161529922Y-91473895D01*
X161434362Y-91429485D01*
X161362456Y-91397040D01*
X161319856Y-91379170D01*
X161311010Y-91376500D01*
X161292272Y-91364696D01*
X161297648Y-91326765D01*
X161327735Y-91258925D01*
X161330273Y-91253948D01*
X161397828Y-91152960D01*
X161477075Y-91092360D01*
X161569713Y-91071399D01*
X161677436Y-91089329D01*
X161692166Y-91094310D01*
X161744473Y-91106381D01*
X161817115Y-91115022D01*
X161899519Y-91120049D01*
X161981112Y-91121281D01*
X162051323Y-91118533D01*
X162099579Y-91111623D01*
X162115500Y-91101633D01*
X162096284Y-91068377D01*
X162044379Y-91029755D01*
X161968401Y-90989681D01*
X161876963Y-90952072D01*
X161778680Y-90920845D01*
X161682166Y-90899915D01*
X161666900Y-90897708D01*
X161594874Y-90884198D01*
X161511435Y-90862674D01*
X161427090Y-90836642D01*
X161352343Y-90809609D01*
X161297699Y-90785083D01*
X161273665Y-90766572D01*
X161273606Y-90766403D01*
X161281866Y-90739172D01*
G37*
X161281866Y-90739172D02*
X161310494Y-90695763D01*
X161320874Y-90682901D01*
X161355302Y-90637592D01*
X161373706Y-90604815D01*
X161374666Y-90600133D01*
X161391132Y-90577746D01*
X161431405Y-90547872D01*
X161437723Y-90544045D01*
X161488326Y-90520938D01*
X161538418Y-90519232D01*
X161585890Y-90529714D01*
X161638566Y-90547556D01*
X161668446Y-90564771D01*
X161671000Y-90569572D01*
X161690439Y-90579803D01*
X161742437Y-90592833D01*
X161817514Y-90606479D01*
X161856208Y-90612226D01*
X162067668Y-90652865D01*
X162241975Y-90710785D01*
X162378549Y-90785727D01*
X162476814Y-90877430D01*
X162492315Y-90898481D01*
X162531632Y-90972634D01*
X162538173Y-91039422D01*
X162510228Y-91106730D01*
X162446086Y-91182442D01*
X162426593Y-91201344D01*
X162364480Y-91256181D01*
X162307939Y-91299389D01*
X162268849Y-91321922D01*
X162267843Y-91322257D01*
X162231630Y-91339202D01*
X162221496Y-91351468D01*
X162239270Y-91371625D01*
X162283938Y-91400519D01*
X162342979Y-91431446D01*
X162403870Y-91457701D01*
X162443583Y-91470381D01*
X162513303Y-91501454D01*
X162562881Y-91550516D01*
X162581166Y-91605168D01*
X162566095Y-91650519D01*
X162544125Y-91677670D01*
X162481030Y-91721602D01*
X162401802Y-91761625D01*
X162323533Y-91790181D01*
X162267806Y-91799833D01*
X162231108Y-91790762D01*
X162162657Y-91765270D01*
X162068529Y-91725935D01*
X161954800Y-91675340D01*
X161827546Y-91616064D01*
X161769390Y-91588166D01*
X161643482Y-91527659D01*
X161529922Y-91473895D01*
X161434362Y-91429485D01*
X161362456Y-91397040D01*
X161319856Y-91379170D01*
X161311010Y-91376500D01*
X161292272Y-91364696D01*
X161297648Y-91326765D01*
X161327735Y-91258925D01*
X161330273Y-91253948D01*
X161397828Y-91152960D01*
X161477075Y-91092360D01*
X161569713Y-91071399D01*
X161677436Y-91089329D01*
X161692166Y-91094310D01*
X161744473Y-91106381D01*
X161817115Y-91115022D01*
X161899519Y-91120049D01*
X161981112Y-91121281D01*
X162051323Y-91118533D01*
X162099579Y-91111623D01*
X162115500Y-91101633D01*
X162096284Y-91068377D01*
X162044379Y-91029755D01*
X161968401Y-90989681D01*
X161876963Y-90952072D01*
X161778680Y-90920845D01*
X161682166Y-90899915D01*
X161666900Y-90897708D01*
X161594874Y-90884198D01*
X161511435Y-90862674D01*
X161427090Y-90836642D01*
X161352343Y-90809609D01*
X161297699Y-90785083D01*
X161273665Y-90766572D01*
X161273606Y-90766403D01*
X161281866Y-90739172D01*
D11*
G36*
X150820400Y-96008000D02*
G01*
X150820400Y-95508000D01*
X150220400Y-95508000D01*
X150220400Y-96008000D01*
X150820400Y-96008000D01*
G37*
D12*
X122555000Y-81280000D03*
D13*
X125095000Y-81280000D03*
X127635000Y-81280000D03*
X130175000Y-81280000D03*
X132715000Y-81280000D03*
X135255000Y-81280000D03*
X137795000Y-81280000D03*
X140335000Y-81280000D03*
X142875000Y-81280000D03*
X145415000Y-81280000D03*
X147955000Y-81280000D03*
X150495000Y-81280000D03*
X153035000Y-81280000D03*
X155575000Y-81280000D03*
X158115000Y-81280000D03*
X160655000Y-81280000D03*
D12*
X122555000Y-101600000D03*
D13*
X125095000Y-101600000D03*
X127635000Y-101600000D03*
X130175000Y-101600000D03*
X132715000Y-101600000D03*
X135255000Y-101600000D03*
X137795000Y-101600000D03*
X140335000Y-101600000D03*
X142875000Y-101600000D03*
X145415000Y-101600000D03*
X147955000Y-101600000D03*
X150495000Y-101600000D03*
X159385000Y-99060000D03*
X156845000Y-99060000D03*
X154305000Y-99060000D03*
X151765000Y-99060000D03*
X149225000Y-99060000D03*
X146685000Y-99060000D03*
X144145000Y-99060000D03*
X141605000Y-99060000D03*
X139065000Y-99060000D03*
X136525000Y-99060000D03*
X133985000Y-99060000D03*
X131445000Y-99060000D03*
X128905000Y-99060000D03*
X126365000Y-99060000D03*
D12*
X123825000Y-99060000D03*
X123825000Y-83820000D03*
D13*
X126365000Y-83820000D03*
X128905000Y-83820000D03*
X131445000Y-83820000D03*
X133985000Y-83820000D03*
X136525000Y-83820000D03*
X139065000Y-83820000D03*
X141605000Y-83820000D03*
X144145000Y-83820000D03*
X146685000Y-83820000D03*
X149225000Y-83820000D03*
X151765000Y-83820000D03*
X154305000Y-83820000D03*
X156845000Y-83820000D03*
X159385000Y-83820000D03*
G04 #@! TA.AperFunction,SMDPad,CuDef*
D11*
G36*
X123431470Y-91940072D02*
G01*
X123432926Y-91940288D01*
X123434354Y-91940646D01*
X123435740Y-91941142D01*
X123437071Y-91941771D01*
X123438334Y-91942528D01*
X123439516Y-91943405D01*
X123440607Y-91944393D01*
X123441595Y-91945484D01*
X123442472Y-91946666D01*
X123443229Y-91947929D01*
X123443858Y-91949260D01*
X123444354Y-91950646D01*
X123444712Y-91952074D01*
X123444928Y-91953530D01*
X123445000Y-91955000D01*
X123445000Y-92925000D01*
X123444928Y-92926470D01*
X123444712Y-92927926D01*
X123444354Y-92929354D01*
X123443858Y-92930740D01*
X123443229Y-92932071D01*
X123442472Y-92933334D01*
X123441595Y-92934516D01*
X123440607Y-92935607D01*
X123439516Y-92936595D01*
X123438334Y-92937472D01*
X123437071Y-92938229D01*
X123435740Y-92938858D01*
X123434354Y-92939354D01*
X123432926Y-92939712D01*
X123431470Y-92939928D01*
X123430000Y-92940000D01*
X119960000Y-92940000D01*
X119958530Y-92939928D01*
X119957074Y-92939712D01*
X119955646Y-92939354D01*
X119954260Y-92938858D01*
X119952929Y-92938229D01*
X119951666Y-92937472D01*
X119950484Y-92936595D01*
X119949393Y-92935607D01*
X119948405Y-92934516D01*
X119947528Y-92933334D01*
X119946771Y-92932071D01*
X119946142Y-92930740D01*
X119945646Y-92929354D01*
X119945288Y-92927926D01*
X119945072Y-92926470D01*
X119945000Y-92925000D01*
X119945000Y-91955000D01*
X119945072Y-91953530D01*
X119945288Y-91952074D01*
X119945646Y-91950646D01*
X119946142Y-91949260D01*
X119946771Y-91947929D01*
X119947528Y-91946666D01*
X119948405Y-91945484D01*
X119949393Y-91944393D01*
X119950484Y-91943405D01*
X119951666Y-91942528D01*
X119952929Y-91941771D01*
X119954260Y-91941142D01*
X119955646Y-91940646D01*
X119957074Y-91940288D01*
X119958530Y-91940072D01*
X119960000Y-91940000D01*
X123430000Y-91940000D01*
X123431470Y-91940072D01*
G37*
G04 #@! TD.AperFunction*
D14*
X121695000Y-90440000D03*
G04 #@! TA.AperFunction,SMDPad,CuDef*
D11*
G36*
X117624705Y-94040108D02*
G01*
X117626890Y-94040432D01*
X117629031Y-94040969D01*
X117631110Y-94041713D01*
X117633106Y-94042657D01*
X117635000Y-94043792D01*
X117636774Y-94045107D01*
X117638410Y-94046590D01*
X117639893Y-94048226D01*
X117641208Y-94050000D01*
X117642343Y-94051894D01*
X117643287Y-94053890D01*
X117644031Y-94055969D01*
X117644568Y-94058110D01*
X117644892Y-94060295D01*
X117645000Y-94062500D01*
X117645000Y-95517500D01*
X117644892Y-95519705D01*
X117644568Y-95521890D01*
X117644031Y-95524031D01*
X117643287Y-95526110D01*
X117642343Y-95528106D01*
X117641208Y-95530000D01*
X117639893Y-95531774D01*
X117638410Y-95533410D01*
X117636774Y-95534893D01*
X117635000Y-95536208D01*
X117633106Y-95537343D01*
X117631110Y-95538287D01*
X117629031Y-95539031D01*
X117626890Y-95539568D01*
X117624705Y-95539892D01*
X117622500Y-95540000D01*
X114267500Y-95540000D01*
X114265295Y-95539892D01*
X114263110Y-95539568D01*
X114260969Y-95539031D01*
X114258890Y-95538287D01*
X114256894Y-95537343D01*
X114255000Y-95536208D01*
X114253226Y-95534893D01*
X114251590Y-95533410D01*
X114250107Y-95531774D01*
X114248792Y-95530000D01*
X114247657Y-95528106D01*
X114246713Y-95526110D01*
X114245969Y-95524031D01*
X114245432Y-95521890D01*
X114245108Y-95519705D01*
X114245000Y-95517500D01*
X114245000Y-94062500D01*
X114245108Y-94060295D01*
X114245432Y-94058110D01*
X114245969Y-94055969D01*
X114246713Y-94053890D01*
X114247657Y-94051894D01*
X114248792Y-94050000D01*
X114250107Y-94048226D01*
X114251590Y-94046590D01*
X114253226Y-94045107D01*
X114255000Y-94043792D01*
X114256894Y-94042657D01*
X114258890Y-94041713D01*
X114260969Y-94040969D01*
X114263110Y-94040432D01*
X114265295Y-94040108D01*
X114267500Y-94040000D01*
X117622500Y-94040000D01*
X117624705Y-94040108D01*
G37*
G04 #@! TD.AperFunction*
G04 #@! TA.AperFunction,SMDPad,CuDef*
G36*
X117624705Y-87340108D02*
G01*
X117626890Y-87340432D01*
X117629031Y-87340969D01*
X117631110Y-87341713D01*
X117633106Y-87342657D01*
X117635000Y-87343792D01*
X117636774Y-87345107D01*
X117638410Y-87346590D01*
X117639893Y-87348226D01*
X117641208Y-87350000D01*
X117642343Y-87351894D01*
X117643287Y-87353890D01*
X117644031Y-87355969D01*
X117644568Y-87358110D01*
X117644892Y-87360295D01*
X117645000Y-87362500D01*
X117645000Y-88817500D01*
X117644892Y-88819705D01*
X117644568Y-88821890D01*
X117644031Y-88824031D01*
X117643287Y-88826110D01*
X117642343Y-88828106D01*
X117641208Y-88830000D01*
X117639893Y-88831774D01*
X117638410Y-88833410D01*
X117636774Y-88834893D01*
X117635000Y-88836208D01*
X117633106Y-88837343D01*
X117631110Y-88838287D01*
X117629031Y-88839031D01*
X117626890Y-88839568D01*
X117624705Y-88839892D01*
X117622500Y-88840000D01*
X114267500Y-88840000D01*
X114265295Y-88839892D01*
X114263110Y-88839568D01*
X114260969Y-88839031D01*
X114258890Y-88838287D01*
X114256894Y-88837343D01*
X114255000Y-88836208D01*
X114253226Y-88834893D01*
X114251590Y-88833410D01*
X114250107Y-88831774D01*
X114248792Y-88830000D01*
X114247657Y-88828106D01*
X114246713Y-88826110D01*
X114245969Y-88824031D01*
X114245432Y-88821890D01*
X114245108Y-88819705D01*
X114245000Y-88817500D01*
X114245000Y-87362500D01*
X114245108Y-87360295D01*
X114245432Y-87358110D01*
X114245969Y-87355969D01*
X114246713Y-87353890D01*
X114247657Y-87351894D01*
X114248792Y-87350000D01*
X114250107Y-87348226D01*
X114251590Y-87346590D01*
X114253226Y-87345107D01*
X114255000Y-87343792D01*
X114256894Y-87342657D01*
X114258890Y-87341713D01*
X114260969Y-87340969D01*
X114263110Y-87340432D01*
X114265295Y-87340108D01*
X114267500Y-87340000D01*
X117622500Y-87340000D01*
X117624705Y-87340108D01*
G37*
G04 #@! TD.AperFunction*
G04 #@! TA.AperFunction,SMDPad,CuDef*
G36*
X151269798Y-96408000D02*
G01*
X151269798Y-96432534D01*
X151264988Y-96481365D01*
X151255416Y-96529490D01*
X151241172Y-96576445D01*
X151222395Y-96621778D01*
X151199264Y-96665051D01*
X151172004Y-96705850D01*
X151140876Y-96743779D01*
X151106179Y-96778476D01*
X151068250Y-96809604D01*
X151027451Y-96836864D01*
X150984178Y-96859995D01*
X150938845Y-96878772D01*
X150891890Y-96893016D01*
X150843765Y-96902588D01*
X150794934Y-96907398D01*
X150770400Y-96907398D01*
X150770400Y-96908000D01*
X150270400Y-96908000D01*
X150270400Y-96907398D01*
X150245866Y-96907398D01*
X150197035Y-96902588D01*
X150148910Y-96893016D01*
X150101955Y-96878772D01*
X150056622Y-96859995D01*
X150013349Y-96836864D01*
X149972550Y-96809604D01*
X149934621Y-96778476D01*
X149899924Y-96743779D01*
X149868796Y-96705850D01*
X149841536Y-96665051D01*
X149818405Y-96621778D01*
X149799628Y-96576445D01*
X149785384Y-96529490D01*
X149775812Y-96481365D01*
X149771002Y-96432534D01*
X149771002Y-96408000D01*
X149770400Y-96408000D01*
X149770400Y-95908000D01*
X151270400Y-95908000D01*
X151270400Y-96408000D01*
X151269798Y-96408000D01*
G37*
G04 #@! TD.AperFunction*
G04 #@! TA.AperFunction,SMDPad,CuDef*
G36*
X149770400Y-95608000D02*
G01*
X149770400Y-95108000D01*
X149771002Y-95108000D01*
X149771002Y-95083466D01*
X149775812Y-95034635D01*
X149785384Y-94986510D01*
X149799628Y-94939555D01*
X149818405Y-94894222D01*
X149841536Y-94850949D01*
X149868796Y-94810150D01*
X149899924Y-94772221D01*
X149934621Y-94737524D01*
X149972550Y-94706396D01*
X150013349Y-94679136D01*
X150056622Y-94656005D01*
X150101955Y-94637228D01*
X150148910Y-94622984D01*
X150197035Y-94613412D01*
X150245866Y-94608602D01*
X150270400Y-94608602D01*
X150270400Y-94608000D01*
X150770400Y-94608000D01*
X150770400Y-94608602D01*
X150794934Y-94608602D01*
X150843765Y-94613412D01*
X150891890Y-94622984D01*
X150938845Y-94637228D01*
X150984178Y-94656005D01*
X151027451Y-94679136D01*
X151068250Y-94706396D01*
X151106179Y-94737524D01*
X151140876Y-94772221D01*
X151172004Y-94810150D01*
X151199264Y-94850949D01*
X151222395Y-94894222D01*
X151241172Y-94939555D01*
X151255416Y-94986510D01*
X151264988Y-95034635D01*
X151269798Y-95083466D01*
X151269798Y-95108000D01*
X151270400Y-95108000D01*
X151270400Y-95608000D01*
X149770400Y-95608000D01*
G37*
G04 #@! TD.AperFunction*
D15*
X121919988Y-93980000D03*
X130810000Y-96520000D03*
X137160000Y-85725000D03*
X130175000Y-86995000D03*
X157480000Y-91440000D03*
X140970000Y-85640179D03*
X153035000Y-85640179D03*
D16*
X137922000Y-88747600D03*
X130064690Y-91313000D03*
X132603174Y-97512395D03*
X145135600Y-97840800D03*
X137236200Y-90830400D03*
X138430000Y-93980000D03*
X140258800Y-98094800D03*
X147853400Y-96266000D03*
X127634992Y-97155000D03*
X128380310Y-88789690D03*
X126511090Y-90474800D03*
X126269190Y-96363735D03*
X156159200Y-96621600D03*
D15*
X131445000Y-87630000D03*
X150469600Y-97755810D03*
D17*
X125112411Y-97772589D02*
X124674999Y-98210001D01*
X124674999Y-98210001D02*
X123825000Y-99060000D01*
X125112411Y-82499492D02*
X125112411Y-97772589D01*
X125095000Y-81280000D02*
X125095000Y-82482081D01*
X125095000Y-82482081D02*
X125112411Y-82499492D01*
X127635000Y-90714242D02*
X127635000Y-82482081D01*
X127635000Y-82482081D02*
X127635000Y-81280000D01*
X126365000Y-97321954D02*
X127652411Y-96034543D01*
X127652411Y-90731653D02*
X127635000Y-90714242D01*
X127652411Y-96034543D02*
X127652411Y-90731653D01*
X126365000Y-99060000D02*
X126365000Y-97321954D01*
X144145000Y-82550000D02*
X142875000Y-81280000D01*
X144145000Y-83820000D02*
X144145000Y-82550000D01*
X146685000Y-82550000D02*
X145415000Y-81280000D01*
X146685000Y-83820000D02*
X146685000Y-82550000D01*
X149225000Y-82550000D02*
X147955000Y-81280000D01*
X149225000Y-83820000D02*
X149225000Y-82550000D01*
X151765000Y-82550000D02*
X150495000Y-81280000D01*
X151765000Y-83820000D02*
X151765000Y-82550000D01*
X121695000Y-92440000D02*
X121695000Y-93755012D01*
X121695000Y-93755012D02*
X121919988Y-93980000D01*
X130474999Y-89199999D02*
X130474999Y-87294999D01*
X130474999Y-87294999D02*
X130175000Y-86995000D01*
X130810000Y-89535000D02*
X130474999Y-89199999D01*
X130810000Y-96520000D02*
X130810000Y-89535000D01*
X137459999Y-85425001D02*
X140754822Y-85425001D01*
X137160000Y-85725000D02*
X137459999Y-85425001D01*
X140754822Y-85425001D02*
X140970000Y-85640179D01*
X153035000Y-81280000D02*
X153035000Y-85640179D01*
X156845000Y-82550000D02*
X158115000Y-81280000D01*
X156845000Y-83820000D02*
X156845000Y-82550000D01*
X129057400Y-98907600D02*
X128905000Y-99060000D01*
X128905000Y-83820000D02*
X129057400Y-83972400D01*
X129057400Y-83972400D02*
X129209800Y-91160600D01*
X129209800Y-91160600D02*
X129057400Y-98907600D01*
X129362200Y-91313000D02*
X129579757Y-91313000D01*
X129209800Y-91160600D02*
X129362200Y-91313000D01*
X129579757Y-91313000D02*
X130064690Y-91313000D01*
X137947400Y-88747600D02*
X137922000Y-88747600D01*
X139700000Y-86995000D02*
X137947400Y-88747600D01*
X158216600Y-86995000D02*
X139700000Y-86995000D01*
X160655000Y-84556600D02*
X158216600Y-86995000D01*
X160655000Y-81280000D02*
X160655000Y-84556600D01*
X137374999Y-82970001D02*
X136525000Y-83820000D01*
X137955001Y-82970001D02*
X137374999Y-82970001D01*
X139645002Y-81280000D02*
X137955001Y-82970001D01*
X140335000Y-81280000D02*
X139645002Y-81280000D01*
X135255000Y-84859556D02*
X136822846Y-86427402D01*
X156862411Y-86342589D02*
X158535001Y-84669999D01*
X158535001Y-84669999D02*
X159385000Y-83820000D01*
X139429763Y-86342589D02*
X156862411Y-86342589D01*
X136822846Y-86427402D02*
X139344950Y-86427402D01*
X135255000Y-81280000D02*
X135255000Y-84859556D01*
X139344950Y-86427402D02*
X139429763Y-86342589D01*
X132603174Y-97678174D02*
X132603174Y-97512395D01*
X133985000Y-99060000D02*
X132603174Y-97678174D01*
X145415000Y-101600000D02*
X146104998Y-101600000D01*
X131826000Y-85420200D02*
X131800600Y-85420200D01*
X137236200Y-90830400D02*
X131826000Y-85420200D01*
X131826000Y-85403081D02*
X131826000Y-85420200D01*
X131445000Y-85022081D02*
X131826000Y-85403081D01*
X131445000Y-83820000D02*
X131445000Y-85022081D01*
X141020800Y-96570800D02*
X138430000Y-93980000D01*
X143878300Y-96570800D02*
X141020800Y-96570800D01*
X145135600Y-97840800D02*
X145135600Y-97828100D01*
X145135600Y-97828100D02*
X143878300Y-96570800D01*
X153455001Y-99909999D02*
X154305000Y-99060000D01*
X153009600Y-100355400D02*
X153455001Y-99909999D01*
X151103954Y-100355400D02*
X153009600Y-100355400D01*
X151096153Y-100347599D02*
X151103954Y-100355400D01*
X149893847Y-100347599D02*
X151096153Y-100347599D01*
X149886046Y-100355400D02*
X149893847Y-100347599D01*
X148563954Y-100355400D02*
X149886046Y-100355400D01*
X148556153Y-100347599D02*
X148563954Y-100355400D01*
X147353847Y-100347599D02*
X148556153Y-100347599D01*
X144119600Y-100355400D02*
X144806046Y-100355400D01*
X147346046Y-100355400D02*
X147353847Y-100347599D01*
X146023954Y-100355400D02*
X147346046Y-100355400D01*
X142875000Y-101600000D02*
X144119600Y-100355400D01*
X144806046Y-100355400D02*
X144813847Y-100347599D01*
X144813847Y-100347599D02*
X146016153Y-100347599D01*
X146016153Y-100347599D02*
X146023954Y-100355400D01*
X149225000Y-99060000D02*
X148535002Y-99060000D01*
X140315001Y-98151001D02*
X140258800Y-98094800D01*
X140335000Y-99669600D02*
X140335000Y-98160600D01*
X149225000Y-99060000D02*
X147853400Y-97688400D01*
X147853400Y-97688400D02*
X147853400Y-96266000D01*
X140315001Y-99740399D02*
X140315001Y-99660001D01*
X139623800Y-100431600D02*
X140315001Y-99740399D01*
X137795000Y-101600000D02*
X138963400Y-100431600D01*
X138963400Y-100431600D02*
X139623800Y-100431600D01*
X143295001Y-98210001D02*
X144145000Y-99060000D01*
X135835002Y-101600000D02*
X137795000Y-99640002D01*
X135255000Y-101600000D02*
X135835002Y-101600000D01*
X137795000Y-99640002D02*
X137795000Y-98479998D01*
X137795000Y-98479998D02*
X138992998Y-97282000D01*
X138992998Y-97282000D02*
X142367000Y-97282000D01*
X142367000Y-97282000D02*
X143295001Y-98210001D01*
X129065001Y-100750001D02*
X130175000Y-99640002D01*
X130175000Y-99640002D02*
X130175000Y-98479998D01*
X130175000Y-98479998D02*
X131887904Y-96767094D01*
X131887904Y-96767094D02*
X134232094Y-96767094D01*
X135675001Y-98210001D02*
X136525000Y-99060000D01*
X134232094Y-96767094D02*
X135675001Y-98210001D01*
X127635000Y-101600000D02*
X128484999Y-100750001D01*
X128484999Y-100750001D02*
X129065001Y-100750001D01*
X128380310Y-96409682D02*
X128380310Y-89274623D01*
X128380310Y-89274623D02*
X128380310Y-88789690D01*
X127634992Y-97155000D02*
X128380310Y-96409682D01*
D18*
X126511090Y-90474800D02*
X126492000Y-90493890D01*
D17*
X126269190Y-95878802D02*
X126269190Y-96363735D01*
X127000000Y-95147992D02*
X126269190Y-95878802D01*
X126492000Y-90493890D02*
X127000000Y-91001890D01*
X127000000Y-91001890D02*
X127000000Y-95147992D01*
X155702000Y-96621600D02*
X156159200Y-96621600D01*
X155422600Y-96621600D02*
X155702000Y-96621600D01*
X152273000Y-93472000D02*
X155422600Y-96621600D01*
X141376400Y-93472000D02*
X152273000Y-93472000D01*
X132715000Y-81280000D02*
X132715000Y-84810600D01*
X132715000Y-84810600D02*
X141376400Y-93472000D01*
X158535001Y-98210001D02*
X159385000Y-99060000D01*
X155126501Y-97417701D02*
X157742701Y-97417701D01*
X130175000Y-84925248D02*
X137375552Y-92125800D01*
X130175000Y-81280000D02*
X130175000Y-84925248D01*
X137375552Y-92125800D02*
X138912600Y-92125800D01*
X138912600Y-92125800D02*
X140944600Y-94157800D01*
X151866600Y-94157800D02*
X155126501Y-97417701D01*
X157742701Y-97417701D02*
X158535001Y-98210001D01*
X140944600Y-94157800D02*
X151866600Y-94157800D01*
X123555000Y-90440000D02*
X121695000Y-90440000D01*
X123825000Y-83820000D02*
X123825000Y-90170000D01*
X123825000Y-90170000D02*
X123555000Y-90440000D01*
X150368000Y-95108000D02*
X150393400Y-95133400D01*
X140878800Y-95108000D02*
X150368000Y-95108000D01*
X138582400Y-92811600D02*
X140878800Y-95108000D01*
X131445000Y-87630000D02*
X136626600Y-92811600D01*
X136626600Y-92811600D02*
X138582400Y-92811600D01*
X150495000Y-97730410D02*
X150469600Y-97755810D01*
X150393400Y-96433400D02*
X150495000Y-96535000D01*
X150495000Y-96535000D02*
X150495000Y-97730410D01*
D19*
G36*
X162148490Y-81542627D02*
G01*
X162315712Y-81851896D01*
X162419680Y-82187760D01*
X162460000Y-82571382D01*
X162460000Y-86227933D01*
X162459778Y-86227892D01*
X162430498Y-86208810D01*
X162391341Y-86180716D01*
X162378265Y-86174768D01*
X162366225Y-86166922D01*
X162358269Y-86162853D01*
X162328803Y-86148038D01*
X162318890Y-86144214D01*
X162309716Y-86138833D01*
X162260672Y-86121758D01*
X162212265Y-86103087D01*
X162201798Y-86101262D01*
X162191754Y-86097765D01*
X162140323Y-86090541D01*
X162089216Y-86081629D01*
X162078595Y-86081871D01*
X162068062Y-86080392D01*
X162016232Y-86083294D01*
X161964343Y-86084478D01*
X161953962Y-86086781D01*
X161943351Y-86087375D01*
X161907964Y-86096464D01*
X161905665Y-86096682D01*
X161896749Y-86099344D01*
X161893076Y-86100287D01*
X161842401Y-86111529D01*
X161832670Y-86115802D01*
X161822372Y-86118447D01*
X161813997Y-86121563D01*
X161800735Y-86126602D01*
X161793609Y-86130140D01*
X161785980Y-86132418D01*
X161742143Y-86155555D01*
X161728036Y-86161750D01*
X161723330Y-86165034D01*
X161688859Y-86182149D01*
X161682550Y-86187008D01*
X161675516Y-86190721D01*
X161633133Y-86225071D01*
X161589904Y-86258368D01*
X161584665Y-86264353D01*
X161578479Y-86269367D01*
X161572163Y-86275689D01*
X161540013Y-86308319D01*
X161503630Y-86353288D01*
X161474608Y-86388112D01*
X161418438Y-86397398D01*
X161415459Y-86398195D01*
X161412380Y-86398429D01*
X161403589Y-86400033D01*
X161337263Y-86412611D01*
X161336146Y-86412938D01*
X161334996Y-86413046D01*
X161276205Y-86430510D01*
X161217401Y-86447748D01*
X161216378Y-86448282D01*
X161215262Y-86448613D01*
X161207008Y-86452040D01*
X161138680Y-86480965D01*
X161128334Y-86486593D01*
X161117226Y-86490515D01*
X161073551Y-86516393D01*
X161028957Y-86540651D01*
X161019899Y-86548183D01*
X161009766Y-86554187D01*
X160971946Y-86588057D01*
X160932916Y-86620512D01*
X160925497Y-86629656D01*
X160916720Y-86637516D01*
X160910723Y-86644141D01*
X160867162Y-86692943D01*
X160837171Y-86733991D01*
X160805695Y-86773932D01*
X160800376Y-86784353D01*
X160793475Y-86793798D01*
X160772028Y-86839889D01*
X160748909Y-86885182D01*
X160745701Y-86893523D01*
X160716740Y-86970405D01*
X160708735Y-87000196D01*
X160697815Y-87029060D01*
X160695545Y-87037703D01*
X160684464Y-87081108D01*
X160679523Y-87113317D01*
X160671588Y-87144931D01*
X160670331Y-87153778D01*
X160664580Y-87196371D01*
X160663368Y-87229595D01*
X160659118Y-87262591D01*
X160661095Y-87291875D01*
X160660025Y-87321194D01*
X160665291Y-87354034D01*
X160667531Y-87387214D01*
X160675155Y-87415548D01*
X160679802Y-87444525D01*
X160691345Y-87475715D01*
X160699987Y-87507829D01*
X160703198Y-87516168D01*
X160713235Y-87541699D01*
X160722422Y-87559682D01*
X160723156Y-87561665D01*
X160724831Y-87564397D01*
X160729353Y-87573249D01*
X160742742Y-87606053D01*
X160757700Y-87628736D01*
X160770061Y-87652931D01*
X160792001Y-87680750D01*
X160811506Y-87710328D01*
X160830585Y-87729674D01*
X160847409Y-87751006D01*
X160874332Y-87774032D01*
X160899212Y-87799260D01*
X160906118Y-87804932D01*
X160924702Y-87819980D01*
X160928957Y-87830076D01*
X160930678Y-87833253D01*
X160906375Y-87858948D01*
X160883306Y-87888681D01*
X160857990Y-87916533D01*
X160852704Y-87923738D01*
X160813719Y-87977655D01*
X160797023Y-88006263D01*
X160777763Y-88033223D01*
X160773357Y-88040997D01*
X160743146Y-88095185D01*
X160741293Y-88099439D01*
X160738703Y-88103291D01*
X160716359Y-88156670D01*
X160693258Y-88209695D01*
X160692267Y-88214227D01*
X160690474Y-88218509D01*
X160687904Y-88227068D01*
X160675767Y-88268537D01*
X160671325Y-88292016D01*
X160664082Y-88314791D01*
X160659741Y-88353240D01*
X160652547Y-88391266D01*
X160652750Y-88415170D01*
X160650070Y-88438910D01*
X160653279Y-88477469D01*
X160653608Y-88516168D01*
X160658447Y-88539564D01*
X160660430Y-88563385D01*
X160662099Y-88572164D01*
X160665415Y-88588975D01*
X160666247Y-88591737D01*
X160666551Y-88594598D01*
X160676348Y-88626108D01*
X160678908Y-88638485D01*
X160683797Y-88650066D01*
X160684251Y-88651528D01*
X160701430Y-88708576D01*
X160702778Y-88711116D01*
X160703635Y-88713872D01*
X160707167Y-88722081D01*
X160730906Y-88776234D01*
X160743736Y-88799123D01*
X160753885Y-88823310D01*
X160758185Y-88831144D01*
X160800607Y-88907164D01*
X160806673Y-88915904D01*
X160811247Y-88925510D01*
X160815911Y-88933132D01*
X160872060Y-89023473D01*
X160875801Y-89028355D01*
X160878632Y-89033826D01*
X160883547Y-89041289D01*
X160948465Y-89138410D01*
X160951809Y-89142487D01*
X160954376Y-89147099D01*
X160959515Y-89154410D01*
X160979582Y-89182542D01*
X160976847Y-89184958D01*
X160955318Y-89200002D01*
X160930142Y-89226205D01*
X160902914Y-89250251D01*
X160886980Y-89271127D01*
X160868779Y-89290071D01*
X160849176Y-89320658D01*
X160827132Y-89349540D01*
X160822483Y-89357172D01*
X160800682Y-89393524D01*
X160782965Y-89430917D01*
X160747203Y-89506390D01*
X160744242Y-89514822D01*
X160721791Y-89580199D01*
X160721284Y-89582336D01*
X160720382Y-89584346D01*
X160717598Y-89592837D01*
X160680607Y-89708319D01*
X160669110Y-89761673D01*
X160656299Y-89814714D01*
X160655969Y-89822654D01*
X160654295Y-89830423D01*
X160653380Y-89884980D01*
X160651115Y-89939513D01*
X160652334Y-89947369D01*
X160652201Y-89955311D01*
X160661899Y-90009004D01*
X160670270Y-90062942D01*
X160672990Y-90070407D01*
X160674403Y-90078228D01*
X160694352Y-90129029D01*
X160713035Y-90180299D01*
X160717154Y-90187094D01*
X160720059Y-90194492D01*
X160749501Y-90240459D01*
X160777781Y-90287115D01*
X160783139Y-90292979D01*
X160787427Y-90299673D01*
X160800004Y-90312771D01*
X160798018Y-90315794D01*
X160781191Y-90335987D01*
X160776220Y-90343412D01*
X160747592Y-90386821D01*
X160735769Y-90409240D01*
X160721430Y-90430125D01*
X160706710Y-90464346D01*
X160689329Y-90497306D01*
X160682089Y-90521586D01*
X160672075Y-90544866D01*
X160669421Y-90553399D01*
X160661161Y-90580630D01*
X160659637Y-90588275D01*
X160657251Y-90594425D01*
X160656921Y-90596294D01*
X160655864Y-90599084D01*
X160647080Y-90651265D01*
X160636742Y-90703126D01*
X160636732Y-90710759D01*
X160635555Y-90717433D01*
X160635598Y-90719479D01*
X160635130Y-90722257D01*
X160636649Y-90775150D01*
X160636581Y-90828032D01*
X160638016Y-90835331D01*
X160638162Y-90842312D01*
X160638641Y-90844490D01*
X160638716Y-90847112D01*
X160650473Y-90898677D01*
X160660682Y-90950590D01*
X160663434Y-90957292D01*
X160664976Y-90964306D01*
X160665941Y-90966515D01*
X160666483Y-90968892D01*
X160669370Y-90977349D01*
X160669429Y-90977518D01*
X160689869Y-91021664D01*
X160708131Y-91066133D01*
X160711371Y-91071023D01*
X160705833Y-91087752D01*
X160696501Y-91107171D01*
X160686246Y-91146919D01*
X160673349Y-91185876D01*
X160670681Y-91207246D01*
X160665296Y-91228116D01*
X160663981Y-91236955D01*
X160658605Y-91274886D01*
X160656430Y-91325377D01*
X160652368Y-91375766D01*
X160653745Y-91387688D01*
X160653229Y-91399676D01*
X160660900Y-91449614D01*
X160666544Y-91498463D01*
X160654941Y-91541748D01*
X160639190Y-91596963D01*
X160638767Y-91602081D01*
X160637440Y-91607032D01*
X160633632Y-91664258D01*
X160628909Y-91721446D01*
X160629488Y-91726542D01*
X160629147Y-91731662D01*
X160636529Y-91788558D01*
X160643001Y-91845554D01*
X160644932Y-91854279D01*
X160653053Y-91889799D01*
X160664830Y-91925042D01*
X160673777Y-91961110D01*
X160684580Y-91984141D01*
X160692642Y-92008265D01*
X160711037Y-92040544D01*
X160726821Y-92074193D01*
X160730373Y-92080074D01*
X160710356Y-92122544D01*
X160697386Y-92158895D01*
X160681730Y-92194184D01*
X160678980Y-92202687D01*
X160667417Y-92239305D01*
X160657902Y-92284362D01*
X160646078Y-92328882D01*
X160645020Y-92345364D01*
X160641609Y-92361515D01*
X160641026Y-92407561D01*
X160638075Y-92453532D01*
X160640238Y-92469904D01*
X160640029Y-92486412D01*
X160648401Y-92531694D01*
X160648775Y-92534524D01*
X160648848Y-92537065D01*
X160649471Y-92539798D01*
X160654434Y-92577362D01*
X160656525Y-92586050D01*
X160662542Y-92610316D01*
X160664360Y-92615442D01*
X160659424Y-92641454D01*
X160658686Y-92650360D01*
X160655840Y-92687826D01*
X160656833Y-92733114D01*
X160655388Y-92778427D01*
X160656039Y-92787340D01*
X160660799Y-92846839D01*
X160662607Y-92856914D01*
X160662750Y-92867147D01*
X160663808Y-92876020D01*
X160675364Y-92967488D01*
X160675629Y-92968655D01*
X160675667Y-92969850D01*
X160676882Y-92978703D01*
X160684882Y-93034125D01*
X160686047Y-93038865D01*
X160686344Y-93043736D01*
X160687816Y-93052550D01*
X160709260Y-93175621D01*
X160710738Y-93180957D01*
X160711247Y-93186471D01*
X160712994Y-93195235D01*
X160739170Y-93321950D01*
X160740560Y-93326421D01*
X160741124Y-93331076D01*
X160743121Y-93339786D01*
X160771802Y-93461049D01*
X160773757Y-93466756D01*
X160774679Y-93472725D01*
X160776960Y-93481366D01*
X160786334Y-93515906D01*
X160774163Y-93525363D01*
X160743945Y-93553985D01*
X160711918Y-93580575D01*
X160705677Y-93586971D01*
X160626128Y-93669637D01*
X160589515Y-93715998D01*
X160552442Y-93761924D01*
X160548790Y-93767567D01*
X160548715Y-93767662D01*
X160548664Y-93767762D01*
X160547587Y-93769426D01*
X160494470Y-93852764D01*
X160477529Y-93886139D01*
X160458032Y-93918065D01*
X160449333Y-93941690D01*
X160437936Y-93964144D01*
X160427805Y-94000157D01*
X160414874Y-94035277D01*
X160412681Y-94043940D01*
X160393343Y-94122591D01*
X160385805Y-94174816D01*
X160376681Y-94226804D01*
X160376893Y-94236558D01*
X160375499Y-94246216D01*
X160378248Y-94298905D01*
X160379395Y-94351680D01*
X160380522Y-94360545D01*
X160384801Y-94392414D01*
X160392475Y-94425017D01*
X160397160Y-94458184D01*
X160406752Y-94485668D01*
X160413420Y-94513997D01*
X160427276Y-94544479D01*
X160438317Y-94576114D01*
X160442128Y-94584197D01*
X160478935Y-94660884D01*
X160486764Y-94673790D01*
X160492595Y-94687707D01*
X160519096Y-94727094D01*
X160543714Y-94767680D01*
X160553895Y-94778814D01*
X160562322Y-94791339D01*
X160568059Y-94798191D01*
X160639770Y-94882647D01*
X160673766Y-94915552D01*
X160706165Y-94950040D01*
X160712931Y-94955877D01*
X160743898Y-94982221D01*
X160718847Y-95005885D01*
X160687058Y-95032140D01*
X160673549Y-95048675D01*
X160658028Y-95063337D01*
X160634131Y-95096925D01*
X160608033Y-95128869D01*
X160603134Y-95136343D01*
X160565763Y-95194227D01*
X160563270Y-95199068D01*
X160554251Y-95208671D01*
X160512318Y-95253031D01*
X160511774Y-95253895D01*
X160511063Y-95254652D01*
X160478314Y-95307051D01*
X160445779Y-95358738D01*
X160445413Y-95359692D01*
X160444863Y-95360572D01*
X160423018Y-95418066D01*
X160401038Y-95475356D01*
X160400862Y-95476376D01*
X160400498Y-95477334D01*
X160390283Y-95537694D01*
X160379802Y-95598444D01*
X160379827Y-95599471D01*
X160379655Y-95600489D01*
X160379093Y-95609407D01*
X160376893Y-95648691D01*
X160378076Y-95676983D01*
X160376229Y-95705233D01*
X160380679Y-95739227D01*
X160382112Y-95773488D01*
X160388767Y-95801005D01*
X160392442Y-95829081D01*
X160394522Y-95837772D01*
X160406914Y-95888002D01*
X160411338Y-95900525D01*
X160413786Y-95913567D01*
X160432105Y-95959304D01*
X160448523Y-96005774D01*
X160455290Y-96017190D01*
X160460228Y-96029518D01*
X160464400Y-96037420D01*
X160489576Y-96084317D01*
X160509949Y-96114717D01*
X160527798Y-96146680D01*
X160532947Y-96153984D01*
X160538534Y-96161793D01*
X160564635Y-96201327D01*
X160605814Y-96266540D01*
X160654384Y-96345947D01*
X160669868Y-96371308D01*
X160676635Y-96380286D01*
X160681886Y-96390241D01*
X160686860Y-96397665D01*
X160802092Y-96567144D01*
X160816530Y-96584465D01*
X160828694Y-96603454D01*
X160834275Y-96610433D01*
X160958878Y-96764069D01*
X160975372Y-96780770D01*
X160989704Y-96799354D01*
X160995871Y-96805821D01*
X161125430Y-96939802D01*
X161145939Y-96957232D01*
X161164386Y-96976841D01*
X161171157Y-96982674D01*
X161301254Y-97093190D01*
X161329459Y-97112755D01*
X161355830Y-97134730D01*
X161363255Y-97139702D01*
X161489471Y-97222940D01*
X161532654Y-97245711D01*
X161574818Y-97270308D01*
X161582965Y-97273979D01*
X161700885Y-97326129D01*
X161714430Y-97330597D01*
X161727149Y-97337053D01*
X161773653Y-97350134D01*
X161819503Y-97365260D01*
X161833650Y-97367011D01*
X161847388Y-97370876D01*
X161856197Y-97372382D01*
X161961402Y-97389631D01*
X161987647Y-97391333D01*
X162012565Y-97395875D01*
X162038884Y-97395476D01*
X162065490Y-97398062D01*
X162074425Y-97397992D01*
X162074830Y-97397986D01*
X162080448Y-97397351D01*
X162086046Y-97397714D01*
X162111440Y-97394376D01*
X162137456Y-97393981D01*
X162146328Y-97392912D01*
X162299441Y-97373382D01*
X162309531Y-97371077D01*
X162319862Y-97370442D01*
X162370356Y-97357180D01*
X162421209Y-97345562D01*
X162430652Y-97341344D01*
X162440670Y-97338713D01*
X162449028Y-97335551D01*
X162460001Y-97331313D01*
X162460001Y-100294043D01*
X162422167Y-100679908D01*
X162320547Y-101016489D01*
X162155487Y-101326922D01*
X161933275Y-101599381D01*
X161662373Y-101823489D01*
X161353100Y-101990713D01*
X161017236Y-102094680D01*
X160633619Y-102135000D01*
X151880748Y-102135000D01*
X151922932Y-102033158D01*
X151980000Y-101746260D01*
X151980000Y-101453740D01*
X151937564Y-101240400D01*
X152966131Y-101240400D01*
X153009600Y-101244681D01*
X153053069Y-101240400D01*
X153053077Y-101240400D01*
X153183090Y-101227595D01*
X153349913Y-101176989D01*
X153503659Y-101094811D01*
X153638417Y-100984217D01*
X153666134Y-100950444D01*
X154086039Y-100530539D01*
X154158740Y-100545000D01*
X154451260Y-100545000D01*
X154738158Y-100487932D01*
X155008411Y-100375990D01*
X155251632Y-100213475D01*
X155458475Y-100006632D01*
X155575000Y-99832240D01*
X155691525Y-100006632D01*
X155898368Y-100213475D01*
X156141589Y-100375990D01*
X156411842Y-100487932D01*
X156698740Y-100545000D01*
X156991260Y-100545000D01*
X157278158Y-100487932D01*
X157548411Y-100375990D01*
X157791632Y-100213475D01*
X157998475Y-100006632D01*
X158115000Y-99832240D01*
X158231525Y-100006632D01*
X158438368Y-100213475D01*
X158681589Y-100375990D01*
X158951842Y-100487932D01*
X159238740Y-100545000D01*
X159531260Y-100545000D01*
X159818158Y-100487932D01*
X160088411Y-100375990D01*
X160331632Y-100213475D01*
X160538475Y-100006632D01*
X160700990Y-99763411D01*
X160812932Y-99493158D01*
X160870000Y-99206260D01*
X160870000Y-98913740D01*
X160812932Y-98626842D01*
X160700990Y-98356589D01*
X160538475Y-98113368D01*
X160331632Y-97906525D01*
X160088411Y-97744010D01*
X159818158Y-97632068D01*
X159531260Y-97575000D01*
X159238740Y-97575000D01*
X159166040Y-97589461D01*
X158399235Y-96822657D01*
X158371518Y-96788884D01*
X158236760Y-96678290D01*
X158083014Y-96596112D01*
X157916191Y-96545506D01*
X157786178Y-96532701D01*
X157786170Y-96532701D01*
X157742701Y-96528420D01*
X157699232Y-96532701D01*
X157137100Y-96532701D01*
X157137100Y-96525285D01*
X157099520Y-96336357D01*
X157025804Y-96158390D01*
X156918785Y-95998225D01*
X156782575Y-95862015D01*
X156622410Y-95754996D01*
X156444443Y-95681280D01*
X156255515Y-95643700D01*
X156062885Y-95643700D01*
X155873957Y-95681280D01*
X155774893Y-95722314D01*
X152929534Y-92876956D01*
X152901817Y-92843183D01*
X152767059Y-92732589D01*
X152613313Y-92650411D01*
X152446490Y-92599805D01*
X152316477Y-92587000D01*
X152316469Y-92587000D01*
X152273000Y-92582719D01*
X152229531Y-92587000D01*
X141742979Y-92587000D01*
X138604269Y-89448291D01*
X138681585Y-89370975D01*
X138788604Y-89210810D01*
X138825964Y-89120614D01*
X140066579Y-87880000D01*
X158173131Y-87880000D01*
X158216600Y-87884281D01*
X158260069Y-87880000D01*
X158260077Y-87880000D01*
X158390090Y-87867195D01*
X158556913Y-87816589D01*
X158710659Y-87734411D01*
X158845417Y-87623817D01*
X158873134Y-87590044D01*
X161250049Y-85213130D01*
X161283817Y-85185417D01*
X161394411Y-85050659D01*
X161476589Y-84896913D01*
X161527195Y-84730090D01*
X161540000Y-84600077D01*
X161540000Y-84600067D01*
X161544281Y-84556601D01*
X161540000Y-84513135D01*
X161540000Y-82474656D01*
X161601632Y-82433475D01*
X161808475Y-82226632D01*
X161970990Y-81983411D01*
X162082932Y-81713158D01*
X162122985Y-81511798D01*
X162148490Y-81542627D01*
G37*
X162148490Y-81542627D02*
X162315712Y-81851896D01*
X162419680Y-82187760D01*
X162460000Y-82571382D01*
X162460000Y-86227933D01*
X162459778Y-86227892D01*
X162430498Y-86208810D01*
X162391341Y-86180716D01*
X162378265Y-86174768D01*
X162366225Y-86166922D01*
X162358269Y-86162853D01*
X162328803Y-86148038D01*
X162318890Y-86144214D01*
X162309716Y-86138833D01*
X162260672Y-86121758D01*
X162212265Y-86103087D01*
X162201798Y-86101262D01*
X162191754Y-86097765D01*
X162140323Y-86090541D01*
X162089216Y-86081629D01*
X162078595Y-86081871D01*
X162068062Y-86080392D01*
X162016232Y-86083294D01*
X161964343Y-86084478D01*
X161953962Y-86086781D01*
X161943351Y-86087375D01*
X161907964Y-86096464D01*
X161905665Y-86096682D01*
X161896749Y-86099344D01*
X161893076Y-86100287D01*
X161842401Y-86111529D01*
X161832670Y-86115802D01*
X161822372Y-86118447D01*
X161813997Y-86121563D01*
X161800735Y-86126602D01*
X161793609Y-86130140D01*
X161785980Y-86132418D01*
X161742143Y-86155555D01*
X161728036Y-86161750D01*
X161723330Y-86165034D01*
X161688859Y-86182149D01*
X161682550Y-86187008D01*
X161675516Y-86190721D01*
X161633133Y-86225071D01*
X161589904Y-86258368D01*
X161584665Y-86264353D01*
X161578479Y-86269367D01*
X161572163Y-86275689D01*
X161540013Y-86308319D01*
X161503630Y-86353288D01*
X161474608Y-86388112D01*
X161418438Y-86397398D01*
X161415459Y-86398195D01*
X161412380Y-86398429D01*
X161403589Y-86400033D01*
X161337263Y-86412611D01*
X161336146Y-86412938D01*
X161334996Y-86413046D01*
X161276205Y-86430510D01*
X161217401Y-86447748D01*
X161216378Y-86448282D01*
X161215262Y-86448613D01*
X161207008Y-86452040D01*
X161138680Y-86480965D01*
X161128334Y-86486593D01*
X161117226Y-86490515D01*
X161073551Y-86516393D01*
X161028957Y-86540651D01*
X161019899Y-86548183D01*
X161009766Y-86554187D01*
X160971946Y-86588057D01*
X160932916Y-86620512D01*
X160925497Y-86629656D01*
X160916720Y-86637516D01*
X160910723Y-86644141D01*
X160867162Y-86692943D01*
X160837171Y-86733991D01*
X160805695Y-86773932D01*
X160800376Y-86784353D01*
X160793475Y-86793798D01*
X160772028Y-86839889D01*
X160748909Y-86885182D01*
X160745701Y-86893523D01*
X160716740Y-86970405D01*
X160708735Y-87000196D01*
X160697815Y-87029060D01*
X160695545Y-87037703D01*
X160684464Y-87081108D01*
X160679523Y-87113317D01*
X160671588Y-87144931D01*
X160670331Y-87153778D01*
X160664580Y-87196371D01*
X160663368Y-87229595D01*
X160659118Y-87262591D01*
X160661095Y-87291875D01*
X160660025Y-87321194D01*
X160665291Y-87354034D01*
X160667531Y-87387214D01*
X160675155Y-87415548D01*
X160679802Y-87444525D01*
X160691345Y-87475715D01*
X160699987Y-87507829D01*
X160703198Y-87516168D01*
X160713235Y-87541699D01*
X160722422Y-87559682D01*
X160723156Y-87561665D01*
X160724831Y-87564397D01*
X160729353Y-87573249D01*
X160742742Y-87606053D01*
X160757700Y-87628736D01*
X160770061Y-87652931D01*
X160792001Y-87680750D01*
X160811506Y-87710328D01*
X160830585Y-87729674D01*
X160847409Y-87751006D01*
X160874332Y-87774032D01*
X160899212Y-87799260D01*
X160906118Y-87804932D01*
X160924702Y-87819980D01*
X160928957Y-87830076D01*
X160930678Y-87833253D01*
X160906375Y-87858948D01*
X160883306Y-87888681D01*
X160857990Y-87916533D01*
X160852704Y-87923738D01*
X160813719Y-87977655D01*
X160797023Y-88006263D01*
X160777763Y-88033223D01*
X160773357Y-88040997D01*
X160743146Y-88095185D01*
X160741293Y-88099439D01*
X160738703Y-88103291D01*
X160716359Y-88156670D01*
X160693258Y-88209695D01*
X160692267Y-88214227D01*
X160690474Y-88218509D01*
X160687904Y-88227068D01*
X160675767Y-88268537D01*
X160671325Y-88292016D01*
X160664082Y-88314791D01*
X160659741Y-88353240D01*
X160652547Y-88391266D01*
X160652750Y-88415170D01*
X160650070Y-88438910D01*
X160653279Y-88477469D01*
X160653608Y-88516168D01*
X160658447Y-88539564D01*
X160660430Y-88563385D01*
X160662099Y-88572164D01*
X160665415Y-88588975D01*
X160666247Y-88591737D01*
X160666551Y-88594598D01*
X160676348Y-88626108D01*
X160678908Y-88638485D01*
X160683797Y-88650066D01*
X160684251Y-88651528D01*
X160701430Y-88708576D01*
X160702778Y-88711116D01*
X160703635Y-88713872D01*
X160707167Y-88722081D01*
X160730906Y-88776234D01*
X160743736Y-88799123D01*
X160753885Y-88823310D01*
X160758185Y-88831144D01*
X160800607Y-88907164D01*
X160806673Y-88915904D01*
X160811247Y-88925510D01*
X160815911Y-88933132D01*
X160872060Y-89023473D01*
X160875801Y-89028355D01*
X160878632Y-89033826D01*
X160883547Y-89041289D01*
X160948465Y-89138410D01*
X160951809Y-89142487D01*
X160954376Y-89147099D01*
X160959515Y-89154410D01*
X160979582Y-89182542D01*
X160976847Y-89184958D01*
X160955318Y-89200002D01*
X160930142Y-89226205D01*
X160902914Y-89250251D01*
X160886980Y-89271127D01*
X160868779Y-89290071D01*
X160849176Y-89320658D01*
X160827132Y-89349540D01*
X160822483Y-89357172D01*
X160800682Y-89393524D01*
X160782965Y-89430917D01*
X160747203Y-89506390D01*
X160744242Y-89514822D01*
X160721791Y-89580199D01*
X160721284Y-89582336D01*
X160720382Y-89584346D01*
X160717598Y-89592837D01*
X160680607Y-89708319D01*
X160669110Y-89761673D01*
X160656299Y-89814714D01*
X160655969Y-89822654D01*
X160654295Y-89830423D01*
X160653380Y-89884980D01*
X160651115Y-89939513D01*
X160652334Y-89947369D01*
X160652201Y-89955311D01*
X160661899Y-90009004D01*
X160670270Y-90062942D01*
X160672990Y-90070407D01*
X160674403Y-90078228D01*
X160694352Y-90129029D01*
X160713035Y-90180299D01*
X160717154Y-90187094D01*
X160720059Y-90194492D01*
X160749501Y-90240459D01*
X160777781Y-90287115D01*
X160783139Y-90292979D01*
X160787427Y-90299673D01*
X160800004Y-90312771D01*
X160798018Y-90315794D01*
X160781191Y-90335987D01*
X160776220Y-90343412D01*
X160747592Y-90386821D01*
X160735769Y-90409240D01*
X160721430Y-90430125D01*
X160706710Y-90464346D01*
X160689329Y-90497306D01*
X160682089Y-90521586D01*
X160672075Y-90544866D01*
X160669421Y-90553399D01*
X160661161Y-90580630D01*
X160659637Y-90588275D01*
X160657251Y-90594425D01*
X160656921Y-90596294D01*
X160655864Y-90599084D01*
X160647080Y-90651265D01*
X160636742Y-90703126D01*
X160636732Y-90710759D01*
X160635555Y-90717433D01*
X160635598Y-90719479D01*
X160635130Y-90722257D01*
X160636649Y-90775150D01*
X160636581Y-90828032D01*
X160638016Y-90835331D01*
X160638162Y-90842312D01*
X160638641Y-90844490D01*
X160638716Y-90847112D01*
X160650473Y-90898677D01*
X160660682Y-90950590D01*
X160663434Y-90957292D01*
X160664976Y-90964306D01*
X160665941Y-90966515D01*
X160666483Y-90968892D01*
X160669370Y-90977349D01*
X160669429Y-90977518D01*
X160689869Y-91021664D01*
X160708131Y-91066133D01*
X160711371Y-91071023D01*
X160705833Y-91087752D01*
X160696501Y-91107171D01*
X160686246Y-91146919D01*
X160673349Y-91185876D01*
X160670681Y-91207246D01*
X160665296Y-91228116D01*
X160663981Y-91236955D01*
X160658605Y-91274886D01*
X160656430Y-91325377D01*
X160652368Y-91375766D01*
X160653745Y-91387688D01*
X160653229Y-91399676D01*
X160660900Y-91449614D01*
X160666544Y-91498463D01*
X160654941Y-91541748D01*
X160639190Y-91596963D01*
X160638767Y-91602081D01*
X160637440Y-91607032D01*
X160633632Y-91664258D01*
X160628909Y-91721446D01*
X160629488Y-91726542D01*
X160629147Y-91731662D01*
X160636529Y-91788558D01*
X160643001Y-91845554D01*
X160644932Y-91854279D01*
X160653053Y-91889799D01*
X160664830Y-91925042D01*
X160673777Y-91961110D01*
X160684580Y-91984141D01*
X160692642Y-92008265D01*
X160711037Y-92040544D01*
X160726821Y-92074193D01*
X160730373Y-92080074D01*
X160710356Y-92122544D01*
X160697386Y-92158895D01*
X160681730Y-92194184D01*
X160678980Y-92202687D01*
X160667417Y-92239305D01*
X160657902Y-92284362D01*
X160646078Y-92328882D01*
X160645020Y-92345364D01*
X160641609Y-92361515D01*
X160641026Y-92407561D01*
X160638075Y-92453532D01*
X160640238Y-92469904D01*
X160640029Y-92486412D01*
X160648401Y-92531694D01*
X160648775Y-92534524D01*
X160648848Y-92537065D01*
X160649471Y-92539798D01*
X160654434Y-92577362D01*
X160656525Y-92586050D01*
X160662542Y-92610316D01*
X160664360Y-92615442D01*
X160659424Y-92641454D01*
X160658686Y-92650360D01*
X160655840Y-92687826D01*
X160656833Y-92733114D01*
X160655388Y-92778427D01*
X160656039Y-92787340D01*
X160660799Y-92846839D01*
X160662607Y-92856914D01*
X160662750Y-92867147D01*
X160663808Y-92876020D01*
X160675364Y-92967488D01*
X160675629Y-92968655D01*
X160675667Y-92969850D01*
X160676882Y-92978703D01*
X160684882Y-93034125D01*
X160686047Y-93038865D01*
X160686344Y-93043736D01*
X160687816Y-93052550D01*
X160709260Y-93175621D01*
X160710738Y-93180957D01*
X160711247Y-93186471D01*
X160712994Y-93195235D01*
X160739170Y-93321950D01*
X160740560Y-93326421D01*
X160741124Y-93331076D01*
X160743121Y-93339786D01*
X160771802Y-93461049D01*
X160773757Y-93466756D01*
X160774679Y-93472725D01*
X160776960Y-93481366D01*
X160786334Y-93515906D01*
X160774163Y-93525363D01*
X160743945Y-93553985D01*
X160711918Y-93580575D01*
X160705677Y-93586971D01*
X160626128Y-93669637D01*
X160589515Y-93715998D01*
X160552442Y-93761924D01*
X160548790Y-93767567D01*
X160548715Y-93767662D01*
X160548664Y-93767762D01*
X160547587Y-93769426D01*
X160494470Y-93852764D01*
X160477529Y-93886139D01*
X160458032Y-93918065D01*
X160449333Y-93941690D01*
X160437936Y-93964144D01*
X160427805Y-94000157D01*
X160414874Y-94035277D01*
X160412681Y-94043940D01*
X160393343Y-94122591D01*
X160385805Y-94174816D01*
X160376681Y-94226804D01*
X160376893Y-94236558D01*
X160375499Y-94246216D01*
X160378248Y-94298905D01*
X160379395Y-94351680D01*
X160380522Y-94360545D01*
X160384801Y-94392414D01*
X160392475Y-94425017D01*
X160397160Y-94458184D01*
X160406752Y-94485668D01*
X160413420Y-94513997D01*
X160427276Y-94544479D01*
X160438317Y-94576114D01*
X160442128Y-94584197D01*
X160478935Y-94660884D01*
X160486764Y-94673790D01*
X160492595Y-94687707D01*
X160519096Y-94727094D01*
X160543714Y-94767680D01*
X160553895Y-94778814D01*
X160562322Y-94791339D01*
X160568059Y-94798191D01*
X160639770Y-94882647D01*
X160673766Y-94915552D01*
X160706165Y-94950040D01*
X160712931Y-94955877D01*
X160743898Y-94982221D01*
X160718847Y-95005885D01*
X160687058Y-95032140D01*
X160673549Y-95048675D01*
X160658028Y-95063337D01*
X160634131Y-95096925D01*
X160608033Y-95128869D01*
X160603134Y-95136343D01*
X160565763Y-95194227D01*
X160563270Y-95199068D01*
X160554251Y-95208671D01*
X160512318Y-95253031D01*
X160511774Y-95253895D01*
X160511063Y-95254652D01*
X160478314Y-95307051D01*
X160445779Y-95358738D01*
X160445413Y-95359692D01*
X160444863Y-95360572D01*
X160423018Y-95418066D01*
X160401038Y-95475356D01*
X160400862Y-95476376D01*
X160400498Y-95477334D01*
X160390283Y-95537694D01*
X160379802Y-95598444D01*
X160379827Y-95599471D01*
X160379655Y-95600489D01*
X160379093Y-95609407D01*
X160376893Y-95648691D01*
X160378076Y-95676983D01*
X160376229Y-95705233D01*
X160380679Y-95739227D01*
X160382112Y-95773488D01*
X160388767Y-95801005D01*
X160392442Y-95829081D01*
X160394522Y-95837772D01*
X160406914Y-95888002D01*
X160411338Y-95900525D01*
X160413786Y-95913567D01*
X160432105Y-95959304D01*
X160448523Y-96005774D01*
X160455290Y-96017190D01*
X160460228Y-96029518D01*
X160464400Y-96037420D01*
X160489576Y-96084317D01*
X160509949Y-96114717D01*
X160527798Y-96146680D01*
X160532947Y-96153984D01*
X160538534Y-96161793D01*
X160564635Y-96201327D01*
X160605814Y-96266540D01*
X160654384Y-96345947D01*
X160669868Y-96371308D01*
X160676635Y-96380286D01*
X160681886Y-96390241D01*
X160686860Y-96397665D01*
X160802092Y-96567144D01*
X160816530Y-96584465D01*
X160828694Y-96603454D01*
X160834275Y-96610433D01*
X160958878Y-96764069D01*
X160975372Y-96780770D01*
X160989704Y-96799354D01*
X160995871Y-96805821D01*
X161125430Y-96939802D01*
X161145939Y-96957232D01*
X161164386Y-96976841D01*
X161171157Y-96982674D01*
X161301254Y-97093190D01*
X161329459Y-97112755D01*
X161355830Y-97134730D01*
X161363255Y-97139702D01*
X161489471Y-97222940D01*
X161532654Y-97245711D01*
X161574818Y-97270308D01*
X161582965Y-97273979D01*
X161700885Y-97326129D01*
X161714430Y-97330597D01*
X161727149Y-97337053D01*
X161773653Y-97350134D01*
X161819503Y-97365260D01*
X161833650Y-97367011D01*
X161847388Y-97370876D01*
X161856197Y-97372382D01*
X161961402Y-97389631D01*
X161987647Y-97391333D01*
X162012565Y-97395875D01*
X162038884Y-97395476D01*
X162065490Y-97398062D01*
X162074425Y-97397992D01*
X162074830Y-97397986D01*
X162080448Y-97397351D01*
X162086046Y-97397714D01*
X162111440Y-97394376D01*
X162137456Y-97393981D01*
X162146328Y-97392912D01*
X162299441Y-97373382D01*
X162309531Y-97371077D01*
X162319862Y-97370442D01*
X162370356Y-97357180D01*
X162421209Y-97345562D01*
X162430652Y-97341344D01*
X162440670Y-97338713D01*
X162449028Y-97335551D01*
X162460001Y-97331313D01*
X162460001Y-100294043D01*
X162422167Y-100679908D01*
X162320547Y-101016489D01*
X162155487Y-101326922D01*
X161933275Y-101599381D01*
X161662373Y-101823489D01*
X161353100Y-101990713D01*
X161017236Y-102094680D01*
X160633619Y-102135000D01*
X151880748Y-102135000D01*
X151922932Y-102033158D01*
X151980000Y-101746260D01*
X151980000Y-101453740D01*
X151937564Y-101240400D01*
X152966131Y-101240400D01*
X153009600Y-101244681D01*
X153053069Y-101240400D01*
X153053077Y-101240400D01*
X153183090Y-101227595D01*
X153349913Y-101176989D01*
X153503659Y-101094811D01*
X153638417Y-100984217D01*
X153666134Y-100950444D01*
X154086039Y-100530539D01*
X154158740Y-100545000D01*
X154451260Y-100545000D01*
X154738158Y-100487932D01*
X155008411Y-100375990D01*
X155251632Y-100213475D01*
X155458475Y-100006632D01*
X155575000Y-99832240D01*
X155691525Y-100006632D01*
X155898368Y-100213475D01*
X156141589Y-100375990D01*
X156411842Y-100487932D01*
X156698740Y-100545000D01*
X156991260Y-100545000D01*
X157278158Y-100487932D01*
X157548411Y-100375990D01*
X157791632Y-100213475D01*
X157998475Y-100006632D01*
X158115000Y-99832240D01*
X158231525Y-100006632D01*
X158438368Y-100213475D01*
X158681589Y-100375990D01*
X158951842Y-100487932D01*
X159238740Y-100545000D01*
X159531260Y-100545000D01*
X159818158Y-100487932D01*
X160088411Y-100375990D01*
X160331632Y-100213475D01*
X160538475Y-100006632D01*
X160700990Y-99763411D01*
X160812932Y-99493158D01*
X160870000Y-99206260D01*
X160870000Y-98913740D01*
X160812932Y-98626842D01*
X160700990Y-98356589D01*
X160538475Y-98113368D01*
X160331632Y-97906525D01*
X160088411Y-97744010D01*
X159818158Y-97632068D01*
X159531260Y-97575000D01*
X159238740Y-97575000D01*
X159166040Y-97589461D01*
X158399235Y-96822657D01*
X158371518Y-96788884D01*
X158236760Y-96678290D01*
X158083014Y-96596112D01*
X157916191Y-96545506D01*
X157786178Y-96532701D01*
X157786170Y-96532701D01*
X157742701Y-96528420D01*
X157699232Y-96532701D01*
X157137100Y-96532701D01*
X157137100Y-96525285D01*
X157099520Y-96336357D01*
X157025804Y-96158390D01*
X156918785Y-95998225D01*
X156782575Y-95862015D01*
X156622410Y-95754996D01*
X156444443Y-95681280D01*
X156255515Y-95643700D01*
X156062885Y-95643700D01*
X155873957Y-95681280D01*
X155774893Y-95722314D01*
X152929534Y-92876956D01*
X152901817Y-92843183D01*
X152767059Y-92732589D01*
X152613313Y-92650411D01*
X152446490Y-92599805D01*
X152316477Y-92587000D01*
X152316469Y-92587000D01*
X152273000Y-92582719D01*
X152229531Y-92587000D01*
X141742979Y-92587000D01*
X138604269Y-89448291D01*
X138681585Y-89370975D01*
X138788604Y-89210810D01*
X138825964Y-89120614D01*
X140066579Y-87880000D01*
X158173131Y-87880000D01*
X158216600Y-87884281D01*
X158260069Y-87880000D01*
X158260077Y-87880000D01*
X158390090Y-87867195D01*
X158556913Y-87816589D01*
X158710659Y-87734411D01*
X158845417Y-87623817D01*
X158873134Y-87590044D01*
X161250049Y-85213130D01*
X161283817Y-85185417D01*
X161394411Y-85050659D01*
X161476589Y-84896913D01*
X161527195Y-84730090D01*
X161540000Y-84600077D01*
X161540000Y-84600067D01*
X161544281Y-84556601D01*
X161540000Y-84513135D01*
X161540000Y-82474656D01*
X161601632Y-82433475D01*
X161808475Y-82226632D01*
X161970990Y-81983411D01*
X162082932Y-81713158D01*
X162122985Y-81511798D01*
X162148490Y-81542627D01*
G36*
X121127068Y-80846842D02*
G01*
X121070000Y-81133740D01*
X121070000Y-81426260D01*
X121127068Y-81713158D01*
X121239010Y-81983411D01*
X121401525Y-82226632D01*
X121608368Y-82433475D01*
X121851589Y-82595990D01*
X122121842Y-82707932D01*
X122408740Y-82765000D01*
X122701260Y-82765000D01*
X122799418Y-82745475D01*
X122671525Y-82873368D01*
X122509010Y-83116589D01*
X122397068Y-83386842D01*
X122340000Y-83673740D01*
X122340000Y-83966260D01*
X122397068Y-84253158D01*
X122509010Y-84523411D01*
X122671525Y-84766632D01*
X122878368Y-84973475D01*
X122940000Y-85014656D01*
X122940001Y-89301928D01*
X119945000Y-89301928D01*
X119820518Y-89314188D01*
X119700820Y-89350498D01*
X119590506Y-89409463D01*
X119493815Y-89488815D01*
X119414463Y-89585506D01*
X119355498Y-89695820D01*
X119319188Y-89815518D01*
X119306928Y-89940000D01*
X119306928Y-90940000D01*
X119319188Y-91064482D01*
X119355498Y-91184180D01*
X119414463Y-91294494D01*
X119493815Y-91391185D01*
X119553296Y-91440000D01*
X119493815Y-91488815D01*
X119414463Y-91585506D01*
X119355498Y-91695820D01*
X119319188Y-91815518D01*
X119306928Y-91940000D01*
X119310000Y-92154250D01*
X119468750Y-92313000D01*
X121568000Y-92313000D01*
X121568000Y-92293000D01*
X121822000Y-92293000D01*
X121822000Y-92313000D01*
X123921250Y-92313000D01*
X124080000Y-92154250D01*
X124083072Y-91940000D01*
X124070812Y-91815518D01*
X124034502Y-91695820D01*
X123975537Y-91585506D01*
X123896185Y-91488815D01*
X123836704Y-91440000D01*
X123896185Y-91391185D01*
X123975537Y-91294494D01*
X124032248Y-91188396D01*
X124049059Y-91179411D01*
X124183817Y-91068817D01*
X124211534Y-91035044D01*
X124227412Y-91019166D01*
X124227412Y-97406010D01*
X124079958Y-97553464D01*
X124079952Y-97553469D01*
X124043960Y-97589461D01*
X123971260Y-97575000D01*
X123678740Y-97575000D01*
X123391842Y-97632068D01*
X123121589Y-97744010D01*
X122878368Y-97906525D01*
X122671525Y-98113368D01*
X122509010Y-98356589D01*
X122397068Y-98626842D01*
X122340000Y-98913740D01*
X122340000Y-99206260D01*
X122397068Y-99493158D01*
X122509010Y-99763411D01*
X122671525Y-100006632D01*
X122799418Y-100134525D01*
X122701260Y-100115000D01*
X122408740Y-100115000D01*
X122121842Y-100172068D01*
X121851589Y-100284010D01*
X121608368Y-100446525D01*
X121401525Y-100653368D01*
X121239010Y-100896589D01*
X121127068Y-101166842D01*
X121070000Y-101453740D01*
X121070000Y-101746260D01*
X121127068Y-102033158D01*
X121169252Y-102135000D01*
X116240947Y-102135000D01*
X115855092Y-102097167D01*
X115518511Y-101995547D01*
X115208078Y-101830487D01*
X114935619Y-101608275D01*
X114711511Y-101337373D01*
X114544287Y-101028100D01*
X114440320Y-100692236D01*
X114400000Y-100308619D01*
X114400000Y-96178072D01*
X117622500Y-96178072D01*
X117751371Y-96165379D01*
X117875290Y-96127789D01*
X117989494Y-96066746D01*
X118089595Y-95984595D01*
X118171746Y-95884494D01*
X118232789Y-95770290D01*
X118270379Y-95646371D01*
X118283072Y-95517500D01*
X118283072Y-94062500D01*
X118270379Y-93933629D01*
X118232789Y-93809710D01*
X118171746Y-93695506D01*
X118089595Y-93595405D01*
X117989494Y-93513254D01*
X117875290Y-93452211D01*
X117751371Y-93414621D01*
X117622500Y-93401928D01*
X114400000Y-93401928D01*
X114400000Y-92940000D01*
X119306928Y-92940000D01*
X119319188Y-93064482D01*
X119355498Y-93184180D01*
X119414463Y-93294494D01*
X119493815Y-93391185D01*
X119590506Y-93470537D01*
X119700820Y-93529502D01*
X119820518Y-93565812D01*
X119945000Y-93578072D01*
X121409250Y-93575000D01*
X121568000Y-93416250D01*
X121568000Y-92567000D01*
X121822000Y-92567000D01*
X121822000Y-93416250D01*
X121980750Y-93575000D01*
X123445000Y-93578072D01*
X123569482Y-93565812D01*
X123689180Y-93529502D01*
X123799494Y-93470537D01*
X123896185Y-93391185D01*
X123975537Y-93294494D01*
X124034502Y-93184180D01*
X124070812Y-93064482D01*
X124083072Y-92940000D01*
X124080000Y-92725750D01*
X123921250Y-92567000D01*
X121822000Y-92567000D01*
X121568000Y-92567000D01*
X119468750Y-92567000D01*
X119310000Y-92725750D01*
X119306928Y-92940000D01*
X114400000Y-92940000D01*
X114400000Y-89478072D01*
X117622500Y-89478072D01*
X117751371Y-89465379D01*
X117875290Y-89427789D01*
X117989494Y-89366746D01*
X118089595Y-89284595D01*
X118171746Y-89184494D01*
X118232789Y-89070290D01*
X118270379Y-88946371D01*
X118283072Y-88817500D01*
X118283072Y-87362500D01*
X118270379Y-87233629D01*
X118232789Y-87109710D01*
X118171746Y-86995506D01*
X118089595Y-86895405D01*
X117989494Y-86813254D01*
X117875290Y-86752211D01*
X117751371Y-86714621D01*
X117622500Y-86701928D01*
X114400000Y-86701928D01*
X114400000Y-82585947D01*
X114437833Y-82200093D01*
X114539453Y-81863511D01*
X114704512Y-81553079D01*
X114926723Y-81280621D01*
X115197627Y-81056510D01*
X115506896Y-80889288D01*
X115842760Y-80785320D01*
X116226382Y-80745000D01*
X121169252Y-80745000D01*
X121127068Y-80846842D01*
G37*
X121127068Y-80846842D02*
X121070000Y-81133740D01*
X121070000Y-81426260D01*
X121127068Y-81713158D01*
X121239010Y-81983411D01*
X121401525Y-82226632D01*
X121608368Y-82433475D01*
X121851589Y-82595990D01*
X122121842Y-82707932D01*
X122408740Y-82765000D01*
X122701260Y-82765000D01*
X122799418Y-82745475D01*
X122671525Y-82873368D01*
X122509010Y-83116589D01*
X122397068Y-83386842D01*
X122340000Y-83673740D01*
X122340000Y-83966260D01*
X122397068Y-84253158D01*
X122509010Y-84523411D01*
X122671525Y-84766632D01*
X122878368Y-84973475D01*
X122940000Y-85014656D01*
X122940001Y-89301928D01*
X119945000Y-89301928D01*
X119820518Y-89314188D01*
X119700820Y-89350498D01*
X119590506Y-89409463D01*
X119493815Y-89488815D01*
X119414463Y-89585506D01*
X119355498Y-89695820D01*
X119319188Y-89815518D01*
X119306928Y-89940000D01*
X119306928Y-90940000D01*
X119319188Y-91064482D01*
X119355498Y-91184180D01*
X119414463Y-91294494D01*
X119493815Y-91391185D01*
X119553296Y-91440000D01*
X119493815Y-91488815D01*
X119414463Y-91585506D01*
X119355498Y-91695820D01*
X119319188Y-91815518D01*
X119306928Y-91940000D01*
X119310000Y-92154250D01*
X119468750Y-92313000D01*
X121568000Y-92313000D01*
X121568000Y-92293000D01*
X121822000Y-92293000D01*
X121822000Y-92313000D01*
X123921250Y-92313000D01*
X124080000Y-92154250D01*
X124083072Y-91940000D01*
X124070812Y-91815518D01*
X124034502Y-91695820D01*
X123975537Y-91585506D01*
X123896185Y-91488815D01*
X123836704Y-91440000D01*
X123896185Y-91391185D01*
X123975537Y-91294494D01*
X124032248Y-91188396D01*
X124049059Y-91179411D01*
X124183817Y-91068817D01*
X124211534Y-91035044D01*
X124227412Y-91019166D01*
X124227412Y-97406010D01*
X124079958Y-97553464D01*
X124079952Y-97553469D01*
X124043960Y-97589461D01*
X123971260Y-97575000D01*
X123678740Y-97575000D01*
X123391842Y-97632068D01*
X123121589Y-97744010D01*
X122878368Y-97906525D01*
X122671525Y-98113368D01*
X122509010Y-98356589D01*
X122397068Y-98626842D01*
X122340000Y-98913740D01*
X122340000Y-99206260D01*
X122397068Y-99493158D01*
X122509010Y-99763411D01*
X122671525Y-100006632D01*
X122799418Y-100134525D01*
X122701260Y-100115000D01*
X122408740Y-100115000D01*
X122121842Y-100172068D01*
X121851589Y-100284010D01*
X121608368Y-100446525D01*
X121401525Y-100653368D01*
X121239010Y-100896589D01*
X121127068Y-101166842D01*
X121070000Y-101453740D01*
X121070000Y-101746260D01*
X121127068Y-102033158D01*
X121169252Y-102135000D01*
X116240947Y-102135000D01*
X115855092Y-102097167D01*
X115518511Y-101995547D01*
X115208078Y-101830487D01*
X114935619Y-101608275D01*
X114711511Y-101337373D01*
X114544287Y-101028100D01*
X114440320Y-100692236D01*
X114400000Y-100308619D01*
X114400000Y-96178072D01*
X117622500Y-96178072D01*
X117751371Y-96165379D01*
X117875290Y-96127789D01*
X117989494Y-96066746D01*
X118089595Y-95984595D01*
X118171746Y-95884494D01*
X118232789Y-95770290D01*
X118270379Y-95646371D01*
X118283072Y-95517500D01*
X118283072Y-94062500D01*
X118270379Y-93933629D01*
X118232789Y-93809710D01*
X118171746Y-93695506D01*
X118089595Y-93595405D01*
X117989494Y-93513254D01*
X117875290Y-93452211D01*
X117751371Y-93414621D01*
X117622500Y-93401928D01*
X114400000Y-93401928D01*
X114400000Y-92940000D01*
X119306928Y-92940000D01*
X119319188Y-93064482D01*
X119355498Y-93184180D01*
X119414463Y-93294494D01*
X119493815Y-93391185D01*
X119590506Y-93470537D01*
X119700820Y-93529502D01*
X119820518Y-93565812D01*
X119945000Y-93578072D01*
X121409250Y-93575000D01*
X121568000Y-93416250D01*
X121568000Y-92567000D01*
X121822000Y-92567000D01*
X121822000Y-93416250D01*
X121980750Y-93575000D01*
X123445000Y-93578072D01*
X123569482Y-93565812D01*
X123689180Y-93529502D01*
X123799494Y-93470537D01*
X123896185Y-93391185D01*
X123975537Y-93294494D01*
X124034502Y-93184180D01*
X124070812Y-93064482D01*
X124083072Y-92940000D01*
X124080000Y-92725750D01*
X123921250Y-92567000D01*
X121822000Y-92567000D01*
X121568000Y-92567000D01*
X119468750Y-92567000D01*
X119310000Y-92725750D01*
X119306928Y-92940000D01*
X114400000Y-92940000D01*
X114400000Y-89478072D01*
X117622500Y-89478072D01*
X117751371Y-89465379D01*
X117875290Y-89427789D01*
X117989494Y-89366746D01*
X118089595Y-89284595D01*
X118171746Y-89184494D01*
X118232789Y-89070290D01*
X118270379Y-88946371D01*
X118283072Y-88817500D01*
X118283072Y-87362500D01*
X118270379Y-87233629D01*
X118232789Y-87109710D01*
X118171746Y-86995506D01*
X118089595Y-86895405D01*
X117989494Y-86813254D01*
X117875290Y-86752211D01*
X117751371Y-86714621D01*
X117622500Y-86701928D01*
X114400000Y-86701928D01*
X114400000Y-82585947D01*
X114437833Y-82200093D01*
X114539453Y-81863511D01*
X114704512Y-81553079D01*
X114926723Y-81280621D01*
X115197627Y-81056510D01*
X115506896Y-80889288D01*
X115842760Y-80785320D01*
X116226382Y-80745000D01*
X121169252Y-80745000D01*
X121127068Y-80846842D01*
G36*
X131572000Y-98933000D02*
G01*
X131592000Y-98933000D01*
X131592000Y-99187000D01*
X131572000Y-99187000D01*
X131572000Y-100380155D01*
X131743979Y-100470914D01*
X131561525Y-100653368D01*
X131445000Y-100827760D01*
X131328475Y-100653368D01*
X131146021Y-100470914D01*
X131318000Y-100380155D01*
X131318000Y-99187000D01*
X131298000Y-99187000D01*
X131298000Y-98933000D01*
X131318000Y-98933000D01*
X131318000Y-98913000D01*
X131572000Y-98913000D01*
X131572000Y-98933000D01*
G37*
X131572000Y-98933000D02*
X131592000Y-98933000D01*
X131592000Y-99187000D01*
X131572000Y-99187000D01*
X131572000Y-100380155D01*
X131743979Y-100470914D01*
X131561525Y-100653368D01*
X131445000Y-100827760D01*
X131328475Y-100653368D01*
X131146021Y-100470914D01*
X131318000Y-100380155D01*
X131318000Y-99187000D01*
X131298000Y-99187000D01*
X131298000Y-98933000D01*
X131318000Y-98933000D01*
X131318000Y-98913000D01*
X131572000Y-98913000D01*
X131572000Y-98933000D01*
G36*
X130880707Y-86882533D02*
G01*
X130848972Y-86903738D01*
X130718738Y-87033972D01*
X130616414Y-87187111D01*
X130545932Y-87357271D01*
X130510000Y-87537911D01*
X130510000Y-87722089D01*
X130545932Y-87902729D01*
X130616414Y-88072889D01*
X130718738Y-88226028D01*
X130848972Y-88356262D01*
X131002111Y-88458586D01*
X131036077Y-88472655D01*
X135970070Y-93406649D01*
X135997783Y-93440417D01*
X136031551Y-93468130D01*
X136031553Y-93468132D01*
X136093488Y-93518961D01*
X136132541Y-93551011D01*
X136286287Y-93633189D01*
X136401213Y-93668052D01*
X136453109Y-93683795D01*
X136455983Y-93684078D01*
X136583123Y-93696600D01*
X136583131Y-93696600D01*
X136626600Y-93700881D01*
X136670069Y-93696600D01*
X137489313Y-93696600D01*
X137452100Y-93883685D01*
X137452100Y-94076315D01*
X137489680Y-94265243D01*
X137563396Y-94443210D01*
X137670415Y-94603375D01*
X137806625Y-94739585D01*
X137966790Y-94846604D01*
X138100347Y-94901925D01*
X139595421Y-96397000D01*
X139036464Y-96397000D01*
X138992997Y-96392719D01*
X138949531Y-96397000D01*
X138949521Y-96397000D01*
X138819508Y-96409805D01*
X138652685Y-96460411D01*
X138498939Y-96542589D01*
X138486191Y-96553051D01*
X138397951Y-96625468D01*
X138397949Y-96625470D01*
X138364181Y-96653183D01*
X138336468Y-96686951D01*
X137258983Y-97764437D01*
X137228411Y-97744010D01*
X136958158Y-97632068D01*
X136671260Y-97575000D01*
X136378740Y-97575000D01*
X136306040Y-97589461D01*
X134888628Y-96172050D01*
X134860911Y-96138277D01*
X134726153Y-96027683D01*
X134572407Y-95945505D01*
X134405584Y-95894899D01*
X134275571Y-95882094D01*
X134275563Y-95882094D01*
X134232094Y-95877813D01*
X134188625Y-95882094D01*
X131931370Y-95882094D01*
X131887903Y-95877813D01*
X131844437Y-95882094D01*
X131844427Y-95882094D01*
X131714414Y-95894899D01*
X131547591Y-95945505D01*
X131393845Y-96027683D01*
X131369919Y-96047319D01*
X131292857Y-96110562D01*
X131292855Y-96110564D01*
X131259087Y-96138277D01*
X131231374Y-96172045D01*
X129971602Y-97431817D01*
X130072735Y-92290900D01*
X130161005Y-92290900D01*
X130349933Y-92253320D01*
X130527900Y-92179604D01*
X130688065Y-92072585D01*
X130824275Y-91936375D01*
X130931294Y-91776210D01*
X131005010Y-91598243D01*
X131042590Y-91409315D01*
X131042590Y-91216685D01*
X131005010Y-91027757D01*
X130931294Y-90849790D01*
X130824275Y-90689625D01*
X130688065Y-90553415D01*
X130527900Y-90446396D01*
X130349933Y-90372680D01*
X130161005Y-90335100D01*
X130077496Y-90335100D01*
X129985314Y-85987140D01*
X130880707Y-86882533D01*
G37*
X130880707Y-86882533D02*
X130848972Y-86903738D01*
X130718738Y-87033972D01*
X130616414Y-87187111D01*
X130545932Y-87357271D01*
X130510000Y-87537911D01*
X130510000Y-87722089D01*
X130545932Y-87902729D01*
X130616414Y-88072889D01*
X130718738Y-88226028D01*
X130848972Y-88356262D01*
X131002111Y-88458586D01*
X131036077Y-88472655D01*
X135970070Y-93406649D01*
X135997783Y-93440417D01*
X136031551Y-93468130D01*
X136031553Y-93468132D01*
X136093488Y-93518961D01*
X136132541Y-93551011D01*
X136286287Y-93633189D01*
X136401213Y-93668052D01*
X136453109Y-93683795D01*
X136455983Y-93684078D01*
X136583123Y-93696600D01*
X136583131Y-93696600D01*
X136626600Y-93700881D01*
X136670069Y-93696600D01*
X137489313Y-93696600D01*
X137452100Y-93883685D01*
X137452100Y-94076315D01*
X137489680Y-94265243D01*
X137563396Y-94443210D01*
X137670415Y-94603375D01*
X137806625Y-94739585D01*
X137966790Y-94846604D01*
X138100347Y-94901925D01*
X139595421Y-96397000D01*
X139036464Y-96397000D01*
X138992997Y-96392719D01*
X138949531Y-96397000D01*
X138949521Y-96397000D01*
X138819508Y-96409805D01*
X138652685Y-96460411D01*
X138498939Y-96542589D01*
X138486191Y-96553051D01*
X138397951Y-96625468D01*
X138397949Y-96625470D01*
X138364181Y-96653183D01*
X138336468Y-96686951D01*
X137258983Y-97764437D01*
X137228411Y-97744010D01*
X136958158Y-97632068D01*
X136671260Y-97575000D01*
X136378740Y-97575000D01*
X136306040Y-97589461D01*
X134888628Y-96172050D01*
X134860911Y-96138277D01*
X134726153Y-96027683D01*
X134572407Y-95945505D01*
X134405584Y-95894899D01*
X134275571Y-95882094D01*
X134275563Y-95882094D01*
X134232094Y-95877813D01*
X134188625Y-95882094D01*
X131931370Y-95882094D01*
X131887903Y-95877813D01*
X131844437Y-95882094D01*
X131844427Y-95882094D01*
X131714414Y-95894899D01*
X131547591Y-95945505D01*
X131393845Y-96027683D01*
X131369919Y-96047319D01*
X131292857Y-96110562D01*
X131292855Y-96110564D01*
X131259087Y-96138277D01*
X131231374Y-96172045D01*
X129971602Y-97431817D01*
X130072735Y-92290900D01*
X130161005Y-92290900D01*
X130349933Y-92253320D01*
X130527900Y-92179604D01*
X130688065Y-92072585D01*
X130824275Y-91936375D01*
X130931294Y-91776210D01*
X131005010Y-91598243D01*
X131042590Y-91409315D01*
X131042590Y-91216685D01*
X131005010Y-91027757D01*
X130931294Y-90849790D01*
X130824275Y-90689625D01*
X130688065Y-90553415D01*
X130527900Y-90446396D01*
X130349933Y-90372680D01*
X130161005Y-90335100D01*
X130077496Y-90335100D01*
X129985314Y-85987140D01*
X130880707Y-86882533D01*
G36*
X126481525Y-82226632D02*
G01*
X126663979Y-82409086D01*
X126492000Y-82499845D01*
X126492000Y-83693000D01*
X126512000Y-83693000D01*
X126512000Y-83947000D01*
X126492000Y-83947000D01*
X126492000Y-85140155D01*
X126721890Y-85261476D01*
X126750001Y-85252950D01*
X126750000Y-89525264D01*
X126607405Y-89496900D01*
X126414775Y-89496900D01*
X126225847Y-89534480D01*
X126047880Y-89608196D01*
X125997411Y-89641918D01*
X125997411Y-85258231D01*
X126008110Y-85261476D01*
X126238000Y-85140155D01*
X126238000Y-83947000D01*
X126218000Y-83947000D01*
X126218000Y-83693000D01*
X126238000Y-83693000D01*
X126238000Y-82499845D01*
X126066021Y-82409086D01*
X126248475Y-82226632D01*
X126365000Y-82052240D01*
X126481525Y-82226632D01*
G37*
X126481525Y-82226632D02*
X126663979Y-82409086D01*
X126492000Y-82499845D01*
X126492000Y-83693000D01*
X126512000Y-83693000D01*
X126512000Y-83947000D01*
X126492000Y-83947000D01*
X126492000Y-85140155D01*
X126721890Y-85261476D01*
X126750001Y-85252950D01*
X126750000Y-89525264D01*
X126607405Y-89496900D01*
X126414775Y-89496900D01*
X126225847Y-89534480D01*
X126047880Y-89608196D01*
X125997411Y-89641918D01*
X125997411Y-85258231D01*
X126008110Y-85261476D01*
X126238000Y-85140155D01*
X126238000Y-83947000D01*
X126218000Y-83947000D01*
X126218000Y-83693000D01*
X126238000Y-83693000D01*
X126238000Y-82499845D01*
X126066021Y-82409086D01*
X126248475Y-82226632D01*
X126365000Y-82052240D01*
X126481525Y-82226632D01*
G36*
X155691525Y-84766632D02*
G01*
X155898368Y-84973475D01*
X156141589Y-85135990D01*
X156411842Y-85247932D01*
X156656770Y-85296652D01*
X156495833Y-85457589D01*
X139473232Y-85457589D01*
X139429763Y-85453308D01*
X139386294Y-85457589D01*
X139386286Y-85457589D01*
X139256273Y-85470394D01*
X139089450Y-85521000D01*
X139049409Y-85542402D01*
X137189425Y-85542402D01*
X136905441Y-85258418D01*
X136958158Y-85247932D01*
X137228411Y-85135990D01*
X137471632Y-84973475D01*
X137678475Y-84766632D01*
X137795000Y-84592240D01*
X137911525Y-84766632D01*
X138118368Y-84973475D01*
X138361589Y-85135990D01*
X138631842Y-85247932D01*
X138918740Y-85305000D01*
X139211260Y-85305000D01*
X139498158Y-85247932D01*
X139768411Y-85135990D01*
X140011632Y-84973475D01*
X140218475Y-84766632D01*
X140335000Y-84592240D01*
X140451525Y-84766632D01*
X140658368Y-84973475D01*
X140901589Y-85135990D01*
X141171842Y-85247932D01*
X141458740Y-85305000D01*
X141751260Y-85305000D01*
X142038158Y-85247932D01*
X142308411Y-85135990D01*
X142551632Y-84973475D01*
X142758475Y-84766632D01*
X142875000Y-84592240D01*
X142991525Y-84766632D01*
X143198368Y-84973475D01*
X143441589Y-85135990D01*
X143711842Y-85247932D01*
X143998740Y-85305000D01*
X144291260Y-85305000D01*
X144578158Y-85247932D01*
X144848411Y-85135990D01*
X145091632Y-84973475D01*
X145298475Y-84766632D01*
X145415000Y-84592240D01*
X145531525Y-84766632D01*
X145738368Y-84973475D01*
X145981589Y-85135990D01*
X146251842Y-85247932D01*
X146538740Y-85305000D01*
X146831260Y-85305000D01*
X147118158Y-85247932D01*
X147388411Y-85135990D01*
X147631632Y-84973475D01*
X147838475Y-84766632D01*
X147955000Y-84592240D01*
X148071525Y-84766632D01*
X148278368Y-84973475D01*
X148521589Y-85135990D01*
X148791842Y-85247932D01*
X149078740Y-85305000D01*
X149371260Y-85305000D01*
X149658158Y-85247932D01*
X149928411Y-85135990D01*
X150171632Y-84973475D01*
X150378475Y-84766632D01*
X150495000Y-84592240D01*
X150611525Y-84766632D01*
X150818368Y-84973475D01*
X151061589Y-85135990D01*
X151331842Y-85247932D01*
X151618740Y-85305000D01*
X151911260Y-85305000D01*
X152198158Y-85247932D01*
X152468411Y-85135990D01*
X152711632Y-84973475D01*
X152918475Y-84766632D01*
X153035000Y-84592240D01*
X153151525Y-84766632D01*
X153358368Y-84973475D01*
X153601589Y-85135990D01*
X153871842Y-85247932D01*
X154158740Y-85305000D01*
X154451260Y-85305000D01*
X154738158Y-85247932D01*
X155008411Y-85135990D01*
X155251632Y-84973475D01*
X155458475Y-84766632D01*
X155575000Y-84592240D01*
X155691525Y-84766632D01*
G37*
X155691525Y-84766632D02*
X155898368Y-84973475D01*
X156141589Y-85135990D01*
X156411842Y-85247932D01*
X156656770Y-85296652D01*
X156495833Y-85457589D01*
X139473232Y-85457589D01*
X139429763Y-85453308D01*
X139386294Y-85457589D01*
X139386286Y-85457589D01*
X139256273Y-85470394D01*
X139089450Y-85521000D01*
X139049409Y-85542402D01*
X137189425Y-85542402D01*
X136905441Y-85258418D01*
X136958158Y-85247932D01*
X137228411Y-85135990D01*
X137471632Y-84973475D01*
X137678475Y-84766632D01*
X137795000Y-84592240D01*
X137911525Y-84766632D01*
X138118368Y-84973475D01*
X138361589Y-85135990D01*
X138631842Y-85247932D01*
X138918740Y-85305000D01*
X139211260Y-85305000D01*
X139498158Y-85247932D01*
X139768411Y-85135990D01*
X140011632Y-84973475D01*
X140218475Y-84766632D01*
X140335000Y-84592240D01*
X140451525Y-84766632D01*
X140658368Y-84973475D01*
X140901589Y-85135990D01*
X141171842Y-85247932D01*
X141458740Y-85305000D01*
X141751260Y-85305000D01*
X142038158Y-85247932D01*
X142308411Y-85135990D01*
X142551632Y-84973475D01*
X142758475Y-84766632D01*
X142875000Y-84592240D01*
X142991525Y-84766632D01*
X143198368Y-84973475D01*
X143441589Y-85135990D01*
X143711842Y-85247932D01*
X143998740Y-85305000D01*
X144291260Y-85305000D01*
X144578158Y-85247932D01*
X144848411Y-85135990D01*
X145091632Y-84973475D01*
X145298475Y-84766632D01*
X145415000Y-84592240D01*
X145531525Y-84766632D01*
X145738368Y-84973475D01*
X145981589Y-85135990D01*
X146251842Y-85247932D01*
X146538740Y-85305000D01*
X146831260Y-85305000D01*
X147118158Y-85247932D01*
X147388411Y-85135990D01*
X147631632Y-84973475D01*
X147838475Y-84766632D01*
X147955000Y-84592240D01*
X148071525Y-84766632D01*
X148278368Y-84973475D01*
X148521589Y-85135990D01*
X148791842Y-85247932D01*
X149078740Y-85305000D01*
X149371260Y-85305000D01*
X149658158Y-85247932D01*
X149928411Y-85135990D01*
X150171632Y-84973475D01*
X150378475Y-84766632D01*
X150495000Y-84592240D01*
X150611525Y-84766632D01*
X150818368Y-84973475D01*
X151061589Y-85135990D01*
X151331842Y-85247932D01*
X151618740Y-85305000D01*
X151911260Y-85305000D01*
X152198158Y-85247932D01*
X152468411Y-85135990D01*
X152711632Y-84973475D01*
X152918475Y-84766632D01*
X153035000Y-84592240D01*
X153151525Y-84766632D01*
X153358368Y-84973475D01*
X153601589Y-85135990D01*
X153871842Y-85247932D01*
X154158740Y-85305000D01*
X154451260Y-85305000D01*
X154738158Y-85247932D01*
X155008411Y-85135990D01*
X155251632Y-84973475D01*
X155458475Y-84766632D01*
X155575000Y-84592240D01*
X155691525Y-84766632D01*
G36*
X153162000Y-81153000D02*
G01*
X153182000Y-81153000D01*
X153182000Y-81407000D01*
X153162000Y-81407000D01*
X153162000Y-82600155D01*
X153333979Y-82690914D01*
X153151525Y-82873368D01*
X153035000Y-83047760D01*
X152918475Y-82873368D01*
X152736021Y-82690914D01*
X152908000Y-82600155D01*
X152908000Y-81407000D01*
X152888000Y-81407000D01*
X152888000Y-81153000D01*
X152908000Y-81153000D01*
X152908000Y-81133000D01*
X153162000Y-81133000D01*
X153162000Y-81153000D01*
G37*
X153162000Y-81153000D02*
X153182000Y-81153000D01*
X153182000Y-81407000D01*
X153162000Y-81407000D01*
X153162000Y-82600155D01*
X153333979Y-82690914D01*
X153151525Y-82873368D01*
X153035000Y-83047760D01*
X152918475Y-82873368D01*
X152736021Y-82690914D01*
X152908000Y-82600155D01*
X152908000Y-81407000D01*
X152888000Y-81407000D01*
X152888000Y-81153000D01*
X152908000Y-81153000D01*
X152908000Y-81133000D01*
X153162000Y-81133000D01*
X153162000Y-81153000D01*
M02*
