M48
; DRILL file {KiCad 5.1.5-52549c5~84~ubuntu18.04.1} date jue 02 ene 2020 10:07:03 MST
; FORMAT={-:-/ absolute / inch / decimal}
; #@! TF.CreationDate,2020-01-02T10:07:03-07:00
; #@! TF.GenerationSoftware,Kicad,Pcbnew,5.1.5-52549c5~84~ubuntu18.04.1
; #@! TF.FileFunction,Plated,1,2,PTH
FMAT,2
INCH
T1C0.0118
T2C0.0130
T3C0.0394
%
G90
G05
T1
X4.834Y-3.55
X5.129Y-3.826
T2
X4.875Y-3.425
X4.974Y-3.796
X4.9808Y-3.562
X5.0516Y-3.828
X5.0537Y-3.5307
X5.166Y-3.595
X5.189Y-3.363
X5.2206Y-3.8391
X5.403Y-3.576
X5.453Y-3.527
X5.522Y-3.862
X5.525Y-3.55
X5.575Y-3.725
X5.714Y-3.852
X5.821Y-3.79
X5.9Y-3.725
X5.906Y-3.603
X6.025Y-3.375
T3
X4.825Y-3.2
X4.925Y-3.2
X5.025Y-3.2
X5.125Y-3.2
X5.225Y-3.2
X5.325Y-3.2
X5.425Y-3.2
X5.525Y-3.2
X5.625Y-3.2
X5.725Y-3.2
X5.825Y-3.2
X5.925Y-3.2
X6.025Y-3.2
X6.125Y-3.2
X6.225Y-3.2
X6.325Y-3.2
X4.825Y-4.0
X4.925Y-4.0
X5.025Y-4.0
X5.125Y-4.0
X5.225Y-4.0
X5.325Y-4.0
X5.425Y-4.0
X5.525Y-4.0
X5.625Y-4.0
X5.725Y-4.0
X5.825Y-4.0
X5.925Y-4.0
X4.875Y-3.3
X4.975Y-3.3
X5.075Y-3.3
X5.175Y-3.3
X5.275Y-3.3
X5.375Y-3.3
X5.475Y-3.3
X5.575Y-3.3
X5.675Y-3.3
X5.775Y-3.3
X5.875Y-3.3
X5.975Y-3.3
X6.075Y-3.3
X6.175Y-3.3
X6.275Y-3.3
X4.875Y-3.9
X4.975Y-3.9
X5.075Y-3.9
X5.175Y-3.9
X5.275Y-3.9
X5.375Y-3.9
X5.475Y-3.9
X5.575Y-3.9
X5.675Y-3.9
X5.775Y-3.9
X5.875Y-3.9
X5.975Y-3.9
X6.075Y-3.9
X6.175Y-3.9
X6.275Y-3.9
T0
M30
