G04 #@! TF.GenerationSoftware,KiCad,Pcbnew,5.1.5-52549c5~84~ubuntu18.04.1*
G04 #@! TF.CreationDate,2020-01-02T10:07:06-07:00*
G04 #@! TF.ProjectId,FeatherWing_KC5,46656174-6865-4725-9769-6e675f4b4335,rev?*
G04 #@! TF.SameCoordinates,Original*
G04 #@! TF.FileFunction,Copper,L1,Top*
G04 #@! TF.FilePolarity,Positive*
%FSLAX46Y46*%
G04 Gerber Fmt 4.6, Leading zero omitted, Abs format (unit mm)*
G04 Created by KiCad (PCBNEW 5.1.5-52549c5~84~ubuntu18.04.1) date 2020-01-02 10:07:06*
%MOMM*%
%LPD*%
G04 APERTURE LIST*
%ADD10C,0.010000*%
%ADD11O,1.700000X1.700000*%
%ADD12C,1.700000*%
%ADD13C,0.685800*%
%ADD14C,0.600000*%
%ADD15C,0.500000*%
%ADD16C,0.400000*%
%ADD17C,0.254000*%
G04 APERTURE END LIST*
D10*
G36*
X161129466Y-91272572D02*
G01*
X161158094Y-91229163D01*
X161168474Y-91216301D01*
X161202902Y-91170992D01*
X161221306Y-91138215D01*
X161222266Y-91133533D01*
X161238732Y-91111146D01*
X161279005Y-91081272D01*
X161285323Y-91077445D01*
X161335926Y-91054338D01*
X161386018Y-91052632D01*
X161433490Y-91063114D01*
X161486166Y-91080956D01*
X161516046Y-91098171D01*
X161518600Y-91102972D01*
X161538039Y-91113203D01*
X161590037Y-91126233D01*
X161665114Y-91139879D01*
X161703808Y-91145626D01*
X161915268Y-91186265D01*
X162089575Y-91244185D01*
X162226149Y-91319127D01*
X162324414Y-91410830D01*
X162339915Y-91431881D01*
X162379232Y-91506034D01*
X162385773Y-91572822D01*
X162357828Y-91640130D01*
X162293686Y-91715842D01*
X162274193Y-91734744D01*
X162212080Y-91789581D01*
X162155539Y-91832789D01*
X162116449Y-91855322D01*
X162115443Y-91855657D01*
X162079230Y-91872602D01*
X162069096Y-91884868D01*
X162086870Y-91905025D01*
X162131538Y-91933919D01*
X162190579Y-91964846D01*
X162251470Y-91991101D01*
X162291183Y-92003781D01*
X162360903Y-92034854D01*
X162410481Y-92083916D01*
X162428766Y-92138568D01*
X162413695Y-92183919D01*
X162391725Y-92211070D01*
X162328630Y-92255002D01*
X162249402Y-92295025D01*
X162171133Y-92323581D01*
X162115406Y-92333233D01*
X162078708Y-92324162D01*
X162010257Y-92298670D01*
X161916129Y-92259335D01*
X161802400Y-92208740D01*
X161675146Y-92149464D01*
X161616990Y-92121566D01*
X161491082Y-92061059D01*
X161377522Y-92007295D01*
X161281962Y-91962885D01*
X161210056Y-91930440D01*
X161167456Y-91912570D01*
X161158610Y-91909900D01*
X161139872Y-91898096D01*
X161145248Y-91860165D01*
X161175335Y-91792325D01*
X161177873Y-91787348D01*
X161245428Y-91686360D01*
X161324675Y-91625760D01*
X161417313Y-91604799D01*
X161525036Y-91622729D01*
X161539766Y-91627710D01*
X161592073Y-91639781D01*
X161664715Y-91648422D01*
X161747119Y-91653449D01*
X161828712Y-91654681D01*
X161898923Y-91651933D01*
X161947179Y-91645023D01*
X161963100Y-91635033D01*
X161943884Y-91601777D01*
X161891979Y-91563155D01*
X161816001Y-91523081D01*
X161724563Y-91485472D01*
X161626280Y-91454245D01*
X161529766Y-91433315D01*
X161514500Y-91431108D01*
X161442474Y-91417598D01*
X161359035Y-91396074D01*
X161274690Y-91370042D01*
X161199943Y-91343009D01*
X161145299Y-91318483D01*
X161121265Y-91299972D01*
X161121206Y-91299803D01*
X161129466Y-91272572D01*
G37*
X161129466Y-91272572D02*
X161158094Y-91229163D01*
X161168474Y-91216301D01*
X161202902Y-91170992D01*
X161221306Y-91138215D01*
X161222266Y-91133533D01*
X161238732Y-91111146D01*
X161279005Y-91081272D01*
X161285323Y-91077445D01*
X161335926Y-91054338D01*
X161386018Y-91052632D01*
X161433490Y-91063114D01*
X161486166Y-91080956D01*
X161516046Y-91098171D01*
X161518600Y-91102972D01*
X161538039Y-91113203D01*
X161590037Y-91126233D01*
X161665114Y-91139879D01*
X161703808Y-91145626D01*
X161915268Y-91186265D01*
X162089575Y-91244185D01*
X162226149Y-91319127D01*
X162324414Y-91410830D01*
X162339915Y-91431881D01*
X162379232Y-91506034D01*
X162385773Y-91572822D01*
X162357828Y-91640130D01*
X162293686Y-91715842D01*
X162274193Y-91734744D01*
X162212080Y-91789581D01*
X162155539Y-91832789D01*
X162116449Y-91855322D01*
X162115443Y-91855657D01*
X162079230Y-91872602D01*
X162069096Y-91884868D01*
X162086870Y-91905025D01*
X162131538Y-91933919D01*
X162190579Y-91964846D01*
X162251470Y-91991101D01*
X162291183Y-92003781D01*
X162360903Y-92034854D01*
X162410481Y-92083916D01*
X162428766Y-92138568D01*
X162413695Y-92183919D01*
X162391725Y-92211070D01*
X162328630Y-92255002D01*
X162249402Y-92295025D01*
X162171133Y-92323581D01*
X162115406Y-92333233D01*
X162078708Y-92324162D01*
X162010257Y-92298670D01*
X161916129Y-92259335D01*
X161802400Y-92208740D01*
X161675146Y-92149464D01*
X161616990Y-92121566D01*
X161491082Y-92061059D01*
X161377522Y-92007295D01*
X161281962Y-91962885D01*
X161210056Y-91930440D01*
X161167456Y-91912570D01*
X161158610Y-91909900D01*
X161139872Y-91898096D01*
X161145248Y-91860165D01*
X161175335Y-91792325D01*
X161177873Y-91787348D01*
X161245428Y-91686360D01*
X161324675Y-91625760D01*
X161417313Y-91604799D01*
X161525036Y-91622729D01*
X161539766Y-91627710D01*
X161592073Y-91639781D01*
X161664715Y-91648422D01*
X161747119Y-91653449D01*
X161828712Y-91654681D01*
X161898923Y-91651933D01*
X161947179Y-91645023D01*
X161963100Y-91635033D01*
X161943884Y-91601777D01*
X161891979Y-91563155D01*
X161816001Y-91523081D01*
X161724563Y-91485472D01*
X161626280Y-91454245D01*
X161529766Y-91433315D01*
X161514500Y-91431108D01*
X161442474Y-91417598D01*
X161359035Y-91396074D01*
X161274690Y-91370042D01*
X161199943Y-91343009D01*
X161145299Y-91318483D01*
X161121265Y-91299972D01*
X161121206Y-91299803D01*
X161129466Y-91272572D01*
G36*
X161149737Y-88940240D02*
G01*
X161179948Y-88886053D01*
X161218933Y-88832136D01*
X161257391Y-88791477D01*
X161284234Y-88776944D01*
X161332098Y-88771288D01*
X161362706Y-88764529D01*
X161385128Y-88763519D01*
X161407644Y-88777290D01*
X161435037Y-88811750D01*
X161472089Y-88872809D01*
X161518592Y-88957136D01*
X161655033Y-89179940D01*
X161803129Y-89364304D01*
X161959290Y-89508488D01*
X162079516Y-89603035D01*
X162090100Y-89481176D01*
X162093782Y-89413660D01*
X162092361Y-89365045D01*
X162087928Y-89348733D01*
X162078029Y-89323294D01*
X162066862Y-89270061D01*
X162061131Y-89232316D01*
X162046580Y-89147058D01*
X162027083Y-89061237D01*
X162020374Y-89037130D01*
X161993659Y-88947776D01*
X161933626Y-88978921D01*
X161882956Y-89000980D01*
X161846027Y-89010066D01*
X161815098Y-89025630D01*
X161810393Y-89034268D01*
X161790105Y-89047909D01*
X161755347Y-89032581D01*
X161715056Y-88994590D01*
X161678768Y-88941366D01*
X161640199Y-88869747D01*
X161727335Y-88710980D01*
X161774437Y-88630669D01*
X161821597Y-88559366D01*
X161860247Y-88509818D01*
X161867619Y-88502283D01*
X161903582Y-88462353D01*
X161920320Y-88431645D01*
X161920479Y-88429585D01*
X161902157Y-88412046D01*
X161857266Y-88385558D01*
X161857266Y-88013805D01*
X161857266Y-87931584D01*
X161854282Y-87869772D01*
X161846932Y-87823260D01*
X161845227Y-87817989D01*
X161822834Y-87800732D01*
X161773177Y-87802170D01*
X161692067Y-87822718D01*
X161645738Y-87837784D01*
X161635467Y-87854598D01*
X161662115Y-87886161D01*
X161726439Y-87933188D01*
X161788475Y-87972182D01*
X161857266Y-88013805D01*
X161857266Y-88385558D01*
X161853016Y-88383050D01*
X161781398Y-88347208D01*
X161726118Y-88322150D01*
X161584733Y-88257772D01*
X161480097Y-88203440D01*
X161408522Y-88156658D01*
X161366324Y-88114931D01*
X161349817Y-88075762D01*
X161349266Y-88066988D01*
X161330654Y-88008918D01*
X161278793Y-87942261D01*
X161199648Y-87874377D01*
X161184550Y-87863685D01*
X161156461Y-87840941D01*
X161146424Y-87815410D01*
X161152175Y-87772818D01*
X161163256Y-87729413D01*
X161192217Y-87652531D01*
X161235778Y-87603730D01*
X161304107Y-87574804D01*
X161370433Y-87562226D01*
X161441055Y-87550550D01*
X161532431Y-87533249D01*
X161619141Y-87515269D01*
X161700921Y-87495348D01*
X161748464Y-87477392D01*
X161769491Y-87457758D01*
X161772600Y-87442818D01*
X161783352Y-87397230D01*
X161809861Y-87341906D01*
X161843502Y-87290902D01*
X161875652Y-87258272D01*
X161888914Y-87253233D01*
X161918380Y-87268048D01*
X161961059Y-87305487D01*
X161981179Y-87327034D01*
X162025036Y-87372301D01*
X162062359Y-87391339D01*
X162112160Y-87391678D01*
X162136830Y-87388669D01*
X162235151Y-87395683D01*
X162324401Y-87441252D01*
X162398279Y-87521690D01*
X162416720Y-87552470D01*
X162441885Y-87607043D01*
X162444927Y-87648863D01*
X162429570Y-87695794D01*
X162403287Y-87739907D01*
X162377046Y-87753820D01*
X162374813Y-87753181D01*
X162342071Y-87759456D01*
X162311058Y-87783827D01*
X162272170Y-87818326D01*
X162243906Y-87815571D01*
X162216223Y-87773795D01*
X162212678Y-87766525D01*
X162181926Y-87722669D01*
X162151944Y-87707882D01*
X162132495Y-87722802D01*
X162131886Y-87761233D01*
X162137515Y-87811529D01*
X162141396Y-87885090D01*
X162142469Y-87940400D01*
X162140564Y-88013771D01*
X162131740Y-88056628D01*
X162112533Y-88080646D01*
X162098405Y-88089016D01*
X162071622Y-88111354D01*
X162080274Y-88135589D01*
X162126358Y-88163483D01*
X162211869Y-88196800D01*
X162225850Y-88201575D01*
X162298542Y-88230172D01*
X162359871Y-88261314D01*
X162386425Y-88279809D01*
X162420348Y-88333216D01*
X162426967Y-88396809D01*
X162409849Y-88458040D01*
X162372561Y-88504360D01*
X162318670Y-88523222D01*
X162317224Y-88523233D01*
X162279617Y-88534865D01*
X162269981Y-88544457D01*
X162241760Y-88554153D01*
X162217920Y-88544839D01*
X162194548Y-88534106D01*
X162190215Y-88542347D01*
X162204810Y-88577348D01*
X162217082Y-88602990D01*
X162239451Y-88659342D01*
X162268515Y-88746795D01*
X162301367Y-88855220D01*
X162335102Y-88974485D01*
X162366816Y-89094463D01*
X162393602Y-89205023D01*
X162405642Y-89260390D01*
X162428677Y-89431148D01*
X162421292Y-89572847D01*
X162382955Y-89686407D01*
X162313133Y-89772749D01*
X162211295Y-89832795D01*
X162076907Y-89867465D01*
X162052921Y-89870652D01*
X161947370Y-89883153D01*
X161991280Y-89949318D01*
X162023834Y-89991012D01*
X162058578Y-90008297D01*
X162113640Y-90009010D01*
X162127029Y-90007990D01*
X162201229Y-90009363D01*
X162269543Y-90022191D01*
X162282033Y-90026660D01*
X162353851Y-90073964D01*
X162406815Y-90142297D01*
X162435131Y-90219850D01*
X162433002Y-90294815D01*
X162424564Y-90317108D01*
X162393623Y-90353685D01*
X162365312Y-90364733D01*
X162324712Y-90379488D01*
X162291635Y-90406567D01*
X162252201Y-90435720D01*
X162225738Y-90426277D01*
X162217100Y-90385395D01*
X162203468Y-90350721D01*
X162172766Y-90321064D01*
X162140282Y-90308618D01*
X162127101Y-90313621D01*
X162124393Y-90339297D01*
X162131418Y-90389148D01*
X162134396Y-90402835D01*
X162152662Y-90519344D01*
X162149735Y-90614438D01*
X162126174Y-90681606D01*
X162108726Y-90701200D01*
X162063853Y-90737536D01*
X162117345Y-90772585D01*
X162171730Y-90799716D01*
X162243172Y-90825252D01*
X162267108Y-90831875D01*
X162354319Y-90869221D01*
X162408406Y-90926855D01*
X162425867Y-91000687D01*
X162424763Y-91016146D01*
X162401363Y-91068453D01*
X162352691Y-91116556D01*
X162293178Y-91150058D01*
X162237257Y-91158566D01*
X162229408Y-91156855D01*
X162210395Y-91150359D01*
X162180321Y-91138285D01*
X162135253Y-91118863D01*
X162071262Y-91090321D01*
X161984416Y-91050890D01*
X161870785Y-90998799D01*
X161857266Y-90992569D01*
X161857266Y-90621442D01*
X161857266Y-90526087D01*
X161853170Y-90466010D01*
X161842837Y-90425683D01*
X161837185Y-90418321D01*
X161806211Y-90415760D01*
X161750716Y-90423472D01*
X161719949Y-90430374D01*
X161662735Y-90446460D01*
X161640019Y-90460315D01*
X161644853Y-90478332D01*
X161654861Y-90490272D01*
X161692969Y-90522443D01*
X161750139Y-90560696D01*
X161772097Y-90573574D01*
X161857266Y-90621442D01*
X161857266Y-90992569D01*
X161726438Y-90932277D01*
X161557706Y-90854300D01*
X161460349Y-90805846D01*
X161397292Y-90764730D01*
X161362442Y-90725618D01*
X161349708Y-90683175D01*
X161349266Y-90671779D01*
X161329937Y-90621350D01*
X161271784Y-90555262D01*
X161243485Y-90529481D01*
X161137704Y-90436947D01*
X161174694Y-90321465D01*
X161197145Y-90256088D01*
X161218946Y-90219736D01*
X161252167Y-90201059D01*
X161308880Y-90188704D01*
X161317516Y-90187165D01*
X161465433Y-90160401D01*
X161576801Y-90138752D01*
X161656864Y-90120598D01*
X161710868Y-90104317D01*
X161744056Y-90088289D01*
X161761674Y-90070892D01*
X161768966Y-90050506D01*
X161769437Y-90047493D01*
X161787279Y-89991945D01*
X161817062Y-89938410D01*
X161847440Y-89889502D01*
X161851059Y-89854823D01*
X161824130Y-89823402D01*
X161764071Y-89784973D01*
X161708257Y-89744819D01*
X161636689Y-89682930D01*
X161561098Y-89609764D01*
X161525946Y-89572746D01*
X161464461Y-89500554D01*
X161396875Y-89412509D01*
X161328145Y-89316155D01*
X161263227Y-89219034D01*
X161207078Y-89128693D01*
X161164656Y-89052673D01*
X161140916Y-88998520D01*
X161137600Y-88981709D01*
X161149737Y-88940240D01*
G37*
X161149737Y-88940240D02*
X161179948Y-88886053D01*
X161218933Y-88832136D01*
X161257391Y-88791477D01*
X161284234Y-88776944D01*
X161332098Y-88771288D01*
X161362706Y-88764529D01*
X161385128Y-88763519D01*
X161407644Y-88777290D01*
X161435037Y-88811750D01*
X161472089Y-88872809D01*
X161518592Y-88957136D01*
X161655033Y-89179940D01*
X161803129Y-89364304D01*
X161959290Y-89508488D01*
X162079516Y-89603035D01*
X162090100Y-89481176D01*
X162093782Y-89413660D01*
X162092361Y-89365045D01*
X162087928Y-89348733D01*
X162078029Y-89323294D01*
X162066862Y-89270061D01*
X162061131Y-89232316D01*
X162046580Y-89147058D01*
X162027083Y-89061237D01*
X162020374Y-89037130D01*
X161993659Y-88947776D01*
X161933626Y-88978921D01*
X161882956Y-89000980D01*
X161846027Y-89010066D01*
X161815098Y-89025630D01*
X161810393Y-89034268D01*
X161790105Y-89047909D01*
X161755347Y-89032581D01*
X161715056Y-88994590D01*
X161678768Y-88941366D01*
X161640199Y-88869747D01*
X161727335Y-88710980D01*
X161774437Y-88630669D01*
X161821597Y-88559366D01*
X161860247Y-88509818D01*
X161867619Y-88502283D01*
X161903582Y-88462353D01*
X161920320Y-88431645D01*
X161920479Y-88429585D01*
X161902157Y-88412046D01*
X161857266Y-88385558D01*
X161857266Y-88013805D01*
X161857266Y-87931584D01*
X161854282Y-87869772D01*
X161846932Y-87823260D01*
X161845227Y-87817989D01*
X161822834Y-87800732D01*
X161773177Y-87802170D01*
X161692067Y-87822718D01*
X161645738Y-87837784D01*
X161635467Y-87854598D01*
X161662115Y-87886161D01*
X161726439Y-87933188D01*
X161788475Y-87972182D01*
X161857266Y-88013805D01*
X161857266Y-88385558D01*
X161853016Y-88383050D01*
X161781398Y-88347208D01*
X161726118Y-88322150D01*
X161584733Y-88257772D01*
X161480097Y-88203440D01*
X161408522Y-88156658D01*
X161366324Y-88114931D01*
X161349817Y-88075762D01*
X161349266Y-88066988D01*
X161330654Y-88008918D01*
X161278793Y-87942261D01*
X161199648Y-87874377D01*
X161184550Y-87863685D01*
X161156461Y-87840941D01*
X161146424Y-87815410D01*
X161152175Y-87772818D01*
X161163256Y-87729413D01*
X161192217Y-87652531D01*
X161235778Y-87603730D01*
X161304107Y-87574804D01*
X161370433Y-87562226D01*
X161441055Y-87550550D01*
X161532431Y-87533249D01*
X161619141Y-87515269D01*
X161700921Y-87495348D01*
X161748464Y-87477392D01*
X161769491Y-87457758D01*
X161772600Y-87442818D01*
X161783352Y-87397230D01*
X161809861Y-87341906D01*
X161843502Y-87290902D01*
X161875652Y-87258272D01*
X161888914Y-87253233D01*
X161918380Y-87268048D01*
X161961059Y-87305487D01*
X161981179Y-87327034D01*
X162025036Y-87372301D01*
X162062359Y-87391339D01*
X162112160Y-87391678D01*
X162136830Y-87388669D01*
X162235151Y-87395683D01*
X162324401Y-87441252D01*
X162398279Y-87521690D01*
X162416720Y-87552470D01*
X162441885Y-87607043D01*
X162444927Y-87648863D01*
X162429570Y-87695794D01*
X162403287Y-87739907D01*
X162377046Y-87753820D01*
X162374813Y-87753181D01*
X162342071Y-87759456D01*
X162311058Y-87783827D01*
X162272170Y-87818326D01*
X162243906Y-87815571D01*
X162216223Y-87773795D01*
X162212678Y-87766525D01*
X162181926Y-87722669D01*
X162151944Y-87707882D01*
X162132495Y-87722802D01*
X162131886Y-87761233D01*
X162137515Y-87811529D01*
X162141396Y-87885090D01*
X162142469Y-87940400D01*
X162140564Y-88013771D01*
X162131740Y-88056628D01*
X162112533Y-88080646D01*
X162098405Y-88089016D01*
X162071622Y-88111354D01*
X162080274Y-88135589D01*
X162126358Y-88163483D01*
X162211869Y-88196800D01*
X162225850Y-88201575D01*
X162298542Y-88230172D01*
X162359871Y-88261314D01*
X162386425Y-88279809D01*
X162420348Y-88333216D01*
X162426967Y-88396809D01*
X162409849Y-88458040D01*
X162372561Y-88504360D01*
X162318670Y-88523222D01*
X162317224Y-88523233D01*
X162279617Y-88534865D01*
X162269981Y-88544457D01*
X162241760Y-88554153D01*
X162217920Y-88544839D01*
X162194548Y-88534106D01*
X162190215Y-88542347D01*
X162204810Y-88577348D01*
X162217082Y-88602990D01*
X162239451Y-88659342D01*
X162268515Y-88746795D01*
X162301367Y-88855220D01*
X162335102Y-88974485D01*
X162366816Y-89094463D01*
X162393602Y-89205023D01*
X162405642Y-89260390D01*
X162428677Y-89431148D01*
X162421292Y-89572847D01*
X162382955Y-89686407D01*
X162313133Y-89772749D01*
X162211295Y-89832795D01*
X162076907Y-89867465D01*
X162052921Y-89870652D01*
X161947370Y-89883153D01*
X161991280Y-89949318D01*
X162023834Y-89991012D01*
X162058578Y-90008297D01*
X162113640Y-90009010D01*
X162127029Y-90007990D01*
X162201229Y-90009363D01*
X162269543Y-90022191D01*
X162282033Y-90026660D01*
X162353851Y-90073964D01*
X162406815Y-90142297D01*
X162435131Y-90219850D01*
X162433002Y-90294815D01*
X162424564Y-90317108D01*
X162393623Y-90353685D01*
X162365312Y-90364733D01*
X162324712Y-90379488D01*
X162291635Y-90406567D01*
X162252201Y-90435720D01*
X162225738Y-90426277D01*
X162217100Y-90385395D01*
X162203468Y-90350721D01*
X162172766Y-90321064D01*
X162140282Y-90308618D01*
X162127101Y-90313621D01*
X162124393Y-90339297D01*
X162131418Y-90389148D01*
X162134396Y-90402835D01*
X162152662Y-90519344D01*
X162149735Y-90614438D01*
X162126174Y-90681606D01*
X162108726Y-90701200D01*
X162063853Y-90737536D01*
X162117345Y-90772585D01*
X162171730Y-90799716D01*
X162243172Y-90825252D01*
X162267108Y-90831875D01*
X162354319Y-90869221D01*
X162408406Y-90926855D01*
X162425867Y-91000687D01*
X162424763Y-91016146D01*
X162401363Y-91068453D01*
X162352691Y-91116556D01*
X162293178Y-91150058D01*
X162237257Y-91158566D01*
X162229408Y-91156855D01*
X162210395Y-91150359D01*
X162180321Y-91138285D01*
X162135253Y-91118863D01*
X162071262Y-91090321D01*
X161984416Y-91050890D01*
X161870785Y-90998799D01*
X161857266Y-90992569D01*
X161857266Y-90621442D01*
X161857266Y-90526087D01*
X161853170Y-90466010D01*
X161842837Y-90425683D01*
X161837185Y-90418321D01*
X161806211Y-90415760D01*
X161750716Y-90423472D01*
X161719949Y-90430374D01*
X161662735Y-90446460D01*
X161640019Y-90460315D01*
X161644853Y-90478332D01*
X161654861Y-90490272D01*
X161692969Y-90522443D01*
X161750139Y-90560696D01*
X161772097Y-90573574D01*
X161857266Y-90621442D01*
X161857266Y-90992569D01*
X161726438Y-90932277D01*
X161557706Y-90854300D01*
X161460349Y-90805846D01*
X161397292Y-90764730D01*
X161362442Y-90725618D01*
X161349708Y-90683175D01*
X161349266Y-90671779D01*
X161329937Y-90621350D01*
X161271784Y-90555262D01*
X161243485Y-90529481D01*
X161137704Y-90436947D01*
X161174694Y-90321465D01*
X161197145Y-90256088D01*
X161218946Y-90219736D01*
X161252167Y-90201059D01*
X161308880Y-90188704D01*
X161317516Y-90187165D01*
X161465433Y-90160401D01*
X161576801Y-90138752D01*
X161656864Y-90120598D01*
X161710868Y-90104317D01*
X161744056Y-90088289D01*
X161761674Y-90070892D01*
X161768966Y-90050506D01*
X161769437Y-90047493D01*
X161787279Y-89991945D01*
X161817062Y-89938410D01*
X161847440Y-89889502D01*
X161851059Y-89854823D01*
X161824130Y-89823402D01*
X161764071Y-89784973D01*
X161708257Y-89744819D01*
X161636689Y-89682930D01*
X161561098Y-89609764D01*
X161525946Y-89572746D01*
X161464461Y-89500554D01*
X161396875Y-89412509D01*
X161328145Y-89316155D01*
X161263227Y-89219034D01*
X161207078Y-89128693D01*
X161164656Y-89052673D01*
X161140916Y-88998520D01*
X161137600Y-88981709D01*
X161149737Y-88940240D01*
G36*
X161130010Y-92208927D02*
G01*
X161164536Y-92158111D01*
X161188050Y-92130414D01*
X161233287Y-92087281D01*
X161274756Y-92067022D01*
X161319364Y-92071506D01*
X161374020Y-92102601D01*
X161445630Y-92162176D01*
X161503006Y-92215596D01*
X161610528Y-92305948D01*
X161755953Y-92408970D01*
X161937230Y-92523339D01*
X162152308Y-92647733D01*
X162291183Y-92723659D01*
X162396368Y-92785068D01*
X162463213Y-92835673D01*
X162490774Y-92874728D01*
X162491438Y-92882320D01*
X162483199Y-92908049D01*
X162464320Y-92954472D01*
X162462719Y-92958163D01*
X162418339Y-93017378D01*
X162352677Y-93060110D01*
X162292335Y-93074066D01*
X162262491Y-93064833D01*
X162204502Y-93039899D01*
X162127614Y-93003417D01*
X162065790Y-92972353D01*
X161867850Y-92870640D01*
X161798284Y-92917848D01*
X161739895Y-92949331D01*
X161661177Y-92976520D01*
X161555656Y-93001101D01*
X161416859Y-93024761D01*
X161351417Y-93034227D01*
X161269523Y-93044509D01*
X161217994Y-93046554D01*
X161185470Y-93039283D01*
X161160593Y-93021614D01*
X161154273Y-93015481D01*
X161131330Y-92989686D01*
X161125313Y-92965420D01*
X161136876Y-92928802D01*
X161160765Y-92878117D01*
X161193406Y-92819170D01*
X161229896Y-92778571D01*
X161280443Y-92750003D01*
X161355251Y-92727152D01*
X161432029Y-92710248D01*
X161567708Y-92682483D01*
X161461110Y-92607941D01*
X161337751Y-92515247D01*
X161237979Y-92427090D01*
X161165634Y-92347512D01*
X161124554Y-92280555D01*
X161116433Y-92245035D01*
X161130010Y-92208927D01*
G37*
X161130010Y-92208927D02*
X161164536Y-92158111D01*
X161188050Y-92130414D01*
X161233287Y-92087281D01*
X161274756Y-92067022D01*
X161319364Y-92071506D01*
X161374020Y-92102601D01*
X161445630Y-92162176D01*
X161503006Y-92215596D01*
X161610528Y-92305948D01*
X161755953Y-92408970D01*
X161937230Y-92523339D01*
X162152308Y-92647733D01*
X162291183Y-92723659D01*
X162396368Y-92785068D01*
X162463213Y-92835673D01*
X162490774Y-92874728D01*
X162491438Y-92882320D01*
X162483199Y-92908049D01*
X162464320Y-92954472D01*
X162462719Y-92958163D01*
X162418339Y-93017378D01*
X162352677Y-93060110D01*
X162292335Y-93074066D01*
X162262491Y-93064833D01*
X162204502Y-93039899D01*
X162127614Y-93003417D01*
X162065790Y-92972353D01*
X161867850Y-92870640D01*
X161798284Y-92917848D01*
X161739895Y-92949331D01*
X161661177Y-92976520D01*
X161555656Y-93001101D01*
X161416859Y-93024761D01*
X161351417Y-93034227D01*
X161269523Y-93044509D01*
X161217994Y-93046554D01*
X161185470Y-93039283D01*
X161160593Y-93021614D01*
X161154273Y-93015481D01*
X161131330Y-92989686D01*
X161125313Y-92965420D01*
X161136876Y-92928802D01*
X161160765Y-92878117D01*
X161193406Y-92819170D01*
X161229896Y-92778571D01*
X161280443Y-92750003D01*
X161355251Y-92727152D01*
X161432029Y-92710248D01*
X161567708Y-92682483D01*
X161461110Y-92607941D01*
X161337751Y-92515247D01*
X161237979Y-92427090D01*
X161165634Y-92347512D01*
X161124554Y-92280555D01*
X161116433Y-92245035D01*
X161130010Y-92208927D01*
G36*
X160881771Y-94730146D02*
G01*
X160934887Y-94646808D01*
X161014436Y-94564142D01*
X161113071Y-94487504D01*
X161223445Y-94422250D01*
X161338212Y-94373737D01*
X161450026Y-94347324D01*
X161499753Y-94344066D01*
X161564602Y-94346885D01*
X161610716Y-94360434D01*
X161654941Y-94392356D01*
X161698070Y-94434025D01*
X161749162Y-94493014D01*
X161791482Y-94561712D01*
X161831790Y-94652311D01*
X161857812Y-94722235D01*
X161890371Y-94811748D01*
X161913129Y-94866721D01*
X161929639Y-94892790D01*
X161943455Y-94895587D01*
X161957950Y-94880985D01*
X162017205Y-94783500D01*
X162063404Y-94663356D01*
X162100093Y-94511199D01*
X162102110Y-94500631D01*
X162120042Y-94412166D01*
X162137631Y-94336703D01*
X162152015Y-94286132D01*
X162156361Y-94275275D01*
X162163017Y-94250916D01*
X162143796Y-94240360D01*
X162097116Y-94238233D01*
X162031990Y-94227230D01*
X161941393Y-94196451D01*
X161844187Y-94153566D01*
X161748618Y-94108655D01*
X161682775Y-94081962D01*
X161639152Y-94071562D01*
X161610242Y-94075528D01*
X161591624Y-94088761D01*
X161560340Y-94102732D01*
X161502553Y-94116561D01*
X161462484Y-94122960D01*
X161396695Y-94129556D01*
X161358453Y-94124817D01*
X161333695Y-94105189D01*
X161321030Y-94087224D01*
X161298191Y-94036912D01*
X161271178Y-93953852D01*
X161242218Y-93847141D01*
X161213537Y-93725878D01*
X161187361Y-93599162D01*
X161165917Y-93476091D01*
X161157917Y-93420669D01*
X161146361Y-93329201D01*
X161141601Y-93269702D01*
X161144447Y-93232236D01*
X161155706Y-93206863D01*
X161176187Y-93183648D01*
X161177288Y-93182544D01*
X161209520Y-93143872D01*
X161222266Y-93116400D01*
X161240624Y-93101398D01*
X161284230Y-93095233D01*
X161351112Y-93115246D01*
X161404325Y-93174949D01*
X161443497Y-93273844D01*
X161455110Y-93324061D01*
X161474503Y-93412220D01*
X161497304Y-93501346D01*
X161508499Y-93539733D01*
X161529511Y-93611492D01*
X161546328Y-93676548D01*
X161549991Y-93693191D01*
X161570282Y-93738065D01*
X161596006Y-93751400D01*
X161613299Y-93746211D01*
X161621750Y-93724962D01*
X161622470Y-93679127D01*
X161616567Y-93600180D01*
X161616209Y-93596205D01*
X161602145Y-93441010D01*
X161675368Y-93363372D01*
X161723950Y-93318339D01*
X161765940Y-93290323D01*
X161781333Y-93285733D01*
X161808575Y-93302869D01*
X161845952Y-93347336D01*
X161877806Y-93396858D01*
X161911669Y-93461530D01*
X161931004Y-93518810D01*
X161939722Y-93585558D01*
X161941734Y-93672336D01*
X161942544Y-93755316D01*
X161947189Y-93807016D01*
X161959366Y-93838489D01*
X161982772Y-93860787D01*
X162010725Y-93878632D01*
X162059223Y-93905888D01*
X162091885Y-93920081D01*
X162095391Y-93920654D01*
X162106267Y-93901202D01*
X162110740Y-93848207D01*
X162109130Y-93769920D01*
X162101760Y-93674594D01*
X162088951Y-93570481D01*
X162079416Y-93510804D01*
X162047566Y-93328162D01*
X162125067Y-93255062D01*
X162178982Y-93210604D01*
X162221409Y-93197999D01*
X162264449Y-93218165D01*
X162318052Y-93269716D01*
X162353656Y-93329837D01*
X162385502Y-93427888D01*
X162412558Y-93559556D01*
X162433791Y-93720525D01*
X162438980Y-93775131D01*
X162441901Y-93932069D01*
X162420230Y-94055085D01*
X162373820Y-94144820D01*
X162348154Y-94171662D01*
X162312943Y-94203919D01*
X162308624Y-94215253D01*
X162333601Y-94211881D01*
X162338065Y-94210880D01*
X162394969Y-94219223D01*
X162438607Y-94249982D01*
X162479346Y-94316522D01*
X162491277Y-94413635D01*
X162474407Y-94540882D01*
X162430315Y-94693316D01*
X162359947Y-94875428D01*
X162287292Y-95023994D01*
X162217100Y-95130780D01*
X162217100Y-94238233D01*
X162234522Y-94230489D01*
X162231211Y-94224122D01*
X162206091Y-94221589D01*
X162202988Y-94224122D01*
X162205894Y-94236706D01*
X162217100Y-94238233D01*
X162217100Y-95130780D01*
X162214399Y-95134890D01*
X162205807Y-95145382D01*
X162171802Y-95187440D01*
X162163988Y-95206524D01*
X162180877Y-95211697D01*
X162194894Y-95211900D01*
X162241818Y-95221338D01*
X162303549Y-95244869D01*
X162321988Y-95253751D01*
X162389685Y-95305810D01*
X162422304Y-95370813D01*
X162417100Y-95441045D01*
X162400497Y-95474142D01*
X162351417Y-95516659D01*
X162274483Y-95548447D01*
X162183629Y-95565544D01*
X162092792Y-95563986D01*
X162087397Y-95563173D01*
X161999820Y-95549169D01*
X162065731Y-95624237D01*
X162105979Y-95672705D01*
X162138670Y-95720479D01*
X162167156Y-95775356D01*
X162194786Y-95845135D01*
X162224912Y-95937615D01*
X162260886Y-96060595D01*
X162275554Y-96112557D01*
X162339802Y-96358542D01*
X162384802Y-96570004D01*
X162410471Y-96746285D01*
X162416731Y-96886729D01*
X162403500Y-96990677D01*
X162387794Y-97032233D01*
X162308752Y-97139441D01*
X162199752Y-97220296D01*
X162066062Y-97271926D01*
X161912950Y-97291456D01*
X161912545Y-97291462D01*
X161807340Y-97274214D01*
X161689420Y-97222064D01*
X161563204Y-97138826D01*
X161433107Y-97028310D01*
X161303548Y-96894329D01*
X161178944Y-96740693D01*
X161063711Y-96571214D01*
X161047951Y-96545400D01*
X160997010Y-96462117D01*
X160949904Y-96387518D01*
X160913614Y-96332552D01*
X160901060Y-96315004D01*
X160875884Y-96268107D01*
X160863492Y-96217877D01*
X160865692Y-96178594D01*
X160882014Y-96164400D01*
X160902805Y-96147429D01*
X160933669Y-96104268D01*
X160951041Y-96074762D01*
X160988412Y-96016878D01*
X161027538Y-95986563D01*
X161084341Y-95971495D01*
X161084511Y-95971467D01*
X161143489Y-95964744D01*
X161185271Y-95965063D01*
X161191053Y-95966452D01*
X161210104Y-95988280D01*
X161241457Y-96039028D01*
X161279467Y-96109277D01*
X161294192Y-96138538D01*
X161346308Y-96237912D01*
X161406980Y-96344399D01*
X161463501Y-96435735D01*
X161466031Y-96439566D01*
X161531781Y-96527062D01*
X161619899Y-96628406D01*
X161719564Y-96732468D01*
X161819953Y-96828120D01*
X161910247Y-96904232D01*
X161936729Y-96923685D01*
X161982059Y-96952531D01*
X162005592Y-96956731D01*
X162018463Y-96938238D01*
X162018541Y-96938037D01*
X162025248Y-96888500D01*
X162022623Y-96806326D01*
X162011550Y-96699962D01*
X161992911Y-96577854D01*
X161973683Y-96479591D01*
X161973683Y-95550566D01*
X161984266Y-95539983D01*
X161973683Y-95529400D01*
X161963100Y-95539983D01*
X161973683Y-95550566D01*
X161973683Y-96479591D01*
X161967589Y-96448448D01*
X161967175Y-96446550D01*
X161942609Y-96336692D01*
X161922988Y-96262976D01*
X161904418Y-96220142D01*
X161883009Y-96202929D01*
X161854867Y-96206080D01*
X161816099Y-96224334D01*
X161806504Y-96229454D01*
X161750450Y-96253975D01*
X161706883Y-96263476D01*
X161697466Y-96262176D01*
X161667898Y-96265895D01*
X161661573Y-96275230D01*
X161640683Y-96291272D01*
X161604569Y-96274910D01*
X161559457Y-96230239D01*
X161527776Y-96187237D01*
X161471469Y-96102152D01*
X161553243Y-95941339D01*
X161609333Y-95843264D01*
X161678547Y-95739252D01*
X161746132Y-95651439D01*
X161747649Y-95649671D01*
X161802393Y-95583965D01*
X161830957Y-95543017D01*
X161836463Y-95521034D01*
X161822033Y-95512222D01*
X161821732Y-95512169D01*
X161764620Y-95501185D01*
X161685274Y-95484459D01*
X161593290Y-95464194D01*
X161555198Y-95455535D01*
X161555198Y-95040279D01*
X161576509Y-95036855D01*
X161575567Y-95000896D01*
X161554410Y-94930068D01*
X161527617Y-94855669D01*
X161492436Y-94771805D01*
X161460390Y-94726947D01*
X161425885Y-94718678D01*
X161383326Y-94744578D01*
X161348865Y-94778410D01*
X161323026Y-94810443D01*
X161317009Y-94838241D01*
X161334596Y-94869491D01*
X161379572Y-94911879D01*
X161437681Y-94958868D01*
X161509601Y-95013505D01*
X161555198Y-95040279D01*
X161555198Y-95455535D01*
X161498260Y-95442591D01*
X161409779Y-95421851D01*
X161337440Y-95404175D01*
X161290838Y-95391765D01*
X161278997Y-95387633D01*
X161268448Y-95360727D01*
X161269451Y-95315443D01*
X161271084Y-95281024D01*
X161261187Y-95249852D01*
X161234372Y-95215556D01*
X161185249Y-95171766D01*
X161108431Y-95112110D01*
X161078457Y-95089627D01*
X160975229Y-95001809D01*
X160903518Y-94917353D01*
X160866711Y-94840666D01*
X160862433Y-94808797D01*
X160881771Y-94730146D01*
G37*
X160881771Y-94730146D02*
X160934887Y-94646808D01*
X161014436Y-94564142D01*
X161113071Y-94487504D01*
X161223445Y-94422250D01*
X161338212Y-94373737D01*
X161450026Y-94347324D01*
X161499753Y-94344066D01*
X161564602Y-94346885D01*
X161610716Y-94360434D01*
X161654941Y-94392356D01*
X161698070Y-94434025D01*
X161749162Y-94493014D01*
X161791482Y-94561712D01*
X161831790Y-94652311D01*
X161857812Y-94722235D01*
X161890371Y-94811748D01*
X161913129Y-94866721D01*
X161929639Y-94892790D01*
X161943455Y-94895587D01*
X161957950Y-94880985D01*
X162017205Y-94783500D01*
X162063404Y-94663356D01*
X162100093Y-94511199D01*
X162102110Y-94500631D01*
X162120042Y-94412166D01*
X162137631Y-94336703D01*
X162152015Y-94286132D01*
X162156361Y-94275275D01*
X162163017Y-94250916D01*
X162143796Y-94240360D01*
X162097116Y-94238233D01*
X162031990Y-94227230D01*
X161941393Y-94196451D01*
X161844187Y-94153566D01*
X161748618Y-94108655D01*
X161682775Y-94081962D01*
X161639152Y-94071562D01*
X161610242Y-94075528D01*
X161591624Y-94088761D01*
X161560340Y-94102732D01*
X161502553Y-94116561D01*
X161462484Y-94122960D01*
X161396695Y-94129556D01*
X161358453Y-94124817D01*
X161333695Y-94105189D01*
X161321030Y-94087224D01*
X161298191Y-94036912D01*
X161271178Y-93953852D01*
X161242218Y-93847141D01*
X161213537Y-93725878D01*
X161187361Y-93599162D01*
X161165917Y-93476091D01*
X161157917Y-93420669D01*
X161146361Y-93329201D01*
X161141601Y-93269702D01*
X161144447Y-93232236D01*
X161155706Y-93206863D01*
X161176187Y-93183648D01*
X161177288Y-93182544D01*
X161209520Y-93143872D01*
X161222266Y-93116400D01*
X161240624Y-93101398D01*
X161284230Y-93095233D01*
X161351112Y-93115246D01*
X161404325Y-93174949D01*
X161443497Y-93273844D01*
X161455110Y-93324061D01*
X161474503Y-93412220D01*
X161497304Y-93501346D01*
X161508499Y-93539733D01*
X161529511Y-93611492D01*
X161546328Y-93676548D01*
X161549991Y-93693191D01*
X161570282Y-93738065D01*
X161596006Y-93751400D01*
X161613299Y-93746211D01*
X161621750Y-93724962D01*
X161622470Y-93679127D01*
X161616567Y-93600180D01*
X161616209Y-93596205D01*
X161602145Y-93441010D01*
X161675368Y-93363372D01*
X161723950Y-93318339D01*
X161765940Y-93290323D01*
X161781333Y-93285733D01*
X161808575Y-93302869D01*
X161845952Y-93347336D01*
X161877806Y-93396858D01*
X161911669Y-93461530D01*
X161931004Y-93518810D01*
X161939722Y-93585558D01*
X161941734Y-93672336D01*
X161942544Y-93755316D01*
X161947189Y-93807016D01*
X161959366Y-93838489D01*
X161982772Y-93860787D01*
X162010725Y-93878632D01*
X162059223Y-93905888D01*
X162091885Y-93920081D01*
X162095391Y-93920654D01*
X162106267Y-93901202D01*
X162110740Y-93848207D01*
X162109130Y-93769920D01*
X162101760Y-93674594D01*
X162088951Y-93570481D01*
X162079416Y-93510804D01*
X162047566Y-93328162D01*
X162125067Y-93255062D01*
X162178982Y-93210604D01*
X162221409Y-93197999D01*
X162264449Y-93218165D01*
X162318052Y-93269716D01*
X162353656Y-93329837D01*
X162385502Y-93427888D01*
X162412558Y-93559556D01*
X162433791Y-93720525D01*
X162438980Y-93775131D01*
X162441901Y-93932069D01*
X162420230Y-94055085D01*
X162373820Y-94144820D01*
X162348154Y-94171662D01*
X162312943Y-94203919D01*
X162308624Y-94215253D01*
X162333601Y-94211881D01*
X162338065Y-94210880D01*
X162394969Y-94219223D01*
X162438607Y-94249982D01*
X162479346Y-94316522D01*
X162491277Y-94413635D01*
X162474407Y-94540882D01*
X162430315Y-94693316D01*
X162359947Y-94875428D01*
X162287292Y-95023994D01*
X162217100Y-95130780D01*
X162217100Y-94238233D01*
X162234522Y-94230489D01*
X162231211Y-94224122D01*
X162206091Y-94221589D01*
X162202988Y-94224122D01*
X162205894Y-94236706D01*
X162217100Y-94238233D01*
X162217100Y-95130780D01*
X162214399Y-95134890D01*
X162205807Y-95145382D01*
X162171802Y-95187440D01*
X162163988Y-95206524D01*
X162180877Y-95211697D01*
X162194894Y-95211900D01*
X162241818Y-95221338D01*
X162303549Y-95244869D01*
X162321988Y-95253751D01*
X162389685Y-95305810D01*
X162422304Y-95370813D01*
X162417100Y-95441045D01*
X162400497Y-95474142D01*
X162351417Y-95516659D01*
X162274483Y-95548447D01*
X162183629Y-95565544D01*
X162092792Y-95563986D01*
X162087397Y-95563173D01*
X161999820Y-95549169D01*
X162065731Y-95624237D01*
X162105979Y-95672705D01*
X162138670Y-95720479D01*
X162167156Y-95775356D01*
X162194786Y-95845135D01*
X162224912Y-95937615D01*
X162260886Y-96060595D01*
X162275554Y-96112557D01*
X162339802Y-96358542D01*
X162384802Y-96570004D01*
X162410471Y-96746285D01*
X162416731Y-96886729D01*
X162403500Y-96990677D01*
X162387794Y-97032233D01*
X162308752Y-97139441D01*
X162199752Y-97220296D01*
X162066062Y-97271926D01*
X161912950Y-97291456D01*
X161912545Y-97291462D01*
X161807340Y-97274214D01*
X161689420Y-97222064D01*
X161563204Y-97138826D01*
X161433107Y-97028310D01*
X161303548Y-96894329D01*
X161178944Y-96740693D01*
X161063711Y-96571214D01*
X161047951Y-96545400D01*
X160997010Y-96462117D01*
X160949904Y-96387518D01*
X160913614Y-96332552D01*
X160901060Y-96315004D01*
X160875884Y-96268107D01*
X160863492Y-96217877D01*
X160865692Y-96178594D01*
X160882014Y-96164400D01*
X160902805Y-96147429D01*
X160933669Y-96104268D01*
X160951041Y-96074762D01*
X160988412Y-96016878D01*
X161027538Y-95986563D01*
X161084341Y-95971495D01*
X161084511Y-95971467D01*
X161143489Y-95964744D01*
X161185271Y-95965063D01*
X161191053Y-95966452D01*
X161210104Y-95988280D01*
X161241457Y-96039028D01*
X161279467Y-96109277D01*
X161294192Y-96138538D01*
X161346308Y-96237912D01*
X161406980Y-96344399D01*
X161463501Y-96435735D01*
X161466031Y-96439566D01*
X161531781Y-96527062D01*
X161619899Y-96628406D01*
X161719564Y-96732468D01*
X161819953Y-96828120D01*
X161910247Y-96904232D01*
X161936729Y-96923685D01*
X161982059Y-96952531D01*
X162005592Y-96956731D01*
X162018463Y-96938238D01*
X162018541Y-96938037D01*
X162025248Y-96888500D01*
X162022623Y-96806326D01*
X162011550Y-96699962D01*
X161992911Y-96577854D01*
X161973683Y-96479591D01*
X161973683Y-95550566D01*
X161984266Y-95539983D01*
X161973683Y-95529400D01*
X161963100Y-95539983D01*
X161973683Y-95550566D01*
X161973683Y-96479591D01*
X161967589Y-96448448D01*
X161967175Y-96446550D01*
X161942609Y-96336692D01*
X161922988Y-96262976D01*
X161904418Y-96220142D01*
X161883009Y-96202929D01*
X161854867Y-96206080D01*
X161816099Y-96224334D01*
X161806504Y-96229454D01*
X161750450Y-96253975D01*
X161706883Y-96263476D01*
X161697466Y-96262176D01*
X161667898Y-96265895D01*
X161661573Y-96275230D01*
X161640683Y-96291272D01*
X161604569Y-96274910D01*
X161559457Y-96230239D01*
X161527776Y-96187237D01*
X161471469Y-96102152D01*
X161553243Y-95941339D01*
X161609333Y-95843264D01*
X161678547Y-95739252D01*
X161746132Y-95651439D01*
X161747649Y-95649671D01*
X161802393Y-95583965D01*
X161830957Y-95543017D01*
X161836463Y-95521034D01*
X161822033Y-95512222D01*
X161821732Y-95512169D01*
X161764620Y-95501185D01*
X161685274Y-95484459D01*
X161593290Y-95464194D01*
X161555198Y-95455535D01*
X161555198Y-95040279D01*
X161576509Y-95036855D01*
X161575567Y-95000896D01*
X161554410Y-94930068D01*
X161527617Y-94855669D01*
X161492436Y-94771805D01*
X161460390Y-94726947D01*
X161425885Y-94718678D01*
X161383326Y-94744578D01*
X161348865Y-94778410D01*
X161323026Y-94810443D01*
X161317009Y-94838241D01*
X161334596Y-94869491D01*
X161379572Y-94911879D01*
X161437681Y-94958868D01*
X161509601Y-95013505D01*
X161555198Y-95040279D01*
X161555198Y-95455535D01*
X161498260Y-95442591D01*
X161409779Y-95421851D01*
X161337440Y-95404175D01*
X161290838Y-95391765D01*
X161278997Y-95387633D01*
X161268448Y-95360727D01*
X161269451Y-95315443D01*
X161271084Y-95281024D01*
X161261187Y-95249852D01*
X161234372Y-95215556D01*
X161185249Y-95171766D01*
X161108431Y-95112110D01*
X161078457Y-95089627D01*
X160975229Y-95001809D01*
X160903518Y-94917353D01*
X160866711Y-94840666D01*
X160862433Y-94808797D01*
X160881771Y-94730146D01*
D11*
X159385000Y-99060000D03*
X156845000Y-99060000D03*
X154305000Y-99060000D03*
X151765000Y-99060000D03*
X149225000Y-99060000D03*
X146685000Y-99060000D03*
X144145000Y-99060000D03*
X141605000Y-99060000D03*
X139065000Y-99060000D03*
X136525000Y-99060000D03*
X133985000Y-99060000D03*
X131445000Y-99060000D03*
X128905000Y-99060000D03*
X126365000Y-99060000D03*
D12*
X123825000Y-99060000D03*
D11*
X159385000Y-83820000D03*
X156845000Y-83820000D03*
X154305000Y-83820000D03*
X151765000Y-83820000D03*
X149225000Y-83820000D03*
X146685000Y-83820000D03*
X144145000Y-83820000D03*
X141605000Y-83820000D03*
X139065000Y-83820000D03*
X136525000Y-83820000D03*
X133985000Y-83820000D03*
X131445000Y-83820000D03*
X128905000Y-83820000D03*
X126365000Y-83820000D03*
D12*
X123825000Y-83820000D03*
D11*
X160655000Y-81280000D03*
X158115000Y-81280000D03*
X155575000Y-81280000D03*
X153035000Y-81280000D03*
X150495000Y-81280000D03*
X147955000Y-81280000D03*
X145415000Y-81280000D03*
X142875000Y-81280000D03*
X140335000Y-81280000D03*
X137795000Y-81280000D03*
X135255000Y-81280000D03*
X132715000Y-81280000D03*
X130175000Y-81280000D03*
X127635000Y-81280000D03*
X125095000Y-81280000D03*
D12*
X122555000Y-81280000D03*
D11*
X150495000Y-101600000D03*
X147955000Y-101600000D03*
X145415000Y-101600000D03*
X142875000Y-101600000D03*
X140335000Y-101600000D03*
X137795000Y-101600000D03*
X135255000Y-101600000D03*
X132715000Y-101600000D03*
X130175000Y-101600000D03*
X127635000Y-101600000D03*
X125095000Y-101600000D03*
D12*
X122555000Y-101600000D03*
D13*
X149860000Y-94615000D03*
X153035000Y-85725000D03*
D14*
X130276600Y-97180400D03*
D13*
X123825000Y-86995000D03*
X140335000Y-90170000D03*
D14*
X122783600Y-90170000D03*
D13*
X138506200Y-89585800D03*
X131216400Y-91313000D03*
X132603174Y-97512395D03*
X145135600Y-97840800D03*
X141604994Y-94615000D03*
X137236200Y-90830400D03*
X131800600Y-85420200D03*
X140258800Y-98094800D03*
X147853400Y-96266000D03*
X128310311Y-97231200D03*
X128365216Y-89681012D03*
X126511090Y-90474800D03*
X126339600Y-96418400D03*
X150012400Y-91516200D03*
D15*
X125095000Y-97790000D02*
X123825000Y-99060000D01*
X125095000Y-81280000D02*
X125095000Y-97790000D01*
X127635000Y-86817200D02*
X127635000Y-81280000D01*
X126365000Y-99060000D02*
X126365000Y-98806000D01*
X128219200Y-88773000D02*
X128219200Y-87401400D01*
X126365000Y-98806000D02*
X127355600Y-97815400D01*
X128219200Y-87401400D02*
X127635000Y-86817200D01*
X127355600Y-97815400D02*
X127355600Y-89636600D01*
X127355600Y-89636600D02*
X128219200Y-88773000D01*
X144145000Y-82550000D02*
X142875000Y-81280000D01*
X144145000Y-83820000D02*
X144145000Y-82550000D01*
X146685000Y-82550000D02*
X145415000Y-81280000D01*
X146685000Y-83820000D02*
X146685000Y-82550000D01*
X149225000Y-82550000D02*
X147955000Y-81280000D01*
X149225000Y-83820000D02*
X149225000Y-82550000D01*
X151765000Y-82550000D02*
X150495000Y-81280000D01*
X151765000Y-83820000D02*
X151765000Y-82550000D01*
X153035000Y-85725000D02*
X153035000Y-81280000D01*
X122809000Y-90144600D02*
X122783600Y-90170000D01*
X123825000Y-86995000D02*
X122809000Y-88011000D01*
X122809000Y-88011000D02*
X122809000Y-90144600D01*
X156845000Y-82550000D02*
X158115000Y-81280000D01*
X156845000Y-83820000D02*
X156845000Y-82550000D01*
X129057400Y-98907600D02*
X128905000Y-99060000D01*
X128905000Y-83820000D02*
X129057400Y-83972400D01*
X129362200Y-91313000D02*
X129209800Y-91160600D01*
X131216400Y-91313000D02*
X129362200Y-91313000D01*
X129057400Y-83972400D02*
X129209800Y-91160600D01*
X129209800Y-91160600D02*
X129057400Y-98907600D01*
X140385800Y-87706200D02*
X138506200Y-89585800D01*
X157505400Y-87706200D02*
X140385800Y-87706200D01*
X160655000Y-81280000D02*
X160655000Y-84556600D01*
X160655000Y-84556600D02*
X157505400Y-87706200D01*
X137374999Y-82970001D02*
X136525000Y-83820000D01*
X137955001Y-82970001D02*
X137374999Y-82970001D01*
X139645002Y-81280000D02*
X137955001Y-82970001D01*
X140335000Y-81280000D02*
X139645002Y-81280000D01*
X156997400Y-86995000D02*
X159258000Y-84734400D01*
X135890000Y-86995000D02*
X156997400Y-86995000D01*
X159258000Y-83947000D02*
X159385000Y-83820000D01*
X159258000Y-84734400D02*
X159258000Y-83947000D01*
X135255000Y-81280000D02*
X135255000Y-86360000D01*
X135255000Y-86360000D02*
X135890000Y-86995000D01*
X132603174Y-97678174D02*
X132603174Y-97512395D01*
X133985000Y-99060000D02*
X132603174Y-97678174D01*
X145415000Y-101600000D02*
X146104998Y-101600000D01*
X141909800Y-94615000D02*
X141604994Y-94615000D01*
X145135600Y-97840800D02*
X141909800Y-94615000D01*
X131826000Y-85420200D02*
X131800600Y-85420200D01*
X137236200Y-90830400D02*
X131826000Y-85420200D01*
D16*
X144164999Y-100310001D02*
X153054999Y-100310001D01*
X142875000Y-101600000D02*
X144164999Y-100310001D01*
D15*
X153455001Y-99909999D02*
X154305000Y-99060000D01*
X153054999Y-100310001D02*
X153455001Y-99909999D01*
X138644999Y-100750001D02*
X137795000Y-101600000D01*
X139045001Y-100349999D02*
X138644999Y-100750001D01*
X149225000Y-99060000D02*
X148535002Y-99060000D01*
X140315001Y-98151001D02*
X140258800Y-98094800D01*
D16*
X140315001Y-99660001D02*
X140315001Y-98151001D01*
D15*
X139045001Y-100349999D02*
X139625003Y-100349999D01*
X139625003Y-100349999D02*
X140315001Y-99660001D01*
X149225000Y-99060000D02*
X147853400Y-97688400D01*
X147853400Y-97688400D02*
X147853400Y-96266000D01*
X143295001Y-98210001D02*
X144145000Y-99060000D01*
X135835002Y-101600000D02*
X137795000Y-99640002D01*
X135255000Y-101600000D02*
X135835002Y-101600000D01*
X137795000Y-99640002D02*
X137795000Y-98479998D01*
X137795000Y-98479998D02*
X138992998Y-97282000D01*
X138992998Y-97282000D02*
X142367000Y-97282000D01*
X142367000Y-97282000D02*
X143295001Y-98210001D01*
X129065001Y-100750001D02*
X130175000Y-99640002D01*
X130175000Y-99640002D02*
X130175000Y-98479998D01*
X130175000Y-98479998D02*
X131887904Y-96767094D01*
X131887904Y-96767094D02*
X134232094Y-96767094D01*
X135675001Y-98210001D02*
X136525000Y-99060000D01*
X134232094Y-96767094D02*
X135675001Y-98210001D01*
X127635000Y-101600000D02*
X128484999Y-100750001D01*
X128484999Y-100750001D02*
X129065001Y-100750001D01*
X128310311Y-97231200D02*
X128310311Y-89735917D01*
X128310311Y-89735917D02*
X128365216Y-89681012D01*
X126492000Y-96266000D02*
X126339600Y-96418400D01*
D16*
X126511090Y-90474800D02*
X126492000Y-90493890D01*
D15*
X126492000Y-90493890D02*
X126492000Y-96266000D01*
X132715000Y-85178552D02*
X132715000Y-81280000D01*
X150012400Y-91516200D02*
X139052648Y-91516200D01*
X139052648Y-91516200D02*
X132715000Y-85178552D01*
X158535001Y-98210001D02*
X159385000Y-99060000D01*
X152654000Y-92329000D02*
X158535001Y-98210001D01*
X137578752Y-92329000D02*
X152654000Y-92329000D01*
X130175000Y-81280000D02*
X130175000Y-84925248D01*
X130175000Y-84925248D02*
X137578752Y-92329000D01*
D17*
G36*
X162148490Y-81542627D02*
G01*
X162315712Y-81851896D01*
X162419680Y-82187760D01*
X162460000Y-82571382D01*
X162460000Y-86799638D01*
X162412422Y-86780724D01*
X162411141Y-86780487D01*
X162409924Y-86780009D01*
X162349825Y-86769144D01*
X162307378Y-86761292D01*
X162278098Y-86742210D01*
X162238941Y-86714116D01*
X162225865Y-86708168D01*
X162213825Y-86700322D01*
X162205869Y-86696253D01*
X162176403Y-86681438D01*
X162166490Y-86677614D01*
X162157316Y-86672233D01*
X162108272Y-86655158D01*
X162059865Y-86636487D01*
X162049398Y-86634662D01*
X162039354Y-86631165D01*
X161987923Y-86623941D01*
X161936816Y-86615029D01*
X161926195Y-86615271D01*
X161915662Y-86613792D01*
X161863832Y-86616694D01*
X161811943Y-86617878D01*
X161801562Y-86620181D01*
X161790951Y-86620775D01*
X161755564Y-86629864D01*
X161753265Y-86630082D01*
X161744349Y-86632744D01*
X161740676Y-86633687D01*
X161690001Y-86644929D01*
X161680270Y-86649202D01*
X161669972Y-86651847D01*
X161661597Y-86654963D01*
X161648335Y-86660002D01*
X161641209Y-86663540D01*
X161633580Y-86665818D01*
X161589743Y-86688955D01*
X161575636Y-86695150D01*
X161570930Y-86698434D01*
X161536459Y-86715549D01*
X161530150Y-86720408D01*
X161523116Y-86724121D01*
X161480733Y-86758471D01*
X161437504Y-86791768D01*
X161432265Y-86797753D01*
X161426079Y-86802767D01*
X161419763Y-86809089D01*
X161387613Y-86841719D01*
X161351230Y-86886688D01*
X161322208Y-86921512D01*
X161266038Y-86930798D01*
X161263059Y-86931595D01*
X161259980Y-86931829D01*
X161251189Y-86933433D01*
X161184863Y-86946011D01*
X161183746Y-86946338D01*
X161182596Y-86946446D01*
X161123805Y-86963910D01*
X161065001Y-86981148D01*
X161063978Y-86981682D01*
X161062862Y-86982013D01*
X161054608Y-86985440D01*
X160986280Y-87014365D01*
X160975934Y-87019993D01*
X160964826Y-87023915D01*
X160921151Y-87049793D01*
X160876557Y-87074051D01*
X160867499Y-87081583D01*
X160857366Y-87087587D01*
X160819546Y-87121457D01*
X160780516Y-87153912D01*
X160773097Y-87163056D01*
X160764320Y-87170916D01*
X160758323Y-87177541D01*
X160714762Y-87226343D01*
X160684771Y-87267391D01*
X160653295Y-87307332D01*
X160647976Y-87317753D01*
X160641075Y-87327198D01*
X160619628Y-87373289D01*
X160596509Y-87418582D01*
X160593301Y-87426923D01*
X160564340Y-87503805D01*
X160556335Y-87533596D01*
X160545415Y-87562460D01*
X160543145Y-87571103D01*
X160532064Y-87614508D01*
X160527123Y-87646717D01*
X160519188Y-87678331D01*
X160517931Y-87687178D01*
X160512180Y-87729771D01*
X160510968Y-87762995D01*
X160506718Y-87795991D01*
X160508695Y-87825275D01*
X160507625Y-87854594D01*
X160512891Y-87887434D01*
X160515131Y-87920614D01*
X160522755Y-87948948D01*
X160527402Y-87977925D01*
X160538945Y-88009115D01*
X160547587Y-88041229D01*
X160550798Y-88049568D01*
X160560835Y-88075099D01*
X160570022Y-88093082D01*
X160570756Y-88095065D01*
X160572431Y-88097797D01*
X160576953Y-88106649D01*
X160590342Y-88139453D01*
X160605300Y-88162136D01*
X160617661Y-88186331D01*
X160639601Y-88214150D01*
X160659106Y-88243728D01*
X160678185Y-88263074D01*
X160695009Y-88284406D01*
X160721932Y-88307432D01*
X160746812Y-88332660D01*
X160753718Y-88338332D01*
X160772302Y-88353380D01*
X160776557Y-88363476D01*
X160778278Y-88366653D01*
X160753975Y-88392348D01*
X160730906Y-88422081D01*
X160705590Y-88449933D01*
X160700304Y-88457138D01*
X160661319Y-88511055D01*
X160644623Y-88539663D01*
X160625363Y-88566623D01*
X160620957Y-88574397D01*
X160590746Y-88628585D01*
X160588893Y-88632839D01*
X160586303Y-88636691D01*
X160563959Y-88690070D01*
X160540858Y-88743095D01*
X160539867Y-88747627D01*
X160538074Y-88751909D01*
X160535504Y-88760468D01*
X160523367Y-88801937D01*
X160518925Y-88825416D01*
X160511682Y-88848191D01*
X160507341Y-88886640D01*
X160500147Y-88924666D01*
X160500350Y-88948570D01*
X160497670Y-88972310D01*
X160500879Y-89010869D01*
X160501208Y-89049568D01*
X160506047Y-89072964D01*
X160508030Y-89096785D01*
X160509699Y-89105564D01*
X160513015Y-89122375D01*
X160513847Y-89125137D01*
X160514151Y-89127998D01*
X160523948Y-89159508D01*
X160526508Y-89171885D01*
X160531397Y-89183466D01*
X160531851Y-89184928D01*
X160549030Y-89241976D01*
X160550378Y-89244516D01*
X160551235Y-89247272D01*
X160554767Y-89255481D01*
X160578506Y-89309634D01*
X160591336Y-89332523D01*
X160601485Y-89356710D01*
X160605785Y-89364544D01*
X160648207Y-89440564D01*
X160654273Y-89449304D01*
X160658847Y-89458910D01*
X160663511Y-89466532D01*
X160719660Y-89556873D01*
X160723401Y-89561755D01*
X160726232Y-89567226D01*
X160731147Y-89574689D01*
X160796065Y-89671810D01*
X160799409Y-89675887D01*
X160801976Y-89680499D01*
X160807115Y-89687810D01*
X160827182Y-89715942D01*
X160824447Y-89718358D01*
X160802918Y-89733402D01*
X160777742Y-89759605D01*
X160750514Y-89783651D01*
X160734580Y-89804527D01*
X160716379Y-89823471D01*
X160696776Y-89854058D01*
X160674732Y-89882940D01*
X160670083Y-89890572D01*
X160648282Y-89926924D01*
X160630565Y-89964317D01*
X160594803Y-90039790D01*
X160591842Y-90048222D01*
X160569391Y-90113599D01*
X160568884Y-90115736D01*
X160567982Y-90117746D01*
X160565198Y-90126237D01*
X160528207Y-90241719D01*
X160516710Y-90295073D01*
X160503899Y-90348114D01*
X160503569Y-90356054D01*
X160501895Y-90363823D01*
X160500980Y-90418380D01*
X160498715Y-90472913D01*
X160499934Y-90480769D01*
X160499801Y-90488711D01*
X160509499Y-90542404D01*
X160517870Y-90596342D01*
X160520590Y-90603807D01*
X160522003Y-90611628D01*
X160541952Y-90662429D01*
X160560635Y-90713699D01*
X160564754Y-90720494D01*
X160567659Y-90727892D01*
X160597101Y-90773859D01*
X160625381Y-90820515D01*
X160630739Y-90826379D01*
X160635027Y-90833073D01*
X160647604Y-90846171D01*
X160645618Y-90849194D01*
X160628791Y-90869387D01*
X160623820Y-90876812D01*
X160595192Y-90920221D01*
X160583369Y-90942640D01*
X160569030Y-90963525D01*
X160554310Y-90997746D01*
X160536929Y-91030706D01*
X160529689Y-91054986D01*
X160519675Y-91078266D01*
X160517021Y-91086799D01*
X160508761Y-91114030D01*
X160507237Y-91121675D01*
X160504851Y-91127825D01*
X160504521Y-91129694D01*
X160503464Y-91132484D01*
X160494680Y-91184665D01*
X160484342Y-91236526D01*
X160484332Y-91244159D01*
X160483155Y-91250833D01*
X160483198Y-91252879D01*
X160482730Y-91255657D01*
X160484249Y-91308550D01*
X160484181Y-91361432D01*
X160485616Y-91368731D01*
X160485762Y-91375712D01*
X160486241Y-91377890D01*
X160486316Y-91380512D01*
X160498073Y-91432077D01*
X160508282Y-91483990D01*
X160511034Y-91490692D01*
X160512576Y-91497706D01*
X160513541Y-91499915D01*
X160514083Y-91502292D01*
X160516970Y-91510749D01*
X160517029Y-91510918D01*
X160537469Y-91555064D01*
X160555731Y-91599533D01*
X160558971Y-91604423D01*
X160553433Y-91621152D01*
X160544101Y-91640571D01*
X160533846Y-91680319D01*
X160520949Y-91719276D01*
X160518281Y-91740646D01*
X160512896Y-91761516D01*
X160511581Y-91770355D01*
X160506205Y-91808286D01*
X160504030Y-91858777D01*
X160499968Y-91909166D01*
X160501345Y-91921088D01*
X160500829Y-91933076D01*
X160508500Y-91983014D01*
X160514144Y-92031863D01*
X160502541Y-92075148D01*
X160486790Y-92130363D01*
X160486367Y-92135481D01*
X160485040Y-92140432D01*
X160481232Y-92197658D01*
X160476509Y-92254846D01*
X160477088Y-92259942D01*
X160476747Y-92265062D01*
X160484129Y-92321958D01*
X160490601Y-92378954D01*
X160492532Y-92387679D01*
X160500653Y-92423199D01*
X160512430Y-92458442D01*
X160521377Y-92494510D01*
X160532180Y-92517541D01*
X160540242Y-92541665D01*
X160558637Y-92573944D01*
X160574421Y-92607593D01*
X160577973Y-92613474D01*
X160557956Y-92655944D01*
X160544986Y-92692295D01*
X160529330Y-92727584D01*
X160526580Y-92736087D01*
X160515017Y-92772705D01*
X160505502Y-92817762D01*
X160493678Y-92862282D01*
X160492620Y-92878764D01*
X160489209Y-92894915D01*
X160488626Y-92940961D01*
X160485675Y-92986932D01*
X160487838Y-93003304D01*
X160487629Y-93019812D01*
X160496001Y-93065094D01*
X160496375Y-93067924D01*
X160496448Y-93070465D01*
X160497071Y-93073198D01*
X160502034Y-93110762D01*
X160504125Y-93119450D01*
X160510142Y-93143716D01*
X160511960Y-93148842D01*
X160507024Y-93174854D01*
X160506286Y-93183760D01*
X160503440Y-93221226D01*
X160504433Y-93266514D01*
X160502988Y-93311827D01*
X160503639Y-93320740D01*
X160508399Y-93380239D01*
X160510207Y-93390314D01*
X160510350Y-93400547D01*
X160511408Y-93409420D01*
X160522964Y-93500888D01*
X160523229Y-93502055D01*
X160523267Y-93503250D01*
X160524482Y-93512103D01*
X160532482Y-93567525D01*
X160533647Y-93572265D01*
X160533944Y-93577136D01*
X160535416Y-93585950D01*
X160556860Y-93709021D01*
X160558338Y-93714357D01*
X160558847Y-93719871D01*
X160560594Y-93728635D01*
X160586770Y-93855350D01*
X160588160Y-93859821D01*
X160588724Y-93864476D01*
X160590721Y-93873186D01*
X160619402Y-93994449D01*
X160621357Y-94000156D01*
X160622279Y-94006125D01*
X160624560Y-94014766D01*
X160633934Y-94049306D01*
X160621763Y-94058763D01*
X160591545Y-94087385D01*
X160559518Y-94113975D01*
X160553277Y-94120371D01*
X160473728Y-94203037D01*
X160437115Y-94249398D01*
X160400042Y-94295324D01*
X160396390Y-94300967D01*
X160396315Y-94301062D01*
X160396264Y-94301162D01*
X160395187Y-94302826D01*
X160342070Y-94386164D01*
X160325129Y-94419539D01*
X160305632Y-94451465D01*
X160296933Y-94475090D01*
X160285536Y-94497544D01*
X160275405Y-94533557D01*
X160262474Y-94568677D01*
X160260281Y-94577340D01*
X160240943Y-94655991D01*
X160233405Y-94708216D01*
X160224281Y-94760204D01*
X160224493Y-94769958D01*
X160223099Y-94779616D01*
X160225848Y-94832305D01*
X160226995Y-94885080D01*
X160228122Y-94893945D01*
X160232401Y-94925814D01*
X160240075Y-94958417D01*
X160244760Y-94991584D01*
X160254352Y-95019068D01*
X160261020Y-95047397D01*
X160274876Y-95077879D01*
X160285917Y-95109514D01*
X160289728Y-95117597D01*
X160326535Y-95194284D01*
X160334364Y-95207190D01*
X160340195Y-95221107D01*
X160366696Y-95260494D01*
X160391314Y-95301080D01*
X160401495Y-95312214D01*
X160409922Y-95324739D01*
X160415659Y-95331591D01*
X160487370Y-95416047D01*
X160521366Y-95448952D01*
X160553765Y-95483440D01*
X160560531Y-95489277D01*
X160591498Y-95515621D01*
X160566447Y-95539285D01*
X160534658Y-95565540D01*
X160521149Y-95582075D01*
X160505628Y-95596737D01*
X160481731Y-95630325D01*
X160455633Y-95662269D01*
X160450734Y-95669743D01*
X160413363Y-95727627D01*
X160410870Y-95732468D01*
X160401851Y-95742071D01*
X160359918Y-95786431D01*
X160359374Y-95787295D01*
X160358663Y-95788052D01*
X160325914Y-95840451D01*
X160293379Y-95892138D01*
X160293013Y-95893092D01*
X160292463Y-95893972D01*
X160270618Y-95951466D01*
X160248638Y-96008756D01*
X160248462Y-96009776D01*
X160248098Y-96010734D01*
X160237883Y-96071094D01*
X160227402Y-96131844D01*
X160227427Y-96132871D01*
X160227255Y-96133889D01*
X160226693Y-96142807D01*
X160224493Y-96182091D01*
X160225676Y-96210383D01*
X160223829Y-96238633D01*
X160228279Y-96272627D01*
X160229712Y-96306888D01*
X160236367Y-96334405D01*
X160240042Y-96362481D01*
X160242122Y-96371172D01*
X160254514Y-96421402D01*
X160258938Y-96433925D01*
X160261386Y-96446967D01*
X160279705Y-96492704D01*
X160296123Y-96539174D01*
X160302890Y-96550590D01*
X160307828Y-96562918D01*
X160312000Y-96570820D01*
X160337176Y-96617717D01*
X160357549Y-96648117D01*
X160375398Y-96680080D01*
X160380547Y-96687384D01*
X160386134Y-96695193D01*
X160412235Y-96734727D01*
X160453414Y-96799940D01*
X160501984Y-96879347D01*
X160517468Y-96904708D01*
X160524235Y-96913686D01*
X160529486Y-96923641D01*
X160534460Y-96931065D01*
X160649692Y-97100544D01*
X160664130Y-97117865D01*
X160676294Y-97136854D01*
X160681875Y-97143833D01*
X160806478Y-97297469D01*
X160822972Y-97314170D01*
X160837304Y-97332754D01*
X160843471Y-97339221D01*
X160973030Y-97473202D01*
X160993539Y-97490632D01*
X161011986Y-97510241D01*
X161018757Y-97516074D01*
X161148854Y-97626590D01*
X161177059Y-97646155D01*
X161203430Y-97668130D01*
X161210855Y-97673102D01*
X161337071Y-97756340D01*
X161380254Y-97779111D01*
X161422418Y-97803708D01*
X161430565Y-97807379D01*
X161548485Y-97859529D01*
X161562030Y-97863997D01*
X161574749Y-97870453D01*
X161621253Y-97883534D01*
X161667103Y-97898660D01*
X161681250Y-97900411D01*
X161694988Y-97904276D01*
X161703797Y-97905782D01*
X161809002Y-97923031D01*
X161835247Y-97924733D01*
X161860165Y-97929275D01*
X161886484Y-97928876D01*
X161913090Y-97931462D01*
X161922025Y-97931392D01*
X161922430Y-97931386D01*
X161928048Y-97930751D01*
X161933646Y-97931114D01*
X161959040Y-97927776D01*
X161985056Y-97927381D01*
X161993928Y-97926312D01*
X162147041Y-97906782D01*
X162157131Y-97904477D01*
X162167462Y-97903842D01*
X162217956Y-97890580D01*
X162268809Y-97878962D01*
X162278252Y-97874744D01*
X162288270Y-97872113D01*
X162296628Y-97868951D01*
X162430318Y-97817321D01*
X162447573Y-97808636D01*
X162460001Y-97804365D01*
X162460001Y-100294043D01*
X162422167Y-100679908D01*
X162320547Y-101016489D01*
X162155487Y-101326922D01*
X161933275Y-101599381D01*
X161662373Y-101823489D01*
X161353100Y-101990713D01*
X161017236Y-102094680D01*
X160633619Y-102135000D01*
X151880748Y-102135000D01*
X151922932Y-102033158D01*
X151980000Y-101746260D01*
X151980000Y-101453740D01*
X151922932Y-101166842D01*
X151913885Y-101145001D01*
X152758898Y-101145001D01*
X152881509Y-101182196D01*
X153054999Y-101199282D01*
X153228489Y-101182196D01*
X153395312Y-101131589D01*
X153549058Y-101049411D01*
X153650045Y-100966533D01*
X154086039Y-100530539D01*
X154158740Y-100545000D01*
X154451260Y-100545000D01*
X154738158Y-100487932D01*
X155008411Y-100375990D01*
X155251632Y-100213475D01*
X155458475Y-100006632D01*
X155575000Y-99832240D01*
X155691525Y-100006632D01*
X155898368Y-100213475D01*
X156141589Y-100375990D01*
X156411842Y-100487932D01*
X156698740Y-100545000D01*
X156991260Y-100545000D01*
X157278158Y-100487932D01*
X157548411Y-100375990D01*
X157791632Y-100213475D01*
X157998475Y-100006632D01*
X158115000Y-99832240D01*
X158231525Y-100006632D01*
X158438368Y-100213475D01*
X158681589Y-100375990D01*
X158951842Y-100487932D01*
X159238740Y-100545000D01*
X159531260Y-100545000D01*
X159818158Y-100487932D01*
X160088411Y-100375990D01*
X160331632Y-100213475D01*
X160538475Y-100006632D01*
X160700990Y-99763411D01*
X160812932Y-99493158D01*
X160870000Y-99206260D01*
X160870000Y-98913740D01*
X160812932Y-98626842D01*
X160700990Y-98356589D01*
X160538475Y-98113368D01*
X160331632Y-97906525D01*
X160088411Y-97744010D01*
X159818158Y-97632068D01*
X159531260Y-97575000D01*
X159238740Y-97575000D01*
X159166040Y-97589461D01*
X153310534Y-91733956D01*
X153282817Y-91700183D01*
X153148059Y-91589589D01*
X152994313Y-91507411D01*
X152827490Y-91456805D01*
X152697477Y-91444000D01*
X152697469Y-91444000D01*
X152654000Y-91439719D01*
X152610531Y-91444000D01*
X150990300Y-91444000D01*
X150990300Y-91419885D01*
X150952720Y-91230957D01*
X150879004Y-91052990D01*
X150771985Y-90892825D01*
X150635775Y-90756615D01*
X150475610Y-90649596D01*
X150297643Y-90575880D01*
X150108715Y-90538300D01*
X149916085Y-90538300D01*
X149727157Y-90575880D01*
X149593602Y-90631200D01*
X139419227Y-90631200D01*
X139131493Y-90343467D01*
X139265785Y-90209175D01*
X139372804Y-90049010D01*
X139428125Y-89915454D01*
X140752379Y-88591200D01*
X157461931Y-88591200D01*
X157505400Y-88595481D01*
X157548869Y-88591200D01*
X157548877Y-88591200D01*
X157678890Y-88578395D01*
X157845713Y-88527789D01*
X157999459Y-88445611D01*
X158134217Y-88335017D01*
X158161934Y-88301244D01*
X161250049Y-85213130D01*
X161283817Y-85185417D01*
X161394411Y-85050659D01*
X161476589Y-84896913D01*
X161527195Y-84730090D01*
X161540000Y-84600077D01*
X161540000Y-84600067D01*
X161544281Y-84556601D01*
X161540000Y-84513134D01*
X161540000Y-82474656D01*
X161601632Y-82433475D01*
X161808475Y-82226632D01*
X161970990Y-81983411D01*
X162082932Y-81713158D01*
X162122985Y-81511798D01*
X162148490Y-81542627D01*
G37*
X162148490Y-81542627D02*
X162315712Y-81851896D01*
X162419680Y-82187760D01*
X162460000Y-82571382D01*
X162460000Y-86799638D01*
X162412422Y-86780724D01*
X162411141Y-86780487D01*
X162409924Y-86780009D01*
X162349825Y-86769144D01*
X162307378Y-86761292D01*
X162278098Y-86742210D01*
X162238941Y-86714116D01*
X162225865Y-86708168D01*
X162213825Y-86700322D01*
X162205869Y-86696253D01*
X162176403Y-86681438D01*
X162166490Y-86677614D01*
X162157316Y-86672233D01*
X162108272Y-86655158D01*
X162059865Y-86636487D01*
X162049398Y-86634662D01*
X162039354Y-86631165D01*
X161987923Y-86623941D01*
X161936816Y-86615029D01*
X161926195Y-86615271D01*
X161915662Y-86613792D01*
X161863832Y-86616694D01*
X161811943Y-86617878D01*
X161801562Y-86620181D01*
X161790951Y-86620775D01*
X161755564Y-86629864D01*
X161753265Y-86630082D01*
X161744349Y-86632744D01*
X161740676Y-86633687D01*
X161690001Y-86644929D01*
X161680270Y-86649202D01*
X161669972Y-86651847D01*
X161661597Y-86654963D01*
X161648335Y-86660002D01*
X161641209Y-86663540D01*
X161633580Y-86665818D01*
X161589743Y-86688955D01*
X161575636Y-86695150D01*
X161570930Y-86698434D01*
X161536459Y-86715549D01*
X161530150Y-86720408D01*
X161523116Y-86724121D01*
X161480733Y-86758471D01*
X161437504Y-86791768D01*
X161432265Y-86797753D01*
X161426079Y-86802767D01*
X161419763Y-86809089D01*
X161387613Y-86841719D01*
X161351230Y-86886688D01*
X161322208Y-86921512D01*
X161266038Y-86930798D01*
X161263059Y-86931595D01*
X161259980Y-86931829D01*
X161251189Y-86933433D01*
X161184863Y-86946011D01*
X161183746Y-86946338D01*
X161182596Y-86946446D01*
X161123805Y-86963910D01*
X161065001Y-86981148D01*
X161063978Y-86981682D01*
X161062862Y-86982013D01*
X161054608Y-86985440D01*
X160986280Y-87014365D01*
X160975934Y-87019993D01*
X160964826Y-87023915D01*
X160921151Y-87049793D01*
X160876557Y-87074051D01*
X160867499Y-87081583D01*
X160857366Y-87087587D01*
X160819546Y-87121457D01*
X160780516Y-87153912D01*
X160773097Y-87163056D01*
X160764320Y-87170916D01*
X160758323Y-87177541D01*
X160714762Y-87226343D01*
X160684771Y-87267391D01*
X160653295Y-87307332D01*
X160647976Y-87317753D01*
X160641075Y-87327198D01*
X160619628Y-87373289D01*
X160596509Y-87418582D01*
X160593301Y-87426923D01*
X160564340Y-87503805D01*
X160556335Y-87533596D01*
X160545415Y-87562460D01*
X160543145Y-87571103D01*
X160532064Y-87614508D01*
X160527123Y-87646717D01*
X160519188Y-87678331D01*
X160517931Y-87687178D01*
X160512180Y-87729771D01*
X160510968Y-87762995D01*
X160506718Y-87795991D01*
X160508695Y-87825275D01*
X160507625Y-87854594D01*
X160512891Y-87887434D01*
X160515131Y-87920614D01*
X160522755Y-87948948D01*
X160527402Y-87977925D01*
X160538945Y-88009115D01*
X160547587Y-88041229D01*
X160550798Y-88049568D01*
X160560835Y-88075099D01*
X160570022Y-88093082D01*
X160570756Y-88095065D01*
X160572431Y-88097797D01*
X160576953Y-88106649D01*
X160590342Y-88139453D01*
X160605300Y-88162136D01*
X160617661Y-88186331D01*
X160639601Y-88214150D01*
X160659106Y-88243728D01*
X160678185Y-88263074D01*
X160695009Y-88284406D01*
X160721932Y-88307432D01*
X160746812Y-88332660D01*
X160753718Y-88338332D01*
X160772302Y-88353380D01*
X160776557Y-88363476D01*
X160778278Y-88366653D01*
X160753975Y-88392348D01*
X160730906Y-88422081D01*
X160705590Y-88449933D01*
X160700304Y-88457138D01*
X160661319Y-88511055D01*
X160644623Y-88539663D01*
X160625363Y-88566623D01*
X160620957Y-88574397D01*
X160590746Y-88628585D01*
X160588893Y-88632839D01*
X160586303Y-88636691D01*
X160563959Y-88690070D01*
X160540858Y-88743095D01*
X160539867Y-88747627D01*
X160538074Y-88751909D01*
X160535504Y-88760468D01*
X160523367Y-88801937D01*
X160518925Y-88825416D01*
X160511682Y-88848191D01*
X160507341Y-88886640D01*
X160500147Y-88924666D01*
X160500350Y-88948570D01*
X160497670Y-88972310D01*
X160500879Y-89010869D01*
X160501208Y-89049568D01*
X160506047Y-89072964D01*
X160508030Y-89096785D01*
X160509699Y-89105564D01*
X160513015Y-89122375D01*
X160513847Y-89125137D01*
X160514151Y-89127998D01*
X160523948Y-89159508D01*
X160526508Y-89171885D01*
X160531397Y-89183466D01*
X160531851Y-89184928D01*
X160549030Y-89241976D01*
X160550378Y-89244516D01*
X160551235Y-89247272D01*
X160554767Y-89255481D01*
X160578506Y-89309634D01*
X160591336Y-89332523D01*
X160601485Y-89356710D01*
X160605785Y-89364544D01*
X160648207Y-89440564D01*
X160654273Y-89449304D01*
X160658847Y-89458910D01*
X160663511Y-89466532D01*
X160719660Y-89556873D01*
X160723401Y-89561755D01*
X160726232Y-89567226D01*
X160731147Y-89574689D01*
X160796065Y-89671810D01*
X160799409Y-89675887D01*
X160801976Y-89680499D01*
X160807115Y-89687810D01*
X160827182Y-89715942D01*
X160824447Y-89718358D01*
X160802918Y-89733402D01*
X160777742Y-89759605D01*
X160750514Y-89783651D01*
X160734580Y-89804527D01*
X160716379Y-89823471D01*
X160696776Y-89854058D01*
X160674732Y-89882940D01*
X160670083Y-89890572D01*
X160648282Y-89926924D01*
X160630565Y-89964317D01*
X160594803Y-90039790D01*
X160591842Y-90048222D01*
X160569391Y-90113599D01*
X160568884Y-90115736D01*
X160567982Y-90117746D01*
X160565198Y-90126237D01*
X160528207Y-90241719D01*
X160516710Y-90295073D01*
X160503899Y-90348114D01*
X160503569Y-90356054D01*
X160501895Y-90363823D01*
X160500980Y-90418380D01*
X160498715Y-90472913D01*
X160499934Y-90480769D01*
X160499801Y-90488711D01*
X160509499Y-90542404D01*
X160517870Y-90596342D01*
X160520590Y-90603807D01*
X160522003Y-90611628D01*
X160541952Y-90662429D01*
X160560635Y-90713699D01*
X160564754Y-90720494D01*
X160567659Y-90727892D01*
X160597101Y-90773859D01*
X160625381Y-90820515D01*
X160630739Y-90826379D01*
X160635027Y-90833073D01*
X160647604Y-90846171D01*
X160645618Y-90849194D01*
X160628791Y-90869387D01*
X160623820Y-90876812D01*
X160595192Y-90920221D01*
X160583369Y-90942640D01*
X160569030Y-90963525D01*
X160554310Y-90997746D01*
X160536929Y-91030706D01*
X160529689Y-91054986D01*
X160519675Y-91078266D01*
X160517021Y-91086799D01*
X160508761Y-91114030D01*
X160507237Y-91121675D01*
X160504851Y-91127825D01*
X160504521Y-91129694D01*
X160503464Y-91132484D01*
X160494680Y-91184665D01*
X160484342Y-91236526D01*
X160484332Y-91244159D01*
X160483155Y-91250833D01*
X160483198Y-91252879D01*
X160482730Y-91255657D01*
X160484249Y-91308550D01*
X160484181Y-91361432D01*
X160485616Y-91368731D01*
X160485762Y-91375712D01*
X160486241Y-91377890D01*
X160486316Y-91380512D01*
X160498073Y-91432077D01*
X160508282Y-91483990D01*
X160511034Y-91490692D01*
X160512576Y-91497706D01*
X160513541Y-91499915D01*
X160514083Y-91502292D01*
X160516970Y-91510749D01*
X160517029Y-91510918D01*
X160537469Y-91555064D01*
X160555731Y-91599533D01*
X160558971Y-91604423D01*
X160553433Y-91621152D01*
X160544101Y-91640571D01*
X160533846Y-91680319D01*
X160520949Y-91719276D01*
X160518281Y-91740646D01*
X160512896Y-91761516D01*
X160511581Y-91770355D01*
X160506205Y-91808286D01*
X160504030Y-91858777D01*
X160499968Y-91909166D01*
X160501345Y-91921088D01*
X160500829Y-91933076D01*
X160508500Y-91983014D01*
X160514144Y-92031863D01*
X160502541Y-92075148D01*
X160486790Y-92130363D01*
X160486367Y-92135481D01*
X160485040Y-92140432D01*
X160481232Y-92197658D01*
X160476509Y-92254846D01*
X160477088Y-92259942D01*
X160476747Y-92265062D01*
X160484129Y-92321958D01*
X160490601Y-92378954D01*
X160492532Y-92387679D01*
X160500653Y-92423199D01*
X160512430Y-92458442D01*
X160521377Y-92494510D01*
X160532180Y-92517541D01*
X160540242Y-92541665D01*
X160558637Y-92573944D01*
X160574421Y-92607593D01*
X160577973Y-92613474D01*
X160557956Y-92655944D01*
X160544986Y-92692295D01*
X160529330Y-92727584D01*
X160526580Y-92736087D01*
X160515017Y-92772705D01*
X160505502Y-92817762D01*
X160493678Y-92862282D01*
X160492620Y-92878764D01*
X160489209Y-92894915D01*
X160488626Y-92940961D01*
X160485675Y-92986932D01*
X160487838Y-93003304D01*
X160487629Y-93019812D01*
X160496001Y-93065094D01*
X160496375Y-93067924D01*
X160496448Y-93070465D01*
X160497071Y-93073198D01*
X160502034Y-93110762D01*
X160504125Y-93119450D01*
X160510142Y-93143716D01*
X160511960Y-93148842D01*
X160507024Y-93174854D01*
X160506286Y-93183760D01*
X160503440Y-93221226D01*
X160504433Y-93266514D01*
X160502988Y-93311827D01*
X160503639Y-93320740D01*
X160508399Y-93380239D01*
X160510207Y-93390314D01*
X160510350Y-93400547D01*
X160511408Y-93409420D01*
X160522964Y-93500888D01*
X160523229Y-93502055D01*
X160523267Y-93503250D01*
X160524482Y-93512103D01*
X160532482Y-93567525D01*
X160533647Y-93572265D01*
X160533944Y-93577136D01*
X160535416Y-93585950D01*
X160556860Y-93709021D01*
X160558338Y-93714357D01*
X160558847Y-93719871D01*
X160560594Y-93728635D01*
X160586770Y-93855350D01*
X160588160Y-93859821D01*
X160588724Y-93864476D01*
X160590721Y-93873186D01*
X160619402Y-93994449D01*
X160621357Y-94000156D01*
X160622279Y-94006125D01*
X160624560Y-94014766D01*
X160633934Y-94049306D01*
X160621763Y-94058763D01*
X160591545Y-94087385D01*
X160559518Y-94113975D01*
X160553277Y-94120371D01*
X160473728Y-94203037D01*
X160437115Y-94249398D01*
X160400042Y-94295324D01*
X160396390Y-94300967D01*
X160396315Y-94301062D01*
X160396264Y-94301162D01*
X160395187Y-94302826D01*
X160342070Y-94386164D01*
X160325129Y-94419539D01*
X160305632Y-94451465D01*
X160296933Y-94475090D01*
X160285536Y-94497544D01*
X160275405Y-94533557D01*
X160262474Y-94568677D01*
X160260281Y-94577340D01*
X160240943Y-94655991D01*
X160233405Y-94708216D01*
X160224281Y-94760204D01*
X160224493Y-94769958D01*
X160223099Y-94779616D01*
X160225848Y-94832305D01*
X160226995Y-94885080D01*
X160228122Y-94893945D01*
X160232401Y-94925814D01*
X160240075Y-94958417D01*
X160244760Y-94991584D01*
X160254352Y-95019068D01*
X160261020Y-95047397D01*
X160274876Y-95077879D01*
X160285917Y-95109514D01*
X160289728Y-95117597D01*
X160326535Y-95194284D01*
X160334364Y-95207190D01*
X160340195Y-95221107D01*
X160366696Y-95260494D01*
X160391314Y-95301080D01*
X160401495Y-95312214D01*
X160409922Y-95324739D01*
X160415659Y-95331591D01*
X160487370Y-95416047D01*
X160521366Y-95448952D01*
X160553765Y-95483440D01*
X160560531Y-95489277D01*
X160591498Y-95515621D01*
X160566447Y-95539285D01*
X160534658Y-95565540D01*
X160521149Y-95582075D01*
X160505628Y-95596737D01*
X160481731Y-95630325D01*
X160455633Y-95662269D01*
X160450734Y-95669743D01*
X160413363Y-95727627D01*
X160410870Y-95732468D01*
X160401851Y-95742071D01*
X160359918Y-95786431D01*
X160359374Y-95787295D01*
X160358663Y-95788052D01*
X160325914Y-95840451D01*
X160293379Y-95892138D01*
X160293013Y-95893092D01*
X160292463Y-95893972D01*
X160270618Y-95951466D01*
X160248638Y-96008756D01*
X160248462Y-96009776D01*
X160248098Y-96010734D01*
X160237883Y-96071094D01*
X160227402Y-96131844D01*
X160227427Y-96132871D01*
X160227255Y-96133889D01*
X160226693Y-96142807D01*
X160224493Y-96182091D01*
X160225676Y-96210383D01*
X160223829Y-96238633D01*
X160228279Y-96272627D01*
X160229712Y-96306888D01*
X160236367Y-96334405D01*
X160240042Y-96362481D01*
X160242122Y-96371172D01*
X160254514Y-96421402D01*
X160258938Y-96433925D01*
X160261386Y-96446967D01*
X160279705Y-96492704D01*
X160296123Y-96539174D01*
X160302890Y-96550590D01*
X160307828Y-96562918D01*
X160312000Y-96570820D01*
X160337176Y-96617717D01*
X160357549Y-96648117D01*
X160375398Y-96680080D01*
X160380547Y-96687384D01*
X160386134Y-96695193D01*
X160412235Y-96734727D01*
X160453414Y-96799940D01*
X160501984Y-96879347D01*
X160517468Y-96904708D01*
X160524235Y-96913686D01*
X160529486Y-96923641D01*
X160534460Y-96931065D01*
X160649692Y-97100544D01*
X160664130Y-97117865D01*
X160676294Y-97136854D01*
X160681875Y-97143833D01*
X160806478Y-97297469D01*
X160822972Y-97314170D01*
X160837304Y-97332754D01*
X160843471Y-97339221D01*
X160973030Y-97473202D01*
X160993539Y-97490632D01*
X161011986Y-97510241D01*
X161018757Y-97516074D01*
X161148854Y-97626590D01*
X161177059Y-97646155D01*
X161203430Y-97668130D01*
X161210855Y-97673102D01*
X161337071Y-97756340D01*
X161380254Y-97779111D01*
X161422418Y-97803708D01*
X161430565Y-97807379D01*
X161548485Y-97859529D01*
X161562030Y-97863997D01*
X161574749Y-97870453D01*
X161621253Y-97883534D01*
X161667103Y-97898660D01*
X161681250Y-97900411D01*
X161694988Y-97904276D01*
X161703797Y-97905782D01*
X161809002Y-97923031D01*
X161835247Y-97924733D01*
X161860165Y-97929275D01*
X161886484Y-97928876D01*
X161913090Y-97931462D01*
X161922025Y-97931392D01*
X161922430Y-97931386D01*
X161928048Y-97930751D01*
X161933646Y-97931114D01*
X161959040Y-97927776D01*
X161985056Y-97927381D01*
X161993928Y-97926312D01*
X162147041Y-97906782D01*
X162157131Y-97904477D01*
X162167462Y-97903842D01*
X162217956Y-97890580D01*
X162268809Y-97878962D01*
X162278252Y-97874744D01*
X162288270Y-97872113D01*
X162296628Y-97868951D01*
X162430318Y-97817321D01*
X162447573Y-97808636D01*
X162460001Y-97804365D01*
X162460001Y-100294043D01*
X162422167Y-100679908D01*
X162320547Y-101016489D01*
X162155487Y-101326922D01*
X161933275Y-101599381D01*
X161662373Y-101823489D01*
X161353100Y-101990713D01*
X161017236Y-102094680D01*
X160633619Y-102135000D01*
X151880748Y-102135000D01*
X151922932Y-102033158D01*
X151980000Y-101746260D01*
X151980000Y-101453740D01*
X151922932Y-101166842D01*
X151913885Y-101145001D01*
X152758898Y-101145001D01*
X152881509Y-101182196D01*
X153054999Y-101199282D01*
X153228489Y-101182196D01*
X153395312Y-101131589D01*
X153549058Y-101049411D01*
X153650045Y-100966533D01*
X154086039Y-100530539D01*
X154158740Y-100545000D01*
X154451260Y-100545000D01*
X154738158Y-100487932D01*
X155008411Y-100375990D01*
X155251632Y-100213475D01*
X155458475Y-100006632D01*
X155575000Y-99832240D01*
X155691525Y-100006632D01*
X155898368Y-100213475D01*
X156141589Y-100375990D01*
X156411842Y-100487932D01*
X156698740Y-100545000D01*
X156991260Y-100545000D01*
X157278158Y-100487932D01*
X157548411Y-100375990D01*
X157791632Y-100213475D01*
X157998475Y-100006632D01*
X158115000Y-99832240D01*
X158231525Y-100006632D01*
X158438368Y-100213475D01*
X158681589Y-100375990D01*
X158951842Y-100487932D01*
X159238740Y-100545000D01*
X159531260Y-100545000D01*
X159818158Y-100487932D01*
X160088411Y-100375990D01*
X160331632Y-100213475D01*
X160538475Y-100006632D01*
X160700990Y-99763411D01*
X160812932Y-99493158D01*
X160870000Y-99206260D01*
X160870000Y-98913740D01*
X160812932Y-98626842D01*
X160700990Y-98356589D01*
X160538475Y-98113368D01*
X160331632Y-97906525D01*
X160088411Y-97744010D01*
X159818158Y-97632068D01*
X159531260Y-97575000D01*
X159238740Y-97575000D01*
X159166040Y-97589461D01*
X153310534Y-91733956D01*
X153282817Y-91700183D01*
X153148059Y-91589589D01*
X152994313Y-91507411D01*
X152827490Y-91456805D01*
X152697477Y-91444000D01*
X152697469Y-91444000D01*
X152654000Y-91439719D01*
X152610531Y-91444000D01*
X150990300Y-91444000D01*
X150990300Y-91419885D01*
X150952720Y-91230957D01*
X150879004Y-91052990D01*
X150771985Y-90892825D01*
X150635775Y-90756615D01*
X150475610Y-90649596D01*
X150297643Y-90575880D01*
X150108715Y-90538300D01*
X149916085Y-90538300D01*
X149727157Y-90575880D01*
X149593602Y-90631200D01*
X139419227Y-90631200D01*
X139131493Y-90343467D01*
X139265785Y-90209175D01*
X139372804Y-90049010D01*
X139428125Y-89915454D01*
X140752379Y-88591200D01*
X157461931Y-88591200D01*
X157505400Y-88595481D01*
X157548869Y-88591200D01*
X157548877Y-88591200D01*
X157678890Y-88578395D01*
X157845713Y-88527789D01*
X157999459Y-88445611D01*
X158134217Y-88335017D01*
X158161934Y-88301244D01*
X161250049Y-85213130D01*
X161283817Y-85185417D01*
X161394411Y-85050659D01*
X161476589Y-84896913D01*
X161527195Y-84730090D01*
X161540000Y-84600077D01*
X161540000Y-84600067D01*
X161544281Y-84556601D01*
X161540000Y-84513134D01*
X161540000Y-82474656D01*
X161601632Y-82433475D01*
X161808475Y-82226632D01*
X161970990Y-81983411D01*
X162082932Y-81713158D01*
X162122985Y-81511798D01*
X162148490Y-81542627D01*
G36*
X121127068Y-81713158D02*
G01*
X121239010Y-81983411D01*
X121401525Y-82226632D01*
X121608368Y-82433475D01*
X121851589Y-82595990D01*
X122121842Y-82707932D01*
X122408740Y-82765000D01*
X122701260Y-82765000D01*
X122799418Y-82745475D01*
X122671525Y-82873368D01*
X122509010Y-83116589D01*
X122397068Y-83386842D01*
X122340000Y-83673740D01*
X122340000Y-83966260D01*
X122397068Y-84253158D01*
X122509010Y-84523411D01*
X122671525Y-84766632D01*
X122878368Y-84973475D01*
X123121589Y-85135990D01*
X123391842Y-85247932D01*
X123678740Y-85305000D01*
X123971260Y-85305000D01*
X124210000Y-85257511D01*
X124210001Y-97423420D01*
X124043960Y-97589461D01*
X123971260Y-97575000D01*
X123678740Y-97575000D01*
X123391842Y-97632068D01*
X123121589Y-97744010D01*
X122878368Y-97906525D01*
X122671525Y-98113368D01*
X122509010Y-98356589D01*
X122397068Y-98626842D01*
X122340000Y-98913740D01*
X122340000Y-99206260D01*
X122397068Y-99493158D01*
X122509010Y-99763411D01*
X122671525Y-100006632D01*
X122799418Y-100134525D01*
X122701260Y-100115000D01*
X122408740Y-100115000D01*
X122121842Y-100172068D01*
X121851589Y-100284010D01*
X121608368Y-100446525D01*
X121401525Y-100653368D01*
X121239010Y-100896589D01*
X121127068Y-101166842D01*
X121087015Y-101368202D01*
X121061511Y-101337373D01*
X120894287Y-101028100D01*
X120790320Y-100692236D01*
X120750000Y-100308619D01*
X120750000Y-82585947D01*
X120787833Y-82200093D01*
X120889453Y-81863511D01*
X121054512Y-81553079D01*
X121087243Y-81512947D01*
X121127068Y-81713158D01*
G37*
X121127068Y-81713158D02*
X121239010Y-81983411D01*
X121401525Y-82226632D01*
X121608368Y-82433475D01*
X121851589Y-82595990D01*
X122121842Y-82707932D01*
X122408740Y-82765000D01*
X122701260Y-82765000D01*
X122799418Y-82745475D01*
X122671525Y-82873368D01*
X122509010Y-83116589D01*
X122397068Y-83386842D01*
X122340000Y-83673740D01*
X122340000Y-83966260D01*
X122397068Y-84253158D01*
X122509010Y-84523411D01*
X122671525Y-84766632D01*
X122878368Y-84973475D01*
X123121589Y-85135990D01*
X123391842Y-85247932D01*
X123678740Y-85305000D01*
X123971260Y-85305000D01*
X124210000Y-85257511D01*
X124210001Y-97423420D01*
X124043960Y-97589461D01*
X123971260Y-97575000D01*
X123678740Y-97575000D01*
X123391842Y-97632068D01*
X123121589Y-97744010D01*
X122878368Y-97906525D01*
X122671525Y-98113368D01*
X122509010Y-98356589D01*
X122397068Y-98626842D01*
X122340000Y-98913740D01*
X122340000Y-99206260D01*
X122397068Y-99493158D01*
X122509010Y-99763411D01*
X122671525Y-100006632D01*
X122799418Y-100134525D01*
X122701260Y-100115000D01*
X122408740Y-100115000D01*
X122121842Y-100172068D01*
X121851589Y-100284010D01*
X121608368Y-100446525D01*
X121401525Y-100653368D01*
X121239010Y-100896589D01*
X121127068Y-101166842D01*
X121087015Y-101368202D01*
X121061511Y-101337373D01*
X120894287Y-101028100D01*
X120790320Y-100692236D01*
X120750000Y-100308619D01*
X120750000Y-82585947D01*
X120787833Y-82200093D01*
X120889453Y-81863511D01*
X121054512Y-81553079D01*
X121087243Y-81512947D01*
X121127068Y-81713158D01*
G36*
X131572000Y-98933000D02*
G01*
X131592000Y-98933000D01*
X131592000Y-99187000D01*
X131572000Y-99187000D01*
X131572000Y-100380155D01*
X131743979Y-100470914D01*
X131561525Y-100653368D01*
X131445000Y-100827760D01*
X131328475Y-100653368D01*
X131146021Y-100470914D01*
X131318000Y-100380155D01*
X131318000Y-99187000D01*
X131298000Y-99187000D01*
X131298000Y-98933000D01*
X131318000Y-98933000D01*
X131318000Y-98913000D01*
X131572000Y-98913000D01*
X131572000Y-98933000D01*
G37*
X131572000Y-98933000D02*
X131592000Y-98933000D01*
X131592000Y-99187000D01*
X131572000Y-99187000D01*
X131572000Y-100380155D01*
X131743979Y-100470914D01*
X131561525Y-100653368D01*
X131445000Y-100827760D01*
X131328475Y-100653368D01*
X131146021Y-100470914D01*
X131318000Y-100380155D01*
X131318000Y-99187000D01*
X131298000Y-99187000D01*
X131298000Y-98933000D01*
X131318000Y-98933000D01*
X131318000Y-98913000D01*
X131572000Y-98913000D01*
X131572000Y-98933000D01*
G36*
X136922222Y-92924049D02*
G01*
X136949935Y-92957817D01*
X136983703Y-92985530D01*
X136983705Y-92985532D01*
X137046391Y-93036977D01*
X137084693Y-93068411D01*
X137238439Y-93150589D01*
X137405262Y-93201195D01*
X137535275Y-93214000D01*
X137535285Y-93214000D01*
X137578751Y-93218281D01*
X137622217Y-93214000D01*
X152287422Y-93214000D01*
X156656770Y-97583348D01*
X156411842Y-97632068D01*
X156141589Y-97744010D01*
X155898368Y-97906525D01*
X155691525Y-98113368D01*
X155575000Y-98287760D01*
X155458475Y-98113368D01*
X155251632Y-97906525D01*
X155008411Y-97744010D01*
X154738158Y-97632068D01*
X154451260Y-97575000D01*
X154158740Y-97575000D01*
X153871842Y-97632068D01*
X153601589Y-97744010D01*
X153358368Y-97906525D01*
X153151525Y-98113368D01*
X153035000Y-98287760D01*
X152918475Y-98113368D01*
X152711632Y-97906525D01*
X152468411Y-97744010D01*
X152198158Y-97632068D01*
X151911260Y-97575000D01*
X151618740Y-97575000D01*
X151331842Y-97632068D01*
X151061589Y-97744010D01*
X150818368Y-97906525D01*
X150611525Y-98113368D01*
X150495000Y-98287760D01*
X150378475Y-98113368D01*
X150171632Y-97906525D01*
X149928411Y-97744010D01*
X149658158Y-97632068D01*
X149371260Y-97575000D01*
X149078740Y-97575000D01*
X149006040Y-97589461D01*
X148738400Y-97321822D01*
X148738400Y-96684798D01*
X148793720Y-96551243D01*
X148831300Y-96362315D01*
X148831300Y-96169685D01*
X148793720Y-95980757D01*
X148720004Y-95802790D01*
X148612985Y-95642625D01*
X148476775Y-95506415D01*
X148316610Y-95399396D01*
X148138643Y-95325680D01*
X147949715Y-95288100D01*
X147757085Y-95288100D01*
X147568157Y-95325680D01*
X147390190Y-95399396D01*
X147230025Y-95506415D01*
X147093815Y-95642625D01*
X146986796Y-95802790D01*
X146913080Y-95980757D01*
X146875500Y-96169685D01*
X146875500Y-96362315D01*
X146913080Y-96551243D01*
X146968401Y-96684800D01*
X146968400Y-97602279D01*
X146831260Y-97575000D01*
X146538740Y-97575000D01*
X146251842Y-97632068D01*
X146103372Y-97693566D01*
X146075920Y-97555557D01*
X146002204Y-97377590D01*
X145895185Y-97217425D01*
X145758975Y-97081215D01*
X145598810Y-96974196D01*
X145465255Y-96918876D01*
X142566334Y-94019956D01*
X142538617Y-93986183D01*
X142403859Y-93875589D01*
X142250113Y-93793411D01*
X142083290Y-93742805D01*
X142045789Y-93739112D01*
X141890237Y-93674680D01*
X141701309Y-93637100D01*
X141508679Y-93637100D01*
X141319751Y-93674680D01*
X141141784Y-93748396D01*
X140981619Y-93855415D01*
X140845409Y-93991625D01*
X140738390Y-94151790D01*
X140664674Y-94329757D01*
X140627094Y-94518685D01*
X140627094Y-94711315D01*
X140664674Y-94900243D01*
X140738390Y-95078210D01*
X140845409Y-95238375D01*
X140981619Y-95374585D01*
X141141784Y-95481604D01*
X141319751Y-95555320D01*
X141508679Y-95592900D01*
X141636122Y-95592900D01*
X142443471Y-96400250D01*
X142410477Y-96397000D01*
X142410469Y-96397000D01*
X142367000Y-96392719D01*
X142323531Y-96397000D01*
X139036464Y-96397000D01*
X138992997Y-96392719D01*
X138949531Y-96397000D01*
X138949521Y-96397000D01*
X138819508Y-96409805D01*
X138652685Y-96460411D01*
X138498939Y-96542589D01*
X138490496Y-96549518D01*
X138397951Y-96625468D01*
X138397949Y-96625470D01*
X138364181Y-96653183D01*
X138336468Y-96686951D01*
X137258983Y-97764437D01*
X137228411Y-97744010D01*
X136958158Y-97632068D01*
X136671260Y-97575000D01*
X136378740Y-97575000D01*
X136306040Y-97589461D01*
X134888628Y-96172050D01*
X134860911Y-96138277D01*
X134726153Y-96027683D01*
X134572407Y-95945505D01*
X134405584Y-95894899D01*
X134275571Y-95882094D01*
X134275563Y-95882094D01*
X134232094Y-95877813D01*
X134188625Y-95882094D01*
X131931370Y-95882094D01*
X131887903Y-95877813D01*
X131844437Y-95882094D01*
X131844427Y-95882094D01*
X131714414Y-95894899D01*
X131547591Y-95945505D01*
X131393845Y-96027683D01*
X131375186Y-96042996D01*
X131292857Y-96110562D01*
X131292855Y-96110564D01*
X131259087Y-96138277D01*
X131231374Y-96172045D01*
X129971602Y-97431817D01*
X130074562Y-92198000D01*
X130797602Y-92198000D01*
X130931157Y-92253320D01*
X131120085Y-92290900D01*
X131312715Y-92290900D01*
X131501643Y-92253320D01*
X131679610Y-92179604D01*
X131839775Y-92072585D01*
X131975985Y-91936375D01*
X132083004Y-91776210D01*
X132156720Y-91598243D01*
X132194300Y-91409315D01*
X132194300Y-91216685D01*
X132156720Y-91027757D01*
X132083004Y-90849790D01*
X131975985Y-90689625D01*
X131839775Y-90553415D01*
X131679610Y-90446396D01*
X131501643Y-90372680D01*
X131312715Y-90335100D01*
X131120085Y-90335100D01*
X130931157Y-90372680D01*
X130797602Y-90428000D01*
X130079466Y-90428000D01*
X129985314Y-85987140D01*
X136922222Y-92924049D01*
G37*
X136922222Y-92924049D02*
X136949935Y-92957817D01*
X136983703Y-92985530D01*
X136983705Y-92985532D01*
X137046391Y-93036977D01*
X137084693Y-93068411D01*
X137238439Y-93150589D01*
X137405262Y-93201195D01*
X137535275Y-93214000D01*
X137535285Y-93214000D01*
X137578751Y-93218281D01*
X137622217Y-93214000D01*
X152287422Y-93214000D01*
X156656770Y-97583348D01*
X156411842Y-97632068D01*
X156141589Y-97744010D01*
X155898368Y-97906525D01*
X155691525Y-98113368D01*
X155575000Y-98287760D01*
X155458475Y-98113368D01*
X155251632Y-97906525D01*
X155008411Y-97744010D01*
X154738158Y-97632068D01*
X154451260Y-97575000D01*
X154158740Y-97575000D01*
X153871842Y-97632068D01*
X153601589Y-97744010D01*
X153358368Y-97906525D01*
X153151525Y-98113368D01*
X153035000Y-98287760D01*
X152918475Y-98113368D01*
X152711632Y-97906525D01*
X152468411Y-97744010D01*
X152198158Y-97632068D01*
X151911260Y-97575000D01*
X151618740Y-97575000D01*
X151331842Y-97632068D01*
X151061589Y-97744010D01*
X150818368Y-97906525D01*
X150611525Y-98113368D01*
X150495000Y-98287760D01*
X150378475Y-98113368D01*
X150171632Y-97906525D01*
X149928411Y-97744010D01*
X149658158Y-97632068D01*
X149371260Y-97575000D01*
X149078740Y-97575000D01*
X149006040Y-97589461D01*
X148738400Y-97321822D01*
X148738400Y-96684798D01*
X148793720Y-96551243D01*
X148831300Y-96362315D01*
X148831300Y-96169685D01*
X148793720Y-95980757D01*
X148720004Y-95802790D01*
X148612985Y-95642625D01*
X148476775Y-95506415D01*
X148316610Y-95399396D01*
X148138643Y-95325680D01*
X147949715Y-95288100D01*
X147757085Y-95288100D01*
X147568157Y-95325680D01*
X147390190Y-95399396D01*
X147230025Y-95506415D01*
X147093815Y-95642625D01*
X146986796Y-95802790D01*
X146913080Y-95980757D01*
X146875500Y-96169685D01*
X146875500Y-96362315D01*
X146913080Y-96551243D01*
X146968401Y-96684800D01*
X146968400Y-97602279D01*
X146831260Y-97575000D01*
X146538740Y-97575000D01*
X146251842Y-97632068D01*
X146103372Y-97693566D01*
X146075920Y-97555557D01*
X146002204Y-97377590D01*
X145895185Y-97217425D01*
X145758975Y-97081215D01*
X145598810Y-96974196D01*
X145465255Y-96918876D01*
X142566334Y-94019956D01*
X142538617Y-93986183D01*
X142403859Y-93875589D01*
X142250113Y-93793411D01*
X142083290Y-93742805D01*
X142045789Y-93739112D01*
X141890237Y-93674680D01*
X141701309Y-93637100D01*
X141508679Y-93637100D01*
X141319751Y-93674680D01*
X141141784Y-93748396D01*
X140981619Y-93855415D01*
X140845409Y-93991625D01*
X140738390Y-94151790D01*
X140664674Y-94329757D01*
X140627094Y-94518685D01*
X140627094Y-94711315D01*
X140664674Y-94900243D01*
X140738390Y-95078210D01*
X140845409Y-95238375D01*
X140981619Y-95374585D01*
X141141784Y-95481604D01*
X141319751Y-95555320D01*
X141508679Y-95592900D01*
X141636122Y-95592900D01*
X142443471Y-96400250D01*
X142410477Y-96397000D01*
X142410469Y-96397000D01*
X142367000Y-96392719D01*
X142323531Y-96397000D01*
X139036464Y-96397000D01*
X138992997Y-96392719D01*
X138949531Y-96397000D01*
X138949521Y-96397000D01*
X138819508Y-96409805D01*
X138652685Y-96460411D01*
X138498939Y-96542589D01*
X138490496Y-96549518D01*
X138397951Y-96625468D01*
X138397949Y-96625470D01*
X138364181Y-96653183D01*
X138336468Y-96686951D01*
X137258983Y-97764437D01*
X137228411Y-97744010D01*
X136958158Y-97632068D01*
X136671260Y-97575000D01*
X136378740Y-97575000D01*
X136306040Y-97589461D01*
X134888628Y-96172050D01*
X134860911Y-96138277D01*
X134726153Y-96027683D01*
X134572407Y-95945505D01*
X134405584Y-95894899D01*
X134275571Y-95882094D01*
X134275563Y-95882094D01*
X134232094Y-95877813D01*
X134188625Y-95882094D01*
X131931370Y-95882094D01*
X131887903Y-95877813D01*
X131844437Y-95882094D01*
X131844427Y-95882094D01*
X131714414Y-95894899D01*
X131547591Y-95945505D01*
X131393845Y-96027683D01*
X131375186Y-96042996D01*
X131292857Y-96110562D01*
X131292855Y-96110564D01*
X131259087Y-96138277D01*
X131231374Y-96172045D01*
X129971602Y-97431817D01*
X130074562Y-92198000D01*
X130797602Y-92198000D01*
X130931157Y-92253320D01*
X131120085Y-92290900D01*
X131312715Y-92290900D01*
X131501643Y-92253320D01*
X131679610Y-92179604D01*
X131839775Y-92072585D01*
X131975985Y-91936375D01*
X132083004Y-91776210D01*
X132156720Y-91598243D01*
X132194300Y-91409315D01*
X132194300Y-91216685D01*
X132156720Y-91027757D01*
X132083004Y-90849790D01*
X131975985Y-90689625D01*
X131839775Y-90553415D01*
X131679610Y-90446396D01*
X131501643Y-90372680D01*
X131312715Y-90335100D01*
X131120085Y-90335100D01*
X130931157Y-90372680D01*
X130797602Y-90428000D01*
X130079466Y-90428000D01*
X129985314Y-85987140D01*
X136922222Y-92924049D01*
G36*
X126481525Y-82226632D02*
G01*
X126663979Y-82409086D01*
X126492000Y-82499845D01*
X126492000Y-83693000D01*
X126512000Y-83693000D01*
X126512000Y-83947000D01*
X126492000Y-83947000D01*
X126492000Y-85140155D01*
X126721890Y-85261476D01*
X126750000Y-85252950D01*
X126750000Y-86773731D01*
X126745719Y-86817200D01*
X126750000Y-86860669D01*
X126750000Y-86860676D01*
X126760851Y-86970848D01*
X126762805Y-86990690D01*
X126776368Y-87035401D01*
X126813411Y-87157512D01*
X126895589Y-87311258D01*
X127006183Y-87446017D01*
X127039956Y-87473734D01*
X127334201Y-87767979D01*
X127334200Y-88406421D01*
X126760551Y-88980071D01*
X126726784Y-89007783D01*
X126699071Y-89041551D01*
X126699068Y-89041554D01*
X126616190Y-89142541D01*
X126534012Y-89296287D01*
X126483405Y-89463110D01*
X126480077Y-89496900D01*
X126414775Y-89496900D01*
X126225847Y-89534480D01*
X126047880Y-89608196D01*
X125980000Y-89653552D01*
X125980000Y-85252950D01*
X126008110Y-85261476D01*
X126238000Y-85140155D01*
X126238000Y-83947000D01*
X126218000Y-83947000D01*
X126218000Y-83693000D01*
X126238000Y-83693000D01*
X126238000Y-82499845D01*
X126066021Y-82409086D01*
X126248475Y-82226632D01*
X126365000Y-82052240D01*
X126481525Y-82226632D01*
G37*
X126481525Y-82226632D02*
X126663979Y-82409086D01*
X126492000Y-82499845D01*
X126492000Y-83693000D01*
X126512000Y-83693000D01*
X126512000Y-83947000D01*
X126492000Y-83947000D01*
X126492000Y-85140155D01*
X126721890Y-85261476D01*
X126750000Y-85252950D01*
X126750000Y-86773731D01*
X126745719Y-86817200D01*
X126750000Y-86860669D01*
X126750000Y-86860676D01*
X126760851Y-86970848D01*
X126762805Y-86990690D01*
X126776368Y-87035401D01*
X126813411Y-87157512D01*
X126895589Y-87311258D01*
X127006183Y-87446017D01*
X127039956Y-87473734D01*
X127334201Y-87767979D01*
X127334200Y-88406421D01*
X126760551Y-88980071D01*
X126726784Y-89007783D01*
X126699071Y-89041551D01*
X126699068Y-89041554D01*
X126616190Y-89142541D01*
X126534012Y-89296287D01*
X126483405Y-89463110D01*
X126480077Y-89496900D01*
X126414775Y-89496900D01*
X126225847Y-89534480D01*
X126047880Y-89608196D01*
X125980000Y-89653552D01*
X125980000Y-85252950D01*
X126008110Y-85261476D01*
X126238000Y-85140155D01*
X126238000Y-83947000D01*
X126218000Y-83947000D01*
X126218000Y-83693000D01*
X126238000Y-83693000D01*
X126238000Y-82499845D01*
X126066021Y-82409086D01*
X126248475Y-82226632D01*
X126365000Y-82052240D01*
X126481525Y-82226632D01*
G36*
X155691525Y-84766632D02*
G01*
X155898368Y-84973475D01*
X156141589Y-85135990D01*
X156411842Y-85247932D01*
X156698740Y-85305000D01*
X156991260Y-85305000D01*
X157278158Y-85247932D01*
X157548411Y-85135990D01*
X157718443Y-85022378D01*
X156630822Y-86110000D01*
X136256579Y-86110000D01*
X136140000Y-85993422D01*
X136140000Y-85257511D01*
X136378740Y-85305000D01*
X136671260Y-85305000D01*
X136958158Y-85247932D01*
X137228411Y-85135990D01*
X137471632Y-84973475D01*
X137678475Y-84766632D01*
X137795000Y-84592240D01*
X137911525Y-84766632D01*
X138118368Y-84973475D01*
X138361589Y-85135990D01*
X138631842Y-85247932D01*
X138918740Y-85305000D01*
X139211260Y-85305000D01*
X139498158Y-85247932D01*
X139768411Y-85135990D01*
X140011632Y-84973475D01*
X140218475Y-84766632D01*
X140335000Y-84592240D01*
X140451525Y-84766632D01*
X140658368Y-84973475D01*
X140901589Y-85135990D01*
X141171842Y-85247932D01*
X141458740Y-85305000D01*
X141751260Y-85305000D01*
X142038158Y-85247932D01*
X142308411Y-85135990D01*
X142551632Y-84973475D01*
X142758475Y-84766632D01*
X142875000Y-84592240D01*
X142991525Y-84766632D01*
X143198368Y-84973475D01*
X143441589Y-85135990D01*
X143711842Y-85247932D01*
X143998740Y-85305000D01*
X144291260Y-85305000D01*
X144578158Y-85247932D01*
X144848411Y-85135990D01*
X145091632Y-84973475D01*
X145298475Y-84766632D01*
X145415000Y-84592240D01*
X145531525Y-84766632D01*
X145738368Y-84973475D01*
X145981589Y-85135990D01*
X146251842Y-85247932D01*
X146538740Y-85305000D01*
X146831260Y-85305000D01*
X147118158Y-85247932D01*
X147388411Y-85135990D01*
X147631632Y-84973475D01*
X147838475Y-84766632D01*
X147955000Y-84592240D01*
X148071525Y-84766632D01*
X148278368Y-84973475D01*
X148521589Y-85135990D01*
X148791842Y-85247932D01*
X149078740Y-85305000D01*
X149371260Y-85305000D01*
X149658158Y-85247932D01*
X149928411Y-85135990D01*
X150171632Y-84973475D01*
X150378475Y-84766632D01*
X150495000Y-84592240D01*
X150611525Y-84766632D01*
X150818368Y-84973475D01*
X151061589Y-85135990D01*
X151331842Y-85247932D01*
X151618740Y-85305000D01*
X151911260Y-85305000D01*
X152198158Y-85247932D01*
X152468411Y-85135990D01*
X152711632Y-84973475D01*
X152918475Y-84766632D01*
X153035000Y-84592240D01*
X153151525Y-84766632D01*
X153358368Y-84973475D01*
X153601589Y-85135990D01*
X153871842Y-85247932D01*
X154158740Y-85305000D01*
X154451260Y-85305000D01*
X154738158Y-85247932D01*
X155008411Y-85135990D01*
X155251632Y-84973475D01*
X155458475Y-84766632D01*
X155575000Y-84592240D01*
X155691525Y-84766632D01*
G37*
X155691525Y-84766632D02*
X155898368Y-84973475D01*
X156141589Y-85135990D01*
X156411842Y-85247932D01*
X156698740Y-85305000D01*
X156991260Y-85305000D01*
X157278158Y-85247932D01*
X157548411Y-85135990D01*
X157718443Y-85022378D01*
X156630822Y-86110000D01*
X136256579Y-86110000D01*
X136140000Y-85993422D01*
X136140000Y-85257511D01*
X136378740Y-85305000D01*
X136671260Y-85305000D01*
X136958158Y-85247932D01*
X137228411Y-85135990D01*
X137471632Y-84973475D01*
X137678475Y-84766632D01*
X137795000Y-84592240D01*
X137911525Y-84766632D01*
X138118368Y-84973475D01*
X138361589Y-85135990D01*
X138631842Y-85247932D01*
X138918740Y-85305000D01*
X139211260Y-85305000D01*
X139498158Y-85247932D01*
X139768411Y-85135990D01*
X140011632Y-84973475D01*
X140218475Y-84766632D01*
X140335000Y-84592240D01*
X140451525Y-84766632D01*
X140658368Y-84973475D01*
X140901589Y-85135990D01*
X141171842Y-85247932D01*
X141458740Y-85305000D01*
X141751260Y-85305000D01*
X142038158Y-85247932D01*
X142308411Y-85135990D01*
X142551632Y-84973475D01*
X142758475Y-84766632D01*
X142875000Y-84592240D01*
X142991525Y-84766632D01*
X143198368Y-84973475D01*
X143441589Y-85135990D01*
X143711842Y-85247932D01*
X143998740Y-85305000D01*
X144291260Y-85305000D01*
X144578158Y-85247932D01*
X144848411Y-85135990D01*
X145091632Y-84973475D01*
X145298475Y-84766632D01*
X145415000Y-84592240D01*
X145531525Y-84766632D01*
X145738368Y-84973475D01*
X145981589Y-85135990D01*
X146251842Y-85247932D01*
X146538740Y-85305000D01*
X146831260Y-85305000D01*
X147118158Y-85247932D01*
X147388411Y-85135990D01*
X147631632Y-84973475D01*
X147838475Y-84766632D01*
X147955000Y-84592240D01*
X148071525Y-84766632D01*
X148278368Y-84973475D01*
X148521589Y-85135990D01*
X148791842Y-85247932D01*
X149078740Y-85305000D01*
X149371260Y-85305000D01*
X149658158Y-85247932D01*
X149928411Y-85135990D01*
X150171632Y-84973475D01*
X150378475Y-84766632D01*
X150495000Y-84592240D01*
X150611525Y-84766632D01*
X150818368Y-84973475D01*
X151061589Y-85135990D01*
X151331842Y-85247932D01*
X151618740Y-85305000D01*
X151911260Y-85305000D01*
X152198158Y-85247932D01*
X152468411Y-85135990D01*
X152711632Y-84973475D01*
X152918475Y-84766632D01*
X153035000Y-84592240D01*
X153151525Y-84766632D01*
X153358368Y-84973475D01*
X153601589Y-85135990D01*
X153871842Y-85247932D01*
X154158740Y-85305000D01*
X154451260Y-85305000D01*
X154738158Y-85247932D01*
X155008411Y-85135990D01*
X155251632Y-84973475D01*
X155458475Y-84766632D01*
X155575000Y-84592240D01*
X155691525Y-84766632D01*
G36*
X153162000Y-81153000D02*
G01*
X153182000Y-81153000D01*
X153182000Y-81407000D01*
X153162000Y-81407000D01*
X153162000Y-82600155D01*
X153333979Y-82690914D01*
X153151525Y-82873368D01*
X153035000Y-83047760D01*
X152918475Y-82873368D01*
X152736021Y-82690914D01*
X152908000Y-82600155D01*
X152908000Y-81407000D01*
X152888000Y-81407000D01*
X152888000Y-81153000D01*
X152908000Y-81153000D01*
X152908000Y-81133000D01*
X153162000Y-81133000D01*
X153162000Y-81153000D01*
G37*
X153162000Y-81153000D02*
X153182000Y-81153000D01*
X153182000Y-81407000D01*
X153162000Y-81407000D01*
X153162000Y-82600155D01*
X153333979Y-82690914D01*
X153151525Y-82873368D01*
X153035000Y-83047760D01*
X152918475Y-82873368D01*
X152736021Y-82690914D01*
X152908000Y-82600155D01*
X152908000Y-81407000D01*
X152888000Y-81407000D01*
X152888000Y-81153000D01*
X152908000Y-81153000D01*
X152908000Y-81133000D01*
X153162000Y-81133000D01*
X153162000Y-81153000D01*
M02*
